0
SECTION
2
HEADER
9
$PDMODE
70
33
9
$PDSIZE
40
1.000
9
$EXTMIN
10
-297.266
20
-12.500
30
-1.000
9
$EXTMAX
10
3269.926
20
137.500
30
1.000
9
$LIMMIN
10
-297.266
20
-12.500
9
$LIMMAX
10
3269.926
20
137.500
0
ENDSEC
0
SECTION
2
TABLES
0
TABLE
2
LAYER
70
7
0
LAYER
2
SCRIBE
70
0
62
3
6
CONTINUOUS
0
LAYER
2
TEXT
70
0
62
7
6
CONTINUOUS
0
LAYER
2
CUT
70
0
62
7
6
CONTINUOUS
0
LAYER
2
14
70
0
62
7
6
CONTINUOUS
0
ENDTAB
0
TABLE
2
VPORT
70
4
0
VPORT
2
*ACTIVE
70
0
10
0.000000
20
0.000000
11
1.000000
21
1.000000
12
1486.330000
22
62.500000
13
0.000000
23
0.000000
14
1.000000
24
1.000000
15
1.000000
25
1.000000
16
0.000000
26
0.000000
36
1.000000
17
0.000000
27
0.000000
37
0.000000
40
2972.660000
41
1.500000
42
50.000000
43
0.000000
44
0.000000
50
0.000000
51
0.000000
71
0
72
100
73
1
74
1
75
0
76
0
77
0
78
0
0
ENDTAB
0
ENDSEC
0
SECTION
2
ENTITIES
0
TEXT
8
SCRIBE
62
3
10
30.000
20
30.000
30
0.000
40
10.000
1
IF389
0
TEXT
8
TEXT
62
7
10
30.000
20
15.000
30
0.000
40
10.000
1
PLT5+S355JR+1
0
POLYLINE
8
CUT
6
CONTINUOUS
62
7
66
1
10
0.000
20
0.000
30
0.000
70
1
0
VERTEX
8
CUT
10
0.000
20
0.000
30
0.000
42
0.00000000
0
VERTEX
8
CUT
10
19.880
20
125.000
30
0.000
42
0.00000000
0
VERTEX
8
CUT
10
2952.780
20
125.000
30
0.000
42
0.00000000
0
VERTEX
8
CUT
10
2972.660
20
0.000
30
0.000
42
0.00000000
0
SEQEND
0
POLYLINE
8
14
6
CONTINUOUS
62
7
66
1
10
0.000
20
0.000
30
0.000
70
1
0
VERTEX
8
14
10
494.810
20
44.500
30
0.000
42
1.00000000
0
VERTEX
8
14
10
494.810
20
30.500
30
0.000
42
1.00000000
0
SEQEND
0
LINE
8
14
6
CONTINUOUS
62
7
39
1.000
10
487.810
20
37.500
30
0.000
11
501.810
21
37.500
31
0.000
0
LINE
8
14
6
CONTINUOUS
62
7
39
1.000
10
494.810
20
30.500
30
0.000
11
494.810
21
44.500
31
0.000
0
POLYLINE
8
14
6
CONTINUOUS
62
7
66
1
10
0.000
20
0.000
30
0.000
70
1
0
VERTEX
8
14
10
494.810
20
94.500
30
0.000
42
1.00000000
0
VERTEX
8
14
10
494.810
20
80.500
30
0.000
42
1.00000000
0
SEQEND
0
LINE
8
14
6
CONTINUOUS
62
7
39
1.000
10
487.810
20
87.500
30
0.000
11
501.810
21
87.500
31
0.000
0
LINE
8
14
6
CONTINUOUS
62
7
39
1.000
10
494.810
20
80.500
30
0.000
11
494.810
21
94.500
31
0.000
0
POLYLINE
8
14
6
CONTINUOUS
62
7
66
1
10
0.000
20
0.000
30
0.000
70
1
0
VERTEX
8
14
10
554.810
20
44.500
30
0.000
42
1.00000000
0
VERTEX
8
14
10
554.810
20
30.500
30
0.000
42
1.00000000
0
SEQEND
0
LINE
8
14
6
CONTINUOUS
62
7
39
1.000
10
547.810
20
37.500
30
0.000
11
561.810
21
37.500
31
0.000
0
LINE
8
14
6
CONTINUOUS
62
7
39
1.000
10
554.810
20
30.500
30
0.000
11
554.810
21
44.500
31
0.000
0
POLYLINE
8
14
6
CONTINUOUS
62
7
66
1
10
0.000
20
0.000
30
0.000
70
1
0
VERTEX
8
14
10
554.810
20
94.500
30
0.000
42
1.00000000
0
VERTEX
8
14
10
554.810
20
80.500
30
0.000
42
1.00000000
0
SEQEND
0
LINE
8
14
6
CONTINUOUS
62
7
39
1.000
10
547.810
20
87.500
30
0.000
11
561.810
21
87.500
31
0.000
0
LINE
8
14
6
CONTINUOUS
62
7
39
1.000
10
554.810
20
80.500
30
0.000
11
554.810
21
94.500
31
0.000
0
POLYLINE
8
14
6
CONTINUOUS
62
7
66
1
10
0.000
20
0.000
30
0.000
70
1
0
VERTEX
8
14
10
1694.970
20
44.500
30
0.000
42
1.00000000
0
VERTEX
8
14
10
1694.970
20
30.500
30
0.000
42
1.00000000
0
SEQEND
0
LINE
8
14
6
CONTINUOUS
62
7
39
1.000
10
1687.970
20
37.500
30
0.000
11
1701.970
21
37.500
31
0.000
0
LINE
8
14
6
CONTINUOUS
62
7
39
1.000
10
1694.970
20
30.500
30
0.000
11
1694.970
21
44.500
31
0.000
0
POLYLINE
8
14
6
CONTINUOUS
62
7
66
1
10
0.000
20
0.000
30
0.000
70
1
0
VERTEX
8
14
10
1694.970
20
94.500
30
0.000
42
1.00000000
0
VERTEX
8
14
10
1694.970
20
80.500
30
0.000
42
1.00000000
0
SEQEND
0
LINE
8
14
6
CONTINUOUS
62
7
39
1.000
10
1687.970
20
87.500
30
0.000
11
1701.970
21
87.500
31
0.000
0
LINE
8
14
6
CONTINUOUS
62
7
39
1.000
10
1694.970
20
80.500
30
0.000
11
1694.970
21
94.500
31
0.000
0
POLYLINE
8
14
6
CONTINUOUS
62
7
66
1
10
0.000
20
0.000
30
0.000
70
1
0
VERTEX
8
14
10
1754.970
20
44.500
30
0.000
42
1.00000000
0
VERTEX
8
14
10
1754.970
20
30.500
30
0.000
42
1.00000000
0
SEQEND
0
LINE
8
14
6
CONTINUOUS
62
7
39
1.000
10
1747.970
20
37.500
30
0.000
11
1761.970
21
37.500
31
0.000
0
LINE
8
14
6
CONTINUOUS
62
7
39
1.000
10
1754.970
20
30.500
30
0.000
11
1754.970
21
44.500
31
0.000
0
POLYLINE
8
14
6
CONTINUOUS
62
7
66
1
10
0.000
20
0.000
30
0.000
70
1
0
VERTEX
8
14
10
1754.970
20
94.500
30
0.000
42
1.00000000
0
VERTEX
8
14
10
1754.970
20
80.500
30
0.000
42
1.00000000
0
SEQEND
0
LINE
8
14
6
CONTINUOUS
62
7
39
1.000
10
1747.970
20
87.500
30
0.000
11
1761.970
21
87.500
31
0.000
0
LINE
8
14
6
CONTINUOUS
62
7
39
1.000
10
1754.970
20
80.500
30
0.000
11
1754.970
21
94.500
31
0.000
0
ENDSEC
0
EOF
