0
SECTION
2
HEADER
9
$PDMODE
70
33
9
$PDSIZE
40
1.000
9
$EXTMIN
10
-23.000
20
-17.000
30
-1.000
9
$EXTMAX
10
253.000
20
187.000
30
1.000
9
$LIMMIN
10
-23.000
20
-17.000
9
$LIMMAX
10
253.000
20
187.000
0
ENDSEC
0
SECTION
2
TABLES
0
TABLE
2
LAYER
70
7
0
LAYER
2
SCRIBE
70
0
62
3
6
CONTINUOUS
0
LAYER
2
TEXT
70
0
62
7
6
CONTINUOUS
0
LAYER
2
CUT
70
0
62
7
6
CONTINUOUS
0
LAYER
2
14
70
0
62
7
6
CONTINUOUS
0
ENDTAB
0
TABLE
2
VPORT
70
4
0
VPORT
2
*ACTIVE
70
0
10
0.000000
20
0.000000
11
1.000000
21
1.000000
12
115.000000
22
85.000000
13
0.000000
23
0.000000
14
1.000000
24
1.000000
15
1.000000
25
1.000000
16
0.000000
26
0.000000
36
1.000000
17
0.000000
27
0.000000
37
0.000000
40
230.000000
41
1.500000
42
50.000000
43
0.000000
44
0.000000
50
0.000000
51
0.000000
71
0
72
100
73
1
74
1
75
0
76
0
77
0
78
0
0
ENDTAB
0
ENDSEC
0
SECTION
2
ENTITIES
0
TEXT
8
SCRIBE
62
3
10
30.000
20
30.000
30
0.000
40
10.000
1
PL523
0
TEXT
8
TEXT
62
7
10
30.000
20
15.000
30
0.000
40
10.000
1
PL5+S355JR+231
0
POLYLINE
8
CUT
6
CONTINUOUS
62
7
66
1
10
0.000
20
0.000
30
0.000
70
1
0
VERTEX
8
CUT
10
0.000
20
0.000
30
0.000
42
0.00000000
0
VERTEX
8
CUT
10
0.000
20
170.000
30
0.000
42
0.00000000
0
VERTEX
8
CUT
10
230.000
20
170.000
30
0.000
42
0.00000000
0
VERTEX
8
CUT
10
230.000
20
0.000
30
0.000
42
0.00000000
0
SEQEND
0
POLYLINE
8
14
6
CONTINUOUS
62
7
66
1
10
0.000
20
0.000
30
0.000
70
1
0
VERTEX
8
14
10
29.740
20
42.000
30
0.000
42
1.00000000
0
VERTEX
8
14
10
29.740
20
28.000
30
0.000
42
1.00000000
0
SEQEND
0
LINE
8
14
6
CONTINUOUS
62
7
39
1.000
10
22.740
20
35.000
30
0.000
11
36.740
21
35.000
31
0.000
0
LINE
8
14
6
CONTINUOUS
62
7
39
1.000
10
29.740
20
28.000
30
0.000
11
29.740
21
42.000
31
0.000
0
POLYLINE
8
14
6
CONTINUOUS
62
7
66
1
10
0.000
20
0.000
30
0.000
70
1
0
VERTEX
8
14
10
29.740
20
92.000
30
0.000
42
1.00000000
0
VERTEX
8
14
10
29.740
20
78.000
30
0.000
42
1.00000000
0
SEQEND
0
LINE
8
14
6
CONTINUOUS
62
7
39
1.000
10
22.740
20
85.000
30
0.000
11
36.740
21
85.000
31
0.000
0
LINE
8
14
6
CONTINUOUS
62
7
39
1.000
10
29.740
20
78.000
30
0.000
11
29.740
21
92.000
31
0.000
0
POLYLINE
8
14
6
CONTINUOUS
62
7
66
1
10
0.000
20
0.000
30
0.000
70
1
0
VERTEX
8
14
10
29.740
20
142.000
30
0.000
42
1.00000000
0
VERTEX
8
14
10
29.740
20
128.000
30
0.000
42
1.00000000
0
SEQEND
0
LINE
8
14
6
CONTINUOUS
62
7
39
1.000
10
22.740
20
135.000
30
0.000
11
36.740
21
135.000
31
0.000
0
LINE
8
14
6
CONTINUOUS
62
7
39
1.000
10
29.740
20
128.000
30
0.000
11
29.740
21
142.000
31
0.000
0
POLYLINE
8
14
6
CONTINUOUS
62
7
66
1
10
0.000
20
0.000
30
0.000
70
1
0
VERTEX
8
14
10
129.740
20
42.000
30
0.000
42
1.00000000
0
VERTEX
8
14
10
129.740
20
28.000
30
0.000
42
1.00000000
0
SEQEND
0
LINE
8
14
6
CONTINUOUS
62
7
39
1.000
10
122.740
20
35.000
30
0.000
11
136.740
21
35.000
31
0.000
0
LINE
8
14
6
CONTINUOUS
62
7
39
1.000
10
129.740
20
28.000
30
0.000
11
129.740
21
42.000
31
0.000
0
POLYLINE
8
14
6
CONTINUOUS
62
7
66
1
10
0.000
20
0.000
30
0.000
70
1
0
VERTEX
8
14
10
129.740
20
92.000
30
0.000
42
1.00000000
0
VERTEX
8
14
10
129.740
20
78.000
30
0.000
42
1.00000000
0
SEQEND
0
LINE
8
14
6
CONTINUOUS
62
7
39
1.000
10
122.740
20
85.000
30
0.000
11
136.740
21
85.000
31
0.000
0
LINE
8
14
6
CONTINUOUS
62
7
39
1.000
10
129.740
20
78.000
30
0.000
11
129.740
21
92.000
31
0.000
0
POLYLINE
8
14
6
CONTINUOUS
62
7
66
1
10
0.000
20
0.000
30
0.000
70
1
0
VERTEX
8
14
10
129.740
20
142.000
30
0.000
42
1.00000000
0
VERTEX
8
14
10
129.740
20
128.000
30
0.000
42
1.00000000
0
SEQEND
0
LINE
8
14
6
CONTINUOUS
62
7
39
1.000
10
122.740
20
135.000
30
0.000
11
136.740
21
135.000
31
0.000
0
LINE
8
14
6
CONTINUOUS
62
7
39
1.000
10
129.740
20
128.000
30
0.000
11
129.740
21
142.000
31
0.000
0
ENDSEC
0
EOF
