0
SECTION
2
HEADER
9
$PDMODE
70
33
9
$PDSIZE
40
1.000
9
$EXTMIN
10
-46.500
20
-18.000
30
-1.000
9
$EXTMAX
10
511.500
20
198.000
30
1.000
9
$LIMMIN
10
-46.500
20
-18.000
9
$LIMMAX
10
511.500
20
198.000
0
ENDSEC
0
SECTION
2
TABLES
0
TABLE
2
LAYER
70
7
0
LAYER
2
SCRIBE
70
0
62
3
6
CONTINUOUS
0
LAYER
2
TEXT
70
0
62
7
6
CONTINUOUS
0
LAYER
2
CUT
70
0
62
7
6
CONTINUOUS
0
LAYER
2
LAYOUT
70
0
62
4
6
CONTINUOUS
0
LAYER
2
14
70
0
62
7
6
CONTINUOUS
0
ENDTAB
0
TABLE
2
VPORT
70
4
0
VPORT
2
*ACTIVE
70
0
10
0.000000
20
0.000000
11
1.000000
21
1.000000
12
232.500000
22
90.000000
13
0.000000
23
0.000000
14
1.000000
24
1.000000
15
1.000000
25
1.000000
16
0.000000
26
0.000000
36
1.000000
17
0.000000
27
0.000000
37
0.000000
40
465.000000
41
1.500000
42
50.000000
43
0.000000
44
0.000000
50
0.000000
51
0.000000
71
0
72
100
73
1
74
1
75
0
76
0
77
0
78
0
0
ENDTAB
0
ENDSEC
0
SECTION
2
ENTITIES
0
TEXT
8
SCRIBE
62
3
10
30.000
20
30.000
30
0.000
40
10.000
1
PL635
0
TEXT
8
TEXT
62
7
10
30.000
20
15.000
30
0.000
40
10.000
1
PL5+S355JR+1
0
POLYLINE
8
CUT
6
CONTINUOUS
62
7
66
1
10
0.000
20
0.000
30
0.000
70
1
0
VERTEX
8
CUT
10
0.000
20
0.000
30
0.000
42
0.00000000
0
VERTEX
8
CUT
10
0.000
20
180.000
30
0.000
42
0.00000000
0
VERTEX
8
CUT
10
465.000
20
180.000
30
0.000
42
0.00000000
0
VERTEX
8
CUT
10
465.000
20
0.000
30
0.000
42
0.00000000
0
SEQEND
0
POLYLINE
8
14
6
CONTINUOUS
62
7
66
1
10
0.000
20
0.000
30
0.000
70
1
0
VERTEX
8
14
10
25.020
20
56.990
30
0.000
42
1.00000000
0
VERTEX
8
14
10
25.020
20
42.990
30
0.000
42
1.00000000
0
SEQEND
0
LINE
8
14
6
CONTINUOUS
62
7
39
1.000
10
18.020
20
49.990
30
0.000
11
32.020
21
49.990
31
0.000
0
LINE
8
14
6
CONTINUOUS
62
7
39
1.000
10
25.020
20
42.990
30
0.000
11
25.020
21
56.990
31
0.000
0
POLYLINE
8
14
6
CONTINUOUS
62
7
66
1
10
0.000
20
0.000
30
0.000
70
1
0
VERTEX
8
14
10
25.020
20
156.990
30
0.000
42
1.00000000
0
VERTEX
8
14
10
25.020
20
142.990
30
0.000
42
1.00000000
0
SEQEND
0
LINE
8
14
6
CONTINUOUS
62
7
39
1.000
10
18.020
20
149.990
30
0.000
11
32.020
21
149.990
31
0.000
0
LINE
8
14
6
CONTINUOUS
62
7
39
1.000
10
25.020
20
142.990
30
0.000
11
25.020
21
156.990
31
0.000
0
POLYLINE
8
14
6
CONTINUOUS
62
7
66
1
10
0.000
20
0.000
30
0.000
70
1
0
VERTEX
8
14
10
75.020
20
56.990
30
0.000
42
1.00000000
0
VERTEX
8
14
10
75.020
20
42.990
30
0.000
42
1.00000000
0
SEQEND
0
LINE
8
14
6
CONTINUOUS
62
7
39
1.000
10
68.020
20
49.990
30
0.000
11
82.020
21
49.990
31
0.000
0
LINE
8
14
6
CONTINUOUS
62
7
39
1.000
10
75.020
20
42.990
30
0.000
11
75.020
21
56.990
31
0.000
0
POLYLINE
8
14
6
CONTINUOUS
62
7
66
1
10
0.000
20
0.000
30
0.000
70
1
0
VERTEX
8
14
10
75.020
20
156.990
30
0.000
42
1.00000000
0
VERTEX
8
14
10
75.020
20
142.990
30
0.000
42
1.00000000
0
SEQEND
0
LINE
8
14
6
CONTINUOUS
62
7
39
1.000
10
68.020
20
149.990
30
0.000
11
82.020
21
149.990
31
0.000
0
LINE
8
14
6
CONTINUOUS
62
7
39
1.000
10
75.020
20
142.990
30
0.000
11
75.020
21
156.990
31
0.000
0
POLYLINE
8
LAYOUT
6
CONTINUOUS
62
4
66
1
10
0.000
20
0.000
30
0.000
70
1
0
VERTEX
8
LAYOUT
10
267.020
20
18.000
30
0.000
42
-1.00000000
0
VERTEX
8
LAYOUT
10
267.020
20
32.000
30
0.000
42
0.00000000
0
VERTEX
8
LAYOUT
10
293.020
20
32.000
30
0.000
42
-1.00000000
0
VERTEX
8
LAYOUT
10
293.020
20
18.000
30
0.000
42
0.00000000
0
SEQEND
0
CIRCLE
8
14
6
CONTINUOUS
62
7
39
1.000
10
267.020
20
25.000
30
0.000
40
7.000
0
CIRCLE
8
14
6
CONTINUOUS
62
7
39
1.000
10
0.000
20
0.000
30
0.000
40
0.000
0
POLYLINE
8
LAYOUT
6
CONTINUOUS
62
4
66
1
10
0.000
20
0.000
30
0.000
70
1
0
VERTEX
8
LAYOUT
10
267.020
20
118.000
30
0.000
42
-1.00000000
0
VERTEX
8
LAYOUT
10
267.020
20
132.000
30
0.000
42
0.00000000
0
VERTEX
8
LAYOUT
10
293.020
20
132.000
30
0.000
42
-1.00000000
0
VERTEX
8
LAYOUT
10
293.020
20
118.000
30
0.000
42
0.00000000
0
SEQEND
0
CIRCLE
8
14
6
CONTINUOUS
62
7
39
1.000
10
267.020
20
125.000
30
0.000
40
7.000
0
CIRCLE
8
14
6
CONTINUOUS
62
7
39
1.000
10
0.000
20
0.000
30
0.000
40
0.000
0
POLYLINE
8
LAYOUT
6
CONTINUOUS
62
4
66
1
10
0.000
20
0.000
30
0.000
70
1
0
VERTEX
8
LAYOUT
10
337.020
20
18.000
30
0.000
42
-1.00000000
0
VERTEX
8
LAYOUT
10
337.020
20
32.000
30
0.000
42
0.00000000
0
VERTEX
8
LAYOUT
10
363.020
20
32.000
30
0.000
42
-1.00000000
0
VERTEX
8
LAYOUT
10
363.020
20
18.000
30
0.000
42
0.00000000
0
SEQEND
0
CIRCLE
8
14
6
CONTINUOUS
62
7
39
1.000
10
337.020
20
25.000
30
0.000
40
7.000
0
CIRCLE
8
14
6
CONTINUOUS
62
7
39
1.000
10
0.000
20
0.000
30
0.000
40
0.000
0
POLYLINE
8
LAYOUT
6
CONTINUOUS
62
4
66
1
10
0.000
20
0.000
30
0.000
70
1
0
VERTEX
8
LAYOUT
10
337.020
20
118.000
30
0.000
42
-1.00000000
0
VERTEX
8
LAYOUT
10
337.020
20
132.000
30
0.000
42
0.00000000
0
VERTEX
8
LAYOUT
10
363.020
20
132.000
30
0.000
42
-1.00000000
0
VERTEX
8
LAYOUT
10
363.020
20
118.000
30
0.000
42
0.00000000
0
SEQEND
0
CIRCLE
8
14
6
CONTINUOUS
62
7
39
1.000
10
337.020
20
125.000
30
0.000
40
7.000
0
CIRCLE
8
14
6
CONTINUOUS
62
7
39
1.000
10
0.000
20
0.000
30
0.000
40
0.000
0
POLYLINE
8
LAYOUT
6
CONTINUOUS
62
4
66
1
10
0.000
20
0.000
30
0.000
70
1
0
VERTEX
8
LAYOUT
10
407.020
20
18.000
30
0.000
42
-1.00000000
0
VERTEX
8
LAYOUT
10
407.020
20
32.000
30
0.000
42
0.00000000
0
VERTEX
8
LAYOUT
10
433.020
20
32.000
30
0.000
42
-1.00000000
0
VERTEX
8
LAYOUT
10
433.020
20
18.000
30
0.000
42
0.00000000
0
SEQEND
0
CIRCLE
8
14
6
CONTINUOUS
62
7
39
1.000
10
407.020
20
25.000
30
0.000
40
7.000
0
CIRCLE
8
14
6
CONTINUOUS
62
7
39
1.000
10
0.000
20
0.000
30
0.000
40
0.000
0
POLYLINE
8
LAYOUT
6
CONTINUOUS
62
4
66
1
10
0.000
20
0.000
30
0.000
70
1
0
VERTEX
8
LAYOUT
10
407.020
20
118.000
30
0.000
42
-1.00000000
0
VERTEX
8
LAYOUT
10
407.020
20
132.000
30
0.000
42
0.00000000
0
VERTEX
8
LAYOUT
10
433.020
20
132.000
30
0.000
42
-1.00000000
0
VERTEX
8
LAYOUT
10
433.020
20
118.000
30
0.000
42
0.00000000
0
SEQEND
0
CIRCLE
8
14
6
CONTINUOUS
62
7
39
1.000
10
407.020
20
125.000
30
0.000
40
7.000
0
CIRCLE
8
14
6
CONTINUOUS
62
7
39
1.000
10
0.000
20
0.000
30
0.000
40
0.000
0
ENDSEC
0
EOF
