0
SECTION
2
HEADER
9
$PDMODE
70
33
9
$PDSIZE
40
1.000
9
$EXTMIN
10
-569.000
20
-50.000
30
-1.000
9
$EXTMAX
10
6259.000
20
550.000
30
1.000
9
$LIMMIN
10
-569.000
20
-50.000
9
$LIMMAX
10
6259.000
20
550.000
0
ENDSEC
0
SECTION
2
TABLES
0
TABLE
2
LAYER
70
7
0
LAYER
2
SCRIBE
70
0
62
3
6
CONTINUOUS
0
LAYER
2
TEXT
70
0
62
7
6
CONTINUOUS
0
LAYER
2
CUT
70
0
62
7
6
CONTINUOUS
0
LAYER
2
30
70
0
62
7
6
CONTINUOUS
0
ENDTAB
0
TABLE
2
VPORT
70
4
0
VPORT
2
*ACTIVE
70
0
10
0.000000
20
0.000000
11
1.000000
21
1.000000
12
2845.000000
22
250.000000
13
0.000000
23
0.000000
14
1.000000
24
1.000000
15
1.000000
25
1.000000
16
0.000000
26
0.000000
36
1.000000
17
0.000000
27
0.000000
37
0.000000
40
5690.000000
41
1.500000
42
50.000000
43
0.000000
44
0.000000
50
0.000000
51
0.000000
71
0
72
100
73
1
74
1
75
0
76
0
77
0
78
0
0
ENDTAB
0
ENDSEC
0
SECTION
2
ENTITIES
0
TEXT
8
SCRIBE
62
3
10
30.000
20
30.000
30
0.000
40
10.000
1
OF208
0
TEXT
8
TEXT
62
7
10
30.000
20
15.000
30
0.000
40
10.000
1
PL25+S355JR+5
0
POLYLINE
8
CUT
6
CONTINUOUS
62
7
66
1
10
0.000
20
0.000
30
0.000
70
1
0
VERTEX
8
CUT
10
0.000
20
0.000
30
0.000
42
0.00000000
0
VERTEX
8
CUT
10
0.000
20
500.000
30
0.000
42
0.00000000
0
VERTEX
8
CUT
10
5690.000
20
500.000
30
0.000
42
0.00000000
0
VERTEX
8
CUT
10
5690.000
20
0.000
30
0.000
42
0.00000000
0
SEQEND
0
POLYLINE
8
30
6
CONTINUOUS
62
7
66
1
10
0.000
20
0.000
30
0.000
70
1
0
VERTEX
8
30
10
3304.340
20
206.000
30
0.000
42
1.00000000
0
VERTEX
8
30
10
3304.340
20
174.000
30
0.000
42
1.00000000
0
SEQEND
0
LINE
8
30
6
CONTINUOUS
62
7
39
1.000
10
3288.340
20
190.000
30
0.000
11
3320.340
21
190.000
31
0.000
0
LINE
8
30
6
CONTINUOUS
62
7
39
1.000
10
3304.340
20
174.000
30
0.000
11
3304.340
21
206.000
31
0.000
0
POLYLINE
8
30
6
CONTINUOUS
62
7
66
1
10
0.000
20
0.000
30
0.000
70
1
0
VERTEX
8
30
10
3304.340
20
326.000
30
0.000
42
1.00000000
0
VERTEX
8
30
10
3304.340
20
294.000
30
0.000
42
1.00000000
0
SEQEND
0
LINE
8
30
6
CONTINUOUS
62
7
39
1.000
10
3288.340
20
310.000
30
0.000
11
3320.340
21
310.000
31
0.000
0
LINE
8
30
6
CONTINUOUS
62
7
39
1.000
10
3304.340
20
294.000
30
0.000
11
3304.340
21
326.000
31
0.000
0
POLYLINE
8
30
6
CONTINUOUS
62
7
66
1
10
0.000
20
0.000
30
0.000
70
1
0
VERTEX
8
30
10
3444.340
20
206.000
30
0.000
42
1.00000000
0
VERTEX
8
30
10
3444.340
20
174.000
30
0.000
42
1.00000000
0
SEQEND
0
LINE
8
30
6
CONTINUOUS
62
7
39
1.000
10
3428.340
20
190.000
30
0.000
11
3460.340
21
190.000
31
0.000
0
LINE
8
30
6
CONTINUOUS
62
7
39
1.000
10
3444.340
20
174.000
30
0.000
11
3444.340
21
206.000
31
0.000
0
POLYLINE
8
30
6
CONTINUOUS
62
7
66
1
10
0.000
20
0.000
30
0.000
70
1
0
VERTEX
8
30
10
3444.340
20
326.000
30
0.000
42
1.00000000
0
VERTEX
8
30
10
3444.340
20
294.000
30
0.000
42
1.00000000
0
SEQEND
0
LINE
8
30
6
CONTINUOUS
62
7
39
1.000
10
3428.340
20
310.000
30
0.000
11
3460.340
21
310.000
31
0.000
0
LINE
8
30
6
CONTINUOUS
62
7
39
1.000
10
3444.340
20
294.000
30
0.000
11
3444.340
21
326.000
31
0.000
0
POLYLINE
8
30
6
CONTINUOUS
62
7
66
1
10
0.000
20
0.000
30
0.000
70
1
0
VERTEX
8
30
10
3564.340
20
206.000
30
0.000
42
1.00000000
0
VERTEX
8
30
10
3564.340
20
174.000
30
0.000
42
1.00000000
0
SEQEND
0
LINE
8
30
6
CONTINUOUS
62
7
39
1.000
10
3548.340
20
190.000
30
0.000
11
3580.340
21
190.000
31
0.000
0
LINE
8
30
6
CONTINUOUS
62
7
39
1.000
10
3564.340
20
174.000
30
0.000
11
3564.340
21
206.000
31
0.000
0
POLYLINE
8
30
6
CONTINUOUS
62
7
66
1
10
0.000
20
0.000
30
0.000
70
1
0
VERTEX
8
30
10
3564.340
20
326.000
30
0.000
42
1.00000000
0
VERTEX
8
30
10
3564.340
20
294.000
30
0.000
42
1.00000000
0
SEQEND
0
LINE
8
30
6
CONTINUOUS
62
7
39
1.000
10
3548.340
20
310.000
30
0.000
11
3580.340
21
310.000
31
0.000
0
LINE
8
30
6
CONTINUOUS
62
7
39
1.000
10
3564.340
20
294.000
30
0.000
11
3564.340
21
326.000
31
0.000
0
POLYLINE
8
30
6
CONTINUOUS
62
7
66
1
10
0.000
20
0.000
30
0.000
70
1
0
VERTEX
8
30
10
3684.340
20
206.000
30
0.000
42
1.00000000
0
VERTEX
8
30
10
3684.340
20
174.000
30
0.000
42
1.00000000
0
SEQEND
0
LINE
8
30
6
CONTINUOUS
62
7
39
1.000
10
3668.340
20
190.000
30
0.000
11
3700.340
21
190.000
31
0.000
0
LINE
8
30
6
CONTINUOUS
62
7
39
1.000
10
3684.340
20
174.000
30
0.000
11
3684.340
21
206.000
31
0.000
0
POLYLINE
8
30
6
CONTINUOUS
62
7
66
1
10
0.000
20
0.000
30
0.000
70
1
0
VERTEX
8
30
10
3684.340
20
326.000
30
0.000
42
1.00000000
0
VERTEX
8
30
10
3684.340
20
294.000
30
0.000
42
1.00000000
0
SEQEND
0
LINE
8
30
6
CONTINUOUS
62
7
39
1.000
10
3668.340
20
310.000
30
0.000
11
3700.340
21
310.000
31
0.000
0
LINE
8
30
6
CONTINUOUS
62
7
39
1.000
10
3684.340
20
294.000
30
0.000
11
3684.340
21
326.000
31
0.000
0
POLYLINE
8
30
6
CONTINUOUS
62
7
66
1
10
0.000
20
0.000
30
0.000
70
1
0
VERTEX
8
30
10
3843.610
20
206.000
30
0.000
42
1.00000000
0
VERTEX
8
30
10
3843.610
20
174.000
30
0.000
42
1.00000000
0
SEQEND
0
LINE
8
30
6
CONTINUOUS
62
7
39
1.000
10
3827.610
20
190.000
30
0.000
11
3859.610
21
190.000
31
0.000
0
LINE
8
30
6
CONTINUOUS
62
7
39
1.000
10
3843.610
20
174.000
30
0.000
11
3843.610
21
206.000
31
0.000
0
POLYLINE
8
30
6
CONTINUOUS
62
7
66
1
10
0.000
20
0.000
30
0.000
70
1
0
VERTEX
8
30
10
3843.610
20
326.000
30
0.000
42
1.00000000
0
VERTEX
8
30
10
3843.610
20
294.000
30
0.000
42
1.00000000
0
SEQEND
0
LINE
8
30
6
CONTINUOUS
62
7
39
1.000
10
3827.610
20
310.000
30
0.000
11
3859.610
21
310.000
31
0.000
0
LINE
8
30
6
CONTINUOUS
62
7
39
1.000
10
3843.610
20
294.000
30
0.000
11
3843.610
21
326.000
31
0.000
0
POLYLINE
8
30
6
CONTINUOUS
62
7
66
1
10
0.000
20
0.000
30
0.000
70
1
0
VERTEX
8
30
10
4002.950
20
206.000
30
0.000
42
1.00000000
0
VERTEX
8
30
10
4002.950
20
174.000
30
0.000
42
1.00000000
0
SEQEND
0
LINE
8
30
6
CONTINUOUS
62
7
39
1.000
10
3986.950
20
190.000
30
0.000
11
4018.950
21
190.000
31
0.000
0
LINE
8
30
6
CONTINUOUS
62
7
39
1.000
10
4002.950
20
174.000
30
0.000
11
4002.950
21
206.000
31
0.000
0
POLYLINE
8
30
6
CONTINUOUS
62
7
66
1
10
0.000
20
0.000
30
0.000
70
1
0
VERTEX
8
30
10
4002.950
20
326.000
30
0.000
42
1.00000000
0
VERTEX
8
30
10
4002.950
20
294.000
30
0.000
42
1.00000000
0
SEQEND
0
LINE
8
30
6
CONTINUOUS
62
7
39
1.000
10
3986.950
20
310.000
30
0.000
11
4018.950
21
310.000
31
0.000
0
LINE
8
30
6
CONTINUOUS
62
7
39
1.000
10
4002.950
20
294.000
30
0.000
11
4002.950
21
326.000
31
0.000
0
POLYLINE
8
30
6
CONTINUOUS
62
7
66
1
10
0.000
20
0.000
30
0.000
70
1
0
VERTEX
8
30
10
4122.950
20
206.000
30
0.000
42
1.00000000
0
VERTEX
8
30
10
4122.950
20
174.000
30
0.000
42
1.00000000
0
SEQEND
0
LINE
8
30
6
CONTINUOUS
62
7
39
1.000
10
4106.950
20
190.000
30
0.000
11
4138.950
21
190.000
31
0.000
0
LINE
8
30
6
CONTINUOUS
62
7
39
1.000
10
4122.950
20
174.000
30
0.000
11
4122.950
21
206.000
31
0.000
0
POLYLINE
8
30
6
CONTINUOUS
62
7
66
1
10
0.000
20
0.000
30
0.000
70
1
0
VERTEX
8
30
10
4122.950
20
326.000
30
0.000
42
1.00000000
0
VERTEX
8
30
10
4122.950
20
294.000
30
0.000
42
1.00000000
0
SEQEND
0
LINE
8
30
6
CONTINUOUS
62
7
39
1.000
10
4106.950
20
310.000
30
0.000
11
4138.950
21
310.000
31
0.000
0
LINE
8
30
6
CONTINUOUS
62
7
39
1.000
10
4122.950
20
294.000
30
0.000
11
4122.950
21
326.000
31
0.000
0
POLYLINE
8
30
6
CONTINUOUS
62
7
66
1
10
0.000
20
0.000
30
0.000
70
1
0
VERTEX
8
30
10
4242.950
20
206.000
30
0.000
42
1.00000000
0
VERTEX
8
30
10
4242.950
20
174.000
30
0.000
42
1.00000000
0
SEQEND
0
LINE
8
30
6
CONTINUOUS
62
7
39
1.000
10
4226.950
20
190.000
30
0.000
11
4258.950
21
190.000
31
0.000
0
LINE
8
30
6
CONTINUOUS
62
7
39
1.000
10
4242.950
20
174.000
30
0.000
11
4242.950
21
206.000
31
0.000
0
POLYLINE
8
30
6
CONTINUOUS
62
7
66
1
10
0.000
20
0.000
30
0.000
70
1
0
VERTEX
8
30
10
4242.950
20
326.000
30
0.000
42
1.00000000
0
VERTEX
8
30
10
4242.950
20
294.000
30
0.000
42
1.00000000
0
SEQEND
0
LINE
8
30
6
CONTINUOUS
62
7
39
1.000
10
4226.950
20
310.000
30
0.000
11
4258.950
21
310.000
31
0.000
0
LINE
8
30
6
CONTINUOUS
62
7
39
1.000
10
4242.950
20
294.000
30
0.000
11
4242.950
21
326.000
31
0.000
0
POLYLINE
8
30
6
CONTINUOUS
62
7
66
1
10
0.000
20
0.000
30
0.000
70
1
0
VERTEX
8
30
10
4382.950
20
206.000
30
0.000
42
1.00000000
0
VERTEX
8
30
10
4382.950
20
174.000
30
0.000
42
1.00000000
0
SEQEND
0
LINE
8
30
6
CONTINUOUS
62
7
39
1.000
10
4366.950
20
190.000
30
0.000
11
4398.950
21
190.000
31
0.000
0
LINE
8
30
6
CONTINUOUS
62
7
39
1.000
10
4382.950
20
174.000
30
0.000
11
4382.950
21
206.000
31
0.000
0
POLYLINE
8
30
6
CONTINUOUS
62
7
66
1
10
0.000
20
0.000
30
0.000
70
1
0
VERTEX
8
30
10
4382.950
20
326.000
30
0.000
42
1.00000000
0
VERTEX
8
30
10
4382.950
20
294.000
30
0.000
42
1.00000000
0
SEQEND
0
LINE
8
30
6
CONTINUOUS
62
7
39
1.000
10
4366.950
20
310.000
30
0.000
11
4398.950
21
310.000
31
0.000
0
LINE
8
30
6
CONTINUOUS
62
7
39
1.000
10
4382.950
20
294.000
30
0.000
11
4382.950
21
326.000
31
0.000
0
ENDSEC
0
EOF
