0
SECTION
2
HEADER
9
$PDMODE
70
33
9
$PDSIZE
40
1.000
9
$EXTMIN
10
-170.000
20
-45.000
30
-1.000
9
$EXTMAX
10
1870.000
20
495.000
30
1.000
9
$LIMMIN
10
-170.000
20
-45.000
9
$LIMMAX
10
1870.000
20
495.000
0
ENDSEC
0
SECTION
2
TABLES
0
TABLE
2
LAYER
70
7
0
LAYER
2
SCRIBE
70
0
62
3
6
CONTINUOUS
0
LAYER
2
TEXT
70
0
62
7
6
CONTINUOUS
0
LAYER
2
CUT
70
0
62
7
6
CONTINUOUS
0
LAYER
2
30
70
0
62
7
6
CONTINUOUS
0
ENDTAB
0
TABLE
2
VPORT
70
4
0
VPORT
2
*ACTIVE
70
0
10
0.000000
20
0.000000
11
1.000000
21
1.000000
12
850.000000
22
225.000000
13
0.000000
23
0.000000
14
1.000000
24
1.000000
15
1.000000
25
1.000000
16
0.000000
26
0.000000
36
1.000000
17
0.000000
27
0.000000
37
0.000000
40
1700.000000
41
1.500000
42
50.000000
43
0.000000
44
0.000000
50
0.000000
51
0.000000
71
0
72
100
73
1
74
1
75
0
76
0
77
0
78
0
0
ENDTAB
0
ENDSEC
0
SECTION
2
ENTITIES
0
TEXT
8
SCRIBE
62
3
10
30.000
20
30.000
30
0.000
40
10.000
1
PL104
0
TEXT
8
TEXT
62
7
10
30.000
20
15.000
30
0.000
40
10.000
1
PL25+S355JR+56
0
POLYLINE
8
CUT
6
CONTINUOUS
62
7
66
1
10
0.000
20
0.000
30
0.000
70
1
0
VERTEX
8
CUT
10
0.000
20
0.000
30
0.000
42
0.00000000
0
VERTEX
8
CUT
10
0.000
20
450.000
30
0.000
42
0.00000000
0
VERTEX
8
CUT
10
1700.000
20
450.000
30
0.000
42
0.00000000
0
VERTEX
8
CUT
10
1700.000
20
0.000
30
0.000
42
0.00000000
0
SEQEND
0
POLYLINE
8
30
6
CONTINUOUS
62
7
66
1
10
0.000
20
0.000
30
0.000
70
1
0
VERTEX
8
30
10
60.000
20
61.000
30
0.000
42
1.00000000
0
VERTEX
8
30
10
60.000
20
29.000
30
0.000
42
1.00000000
0
SEQEND
0
LINE
8
30
6
CONTINUOUS
62
7
39
1.000
10
44.000
20
45.000
30
0.000
11
76.000
21
45.000
31
0.000
0
LINE
8
30
6
CONTINUOUS
62
7
39
1.000
10
60.000
20
29.000
30
0.000
11
60.000
21
61.000
31
0.000
0
POLYLINE
8
30
6
CONTINUOUS
62
7
66
1
10
0.000
20
0.000
30
0.000
70
1
0
VERTEX
8
30
10
60.000
20
181.000
30
0.000
42
1.00000000
0
VERTEX
8
30
10
60.000
20
149.000
30
0.000
42
1.00000000
0
SEQEND
0
LINE
8
30
6
CONTINUOUS
62
7
39
1.000
10
44.000
20
165.000
30
0.000
11
76.000
21
165.000
31
0.000
0
LINE
8
30
6
CONTINUOUS
62
7
39
1.000
10
60.000
20
149.000
30
0.000
11
60.000
21
181.000
31
0.000
0
POLYLINE
8
30
6
CONTINUOUS
62
7
66
1
10
0.000
20
0.000
30
0.000
70
1
0
VERTEX
8
30
10
60.000
20
301.000
30
0.000
42
1.00000000
0
VERTEX
8
30
10
60.000
20
269.000
30
0.000
42
1.00000000
0
SEQEND
0
LINE
8
30
6
CONTINUOUS
62
7
39
1.000
10
44.000
20
285.000
30
0.000
11
76.000
21
285.000
31
0.000
0
LINE
8
30
6
CONTINUOUS
62
7
39
1.000
10
60.000
20
269.000
30
0.000
11
60.000
21
301.000
31
0.000
0
POLYLINE
8
30
6
CONTINUOUS
62
7
66
1
10
0.000
20
0.000
30
0.000
70
1
0
VERTEX
8
30
10
60.000
20
421.000
30
0.000
42
1.00000000
0
VERTEX
8
30
10
60.000
20
389.000
30
0.000
42
1.00000000
0
SEQEND
0
LINE
8
30
6
CONTINUOUS
62
7
39
1.000
10
44.000
20
405.000
30
0.000
11
76.000
21
405.000
31
0.000
0
LINE
8
30
6
CONTINUOUS
62
7
39
1.000
10
60.000
20
389.000
30
0.000
11
60.000
21
421.000
31
0.000
0
POLYLINE
8
30
6
CONTINUOUS
62
7
66
1
10
0.000
20
0.000
30
0.000
70
1
0
VERTEX
8
30
10
180.000
20
61.000
30
0.000
42
1.00000000
0
VERTEX
8
30
10
180.000
20
29.000
30
0.000
42
1.00000000
0
SEQEND
0
LINE
8
30
6
CONTINUOUS
62
7
39
1.000
10
164.000
20
45.000
30
0.000
11
196.000
21
45.000
31
0.000
0
LINE
8
30
6
CONTINUOUS
62
7
39
1.000
10
180.000
20
29.000
30
0.000
11
180.000
21
61.000
31
0.000
0
POLYLINE
8
30
6
CONTINUOUS
62
7
66
1
10
0.000
20
0.000
30
0.000
70
1
0
VERTEX
8
30
10
180.000
20
181.000
30
0.000
42
1.00000000
0
VERTEX
8
30
10
180.000
20
149.000
30
0.000
42
1.00000000
0
SEQEND
0
LINE
8
30
6
CONTINUOUS
62
7
39
1.000
10
164.000
20
165.000
30
0.000
11
196.000
21
165.000
31
0.000
0
LINE
8
30
6
CONTINUOUS
62
7
39
1.000
10
180.000
20
149.000
30
0.000
11
180.000
21
181.000
31
0.000
0
POLYLINE
8
30
6
CONTINUOUS
62
7
66
1
10
0.000
20
0.000
30
0.000
70
1
0
VERTEX
8
30
10
180.000
20
301.000
30
0.000
42
1.00000000
0
VERTEX
8
30
10
180.000
20
269.000
30
0.000
42
1.00000000
0
SEQEND
0
LINE
8
30
6
CONTINUOUS
62
7
39
1.000
10
164.000
20
285.000
30
0.000
11
196.000
21
285.000
31
0.000
0
LINE
8
30
6
CONTINUOUS
62
7
39
1.000
10
180.000
20
269.000
30
0.000
11
180.000
21
301.000
31
0.000
0
POLYLINE
8
30
6
CONTINUOUS
62
7
66
1
10
0.000
20
0.000
30
0.000
70
1
0
VERTEX
8
30
10
180.000
20
421.000
30
0.000
42
1.00000000
0
VERTEX
8
30
10
180.000
20
389.000
30
0.000
42
1.00000000
0
SEQEND
0
LINE
8
30
6
CONTINUOUS
62
7
39
1.000
10
164.000
20
405.000
30
0.000
11
196.000
21
405.000
31
0.000
0
LINE
8
30
6
CONTINUOUS
62
7
39
1.000
10
180.000
20
389.000
30
0.000
11
180.000
21
421.000
31
0.000
0
POLYLINE
8
30
6
CONTINUOUS
62
7
66
1
10
0.000
20
0.000
30
0.000
70
1
0
VERTEX
8
30
10
320.000
20
61.000
30
0.000
42
1.00000000
0
VERTEX
8
30
10
320.000
20
29.000
30
0.000
42
1.00000000
0
SEQEND
0
LINE
8
30
6
CONTINUOUS
62
7
39
1.000
10
304.000
20
45.000
30
0.000
11
336.000
21
45.000
31
0.000
0
LINE
8
30
6
CONTINUOUS
62
7
39
1.000
10
320.000
20
29.000
30
0.000
11
320.000
21
61.000
31
0.000
0
POLYLINE
8
30
6
CONTINUOUS
62
7
66
1
10
0.000
20
0.000
30
0.000
70
1
0
VERTEX
8
30
10
320.000
20
181.000
30
0.000
42
1.00000000
0
VERTEX
8
30
10
320.000
20
149.000
30
0.000
42
1.00000000
0
SEQEND
0
LINE
8
30
6
CONTINUOUS
62
7
39
1.000
10
304.000
20
165.000
30
0.000
11
336.000
21
165.000
31
0.000
0
LINE
8
30
6
CONTINUOUS
62
7
39
1.000
10
320.000
20
149.000
30
0.000
11
320.000
21
181.000
31
0.000
0
POLYLINE
8
30
6
CONTINUOUS
62
7
66
1
10
0.000
20
0.000
30
0.000
70
1
0
VERTEX
8
30
10
320.000
20
301.000
30
0.000
42
1.00000000
0
VERTEX
8
30
10
320.000
20
269.000
30
0.000
42
1.00000000
0
SEQEND
0
LINE
8
30
6
CONTINUOUS
62
7
39
1.000
10
304.000
20
285.000
30
0.000
11
336.000
21
285.000
31
0.000
0
LINE
8
30
6
CONTINUOUS
62
7
39
1.000
10
320.000
20
269.000
30
0.000
11
320.000
21
301.000
31
0.000
0
POLYLINE
8
30
6
CONTINUOUS
62
7
66
1
10
0.000
20
0.000
30
0.000
70
1
0
VERTEX
8
30
10
320.000
20
421.000
30
0.000
42
1.00000000
0
VERTEX
8
30
10
320.000
20
389.000
30
0.000
42
1.00000000
0
SEQEND
0
LINE
8
30
6
CONTINUOUS
62
7
39
1.000
10
304.000
20
405.000
30
0.000
11
336.000
21
405.000
31
0.000
0
LINE
8
30
6
CONTINUOUS
62
7
39
1.000
10
320.000
20
389.000
30
0.000
11
320.000
21
421.000
31
0.000
0
POLYLINE
8
30
6
CONTINUOUS
62
7
66
1
10
0.000
20
0.000
30
0.000
70
1
0
VERTEX
8
30
10
440.000
20
61.000
30
0.000
42
1.00000000
0
VERTEX
8
30
10
440.000
20
29.000
30
0.000
42
1.00000000
0
SEQEND
0
LINE
8
30
6
CONTINUOUS
62
7
39
1.000
10
424.000
20
45.000
30
0.000
11
456.000
21
45.000
31
0.000
0
LINE
8
30
6
CONTINUOUS
62
7
39
1.000
10
440.000
20
29.000
30
0.000
11
440.000
21
61.000
31
0.000
0
POLYLINE
8
30
6
CONTINUOUS
62
7
66
1
10
0.000
20
0.000
30
0.000
70
1
0
VERTEX
8
30
10
440.000
20
181.000
30
0.000
42
1.00000000
0
VERTEX
8
30
10
440.000
20
149.000
30
0.000
42
1.00000000
0
SEQEND
0
LINE
8
30
6
CONTINUOUS
62
7
39
1.000
10
424.000
20
165.000
30
0.000
11
456.000
21
165.000
31
0.000
0
LINE
8
30
6
CONTINUOUS
62
7
39
1.000
10
440.000
20
149.000
30
0.000
11
440.000
21
181.000
31
0.000
0
POLYLINE
8
30
6
CONTINUOUS
62
7
66
1
10
0.000
20
0.000
30
0.000
70
1
0
VERTEX
8
30
10
440.000
20
301.000
30
0.000
42
1.00000000
0
VERTEX
8
30
10
440.000
20
269.000
30
0.000
42
1.00000000
0
SEQEND
0
LINE
8
30
6
CONTINUOUS
62
7
39
1.000
10
424.000
20
285.000
30
0.000
11
456.000
21
285.000
31
0.000
0
LINE
8
30
6
CONTINUOUS
62
7
39
1.000
10
440.000
20
269.000
30
0.000
11
440.000
21
301.000
31
0.000
0
POLYLINE
8
30
6
CONTINUOUS
62
7
66
1
10
0.000
20
0.000
30
0.000
70
1
0
VERTEX
8
30
10
440.000
20
421.000
30
0.000
42
1.00000000
0
VERTEX
8
30
10
440.000
20
389.000
30
0.000
42
1.00000000
0
SEQEND
0
LINE
8
30
6
CONTINUOUS
62
7
39
1.000
10
424.000
20
405.000
30
0.000
11
456.000
21
405.000
31
0.000
0
LINE
8
30
6
CONTINUOUS
62
7
39
1.000
10
440.000
20
389.000
30
0.000
11
440.000
21
421.000
31
0.000
0
POLYLINE
8
30
6
CONTINUOUS
62
7
66
1
10
0.000
20
0.000
30
0.000
70
1
0
VERTEX
8
30
10
560.000
20
61.000
30
0.000
42
1.00000000
0
VERTEX
8
30
10
560.000
20
29.000
30
0.000
42
1.00000000
0
SEQEND
0
LINE
8
30
6
CONTINUOUS
62
7
39
1.000
10
544.000
20
45.000
30
0.000
11
576.000
21
45.000
31
0.000
0
LINE
8
30
6
CONTINUOUS
62
7
39
1.000
10
560.000
20
29.000
30
0.000
11
560.000
21
61.000
31
0.000
0
POLYLINE
8
30
6
CONTINUOUS
62
7
66
1
10
0.000
20
0.000
30
0.000
70
1
0
VERTEX
8
30
10
560.000
20
181.000
30
0.000
42
1.00000000
0
VERTEX
8
30
10
560.000
20
149.000
30
0.000
42
1.00000000
0
SEQEND
0
LINE
8
30
6
CONTINUOUS
62
7
39
1.000
10
544.000
20
165.000
30
0.000
11
576.000
21
165.000
31
0.000
0
LINE
8
30
6
CONTINUOUS
62
7
39
1.000
10
560.000
20
149.000
30
0.000
11
560.000
21
181.000
31
0.000
0
POLYLINE
8
30
6
CONTINUOUS
62
7
66
1
10
0.000
20
0.000
30
0.000
70
1
0
VERTEX
8
30
10
560.000
20
301.000
30
0.000
42
1.00000000
0
VERTEX
8
30
10
560.000
20
269.000
30
0.000
42
1.00000000
0
SEQEND
0
LINE
8
30
6
CONTINUOUS
62
7
39
1.000
10
544.000
20
285.000
30
0.000
11
576.000
21
285.000
31
0.000
0
LINE
8
30
6
CONTINUOUS
62
7
39
1.000
10
560.000
20
269.000
30
0.000
11
560.000
21
301.000
31
0.000
0
POLYLINE
8
30
6
CONTINUOUS
62
7
66
1
10
0.000
20
0.000
30
0.000
70
1
0
VERTEX
8
30
10
560.000
20
421.000
30
0.000
42
1.00000000
0
VERTEX
8
30
10
560.000
20
389.000
30
0.000
42
1.00000000
0
SEQEND
0
LINE
8
30
6
CONTINUOUS
62
7
39
1.000
10
544.000
20
405.000
30
0.000
11
576.000
21
405.000
31
0.000
0
LINE
8
30
6
CONTINUOUS
62
7
39
1.000
10
560.000
20
389.000
30
0.000
11
560.000
21
421.000
31
0.000
0
POLYLINE
8
30
6
CONTINUOUS
62
7
66
1
10
0.000
20
0.000
30
0.000
70
1
0
VERTEX
8
30
10
680.000
20
61.000
30
0.000
42
1.00000000
0
VERTEX
8
30
10
680.000
20
29.000
30
0.000
42
1.00000000
0
SEQEND
0
LINE
8
30
6
CONTINUOUS
62
7
39
1.000
10
664.000
20
45.000
30
0.000
11
696.000
21
45.000
31
0.000
0
LINE
8
30
6
CONTINUOUS
62
7
39
1.000
10
680.000
20
29.000
30
0.000
11
680.000
21
61.000
31
0.000
0
POLYLINE
8
30
6
CONTINUOUS
62
7
66
1
10
0.000
20
0.000
30
0.000
70
1
0
VERTEX
8
30
10
680.000
20
181.000
30
0.000
42
1.00000000
0
VERTEX
8
30
10
680.000
20
149.000
30
0.000
42
1.00000000
0
SEQEND
0
LINE
8
30
6
CONTINUOUS
62
7
39
1.000
10
664.000
20
165.000
30
0.000
11
696.000
21
165.000
31
0.000
0
LINE
8
30
6
CONTINUOUS
62
7
39
1.000
10
680.000
20
149.000
30
0.000
11
680.000
21
181.000
31
0.000
0
POLYLINE
8
30
6
CONTINUOUS
62
7
66
1
10
0.000
20
0.000
30
0.000
70
1
0
VERTEX
8
30
10
680.000
20
301.000
30
0.000
42
1.00000000
0
VERTEX
8
30
10
680.000
20
269.000
30
0.000
42
1.00000000
0
SEQEND
0
LINE
8
30
6
CONTINUOUS
62
7
39
1.000
10
664.000
20
285.000
30
0.000
11
696.000
21
285.000
31
0.000
0
LINE
8
30
6
CONTINUOUS
62
7
39
1.000
10
680.000
20
269.000
30
0.000
11
680.000
21
301.000
31
0.000
0
POLYLINE
8
30
6
CONTINUOUS
62
7
66
1
10
0.000
20
0.000
30
0.000
70
1
0
VERTEX
8
30
10
680.000
20
421.000
30
0.000
42
1.00000000
0
VERTEX
8
30
10
680.000
20
389.000
30
0.000
42
1.00000000
0
SEQEND
0
LINE
8
30
6
CONTINUOUS
62
7
39
1.000
10
664.000
20
405.000
30
0.000
11
696.000
21
405.000
31
0.000
0
LINE
8
30
6
CONTINUOUS
62
7
39
1.000
10
680.000
20
389.000
30
0.000
11
680.000
21
421.000
31
0.000
0
POLYLINE
8
30
6
CONTINUOUS
62
7
66
1
10
0.000
20
0.000
30
0.000
70
1
0
VERTEX
8
30
10
850.000
20
61.000
30
0.000
42
1.00000000
0
VERTEX
8
30
10
850.000
20
29.000
30
0.000
42
1.00000000
0
SEQEND
0
LINE
8
30
6
CONTINUOUS
62
7
39
1.000
10
834.000
20
45.000
30
0.000
11
866.000
21
45.000
31
0.000
0
LINE
8
30
6
CONTINUOUS
62
7
39
1.000
10
850.000
20
29.000
30
0.000
11
850.000
21
61.000
31
0.000
0
POLYLINE
8
30
6
CONTINUOUS
62
7
66
1
10
0.000
20
0.000
30
0.000
70
1
0
VERTEX
8
30
10
850.000
20
181.000
30
0.000
42
1.00000000
0
VERTEX
8
30
10
850.000
20
149.000
30
0.000
42
1.00000000
0
SEQEND
0
LINE
8
30
6
CONTINUOUS
62
7
39
1.000
10
834.000
20
165.000
30
0.000
11
866.000
21
165.000
31
0.000
0
LINE
8
30
6
CONTINUOUS
62
7
39
1.000
10
850.000
20
149.000
30
0.000
11
850.000
21
181.000
31
0.000
0
POLYLINE
8
30
6
CONTINUOUS
62
7
66
1
10
0.000
20
0.000
30
0.000
70
1
0
VERTEX
8
30
10
850.000
20
301.000
30
0.000
42
1.00000000
0
VERTEX
8
30
10
850.000
20
269.000
30
0.000
42
1.00000000
0
SEQEND
0
LINE
8
30
6
CONTINUOUS
62
7
39
1.000
10
834.000
20
285.000
30
0.000
11
866.000
21
285.000
31
0.000
0
LINE
8
30
6
CONTINUOUS
62
7
39
1.000
10
850.000
20
269.000
30
0.000
11
850.000
21
301.000
31
0.000
0
POLYLINE
8
30
6
CONTINUOUS
62
7
66
1
10
0.000
20
0.000
30
0.000
70
1
0
VERTEX
8
30
10
850.000
20
421.000
30
0.000
42
1.00000000
0
VERTEX
8
30
10
850.000
20
389.000
30
0.000
42
1.00000000
0
SEQEND
0
LINE
8
30
6
CONTINUOUS
62
7
39
1.000
10
834.000
20
405.000
30
0.000
11
866.000
21
405.000
31
0.000
0
LINE
8
30
6
CONTINUOUS
62
7
39
1.000
10
850.000
20
389.000
30
0.000
11
850.000
21
421.000
31
0.000
0
POLYLINE
8
30
6
CONTINUOUS
62
7
66
1
10
0.000
20
0.000
30
0.000
70
1
0
VERTEX
8
30
10
1020.000
20
61.000
30
0.000
42
1.00000000
0
VERTEX
8
30
10
1020.000
20
29.000
30
0.000
42
1.00000000
0
SEQEND
0
LINE
8
30
6
CONTINUOUS
62
7
39
1.000
10
1004.000
20
45.000
30
0.000
11
1036.000
21
45.000
31
0.000
0
LINE
8
30
6
CONTINUOUS
62
7
39
1.000
10
1020.000
20
29.000
30
0.000
11
1020.000
21
61.000
31
0.000
0
POLYLINE
8
30
6
CONTINUOUS
62
7
66
1
10
0.000
20
0.000
30
0.000
70
1
0
VERTEX
8
30
10
1020.000
20
181.000
30
0.000
42
1.00000000
0
VERTEX
8
30
10
1020.000
20
149.000
30
0.000
42
1.00000000
0
SEQEND
0
LINE
8
30
6
CONTINUOUS
62
7
39
1.000
10
1004.000
20
165.000
30
0.000
11
1036.000
21
165.000
31
0.000
0
LINE
8
30
6
CONTINUOUS
62
7
39
1.000
10
1020.000
20
149.000
30
0.000
11
1020.000
21
181.000
31
0.000
0
POLYLINE
8
30
6
CONTINUOUS
62
7
66
1
10
0.000
20
0.000
30
0.000
70
1
0
VERTEX
8
30
10
1020.000
20
301.000
30
0.000
42
1.00000000
0
VERTEX
8
30
10
1020.000
20
269.000
30
0.000
42
1.00000000
0
SEQEND
0
LINE
8
30
6
CONTINUOUS
62
7
39
1.000
10
1004.000
20
285.000
30
0.000
11
1036.000
21
285.000
31
0.000
0
LINE
8
30
6
CONTINUOUS
62
7
39
1.000
10
1020.000
20
269.000
30
0.000
11
1020.000
21
301.000
31
0.000
0
POLYLINE
8
30
6
CONTINUOUS
62
7
66
1
10
0.000
20
0.000
30
0.000
70
1
0
VERTEX
8
30
10
1020.000
20
421.000
30
0.000
42
1.00000000
0
VERTEX
8
30
10
1020.000
20
389.000
30
0.000
42
1.00000000
0
SEQEND
0
LINE
8
30
6
CONTINUOUS
62
7
39
1.000
10
1004.000
20
405.000
30
0.000
11
1036.000
21
405.000
31
0.000
0
LINE
8
30
6
CONTINUOUS
62
7
39
1.000
10
1020.000
20
389.000
30
0.000
11
1020.000
21
421.000
31
0.000
0
POLYLINE
8
30
6
CONTINUOUS
62
7
66
1
10
0.000
20
0.000
30
0.000
70
1
0
VERTEX
8
30
10
1140.000
20
61.000
30
0.000
42
1.00000000
0
VERTEX
8
30
10
1140.000
20
29.000
30
0.000
42
1.00000000
0
SEQEND
0
LINE
8
30
6
CONTINUOUS
62
7
39
1.000
10
1124.000
20
45.000
30
0.000
11
1156.000
21
45.000
31
0.000
0
LINE
8
30
6
CONTINUOUS
62
7
39
1.000
10
1140.000
20
29.000
30
0.000
11
1140.000
21
61.000
31
0.000
0
POLYLINE
8
30
6
CONTINUOUS
62
7
66
1
10
0.000
20
0.000
30
0.000
70
1
0
VERTEX
8
30
10
1140.000
20
181.000
30
0.000
42
1.00000000
0
VERTEX
8
30
10
1140.000
20
149.000
30
0.000
42
1.00000000
0
SEQEND
0
LINE
8
30
6
CONTINUOUS
62
7
39
1.000
10
1124.000
20
165.000
30
0.000
11
1156.000
21
165.000
31
0.000
0
LINE
8
30
6
CONTINUOUS
62
7
39
1.000
10
1140.000
20
149.000
30
0.000
11
1140.000
21
181.000
31
0.000
0
POLYLINE
8
30
6
CONTINUOUS
62
7
66
1
10
0.000
20
0.000
30
0.000
70
1
0
VERTEX
8
30
10
1140.000
20
301.000
30
0.000
42
1.00000000
0
VERTEX
8
30
10
1140.000
20
269.000
30
0.000
42
1.00000000
0
SEQEND
0
LINE
8
30
6
CONTINUOUS
62
7
39
1.000
10
1124.000
20
285.000
30
0.000
11
1156.000
21
285.000
31
0.000
0
LINE
8
30
6
CONTINUOUS
62
7
39
1.000
10
1140.000
20
269.000
30
0.000
11
1140.000
21
301.000
31
0.000
0
POLYLINE
8
30
6
CONTINUOUS
62
7
66
1
10
0.000
20
0.000
30
0.000
70
1
0
VERTEX
8
30
10
1140.000
20
421.000
30
0.000
42
1.00000000
0
VERTEX
8
30
10
1140.000
20
389.000
30
0.000
42
1.00000000
0
SEQEND
0
LINE
8
30
6
CONTINUOUS
62
7
39
1.000
10
1124.000
20
405.000
30
0.000
11
1156.000
21
405.000
31
0.000
0
LINE
8
30
6
CONTINUOUS
62
7
39
1.000
10
1140.000
20
389.000
30
0.000
11
1140.000
21
421.000
31
0.000
0
POLYLINE
8
30
6
CONTINUOUS
62
7
66
1
10
0.000
20
0.000
30
0.000
70
1
0
VERTEX
8
30
10
1260.000
20
61.000
30
0.000
42
1.00000000
0
VERTEX
8
30
10
1260.000
20
29.000
30
0.000
42
1.00000000
0
SEQEND
0
LINE
8
30
6
CONTINUOUS
62
7
39
1.000
10
1244.000
20
45.000
30
0.000
11
1276.000
21
45.000
31
0.000
0
LINE
8
30
6
CONTINUOUS
62
7
39
1.000
10
1260.000
20
29.000
30
0.000
11
1260.000
21
61.000
31
0.000
0
POLYLINE
8
30
6
CONTINUOUS
62
7
66
1
10
0.000
20
0.000
30
0.000
70
1
0
VERTEX
8
30
10
1260.000
20
181.000
30
0.000
42
1.00000000
0
VERTEX
8
30
10
1260.000
20
149.000
30
0.000
42
1.00000000
0
SEQEND
0
LINE
8
30
6
CONTINUOUS
62
7
39
1.000
10
1244.000
20
165.000
30
0.000
11
1276.000
21
165.000
31
0.000
0
LINE
8
30
6
CONTINUOUS
62
7
39
1.000
10
1260.000
20
149.000
30
0.000
11
1260.000
21
181.000
31
0.000
0
POLYLINE
8
30
6
CONTINUOUS
62
7
66
1
10
0.000
20
0.000
30
0.000
70
1
0
VERTEX
8
30
10
1260.000
20
301.000
30
0.000
42
1.00000000
0
VERTEX
8
30
10
1260.000
20
269.000
30
0.000
42
1.00000000
0
SEQEND
0
LINE
8
30
6
CONTINUOUS
62
7
39
1.000
10
1244.000
20
285.000
30
0.000
11
1276.000
21
285.000
31
0.000
0
LINE
8
30
6
CONTINUOUS
62
7
39
1.000
10
1260.000
20
269.000
30
0.000
11
1260.000
21
301.000
31
0.000
0
POLYLINE
8
30
6
CONTINUOUS
62
7
66
1
10
0.000
20
0.000
30
0.000
70
1
0
VERTEX
8
30
10
1260.000
20
421.000
30
0.000
42
1.00000000
0
VERTEX
8
30
10
1260.000
20
389.000
30
0.000
42
1.00000000
0
SEQEND
0
LINE
8
30
6
CONTINUOUS
62
7
39
1.000
10
1244.000
20
405.000
30
0.000
11
1276.000
21
405.000
31
0.000
0
LINE
8
30
6
CONTINUOUS
62
7
39
1.000
10
1260.000
20
389.000
30
0.000
11
1260.000
21
421.000
31
0.000
0
POLYLINE
8
30
6
CONTINUOUS
62
7
66
1
10
0.000
20
0.000
30
0.000
70
1
0
VERTEX
8
30
10
1380.000
20
61.000
30
0.000
42
1.00000000
0
VERTEX
8
30
10
1380.000
20
29.000
30
0.000
42
1.00000000
0
SEQEND
0
LINE
8
30
6
CONTINUOUS
62
7
39
1.000
10
1364.000
20
45.000
30
0.000
11
1396.000
21
45.000
31
0.000
0
LINE
8
30
6
CONTINUOUS
62
7
39
1.000
10
1380.000
20
29.000
30
0.000
11
1380.000
21
61.000
31
0.000
0
POLYLINE
8
30
6
CONTINUOUS
62
7
66
1
10
0.000
20
0.000
30
0.000
70
1
0
VERTEX
8
30
10
1380.000
20
181.000
30
0.000
42
1.00000000
0
VERTEX
8
30
10
1380.000
20
149.000
30
0.000
42
1.00000000
0
SEQEND
0
LINE
8
30
6
CONTINUOUS
62
7
39
1.000
10
1364.000
20
165.000
30
0.000
11
1396.000
21
165.000
31
0.000
0
LINE
8
30
6
CONTINUOUS
62
7
39
1.000
10
1380.000
20
149.000
30
0.000
11
1380.000
21
181.000
31
0.000
0
POLYLINE
8
30
6
CONTINUOUS
62
7
66
1
10
0.000
20
0.000
30
0.000
70
1
0
VERTEX
8
30
10
1380.000
20
301.000
30
0.000
42
1.00000000
0
VERTEX
8
30
10
1380.000
20
269.000
30
0.000
42
1.00000000
0
SEQEND
0
LINE
8
30
6
CONTINUOUS
62
7
39
1.000
10
1364.000
20
285.000
30
0.000
11
1396.000
21
285.000
31
0.000
0
LINE
8
30
6
CONTINUOUS
62
7
39
1.000
10
1380.000
20
269.000
30
0.000
11
1380.000
21
301.000
31
0.000
0
POLYLINE
8
30
6
CONTINUOUS
62
7
66
1
10
0.000
20
0.000
30
0.000
70
1
0
VERTEX
8
30
10
1380.000
20
421.000
30
0.000
42
1.00000000
0
VERTEX
8
30
10
1380.000
20
389.000
30
0.000
42
1.00000000
0
SEQEND
0
LINE
8
30
6
CONTINUOUS
62
7
39
1.000
10
1364.000
20
405.000
30
0.000
11
1396.000
21
405.000
31
0.000
0
LINE
8
30
6
CONTINUOUS
62
7
39
1.000
10
1380.000
20
389.000
30
0.000
11
1380.000
21
421.000
31
0.000
0
POLYLINE
8
30
6
CONTINUOUS
62
7
66
1
10
0.000
20
0.000
30
0.000
70
1
0
VERTEX
8
30
10
1520.000
20
61.000
30
0.000
42
1.00000000
0
VERTEX
8
30
10
1520.000
20
29.000
30
0.000
42
1.00000000
0
SEQEND
0
LINE
8
30
6
CONTINUOUS
62
7
39
1.000
10
1504.000
20
45.000
30
0.000
11
1536.000
21
45.000
31
0.000
0
LINE
8
30
6
CONTINUOUS
62
7
39
1.000
10
1520.000
20
29.000
30
0.000
11
1520.000
21
61.000
31
0.000
0
POLYLINE
8
30
6
CONTINUOUS
62
7
66
1
10
0.000
20
0.000
30
0.000
70
1
0
VERTEX
8
30
10
1520.000
20
181.000
30
0.000
42
1.00000000
0
VERTEX
8
30
10
1520.000
20
149.000
30
0.000
42
1.00000000
0
SEQEND
0
LINE
8
30
6
CONTINUOUS
62
7
39
1.000
10
1504.000
20
165.000
30
0.000
11
1536.000
21
165.000
31
0.000
0
LINE
8
30
6
CONTINUOUS
62
7
39
1.000
10
1520.000
20
149.000
30
0.000
11
1520.000
21
181.000
31
0.000
0
POLYLINE
8
30
6
CONTINUOUS
62
7
66
1
10
0.000
20
0.000
30
0.000
70
1
0
VERTEX
8
30
10
1520.000
20
301.000
30
0.000
42
1.00000000
0
VERTEX
8
30
10
1520.000
20
269.000
30
0.000
42
1.00000000
0
SEQEND
0
LINE
8
30
6
CONTINUOUS
62
7
39
1.000
10
1504.000
20
285.000
30
0.000
11
1536.000
21
285.000
31
0.000
0
LINE
8
30
6
CONTINUOUS
62
7
39
1.000
10
1520.000
20
269.000
30
0.000
11
1520.000
21
301.000
31
0.000
0
POLYLINE
8
30
6
CONTINUOUS
62
7
66
1
10
0.000
20
0.000
30
0.000
70
1
0
VERTEX
8
30
10
1520.000
20
421.000
30
0.000
42
1.00000000
0
VERTEX
8
30
10
1520.000
20
389.000
30
0.000
42
1.00000000
0
SEQEND
0
LINE
8
30
6
CONTINUOUS
62
7
39
1.000
10
1504.000
20
405.000
30
0.000
11
1536.000
21
405.000
31
0.000
0
LINE
8
30
6
CONTINUOUS
62
7
39
1.000
10
1520.000
20
389.000
30
0.000
11
1520.000
21
421.000
31
0.000
0
POLYLINE
8
30
6
CONTINUOUS
62
7
66
1
10
0.000
20
0.000
30
0.000
70
1
0
VERTEX
8
30
10
1640.000
20
61.000
30
0.000
42
1.00000000
0
VERTEX
8
30
10
1640.000
20
29.000
30
0.000
42
1.00000000
0
SEQEND
0
LINE
8
30
6
CONTINUOUS
62
7
39
1.000
10
1624.000
20
45.000
30
0.000
11
1656.000
21
45.000
31
0.000
0
LINE
8
30
6
CONTINUOUS
62
7
39
1.000
10
1640.000
20
29.000
30
0.000
11
1640.000
21
61.000
31
0.000
0
POLYLINE
8
30
6
CONTINUOUS
62
7
66
1
10
0.000
20
0.000
30
0.000
70
1
0
VERTEX
8
30
10
1640.000
20
181.000
30
0.000
42
1.00000000
0
VERTEX
8
30
10
1640.000
20
149.000
30
0.000
42
1.00000000
0
SEQEND
0
LINE
8
30
6
CONTINUOUS
62
7
39
1.000
10
1624.000
20
165.000
30
0.000
11
1656.000
21
165.000
31
0.000
0
LINE
8
30
6
CONTINUOUS
62
7
39
1.000
10
1640.000
20
149.000
30
0.000
11
1640.000
21
181.000
31
0.000
0
POLYLINE
8
30
6
CONTINUOUS
62
7
66
1
10
0.000
20
0.000
30
0.000
70
1
0
VERTEX
8
30
10
1640.000
20
301.000
30
0.000
42
1.00000000
0
VERTEX
8
30
10
1640.000
20
269.000
30
0.000
42
1.00000000
0
SEQEND
0
LINE
8
30
6
CONTINUOUS
62
7
39
1.000
10
1624.000
20
285.000
30
0.000
11
1656.000
21
285.000
31
0.000
0
LINE
8
30
6
CONTINUOUS
62
7
39
1.000
10
1640.000
20
269.000
30
0.000
11
1640.000
21
301.000
31
0.000
0
POLYLINE
8
30
6
CONTINUOUS
62
7
66
1
10
0.000
20
0.000
30
0.000
70
1
0
VERTEX
8
30
10
1640.000
20
421.000
30
0.000
42
1.00000000
0
VERTEX
8
30
10
1640.000
20
389.000
30
0.000
42
1.00000000
0
SEQEND
0
LINE
8
30
6
CONTINUOUS
62
7
39
1.000
10
1624.000
20
405.000
30
0.000
11
1656.000
21
405.000
31
0.000
0
LINE
8
30
6
CONTINUOUS
62
7
39
1.000
10
1640.000
20
389.000
30
0.000
11
1640.000
21
421.000
31
0.000
0
ENDSEC
0
EOF
