0
SECTION
2
HEADER
9
$PDMODE
70
33
9
$PDSIZE
40
1.000
9
$EXTMIN
10
-148.060
20
-45.000
30
-1.000
9
$EXTMAX
10
1628.660
20
495.000
30
1.000
9
$LIMMIN
10
-148.060
20
-45.000
9
$LIMMAX
10
1628.660
20
495.000
0
ENDSEC
0
SECTION
2
TABLES
0
TABLE
2
LAYER
70
7
0
LAYER
2
SCRIBE
70
0
62
3
6
CONTINUOUS
0
LAYER
2
TEXT
70
0
62
7
6
CONTINUOUS
0
LAYER
2
CUT
70
0
62
7
6
CONTINUOUS
0
LAYER
2
30
70
0
62
7
6
CONTINUOUS
0
ENDTAB
0
TABLE
2
VPORT
70
4
0
VPORT
2
*ACTIVE
70
0
10
0.000000
20
0.000000
11
1.000000
21
1.000000
12
740.300000
22
225.000000
13
0.000000
23
0.000000
14
1.000000
24
1.000000
15
1.000000
25
1.000000
16
0.000000
26
0.000000
36
1.000000
17
0.000000
27
0.000000
37
0.000000
40
1480.600000
41
1.500000
42
50.000000
43
0.000000
44
0.000000
50
0.000000
51
0.000000
71
0
72
100
73
1
74
1
75
0
76
0
77
0
78
0
0
ENDTAB
0
ENDSEC
0
SECTION
2
ENTITIES
0
TEXT
8
SCRIBE
62
3
10
30.000
20
30.000
30
0.000
40
10.000
1
PL126
0
TEXT
8
TEXT
62
7
10
30.000
20
15.000
30
0.000
40
10.000
1
PL25+S355JR+44
0
POLYLINE
8
CUT
6
CONTINUOUS
62
7
66
1
10
0.000
20
0.000
30
0.000
70
1
0
VERTEX
8
CUT
10
0.000
20
0.000
30
0.000
42
0.00000000
0
VERTEX
8
CUT
10
0.000
20
450.000
30
0.000
42
0.00000000
0
VERTEX
8
CUT
10
1480.600
20
450.000
30
0.000
42
0.00000000
0
VERTEX
8
CUT
10
1480.600
20
0.000
30
0.000
42
0.00000000
0
SEQEND
0
POLYLINE
8
30
6
CONTINUOUS
62
7
66
1
10
0.000
20
0.000
30
0.000
70
1
0
VERTEX
8
30
10
60.000
20
71.000
30
0.000
42
1.00000000
0
VERTEX
8
30
10
60.000
20
39.000
30
0.000
42
1.00000000
0
SEQEND
0
LINE
8
30
6
CONTINUOUS
62
7
39
1.000
10
44.000
20
55.000
30
0.000
11
76.000
21
55.000
31
0.000
0
LINE
8
30
6
CONTINUOUS
62
7
39
1.000
10
60.000
20
39.000
30
0.000
11
60.000
21
71.000
31
0.000
0
POLYLINE
8
30
6
CONTINUOUS
62
7
66
1
10
0.000
20
0.000
30
0.000
70
1
0
VERTEX
8
30
10
60.000
20
171.000
30
0.000
42
1.00000000
0
VERTEX
8
30
10
60.000
20
139.000
30
0.000
42
1.00000000
0
SEQEND
0
LINE
8
30
6
CONTINUOUS
62
7
39
1.000
10
44.000
20
155.000
30
0.000
11
76.000
21
155.000
31
0.000
0
LINE
8
30
6
CONTINUOUS
62
7
39
1.000
10
60.000
20
139.000
30
0.000
11
60.000
21
171.000
31
0.000
0
POLYLINE
8
30
6
CONTINUOUS
62
7
66
1
10
0.000
20
0.000
30
0.000
70
1
0
VERTEX
8
30
10
60.000
20
311.000
30
0.000
42
1.00000000
0
VERTEX
8
30
10
60.000
20
279.000
30
0.000
42
1.00000000
0
SEQEND
0
LINE
8
30
6
CONTINUOUS
62
7
39
1.000
10
44.000
20
295.000
30
0.000
11
76.000
21
295.000
31
0.000
0
LINE
8
30
6
CONTINUOUS
62
7
39
1.000
10
60.000
20
279.000
30
0.000
11
60.000
21
311.000
31
0.000
0
POLYLINE
8
30
6
CONTINUOUS
62
7
66
1
10
0.000
20
0.000
30
0.000
70
1
0
VERTEX
8
30
10
60.000
20
411.000
30
0.000
42
1.00000000
0
VERTEX
8
30
10
60.000
20
379.000
30
0.000
42
1.00000000
0
SEQEND
0
LINE
8
30
6
CONTINUOUS
62
7
39
1.000
10
44.000
20
395.000
30
0.000
11
76.000
21
395.000
31
0.000
0
LINE
8
30
6
CONTINUOUS
62
7
39
1.000
10
60.000
20
379.000
30
0.000
11
60.000
21
411.000
31
0.000
0
POLYLINE
8
30
6
CONTINUOUS
62
7
66
1
10
0.000
20
0.000
30
0.000
70
1
0
VERTEX
8
30
10
200.000
20
71.000
30
0.000
42
1.00000000
0
VERTEX
8
30
10
200.000
20
39.000
30
0.000
42
1.00000000
0
SEQEND
0
LINE
8
30
6
CONTINUOUS
62
7
39
1.000
10
184.000
20
55.000
30
0.000
11
216.000
21
55.000
31
0.000
0
LINE
8
30
6
CONTINUOUS
62
7
39
1.000
10
200.000
20
39.000
30
0.000
11
200.000
21
71.000
31
0.000
0
POLYLINE
8
30
6
CONTINUOUS
62
7
66
1
10
0.000
20
0.000
30
0.000
70
1
0
VERTEX
8
30
10
200.000
20
171.000
30
0.000
42
1.00000000
0
VERTEX
8
30
10
200.000
20
139.000
30
0.000
42
1.00000000
0
SEQEND
0
LINE
8
30
6
CONTINUOUS
62
7
39
1.000
10
184.000
20
155.000
30
0.000
11
216.000
21
155.000
31
0.000
0
LINE
8
30
6
CONTINUOUS
62
7
39
1.000
10
200.000
20
139.000
30
0.000
11
200.000
21
171.000
31
0.000
0
POLYLINE
8
30
6
CONTINUOUS
62
7
66
1
10
0.000
20
0.000
30
0.000
70
1
0
VERTEX
8
30
10
200.000
20
311.000
30
0.000
42
1.00000000
0
VERTEX
8
30
10
200.000
20
279.000
30
0.000
42
1.00000000
0
SEQEND
0
LINE
8
30
6
CONTINUOUS
62
7
39
1.000
10
184.000
20
295.000
30
0.000
11
216.000
21
295.000
31
0.000
0
LINE
8
30
6
CONTINUOUS
62
7
39
1.000
10
200.000
20
279.000
30
0.000
11
200.000
21
311.000
31
0.000
0
POLYLINE
8
30
6
CONTINUOUS
62
7
66
1
10
0.000
20
0.000
30
0.000
70
1
0
VERTEX
8
30
10
200.000
20
411.000
30
0.000
42
1.00000000
0
VERTEX
8
30
10
200.000
20
379.000
30
0.000
42
1.00000000
0
SEQEND
0
LINE
8
30
6
CONTINUOUS
62
7
39
1.000
10
184.000
20
395.000
30
0.000
11
216.000
21
395.000
31
0.000
0
LINE
8
30
6
CONTINUOUS
62
7
39
1.000
10
200.000
20
379.000
30
0.000
11
200.000
21
411.000
31
0.000
0
POLYLINE
8
30
6
CONTINUOUS
62
7
66
1
10
0.000
20
0.000
30
0.000
70
1
0
VERTEX
8
30
10
320.000
20
71.000
30
0.000
42
1.00000000
0
VERTEX
8
30
10
320.000
20
39.000
30
0.000
42
1.00000000
0
SEQEND
0
LINE
8
30
6
CONTINUOUS
62
7
39
1.000
10
304.000
20
55.000
30
0.000
11
336.000
21
55.000
31
0.000
0
LINE
8
30
6
CONTINUOUS
62
7
39
1.000
10
320.000
20
39.000
30
0.000
11
320.000
21
71.000
31
0.000
0
POLYLINE
8
30
6
CONTINUOUS
62
7
66
1
10
0.000
20
0.000
30
0.000
70
1
0
VERTEX
8
30
10
320.000
20
171.000
30
0.000
42
1.00000000
0
VERTEX
8
30
10
320.000
20
139.000
30
0.000
42
1.00000000
0
SEQEND
0
LINE
8
30
6
CONTINUOUS
62
7
39
1.000
10
304.000
20
155.000
30
0.000
11
336.000
21
155.000
31
0.000
0
LINE
8
30
6
CONTINUOUS
62
7
39
1.000
10
320.000
20
139.000
30
0.000
11
320.000
21
171.000
31
0.000
0
POLYLINE
8
30
6
CONTINUOUS
62
7
66
1
10
0.000
20
0.000
30
0.000
70
1
0
VERTEX
8
30
10
320.000
20
311.000
30
0.000
42
1.00000000
0
VERTEX
8
30
10
320.000
20
279.000
30
0.000
42
1.00000000
0
SEQEND
0
LINE
8
30
6
CONTINUOUS
62
7
39
1.000
10
304.000
20
295.000
30
0.000
11
336.000
21
295.000
31
0.000
0
LINE
8
30
6
CONTINUOUS
62
7
39
1.000
10
320.000
20
279.000
30
0.000
11
320.000
21
311.000
31
0.000
0
POLYLINE
8
30
6
CONTINUOUS
62
7
66
1
10
0.000
20
0.000
30
0.000
70
1
0
VERTEX
8
30
10
320.000
20
411.000
30
0.000
42
1.00000000
0
VERTEX
8
30
10
320.000
20
379.000
30
0.000
42
1.00000000
0
SEQEND
0
LINE
8
30
6
CONTINUOUS
62
7
39
1.000
10
304.000
20
395.000
30
0.000
11
336.000
21
395.000
31
0.000
0
LINE
8
30
6
CONTINUOUS
62
7
39
1.000
10
320.000
20
379.000
30
0.000
11
320.000
21
411.000
31
0.000
0
POLYLINE
8
30
6
CONTINUOUS
62
7
66
1
10
0.000
20
0.000
30
0.000
70
1
0
VERTEX
8
30
10
440.000
20
71.000
30
0.000
42
1.00000000
0
VERTEX
8
30
10
440.000
20
39.000
30
0.000
42
1.00000000
0
SEQEND
0
LINE
8
30
6
CONTINUOUS
62
7
39
1.000
10
424.000
20
55.000
30
0.000
11
456.000
21
55.000
31
0.000
0
LINE
8
30
6
CONTINUOUS
62
7
39
1.000
10
440.000
20
39.000
30
0.000
11
440.000
21
71.000
31
0.000
0
POLYLINE
8
30
6
CONTINUOUS
62
7
66
1
10
0.000
20
0.000
30
0.000
70
1
0
VERTEX
8
30
10
440.000
20
171.000
30
0.000
42
1.00000000
0
VERTEX
8
30
10
440.000
20
139.000
30
0.000
42
1.00000000
0
SEQEND
0
LINE
8
30
6
CONTINUOUS
62
7
39
1.000
10
424.000
20
155.000
30
0.000
11
456.000
21
155.000
31
0.000
0
LINE
8
30
6
CONTINUOUS
62
7
39
1.000
10
440.000
20
139.000
30
0.000
11
440.000
21
171.000
31
0.000
0
POLYLINE
8
30
6
CONTINUOUS
62
7
66
1
10
0.000
20
0.000
30
0.000
70
1
0
VERTEX
8
30
10
440.000
20
311.000
30
0.000
42
1.00000000
0
VERTEX
8
30
10
440.000
20
279.000
30
0.000
42
1.00000000
0
SEQEND
0
LINE
8
30
6
CONTINUOUS
62
7
39
1.000
10
424.000
20
295.000
30
0.000
11
456.000
21
295.000
31
0.000
0
LINE
8
30
6
CONTINUOUS
62
7
39
1.000
10
440.000
20
279.000
30
0.000
11
440.000
21
311.000
31
0.000
0
POLYLINE
8
30
6
CONTINUOUS
62
7
66
1
10
0.000
20
0.000
30
0.000
70
1
0
VERTEX
8
30
10
440.000
20
411.000
30
0.000
42
1.00000000
0
VERTEX
8
30
10
440.000
20
379.000
30
0.000
42
1.00000000
0
SEQEND
0
LINE
8
30
6
CONTINUOUS
62
7
39
1.000
10
424.000
20
395.000
30
0.000
11
456.000
21
395.000
31
0.000
0
LINE
8
30
6
CONTINUOUS
62
7
39
1.000
10
440.000
20
379.000
30
0.000
11
440.000
21
411.000
31
0.000
0
POLYLINE
8
30
6
CONTINUOUS
62
7
66
1
10
0.000
20
0.000
30
0.000
70
1
0
VERTEX
8
30
10
560.000
20
71.000
30
0.000
42
1.00000000
0
VERTEX
8
30
10
560.000
20
39.000
30
0.000
42
1.00000000
0
SEQEND
0
LINE
8
30
6
CONTINUOUS
62
7
39
1.000
10
544.000
20
55.000
30
0.000
11
576.000
21
55.000
31
0.000
0
LINE
8
30
6
CONTINUOUS
62
7
39
1.000
10
560.000
20
39.000
30
0.000
11
560.000
21
71.000
31
0.000
0
POLYLINE
8
30
6
CONTINUOUS
62
7
66
1
10
0.000
20
0.000
30
0.000
70
1
0
VERTEX
8
30
10
560.000
20
171.000
30
0.000
42
1.00000000
0
VERTEX
8
30
10
560.000
20
139.000
30
0.000
42
1.00000000
0
SEQEND
0
LINE
8
30
6
CONTINUOUS
62
7
39
1.000
10
544.000
20
155.000
30
0.000
11
576.000
21
155.000
31
0.000
0
LINE
8
30
6
CONTINUOUS
62
7
39
1.000
10
560.000
20
139.000
30
0.000
11
560.000
21
171.000
31
0.000
0
POLYLINE
8
30
6
CONTINUOUS
62
7
66
1
10
0.000
20
0.000
30
0.000
70
1
0
VERTEX
8
30
10
560.000
20
311.000
30
0.000
42
1.00000000
0
VERTEX
8
30
10
560.000
20
279.000
30
0.000
42
1.00000000
0
SEQEND
0
LINE
8
30
6
CONTINUOUS
62
7
39
1.000
10
544.000
20
295.000
30
0.000
11
576.000
21
295.000
31
0.000
0
LINE
8
30
6
CONTINUOUS
62
7
39
1.000
10
560.000
20
279.000
30
0.000
11
560.000
21
311.000
31
0.000
0
POLYLINE
8
30
6
CONTINUOUS
62
7
66
1
10
0.000
20
0.000
30
0.000
70
1
0
VERTEX
8
30
10
560.000
20
411.000
30
0.000
42
1.00000000
0
VERTEX
8
30
10
560.000
20
379.000
30
0.000
42
1.00000000
0
SEQEND
0
LINE
8
30
6
CONTINUOUS
62
7
39
1.000
10
544.000
20
395.000
30
0.000
11
576.000
21
395.000
31
0.000
0
LINE
8
30
6
CONTINUOUS
62
7
39
1.000
10
560.000
20
379.000
30
0.000
11
560.000
21
411.000
31
0.000
0
POLYLINE
8
30
6
CONTINUOUS
62
7
66
1
10
0.000
20
0.000
30
0.000
70
1
0
VERTEX
8
30
10
740.220
20
71.000
30
0.000
42
1.00000000
0
VERTEX
8
30
10
740.220
20
39.000
30
0.000
42
1.00000000
0
SEQEND
0
LINE
8
30
6
CONTINUOUS
62
7
39
1.000
10
724.220
20
55.000
30
0.000
11
756.220
21
55.000
31
0.000
0
LINE
8
30
6
CONTINUOUS
62
7
39
1.000
10
740.220
20
39.000
30
0.000
11
740.220
21
71.000
31
0.000
0
POLYLINE
8
30
6
CONTINUOUS
62
7
66
1
10
0.000
20
0.000
30
0.000
70
1
0
VERTEX
8
30
10
740.220
20
171.000
30
0.000
42
1.00000000
0
VERTEX
8
30
10
740.220
20
139.000
30
0.000
42
1.00000000
0
SEQEND
0
LINE
8
30
6
CONTINUOUS
62
7
39
1.000
10
724.220
20
155.000
30
0.000
11
756.220
21
155.000
31
0.000
0
LINE
8
30
6
CONTINUOUS
62
7
39
1.000
10
740.220
20
139.000
30
0.000
11
740.220
21
171.000
31
0.000
0
POLYLINE
8
30
6
CONTINUOUS
62
7
66
1
10
0.000
20
0.000
30
0.000
70
1
0
VERTEX
8
30
10
740.220
20
311.000
30
0.000
42
1.00000000
0
VERTEX
8
30
10
740.220
20
279.000
30
0.000
42
1.00000000
0
SEQEND
0
LINE
8
30
6
CONTINUOUS
62
7
39
1.000
10
724.220
20
295.000
30
0.000
11
756.220
21
295.000
31
0.000
0
LINE
8
30
6
CONTINUOUS
62
7
39
1.000
10
740.220
20
279.000
30
0.000
11
740.220
21
311.000
31
0.000
0
POLYLINE
8
30
6
CONTINUOUS
62
7
66
1
10
0.000
20
0.000
30
0.000
70
1
0
VERTEX
8
30
10
740.220
20
411.000
30
0.000
42
1.00000000
0
VERTEX
8
30
10
740.220
20
379.000
30
0.000
42
1.00000000
0
SEQEND
0
LINE
8
30
6
CONTINUOUS
62
7
39
1.000
10
724.220
20
395.000
30
0.000
11
756.220
21
395.000
31
0.000
0
LINE
8
30
6
CONTINUOUS
62
7
39
1.000
10
740.220
20
379.000
30
0.000
11
740.220
21
411.000
31
0.000
0
POLYLINE
8
30
6
CONTINUOUS
62
7
66
1
10
0.000
20
0.000
30
0.000
70
1
0
VERTEX
8
30
10
920.600
20
71.000
30
0.000
42
1.00000000
0
VERTEX
8
30
10
920.600
20
39.000
30
0.000
42
1.00000000
0
SEQEND
0
LINE
8
30
6
CONTINUOUS
62
7
39
1.000
10
904.600
20
55.000
30
0.000
11
936.600
21
55.000
31
0.000
0
LINE
8
30
6
CONTINUOUS
62
7
39
1.000
10
920.600
20
39.000
30
0.000
11
920.600
21
71.000
31
0.000
0
POLYLINE
8
30
6
CONTINUOUS
62
7
66
1
10
0.000
20
0.000
30
0.000
70
1
0
VERTEX
8
30
10
920.600
20
171.000
30
0.000
42
1.00000000
0
VERTEX
8
30
10
920.600
20
139.000
30
0.000
42
1.00000000
0
SEQEND
0
LINE
8
30
6
CONTINUOUS
62
7
39
1.000
10
904.600
20
155.000
30
0.000
11
936.600
21
155.000
31
0.000
0
LINE
8
30
6
CONTINUOUS
62
7
39
1.000
10
920.600
20
139.000
30
0.000
11
920.600
21
171.000
31
0.000
0
POLYLINE
8
30
6
CONTINUOUS
62
7
66
1
10
0.000
20
0.000
30
0.000
70
1
0
VERTEX
8
30
10
920.600
20
311.000
30
0.000
42
1.00000000
0
VERTEX
8
30
10
920.600
20
279.000
30
0.000
42
1.00000000
0
SEQEND
0
LINE
8
30
6
CONTINUOUS
62
7
39
1.000
10
904.600
20
295.000
30
0.000
11
936.600
21
295.000
31
0.000
0
LINE
8
30
6
CONTINUOUS
62
7
39
1.000
10
920.600
20
279.000
30
0.000
11
920.600
21
311.000
31
0.000
0
POLYLINE
8
30
6
CONTINUOUS
62
7
66
1
10
0.000
20
0.000
30
0.000
70
1
0
VERTEX
8
30
10
920.600
20
411.000
30
0.000
42
1.00000000
0
VERTEX
8
30
10
920.600
20
379.000
30
0.000
42
1.00000000
0
SEQEND
0
LINE
8
30
6
CONTINUOUS
62
7
39
1.000
10
904.600
20
395.000
30
0.000
11
936.600
21
395.000
31
0.000
0
LINE
8
30
6
CONTINUOUS
62
7
39
1.000
10
920.600
20
379.000
30
0.000
11
920.600
21
411.000
31
0.000
0
POLYLINE
8
30
6
CONTINUOUS
62
7
66
1
10
0.000
20
0.000
30
0.000
70
1
0
VERTEX
8
30
10
1040.600
20
71.000
30
0.000
42
1.00000000
0
VERTEX
8
30
10
1040.600
20
39.000
30
0.000
42
1.00000000
0
SEQEND
0
LINE
8
30
6
CONTINUOUS
62
7
39
1.000
10
1024.600
20
55.000
30
0.000
11
1056.600
21
55.000
31
0.000
0
LINE
8
30
6
CONTINUOUS
62
7
39
1.000
10
1040.600
20
39.000
30
0.000
11
1040.600
21
71.000
31
0.000
0
POLYLINE
8
30
6
CONTINUOUS
62
7
66
1
10
0.000
20
0.000
30
0.000
70
1
0
VERTEX
8
30
10
1040.600
20
171.000
30
0.000
42
1.00000000
0
VERTEX
8
30
10
1040.600
20
139.000
30
0.000
42
1.00000000
0
SEQEND
0
LINE
8
30
6
CONTINUOUS
62
7
39
1.000
10
1024.600
20
155.000
30
0.000
11
1056.600
21
155.000
31
0.000
0
LINE
8
30
6
CONTINUOUS
62
7
39
1.000
10
1040.600
20
139.000
30
0.000
11
1040.600
21
171.000
31
0.000
0
POLYLINE
8
30
6
CONTINUOUS
62
7
66
1
10
0.000
20
0.000
30
0.000
70
1
0
VERTEX
8
30
10
1040.600
20
311.000
30
0.000
42
1.00000000
0
VERTEX
8
30
10
1040.600
20
279.000
30
0.000
42
1.00000000
0
SEQEND
0
LINE
8
30
6
CONTINUOUS
62
7
39
1.000
10
1024.600
20
295.000
30
0.000
11
1056.600
21
295.000
31
0.000
0
LINE
8
30
6
CONTINUOUS
62
7
39
1.000
10
1040.600
20
279.000
30
0.000
11
1040.600
21
311.000
31
0.000
0
POLYLINE
8
30
6
CONTINUOUS
62
7
66
1
10
0.000
20
0.000
30
0.000
70
1
0
VERTEX
8
30
10
1040.600
20
411.000
30
0.000
42
1.00000000
0
VERTEX
8
30
10
1040.600
20
379.000
30
0.000
42
1.00000000
0
SEQEND
0
LINE
8
30
6
CONTINUOUS
62
7
39
1.000
10
1024.600
20
395.000
30
0.000
11
1056.600
21
395.000
31
0.000
0
LINE
8
30
6
CONTINUOUS
62
7
39
1.000
10
1040.600
20
379.000
30
0.000
11
1040.600
21
411.000
31
0.000
0
POLYLINE
8
30
6
CONTINUOUS
62
7
66
1
10
0.000
20
0.000
30
0.000
70
1
0
VERTEX
8
30
10
1160.600
20
71.000
30
0.000
42
1.00000000
0
VERTEX
8
30
10
1160.600
20
39.000
30
0.000
42
1.00000000
0
SEQEND
0
LINE
8
30
6
CONTINUOUS
62
7
39
1.000
10
1144.600
20
55.000
30
0.000
11
1176.600
21
55.000
31
0.000
0
LINE
8
30
6
CONTINUOUS
62
7
39
1.000
10
1160.600
20
39.000
30
0.000
11
1160.600
21
71.000
31
0.000
0
POLYLINE
8
30
6
CONTINUOUS
62
7
66
1
10
0.000
20
0.000
30
0.000
70
1
0
VERTEX
8
30
10
1160.600
20
171.000
30
0.000
42
1.00000000
0
VERTEX
8
30
10
1160.600
20
139.000
30
0.000
42
1.00000000
0
SEQEND
0
LINE
8
30
6
CONTINUOUS
62
7
39
1.000
10
1144.600
20
155.000
30
0.000
11
1176.600
21
155.000
31
0.000
0
LINE
8
30
6
CONTINUOUS
62
7
39
1.000
10
1160.600
20
139.000
30
0.000
11
1160.600
21
171.000
31
0.000
0
POLYLINE
8
30
6
CONTINUOUS
62
7
66
1
10
0.000
20
0.000
30
0.000
70
1
0
VERTEX
8
30
10
1160.600
20
311.000
30
0.000
42
1.00000000
0
VERTEX
8
30
10
1160.600
20
279.000
30
0.000
42
1.00000000
0
SEQEND
0
LINE
8
30
6
CONTINUOUS
62
7
39
1.000
10
1144.600
20
295.000
30
0.000
11
1176.600
21
295.000
31
0.000
0
LINE
8
30
6
CONTINUOUS
62
7
39
1.000
10
1160.600
20
279.000
30
0.000
11
1160.600
21
311.000
31
0.000
0
POLYLINE
8
30
6
CONTINUOUS
62
7
66
1
10
0.000
20
0.000
30
0.000
70
1
0
VERTEX
8
30
10
1160.600
20
411.000
30
0.000
42
1.00000000
0
VERTEX
8
30
10
1160.600
20
379.000
30
0.000
42
1.00000000
0
SEQEND
0
LINE
8
30
6
CONTINUOUS
62
7
39
1.000
10
1144.600
20
395.000
30
0.000
11
1176.600
21
395.000
31
0.000
0
LINE
8
30
6
CONTINUOUS
62
7
39
1.000
10
1160.600
20
379.000
30
0.000
11
1160.600
21
411.000
31
0.000
0
POLYLINE
8
30
6
CONTINUOUS
62
7
66
1
10
0.000
20
0.000
30
0.000
70
1
0
VERTEX
8
30
10
1280.600
20
71.000
30
0.000
42
1.00000000
0
VERTEX
8
30
10
1280.600
20
39.000
30
0.000
42
1.00000000
0
SEQEND
0
LINE
8
30
6
CONTINUOUS
62
7
39
1.000
10
1264.600
20
55.000
30
0.000
11
1296.600
21
55.000
31
0.000
0
LINE
8
30
6
CONTINUOUS
62
7
39
1.000
10
1280.600
20
39.000
30
0.000
11
1280.600
21
71.000
31
0.000
0
POLYLINE
8
30
6
CONTINUOUS
62
7
66
1
10
0.000
20
0.000
30
0.000
70
1
0
VERTEX
8
30
10
1280.600
20
171.000
30
0.000
42
1.00000000
0
VERTEX
8
30
10
1280.600
20
139.000
30
0.000
42
1.00000000
0
SEQEND
0
LINE
8
30
6
CONTINUOUS
62
7
39
1.000
10
1264.600
20
155.000
30
0.000
11
1296.600
21
155.000
31
0.000
0
LINE
8
30
6
CONTINUOUS
62
7
39
1.000
10
1280.600
20
139.000
30
0.000
11
1280.600
21
171.000
31
0.000
0
POLYLINE
8
30
6
CONTINUOUS
62
7
66
1
10
0.000
20
0.000
30
0.000
70
1
0
VERTEX
8
30
10
1280.600
20
311.000
30
0.000
42
1.00000000
0
VERTEX
8
30
10
1280.600
20
279.000
30
0.000
42
1.00000000
0
SEQEND
0
LINE
8
30
6
CONTINUOUS
62
7
39
1.000
10
1264.600
20
295.000
30
0.000
11
1296.600
21
295.000
31
0.000
0
LINE
8
30
6
CONTINUOUS
62
7
39
1.000
10
1280.600
20
279.000
30
0.000
11
1280.600
21
311.000
31
0.000
0
POLYLINE
8
30
6
CONTINUOUS
62
7
66
1
10
0.000
20
0.000
30
0.000
70
1
0
VERTEX
8
30
10
1280.600
20
411.000
30
0.000
42
1.00000000
0
VERTEX
8
30
10
1280.600
20
379.000
30
0.000
42
1.00000000
0
SEQEND
0
LINE
8
30
6
CONTINUOUS
62
7
39
1.000
10
1264.600
20
395.000
30
0.000
11
1296.600
21
395.000
31
0.000
0
LINE
8
30
6
CONTINUOUS
62
7
39
1.000
10
1280.600
20
379.000
30
0.000
11
1280.600
21
411.000
31
0.000
0
POLYLINE
8
30
6
CONTINUOUS
62
7
66
1
10
0.000
20
0.000
30
0.000
70
1
0
VERTEX
8
30
10
1420.600
20
71.000
30
0.000
42
1.00000000
0
VERTEX
8
30
10
1420.600
20
39.000
30
0.000
42
1.00000000
0
SEQEND
0
LINE
8
30
6
CONTINUOUS
62
7
39
1.000
10
1404.600
20
55.000
30
0.000
11
1436.600
21
55.000
31
0.000
0
LINE
8
30
6
CONTINUOUS
62
7
39
1.000
10
1420.600
20
39.000
30
0.000
11
1420.600
21
71.000
31
0.000
0
POLYLINE
8
30
6
CONTINUOUS
62
7
66
1
10
0.000
20
0.000
30
0.000
70
1
0
VERTEX
8
30
10
1420.600
20
171.000
30
0.000
42
1.00000000
0
VERTEX
8
30
10
1420.600
20
139.000
30
0.000
42
1.00000000
0
SEQEND
0
LINE
8
30
6
CONTINUOUS
62
7
39
1.000
10
1404.600
20
155.000
30
0.000
11
1436.600
21
155.000
31
0.000
0
LINE
8
30
6
CONTINUOUS
62
7
39
1.000
10
1420.600
20
139.000
30
0.000
11
1420.600
21
171.000
31
0.000
0
POLYLINE
8
30
6
CONTINUOUS
62
7
66
1
10
0.000
20
0.000
30
0.000
70
1
0
VERTEX
8
30
10
1420.600
20
311.000
30
0.000
42
1.00000000
0
VERTEX
8
30
10
1420.600
20
279.000
30
0.000
42
1.00000000
0
SEQEND
0
LINE
8
30
6
CONTINUOUS
62
7
39
1.000
10
1404.600
20
295.000
30
0.000
11
1436.600
21
295.000
31
0.000
0
LINE
8
30
6
CONTINUOUS
62
7
39
1.000
10
1420.600
20
279.000
30
0.000
11
1420.600
21
311.000
31
0.000
0
POLYLINE
8
30
6
CONTINUOUS
62
7
66
1
10
0.000
20
0.000
30
0.000
70
1
0
VERTEX
8
30
10
1420.600
20
411.000
30
0.000
42
1.00000000
0
VERTEX
8
30
10
1420.600
20
379.000
30
0.000
42
1.00000000
0
SEQEND
0
LINE
8
30
6
CONTINUOUS
62
7
39
1.000
10
1404.600
20
395.000
30
0.000
11
1436.600
21
395.000
31
0.000
0
LINE
8
30
6
CONTINUOUS
62
7
39
1.000
10
1420.600
20
379.000
30
0.000
11
1420.600
21
411.000
31
0.000
0
ENDSEC
0
EOF
