0
SECTION
2
HEADER
9
$PDMODE
70
33
9
$PDSIZE
40
1.000
9
$EXTMIN
10
-110.000
20
-35.000
30
-1.000
9
$EXTMAX
10
1210.000
20
385.000
30
1.000
9
$LIMMIN
10
-110.000
20
-35.000
9
$LIMMAX
10
1210.000
20
385.000
0
ENDSEC
0
SECTION
2
TABLES
0
TABLE
2
LAYER
70
7
0
LAYER
2
SCRIBE
70
0
62
3
6
CONTINUOUS
0
LAYER
2
TEXT
70
0
62
7
6
CONTINUOUS
0
LAYER
2
CUT
70
0
62
7
6
CONTINUOUS
0
LAYER
2
30
70
0
62
7
6
CONTINUOUS
0
ENDTAB
0
TABLE
2
VPORT
70
4
0
VPORT
2
*ACTIVE
70
0
10
0.000000
20
0.000000
11
1.000000
21
1.000000
12
550.000000
22
175.000000
13
0.000000
23
0.000000
14
1.000000
24
1.000000
15
1.000000
25
1.000000
16
0.000000
26
0.000000
36
1.000000
17
0.000000
27
0.000000
37
0.000000
40
1100.000000
41
1.500000
42
50.000000
43
0.000000
44
0.000000
50
0.000000
51
0.000000
71
0
72
100
73
1
74
1
75
0
76
0
77
0
78
0
0
ENDTAB
0
ENDSEC
0
SECTION
2
ENTITIES
0
TEXT
8
SCRIBE
62
3
10
30.000
20
30.000
30
0.000
40
10.000
1
PL138
0
TEXT
8
TEXT
62
7
10
30.000
20
15.000
30
0.000
40
10.000
1
PL25+S355JR+44
0
POLYLINE
8
CUT
6
CONTINUOUS
62
7
66
1
10
0.000
20
0.000
30
0.000
70
1
0
VERTEX
8
CUT
10
0.000
20
0.000
30
0.000
42
0.00000000
0
VERTEX
8
CUT
10
0.000
20
350.000
30
0.000
42
0.00000000
0
VERTEX
8
CUT
10
1100.000
20
350.000
30
0.000
42
0.00000000
0
VERTEX
8
CUT
10
1100.000
20
0.000
30
0.000
42
0.00000000
0
SEQEND
0
POLYLINE
8
30
6
CONTINUOUS
62
7
66
1
10
0.000
20
0.000
30
0.000
70
1
0
VERTEX
8
30
10
60.000
20
131.000
30
0.000
42
1.00000000
0
VERTEX
8
30
10
60.000
20
99.000
30
0.000
42
1.00000000
0
SEQEND
0
LINE
8
30
6
CONTINUOUS
62
7
39
1.000
10
44.000
20
115.000
30
0.000
11
76.000
21
115.000
31
0.000
0
LINE
8
30
6
CONTINUOUS
62
7
39
1.000
10
60.000
20
99.000
30
0.000
11
60.000
21
131.000
31
0.000
0
POLYLINE
8
30
6
CONTINUOUS
62
7
66
1
10
0.000
20
0.000
30
0.000
70
1
0
VERTEX
8
30
10
60.000
20
251.000
30
0.000
42
1.00000000
0
VERTEX
8
30
10
60.000
20
219.000
30
0.000
42
1.00000000
0
SEQEND
0
LINE
8
30
6
CONTINUOUS
62
7
39
1.000
10
44.000
20
235.000
30
0.000
11
76.000
21
235.000
31
0.000
0
LINE
8
30
6
CONTINUOUS
62
7
39
1.000
10
60.000
20
219.000
30
0.000
11
60.000
21
251.000
31
0.000
0
POLYLINE
8
30
6
CONTINUOUS
62
7
66
1
10
0.000
20
0.000
30
0.000
70
1
0
VERTEX
8
30
10
200.000
20
131.000
30
0.000
42
1.00000000
0
VERTEX
8
30
10
200.000
20
99.000
30
0.000
42
1.00000000
0
SEQEND
0
LINE
8
30
6
CONTINUOUS
62
7
39
1.000
10
184.000
20
115.000
30
0.000
11
216.000
21
115.000
31
0.000
0
LINE
8
30
6
CONTINUOUS
62
7
39
1.000
10
200.000
20
99.000
30
0.000
11
200.000
21
131.000
31
0.000
0
POLYLINE
8
30
6
CONTINUOUS
62
7
66
1
10
0.000
20
0.000
30
0.000
70
1
0
VERTEX
8
30
10
200.000
20
251.000
30
0.000
42
1.00000000
0
VERTEX
8
30
10
200.000
20
219.000
30
0.000
42
1.00000000
0
SEQEND
0
LINE
8
30
6
CONTINUOUS
62
7
39
1.000
10
184.000
20
235.000
30
0.000
11
216.000
21
235.000
31
0.000
0
LINE
8
30
6
CONTINUOUS
62
7
39
1.000
10
200.000
20
219.000
30
0.000
11
200.000
21
251.000
31
0.000
0
POLYLINE
8
30
6
CONTINUOUS
62
7
66
1
10
0.000
20
0.000
30
0.000
70
1
0
VERTEX
8
30
10
320.000
20
131.000
30
0.000
42
1.00000000
0
VERTEX
8
30
10
320.000
20
99.000
30
0.000
42
1.00000000
0
SEQEND
0
LINE
8
30
6
CONTINUOUS
62
7
39
1.000
10
304.000
20
115.000
30
0.000
11
336.000
21
115.000
31
0.000
0
LINE
8
30
6
CONTINUOUS
62
7
39
1.000
10
320.000
20
99.000
30
0.000
11
320.000
21
131.000
31
0.000
0
POLYLINE
8
30
6
CONTINUOUS
62
7
66
1
10
0.000
20
0.000
30
0.000
70
1
0
VERTEX
8
30
10
320.000
20
251.000
30
0.000
42
1.00000000
0
VERTEX
8
30
10
320.000
20
219.000
30
0.000
42
1.00000000
0
SEQEND
0
LINE
8
30
6
CONTINUOUS
62
7
39
1.000
10
304.000
20
235.000
30
0.000
11
336.000
21
235.000
31
0.000
0
LINE
8
30
6
CONTINUOUS
62
7
39
1.000
10
320.000
20
219.000
30
0.000
11
320.000
21
251.000
31
0.000
0
POLYLINE
8
30
6
CONTINUOUS
62
7
66
1
10
0.000
20
0.000
30
0.000
70
1
0
VERTEX
8
30
10
555.000
20
131.000
30
0.000
42
1.00000000
0
VERTEX
8
30
10
555.000
20
99.000
30
0.000
42
1.00000000
0
SEQEND
0
LINE
8
30
6
CONTINUOUS
62
7
39
1.000
10
539.000
20
115.000
30
0.000
11
571.000
21
115.000
31
0.000
0
LINE
8
30
6
CONTINUOUS
62
7
39
1.000
10
555.000
20
99.000
30
0.000
11
555.000
21
131.000
31
0.000
0
POLYLINE
8
30
6
CONTINUOUS
62
7
66
1
10
0.000
20
0.000
30
0.000
70
1
0
VERTEX
8
30
10
555.000
20
251.000
30
0.000
42
1.00000000
0
VERTEX
8
30
10
555.000
20
219.000
30
0.000
42
1.00000000
0
SEQEND
0
LINE
8
30
6
CONTINUOUS
62
7
39
1.000
10
539.000
20
235.000
30
0.000
11
571.000
21
235.000
31
0.000
0
LINE
8
30
6
CONTINUOUS
62
7
39
1.000
10
555.000
20
219.000
30
0.000
11
555.000
21
251.000
31
0.000
0
POLYLINE
8
30
6
CONTINUOUS
62
7
66
1
10
0.000
20
0.000
30
0.000
70
1
0
VERTEX
8
30
10
790.000
20
131.000
30
0.000
42
1.00000000
0
VERTEX
8
30
10
790.000
20
99.000
30
0.000
42
1.00000000
0
SEQEND
0
LINE
8
30
6
CONTINUOUS
62
7
39
1.000
10
774.000
20
115.000
30
0.000
11
806.000
21
115.000
31
0.000
0
LINE
8
30
6
CONTINUOUS
62
7
39
1.000
10
790.000
20
99.000
30
0.000
11
790.000
21
131.000
31
0.000
0
POLYLINE
8
30
6
CONTINUOUS
62
7
66
1
10
0.000
20
0.000
30
0.000
70
1
0
VERTEX
8
30
10
790.000
20
251.000
30
0.000
42
1.00000000
0
VERTEX
8
30
10
790.000
20
219.000
30
0.000
42
1.00000000
0
SEQEND
0
LINE
8
30
6
CONTINUOUS
62
7
39
1.000
10
774.000
20
235.000
30
0.000
11
806.000
21
235.000
31
0.000
0
LINE
8
30
6
CONTINUOUS
62
7
39
1.000
10
790.000
20
219.000
30
0.000
11
790.000
21
251.000
31
0.000
0
POLYLINE
8
30
6
CONTINUOUS
62
7
66
1
10
0.000
20
0.000
30
0.000
70
1
0
VERTEX
8
30
10
910.000
20
131.000
30
0.000
42
1.00000000
0
VERTEX
8
30
10
910.000
20
99.000
30
0.000
42
1.00000000
0
SEQEND
0
LINE
8
30
6
CONTINUOUS
62
7
39
1.000
10
894.000
20
115.000
30
0.000
11
926.000
21
115.000
31
0.000
0
LINE
8
30
6
CONTINUOUS
62
7
39
1.000
10
910.000
20
99.000
30
0.000
11
910.000
21
131.000
31
0.000
0
POLYLINE
8
30
6
CONTINUOUS
62
7
66
1
10
0.000
20
0.000
30
0.000
70
1
0
VERTEX
8
30
10
910.000
20
251.000
30
0.000
42
1.00000000
0
VERTEX
8
30
10
910.000
20
219.000
30
0.000
42
1.00000000
0
SEQEND
0
LINE
8
30
6
CONTINUOUS
62
7
39
1.000
10
894.000
20
235.000
30
0.000
11
926.000
21
235.000
31
0.000
0
LINE
8
30
6
CONTINUOUS
62
7
39
1.000
10
910.000
20
219.000
30
0.000
11
910.000
21
251.000
31
0.000
0
POLYLINE
8
30
6
CONTINUOUS
62
7
66
1
10
0.000
20
0.000
30
0.000
70
1
0
VERTEX
8
30
10
1040.000
20
131.000
30
0.000
42
1.00000000
0
VERTEX
8
30
10
1040.000
20
99.000
30
0.000
42
1.00000000
0
SEQEND
0
LINE
8
30
6
CONTINUOUS
62
7
39
1.000
10
1024.000
20
115.000
30
0.000
11
1056.000
21
115.000
31
0.000
0
LINE
8
30
6
CONTINUOUS
62
7
39
1.000
10
1040.000
20
99.000
30
0.000
11
1040.000
21
131.000
31
0.000
0
POLYLINE
8
30
6
CONTINUOUS
62
7
66
1
10
0.000
20
0.000
30
0.000
70
1
0
VERTEX
8
30
10
1040.000
20
251.000
30
0.000
42
1.00000000
0
VERTEX
8
30
10
1040.000
20
219.000
30
0.000
42
1.00000000
0
SEQEND
0
LINE
8
30
6
CONTINUOUS
62
7
39
1.000
10
1024.000
20
235.000
30
0.000
11
1056.000
21
235.000
31
0.000
0
LINE
8
30
6
CONTINUOUS
62
7
39
1.000
10
1040.000
20
219.000
30
0.000
11
1040.000
21
251.000
31
0.000
0
ENDSEC
0
EOF
