0
SECTION
2
HEADER
9
$PDMODE
70
33
9
$PDSIZE
40
1.000
9
$EXTMIN
10
-114.000
20
-30.000
30
-1.000
9
$EXTMAX
10
1254.000
20
330.000
30
1.000
9
$LIMMIN
10
-114.000
20
-30.000
9
$LIMMAX
10
1254.000
20
330.000
0
ENDSEC
0
SECTION
2
TABLES
0
TABLE
2
LAYER
70
7
0
LAYER
2
SCRIBE
70
0
62
3
6
CONTINUOUS
0
LAYER
2
TEXT
70
0
62
7
6
CONTINUOUS
0
LAYER
2
CUT
70
0
62
7
6
CONTINUOUS
0
LAYER
2
30
70
0
62
7
6
CONTINUOUS
0
ENDTAB
0
TABLE
2
VPORT
70
4
0
VPORT
2
*ACTIVE
70
0
10
0.000000
20
0.000000
11
1.000000
21
1.000000
12
570.000000
22
150.000000
13
0.000000
23
0.000000
14
1.000000
24
1.000000
15
1.000000
25
1.000000
16
0.000000
26
0.000000
36
1.000000
17
0.000000
27
0.000000
37
0.000000
40
1140.000000
41
1.500000
42
50.000000
43
0.000000
44
0.000000
50
0.000000
51
0.000000
71
0
72
100
73
1
74
1
75
0
76
0
77
0
78
0
0
ENDTAB
0
ENDSEC
0
SECTION
2
ENTITIES
0
TEXT
8
SCRIBE
62
3
10
30.000
20
30.000
30
0.000
40
10.000
1
PL189
0
TEXT
8
TEXT
62
7
10
30.000
20
15.000
30
0.000
40
10.000
1
PL25+S355JR+28
0
POLYLINE
8
CUT
6
CONTINUOUS
62
7
66
1
10
0.000
20
0.000
30
0.000
70
1
0
VERTEX
8
CUT
10
0.000
20
0.000
30
0.000
42
0.00000000
0
VERTEX
8
CUT
10
0.000
20
300.000
30
0.000
42
0.00000000
0
VERTEX
8
CUT
10
1140.000
20
300.000
30
0.000
42
0.00000000
0
VERTEX
8
CUT
10
1140.000
20
0.000
30
0.000
42
0.00000000
0
SEQEND
0
POLYLINE
8
30
6
CONTINUOUS
62
7
66
1
10
0.000
20
0.000
30
0.000
70
1
0
VERTEX
8
30
10
60.000
20
106.000
30
0.000
42
1.00000000
0
VERTEX
8
30
10
60.000
20
74.000
30
0.000
42
1.00000000
0
SEQEND
0
LINE
8
30
6
CONTINUOUS
62
7
39
1.000
10
44.000
20
90.000
30
0.000
11
76.000
21
90.000
31
0.000
0
LINE
8
30
6
CONTINUOUS
62
7
39
1.000
10
60.000
20
74.000
30
0.000
11
60.000
21
106.000
31
0.000
0
POLYLINE
8
30
6
CONTINUOUS
62
7
66
1
10
0.000
20
0.000
30
0.000
70
1
0
VERTEX
8
30
10
60.000
20
226.000
30
0.000
42
1.00000000
0
VERTEX
8
30
10
60.000
20
194.000
30
0.000
42
1.00000000
0
SEQEND
0
LINE
8
30
6
CONTINUOUS
62
7
39
1.000
10
44.000
20
210.000
30
0.000
11
76.000
21
210.000
31
0.000
0
LINE
8
30
6
CONTINUOUS
62
7
39
1.000
10
60.000
20
194.000
30
0.000
11
60.000
21
226.000
31
0.000
0
POLYLINE
8
30
6
CONTINUOUS
62
7
66
1
10
0.000
20
0.000
30
0.000
70
1
0
VERTEX
8
30
10
200.000
20
106.000
30
0.000
42
1.00000000
0
VERTEX
8
30
10
200.000
20
74.000
30
0.000
42
1.00000000
0
SEQEND
0
LINE
8
30
6
CONTINUOUS
62
7
39
1.000
10
184.000
20
90.000
30
0.000
11
216.000
21
90.000
31
0.000
0
LINE
8
30
6
CONTINUOUS
62
7
39
1.000
10
200.000
20
74.000
30
0.000
11
200.000
21
106.000
31
0.000
0
POLYLINE
8
30
6
CONTINUOUS
62
7
66
1
10
0.000
20
0.000
30
0.000
70
1
0
VERTEX
8
30
10
200.000
20
226.000
30
0.000
42
1.00000000
0
VERTEX
8
30
10
200.000
20
194.000
30
0.000
42
1.00000000
0
SEQEND
0
LINE
8
30
6
CONTINUOUS
62
7
39
1.000
10
184.000
20
210.000
30
0.000
11
216.000
21
210.000
31
0.000
0
LINE
8
30
6
CONTINUOUS
62
7
39
1.000
10
200.000
20
194.000
30
0.000
11
200.000
21
226.000
31
0.000
0
POLYLINE
8
30
6
CONTINUOUS
62
7
66
1
10
0.000
20
0.000
30
0.000
70
1
0
VERTEX
8
30
10
320.000
20
106.000
30
0.000
42
1.00000000
0
VERTEX
8
30
10
320.000
20
74.000
30
0.000
42
1.00000000
0
SEQEND
0
LINE
8
30
6
CONTINUOUS
62
7
39
1.000
10
304.000
20
90.000
30
0.000
11
336.000
21
90.000
31
0.000
0
LINE
8
30
6
CONTINUOUS
62
7
39
1.000
10
320.000
20
74.000
30
0.000
11
320.000
21
106.000
31
0.000
0
POLYLINE
8
30
6
CONTINUOUS
62
7
66
1
10
0.000
20
0.000
30
0.000
70
1
0
VERTEX
8
30
10
320.000
20
226.000
30
0.000
42
1.00000000
0
VERTEX
8
30
10
320.000
20
194.000
30
0.000
42
1.00000000
0
SEQEND
0
LINE
8
30
6
CONTINUOUS
62
7
39
1.000
10
304.000
20
210.000
30
0.000
11
336.000
21
210.000
31
0.000
0
LINE
8
30
6
CONTINUOUS
62
7
39
1.000
10
320.000
20
194.000
30
0.000
11
320.000
21
226.000
31
0.000
0
POLYLINE
8
30
6
CONTINUOUS
62
7
66
1
10
0.000
20
0.000
30
0.000
70
1
0
VERTEX
8
30
10
440.000
20
106.000
30
0.000
42
1.00000000
0
VERTEX
8
30
10
440.000
20
74.000
30
0.000
42
1.00000000
0
SEQEND
0
LINE
8
30
6
CONTINUOUS
62
7
39
1.000
10
424.000
20
90.000
30
0.000
11
456.000
21
90.000
31
0.000
0
LINE
8
30
6
CONTINUOUS
62
7
39
1.000
10
440.000
20
74.000
30
0.000
11
440.000
21
106.000
31
0.000
0
POLYLINE
8
30
6
CONTINUOUS
62
7
66
1
10
0.000
20
0.000
30
0.000
70
1
0
VERTEX
8
30
10
440.000
20
226.000
30
0.000
42
1.00000000
0
VERTEX
8
30
10
440.000
20
194.000
30
0.000
42
1.00000000
0
SEQEND
0
LINE
8
30
6
CONTINUOUS
62
7
39
1.000
10
424.000
20
210.000
30
0.000
11
456.000
21
210.000
31
0.000
0
LINE
8
30
6
CONTINUOUS
62
7
39
1.000
10
440.000
20
194.000
30
0.000
11
440.000
21
226.000
31
0.000
0
POLYLINE
8
30
6
CONTINUOUS
62
7
66
1
10
0.000
20
0.000
30
0.000
70
1
0
VERTEX
8
30
10
700.000
20
106.000
30
0.000
42
1.00000000
0
VERTEX
8
30
10
700.000
20
74.000
30
0.000
42
1.00000000
0
SEQEND
0
LINE
8
30
6
CONTINUOUS
62
7
39
1.000
10
684.000
20
90.000
30
0.000
11
716.000
21
90.000
31
0.000
0
LINE
8
30
6
CONTINUOUS
62
7
39
1.000
10
700.000
20
74.000
30
0.000
11
700.000
21
106.000
31
0.000
0
POLYLINE
8
30
6
CONTINUOUS
62
7
66
1
10
0.000
20
0.000
30
0.000
70
1
0
VERTEX
8
30
10
700.000
20
226.000
30
0.000
42
1.00000000
0
VERTEX
8
30
10
700.000
20
194.000
30
0.000
42
1.00000000
0
SEQEND
0
LINE
8
30
6
CONTINUOUS
62
7
39
1.000
10
684.000
20
210.000
30
0.000
11
716.000
21
210.000
31
0.000
0
LINE
8
30
6
CONTINUOUS
62
7
39
1.000
10
700.000
20
194.000
30
0.000
11
700.000
21
226.000
31
0.000
0
POLYLINE
8
30
6
CONTINUOUS
62
7
66
1
10
0.000
20
0.000
30
0.000
70
1
0
VERTEX
8
30
10
820.000
20
106.000
30
0.000
42
1.00000000
0
VERTEX
8
30
10
820.000
20
74.000
30
0.000
42
1.00000000
0
SEQEND
0
LINE
8
30
6
CONTINUOUS
62
7
39
1.000
10
804.000
20
90.000
30
0.000
11
836.000
21
90.000
31
0.000
0
LINE
8
30
6
CONTINUOUS
62
7
39
1.000
10
820.000
20
74.000
30
0.000
11
820.000
21
106.000
31
0.000
0
POLYLINE
8
30
6
CONTINUOUS
62
7
66
1
10
0.000
20
0.000
30
0.000
70
1
0
VERTEX
8
30
10
820.000
20
226.000
30
0.000
42
1.00000000
0
VERTEX
8
30
10
820.000
20
194.000
30
0.000
42
1.00000000
0
SEQEND
0
LINE
8
30
6
CONTINUOUS
62
7
39
1.000
10
804.000
20
210.000
30
0.000
11
836.000
21
210.000
31
0.000
0
LINE
8
30
6
CONTINUOUS
62
7
39
1.000
10
820.000
20
194.000
30
0.000
11
820.000
21
226.000
31
0.000
0
POLYLINE
8
30
6
CONTINUOUS
62
7
66
1
10
0.000
20
0.000
30
0.000
70
1
0
VERTEX
8
30
10
940.000
20
106.000
30
0.000
42
1.00000000
0
VERTEX
8
30
10
940.000
20
74.000
30
0.000
42
1.00000000
0
SEQEND
0
LINE
8
30
6
CONTINUOUS
62
7
39
1.000
10
924.000
20
90.000
30
0.000
11
956.000
21
90.000
31
0.000
0
LINE
8
30
6
CONTINUOUS
62
7
39
1.000
10
940.000
20
74.000
30
0.000
11
940.000
21
106.000
31
0.000
0
POLYLINE
8
30
6
CONTINUOUS
62
7
66
1
10
0.000
20
0.000
30
0.000
70
1
0
VERTEX
8
30
10
940.000
20
226.000
30
0.000
42
1.00000000
0
VERTEX
8
30
10
940.000
20
194.000
30
0.000
42
1.00000000
0
SEQEND
0
LINE
8
30
6
CONTINUOUS
62
7
39
1.000
10
924.000
20
210.000
30
0.000
11
956.000
21
210.000
31
0.000
0
LINE
8
30
6
CONTINUOUS
62
7
39
1.000
10
940.000
20
194.000
30
0.000
11
940.000
21
226.000
31
0.000
0
POLYLINE
8
30
6
CONTINUOUS
62
7
66
1
10
0.000
20
0.000
30
0.000
70
1
0
VERTEX
8
30
10
1080.000
20
106.000
30
0.000
42
1.00000000
0
VERTEX
8
30
10
1080.000
20
74.000
30
0.000
42
1.00000000
0
SEQEND
0
LINE
8
30
6
CONTINUOUS
62
7
39
1.000
10
1064.000
20
90.000
30
0.000
11
1096.000
21
90.000
31
0.000
0
LINE
8
30
6
CONTINUOUS
62
7
39
1.000
10
1080.000
20
74.000
30
0.000
11
1080.000
21
106.000
31
0.000
0
POLYLINE
8
30
6
CONTINUOUS
62
7
66
1
10
0.000
20
0.000
30
0.000
70
1
0
VERTEX
8
30
10
1080.000
20
226.000
30
0.000
42
1.00000000
0
VERTEX
8
30
10
1080.000
20
194.000
30
0.000
42
1.00000000
0
SEQEND
0
LINE
8
30
6
CONTINUOUS
62
7
39
1.000
10
1064.000
20
210.000
30
0.000
11
1096.000
21
210.000
31
0.000
0
LINE
8
30
6
CONTINUOUS
62
7
39
1.000
10
1080.000
20
194.000
30
0.000
11
1080.000
21
226.000
31
0.000
0
ENDSEC
0
EOF
