0
SECTION
2
HEADER
9
$PDMODE
70
33
9
$PDSIZE
40
1.000
9
$EXTMIN
10
-146.000
20
-52.000
30
-1.000
9
$EXTMAX
10
1606.000
20
572.000
30
1.000
9
$LIMMIN
10
-146.000
20
-52.000
9
$LIMMAX
10
1606.000
20
572.000
0
ENDSEC
0
SECTION
2
TABLES
0
TABLE
2
LAYER
70
7
0
LAYER
2
SCRIBE
70
0
62
3
6
CONTINUOUS
0
LAYER
2
TEXT
70
0
62
7
6
CONTINUOUS
0
LAYER
2
CUT
70
0
62
7
6
CONTINUOUS
0
LAYER
2
OVERSIZE
70
0
62
7
6
CONTINUOUS
0
ENDTAB
0
TABLE
2
VPORT
70
4
0
VPORT
2
*ACTIVE
70
0
10
0.000000
20
0.000000
11
1.000000
21
1.000000
12
730.000000
22
260.000000
13
0.000000
23
0.000000
14
1.000000
24
1.000000
15
1.000000
25
1.000000
16
0.000000
26
0.000000
36
1.000000
17
0.000000
27
0.000000
37
0.000000
40
1460.000000
41
1.500000
42
50.000000
43
0.000000
44
0.000000
50
0.000000
51
0.000000
71
0
72
100
73
1
74
1
75
0
76
0
77
0
78
0
0
ENDTAB
0
ENDSEC
0
SECTION
2
ENTITIES
0
TEXT
8
SCRIBE
62
3
10
30.000
20
30.000
30
0.000
40
10.000
1
PL212
0
TEXT
8
TEXT
62
7
10
30.000
20
15.000
30
0.000
40
10.000
1
PL25+S355JR+7
0
POLYLINE
8
CUT
6
CONTINUOUS
62
7
66
1
10
0.000
20
0.000
30
0.000
70
1
0
VERTEX
8
CUT
10
0.000
20
0.000
30
0.000
42
0.00000000
0
VERTEX
8
CUT
10
0.000
20
520.000
30
0.000
42
0.00000000
0
VERTEX
8
CUT
10
1460.000
20
520.000
30
0.000
42
0.00000000
0
VERTEX
8
CUT
10
1460.000
20
0.000
30
0.000
42
0.00000000
0
SEQEND
0
POLYLINE
8
OVERSIZE
6
CONTINUOUS
62
7
66
1
10
0.000
20
0.000
30
0.000
70
1
0
VERTEX
8
OVERSIZE
10
70.000
20
88.000
30
0.000
42
1.00000000
0
VERTEX
8
OVERSIZE
10
70.000
20
52.000
30
0.000
42
1.00000000
0
SEQEND
0
LINE
8
OVERSIZE
6
CONTINUOUS
62
7
39
1.000
10
52.000
20
70.000
30
0.000
11
88.000
21
70.000
31
0.000
0
LINE
8
OVERSIZE
6
CONTINUOUS
62
7
39
1.000
10
70.000
20
52.000
30
0.000
11
70.000
21
88.000
31
0.000
0
POLYLINE
8
OVERSIZE
6
CONTINUOUS
62
7
66
1
10
0.000
20
0.000
30
0.000
70
1
0
VERTEX
8
OVERSIZE
10
70.000
20
208.000
30
0.000
42
1.00000000
0
VERTEX
8
OVERSIZE
10
70.000
20
172.000
30
0.000
42
1.00000000
0
SEQEND
0
LINE
8
OVERSIZE
6
CONTINUOUS
62
7
39
1.000
10
52.000
20
190.000
30
0.000
11
88.000
21
190.000
31
0.000
0
LINE
8
OVERSIZE
6
CONTINUOUS
62
7
39
1.000
10
70.000
20
172.000
30
0.000
11
70.000
21
208.000
31
0.000
0
POLYLINE
8
OVERSIZE
6
CONTINUOUS
62
7
66
1
10
0.000
20
0.000
30
0.000
70
1
0
VERTEX
8
OVERSIZE
10
70.000
20
348.000
30
0.000
42
1.00000000
0
VERTEX
8
OVERSIZE
10
70.000
20
312.000
30
0.000
42
1.00000000
0
SEQEND
0
LINE
8
OVERSIZE
6
CONTINUOUS
62
7
39
1.000
10
52.000
20
330.000
30
0.000
11
88.000
21
330.000
31
0.000
0
LINE
8
OVERSIZE
6
CONTINUOUS
62
7
39
1.000
10
70.000
20
312.000
30
0.000
11
70.000
21
348.000
31
0.000
0
POLYLINE
8
OVERSIZE
6
CONTINUOUS
62
7
66
1
10
0.000
20
0.000
30
0.000
70
1
0
VERTEX
8
OVERSIZE
10
70.000
20
468.000
30
0.000
42
1.00000000
0
VERTEX
8
OVERSIZE
10
70.000
20
432.000
30
0.000
42
1.00000000
0
SEQEND
0
LINE
8
OVERSIZE
6
CONTINUOUS
62
7
39
1.000
10
52.000
20
450.000
30
0.000
11
88.000
21
450.000
31
0.000
0
LINE
8
OVERSIZE
6
CONTINUOUS
62
7
39
1.000
10
70.000
20
432.000
30
0.000
11
70.000
21
468.000
31
0.000
0
POLYLINE
8
OVERSIZE
6
CONTINUOUS
62
7
66
1
10
0.000
20
0.000
30
0.000
70
1
0
VERTEX
8
OVERSIZE
10
200.000
20
88.000
30
0.000
42
1.00000000
0
VERTEX
8
OVERSIZE
10
200.000
20
52.000
30
0.000
42
1.00000000
0
SEQEND
0
LINE
8
OVERSIZE
6
CONTINUOUS
62
7
39
1.000
10
182.000
20
70.000
30
0.000
11
218.000
21
70.000
31
0.000
0
LINE
8
OVERSIZE
6
CONTINUOUS
62
7
39
1.000
10
200.000
20
52.000
30
0.000
11
200.000
21
88.000
31
0.000
0
POLYLINE
8
OVERSIZE
6
CONTINUOUS
62
7
66
1
10
0.000
20
0.000
30
0.000
70
1
0
VERTEX
8
OVERSIZE
10
200.000
20
208.000
30
0.000
42
1.00000000
0
VERTEX
8
OVERSIZE
10
200.000
20
172.000
30
0.000
42
1.00000000
0
SEQEND
0
LINE
8
OVERSIZE
6
CONTINUOUS
62
7
39
1.000
10
182.000
20
190.000
30
0.000
11
218.000
21
190.000
31
0.000
0
LINE
8
OVERSIZE
6
CONTINUOUS
62
7
39
1.000
10
200.000
20
172.000
30
0.000
11
200.000
21
208.000
31
0.000
0
POLYLINE
8
OVERSIZE
6
CONTINUOUS
62
7
66
1
10
0.000
20
0.000
30
0.000
70
1
0
VERTEX
8
OVERSIZE
10
200.000
20
348.000
30
0.000
42
1.00000000
0
VERTEX
8
OVERSIZE
10
200.000
20
312.000
30
0.000
42
1.00000000
0
SEQEND
0
LINE
8
OVERSIZE
6
CONTINUOUS
62
7
39
1.000
10
182.000
20
330.000
30
0.000
11
218.000
21
330.000
31
0.000
0
LINE
8
OVERSIZE
6
CONTINUOUS
62
7
39
1.000
10
200.000
20
312.000
30
0.000
11
200.000
21
348.000
31
0.000
0
POLYLINE
8
OVERSIZE
6
CONTINUOUS
62
7
66
1
10
0.000
20
0.000
30
0.000
70
1
0
VERTEX
8
OVERSIZE
10
200.000
20
468.000
30
0.000
42
1.00000000
0
VERTEX
8
OVERSIZE
10
200.000
20
432.000
30
0.000
42
1.00000000
0
SEQEND
0
LINE
8
OVERSIZE
6
CONTINUOUS
62
7
39
1.000
10
182.000
20
450.000
30
0.000
11
218.000
21
450.000
31
0.000
0
LINE
8
OVERSIZE
6
CONTINUOUS
62
7
39
1.000
10
200.000
20
432.000
30
0.000
11
200.000
21
468.000
31
0.000
0
POLYLINE
8
OVERSIZE
6
CONTINUOUS
62
7
66
1
10
0.000
20
0.000
30
0.000
70
1
0
VERTEX
8
OVERSIZE
10
360.000
20
88.000
30
0.000
42
1.00000000
0
VERTEX
8
OVERSIZE
10
360.000
20
52.000
30
0.000
42
1.00000000
0
SEQEND
0
LINE
8
OVERSIZE
6
CONTINUOUS
62
7
39
1.000
10
342.000
20
70.000
30
0.000
11
378.000
21
70.000
31
0.000
0
LINE
8
OVERSIZE
6
CONTINUOUS
62
7
39
1.000
10
360.000
20
52.000
30
0.000
11
360.000
21
88.000
31
0.000
0
POLYLINE
8
OVERSIZE
6
CONTINUOUS
62
7
66
1
10
0.000
20
0.000
30
0.000
70
1
0
VERTEX
8
OVERSIZE
10
360.000
20
208.000
30
0.000
42
1.00000000
0
VERTEX
8
OVERSIZE
10
360.000
20
172.000
30
0.000
42
1.00000000
0
SEQEND
0
LINE
8
OVERSIZE
6
CONTINUOUS
62
7
39
1.000
10
342.000
20
190.000
30
0.000
11
378.000
21
190.000
31
0.000
0
LINE
8
OVERSIZE
6
CONTINUOUS
62
7
39
1.000
10
360.000
20
172.000
30
0.000
11
360.000
21
208.000
31
0.000
0
POLYLINE
8
OVERSIZE
6
CONTINUOUS
62
7
66
1
10
0.000
20
0.000
30
0.000
70
1
0
VERTEX
8
OVERSIZE
10
360.000
20
348.000
30
0.000
42
1.00000000
0
VERTEX
8
OVERSIZE
10
360.000
20
312.000
30
0.000
42
1.00000000
0
SEQEND
0
LINE
8
OVERSIZE
6
CONTINUOUS
62
7
39
1.000
10
342.000
20
330.000
30
0.000
11
378.000
21
330.000
31
0.000
0
LINE
8
OVERSIZE
6
CONTINUOUS
62
7
39
1.000
10
360.000
20
312.000
30
0.000
11
360.000
21
348.000
31
0.000
0
POLYLINE
8
OVERSIZE
6
CONTINUOUS
62
7
66
1
10
0.000
20
0.000
30
0.000
70
1
0
VERTEX
8
OVERSIZE
10
360.000
20
468.000
30
0.000
42
1.00000000
0
VERTEX
8
OVERSIZE
10
360.000
20
432.000
30
0.000
42
1.00000000
0
SEQEND
0
LINE
8
OVERSIZE
6
CONTINUOUS
62
7
39
1.000
10
342.000
20
450.000
30
0.000
11
378.000
21
450.000
31
0.000
0
LINE
8
OVERSIZE
6
CONTINUOUS
62
7
39
1.000
10
360.000
20
432.000
30
0.000
11
360.000
21
468.000
31
0.000
0
POLYLINE
8
OVERSIZE
6
CONTINUOUS
62
7
66
1
10
0.000
20
0.000
30
0.000
70
1
0
VERTEX
8
OVERSIZE
10
490.000
20
88.000
30
0.000
42
1.00000000
0
VERTEX
8
OVERSIZE
10
490.000
20
52.000
30
0.000
42
1.00000000
0
SEQEND
0
LINE
8
OVERSIZE
6
CONTINUOUS
62
7
39
1.000
10
472.000
20
70.000
30
0.000
11
508.000
21
70.000
31
0.000
0
LINE
8
OVERSIZE
6
CONTINUOUS
62
7
39
1.000
10
490.000
20
52.000
30
0.000
11
490.000
21
88.000
31
0.000
0
POLYLINE
8
OVERSIZE
6
CONTINUOUS
62
7
66
1
10
0.000
20
0.000
30
0.000
70
1
0
VERTEX
8
OVERSIZE
10
490.000
20
208.000
30
0.000
42
1.00000000
0
VERTEX
8
OVERSIZE
10
490.000
20
172.000
30
0.000
42
1.00000000
0
SEQEND
0
LINE
8
OVERSIZE
6
CONTINUOUS
62
7
39
1.000
10
472.000
20
190.000
30
0.000
11
508.000
21
190.000
31
0.000
0
LINE
8
OVERSIZE
6
CONTINUOUS
62
7
39
1.000
10
490.000
20
172.000
30
0.000
11
490.000
21
208.000
31
0.000
0
POLYLINE
8
OVERSIZE
6
CONTINUOUS
62
7
66
1
10
0.000
20
0.000
30
0.000
70
1
0
VERTEX
8
OVERSIZE
10
490.000
20
348.000
30
0.000
42
1.00000000
0
VERTEX
8
OVERSIZE
10
490.000
20
312.000
30
0.000
42
1.00000000
0
SEQEND
0
LINE
8
OVERSIZE
6
CONTINUOUS
62
7
39
1.000
10
472.000
20
330.000
30
0.000
11
508.000
21
330.000
31
0.000
0
LINE
8
OVERSIZE
6
CONTINUOUS
62
7
39
1.000
10
490.000
20
312.000
30
0.000
11
490.000
21
348.000
31
0.000
0
POLYLINE
8
OVERSIZE
6
CONTINUOUS
62
7
66
1
10
0.000
20
0.000
30
0.000
70
1
0
VERTEX
8
OVERSIZE
10
490.000
20
468.000
30
0.000
42
1.00000000
0
VERTEX
8
OVERSIZE
10
490.000
20
432.000
30
0.000
42
1.00000000
0
SEQEND
0
LINE
8
OVERSIZE
6
CONTINUOUS
62
7
39
1.000
10
472.000
20
450.000
30
0.000
11
508.000
21
450.000
31
0.000
0
LINE
8
OVERSIZE
6
CONTINUOUS
62
7
39
1.000
10
490.000
20
432.000
30
0.000
11
490.000
21
468.000
31
0.000
0
POLYLINE
8
OVERSIZE
6
CONTINUOUS
62
7
66
1
10
0.000
20
0.000
30
0.000
70
1
0
VERTEX
8
OVERSIZE
10
610.000
20
185.000
30
0.000
42
1.00000000
0
VERTEX
8
OVERSIZE
10
610.000
20
135.000
30
0.000
42
1.00000000
0
SEQEND
0
LINE
8
OVERSIZE
6
CONTINUOUS
62
7
39
1.000
10
585.000
20
160.000
30
0.000
11
635.000
21
160.000
31
0.000
0
LINE
8
OVERSIZE
6
CONTINUOUS
62
7
39
1.000
10
610.000
20
135.000
30
0.000
11
610.000
21
185.000
31
0.000
0
POLYLINE
8
OVERSIZE
6
CONTINUOUS
62
7
66
1
10
0.000
20
0.000
30
0.000
70
1
0
VERTEX
8
OVERSIZE
10
610.000
20
385.000
30
0.000
42
1.00000000
0
VERTEX
8
OVERSIZE
10
610.000
20
335.000
30
0.000
42
1.00000000
0
SEQEND
0
LINE
8
OVERSIZE
6
CONTINUOUS
62
7
39
1.000
10
585.000
20
360.000
30
0.000
11
635.000
21
360.000
31
0.000
0
LINE
8
OVERSIZE
6
CONTINUOUS
62
7
39
1.000
10
610.000
20
335.000
30
0.000
11
610.000
21
385.000
31
0.000
0
POLYLINE
8
OVERSIZE
6
CONTINUOUS
62
7
66
1
10
0.000
20
0.000
30
0.000
70
1
0
VERTEX
8
OVERSIZE
10
730.000
20
88.000
30
0.000
42
1.00000000
0
VERTEX
8
OVERSIZE
10
730.000
20
52.000
30
0.000
42
1.00000000
0
SEQEND
0
LINE
8
OVERSIZE
6
CONTINUOUS
62
7
39
1.000
10
712.000
20
70.000
30
0.000
11
748.000
21
70.000
31
0.000
0
LINE
8
OVERSIZE
6
CONTINUOUS
62
7
39
1.000
10
730.000
20
52.000
30
0.000
11
730.000
21
88.000
31
0.000
0
POLYLINE
8
OVERSIZE
6
CONTINUOUS
62
7
66
1
10
0.000
20
0.000
30
0.000
70
1
0
VERTEX
8
OVERSIZE
10
730.000
20
208.000
30
0.000
42
1.00000000
0
VERTEX
8
OVERSIZE
10
730.000
20
172.000
30
0.000
42
1.00000000
0
SEQEND
0
LINE
8
OVERSIZE
6
CONTINUOUS
62
7
39
1.000
10
712.000
20
190.000
30
0.000
11
748.000
21
190.000
31
0.000
0
LINE
8
OVERSIZE
6
CONTINUOUS
62
7
39
1.000
10
730.000
20
172.000
30
0.000
11
730.000
21
208.000
31
0.000
0
POLYLINE
8
OVERSIZE
6
CONTINUOUS
62
7
66
1
10
0.000
20
0.000
30
0.000
70
1
0
VERTEX
8
OVERSIZE
10
730.000
20
348.000
30
0.000
42
1.00000000
0
VERTEX
8
OVERSIZE
10
730.000
20
312.000
30
0.000
42
1.00000000
0
SEQEND
0
LINE
8
OVERSIZE
6
CONTINUOUS
62
7
39
1.000
10
712.000
20
330.000
30
0.000
11
748.000
21
330.000
31
0.000
0
LINE
8
OVERSIZE
6
CONTINUOUS
62
7
39
1.000
10
730.000
20
312.000
30
0.000
11
730.000
21
348.000
31
0.000
0
POLYLINE
8
OVERSIZE
6
CONTINUOUS
62
7
66
1
10
0.000
20
0.000
30
0.000
70
1
0
VERTEX
8
OVERSIZE
10
730.000
20
468.000
30
0.000
42
1.00000000
0
VERTEX
8
OVERSIZE
10
730.000
20
432.000
30
0.000
42
1.00000000
0
SEQEND
0
LINE
8
OVERSIZE
6
CONTINUOUS
62
7
39
1.000
10
712.000
20
450.000
30
0.000
11
748.000
21
450.000
31
0.000
0
LINE
8
OVERSIZE
6
CONTINUOUS
62
7
39
1.000
10
730.000
20
432.000
30
0.000
11
730.000
21
468.000
31
0.000
0
POLYLINE
8
OVERSIZE
6
CONTINUOUS
62
7
66
1
10
0.000
20
0.000
30
0.000
70
1
0
VERTEX
8
OVERSIZE
10
970.000
20
88.000
30
0.000
42
1.00000000
0
VERTEX
8
OVERSIZE
10
970.000
20
52.000
30
0.000
42
1.00000000
0
SEQEND
0
LINE
8
OVERSIZE
6
CONTINUOUS
62
7
39
1.000
10
952.000
20
70.000
30
0.000
11
988.000
21
70.000
31
0.000
0
LINE
8
OVERSIZE
6
CONTINUOUS
62
7
39
1.000
10
970.000
20
52.000
30
0.000
11
970.000
21
88.000
31
0.000
0
POLYLINE
8
OVERSIZE
6
CONTINUOUS
62
7
66
1
10
0.000
20
0.000
30
0.000
70
1
0
VERTEX
8
OVERSIZE
10
970.000
20
208.000
30
0.000
42
1.00000000
0
VERTEX
8
OVERSIZE
10
970.000
20
172.000
30
0.000
42
1.00000000
0
SEQEND
0
LINE
8
OVERSIZE
6
CONTINUOUS
62
7
39
1.000
10
952.000
20
190.000
30
0.000
11
988.000
21
190.000
31
0.000
0
LINE
8
OVERSIZE
6
CONTINUOUS
62
7
39
1.000
10
970.000
20
172.000
30
0.000
11
970.000
21
208.000
31
0.000
0
POLYLINE
8
OVERSIZE
6
CONTINUOUS
62
7
66
1
10
0.000
20
0.000
30
0.000
70
1
0
VERTEX
8
OVERSIZE
10
970.000
20
348.000
30
0.000
42
1.00000000
0
VERTEX
8
OVERSIZE
10
970.000
20
312.000
30
0.000
42
1.00000000
0
SEQEND
0
LINE
8
OVERSIZE
6
CONTINUOUS
62
7
39
1.000
10
952.000
20
330.000
30
0.000
11
988.000
21
330.000
31
0.000
0
LINE
8
OVERSIZE
6
CONTINUOUS
62
7
39
1.000
10
970.000
20
312.000
30
0.000
11
970.000
21
348.000
31
0.000
0
POLYLINE
8
OVERSIZE
6
CONTINUOUS
62
7
66
1
10
0.000
20
0.000
30
0.000
70
1
0
VERTEX
8
OVERSIZE
10
970.000
20
468.000
30
0.000
42
1.00000000
0
VERTEX
8
OVERSIZE
10
970.000
20
432.000
30
0.000
42
1.00000000
0
SEQEND
0
LINE
8
OVERSIZE
6
CONTINUOUS
62
7
39
1.000
10
952.000
20
450.000
30
0.000
11
988.000
21
450.000
31
0.000
0
LINE
8
OVERSIZE
6
CONTINUOUS
62
7
39
1.000
10
970.000
20
432.000
30
0.000
11
970.000
21
468.000
31
0.000
0
POLYLINE
8
OVERSIZE
6
CONTINUOUS
62
7
66
1
10
0.000
20
0.000
30
0.000
70
1
0
VERTEX
8
OVERSIZE
10
1100.000
20
88.000
30
0.000
42
1.00000000
0
VERTEX
8
OVERSIZE
10
1100.000
20
52.000
30
0.000
42
1.00000000
0
SEQEND
0
LINE
8
OVERSIZE
6
CONTINUOUS
62
7
39
1.000
10
1082.000
20
70.000
30
0.000
11
1118.000
21
70.000
31
0.000
0
LINE
8
OVERSIZE
6
CONTINUOUS
62
7
39
1.000
10
1100.000
20
52.000
30
0.000
11
1100.000
21
88.000
31
0.000
0
POLYLINE
8
OVERSIZE
6
CONTINUOUS
62
7
66
1
10
0.000
20
0.000
30
0.000
70
1
0
VERTEX
8
OVERSIZE
10
1100.000
20
208.000
30
0.000
42
1.00000000
0
VERTEX
8
OVERSIZE
10
1100.000
20
172.000
30
0.000
42
1.00000000
0
SEQEND
0
LINE
8
OVERSIZE
6
CONTINUOUS
62
7
39
1.000
10
1082.000
20
190.000
30
0.000
11
1118.000
21
190.000
31
0.000
0
LINE
8
OVERSIZE
6
CONTINUOUS
62
7
39
1.000
10
1100.000
20
172.000
30
0.000
11
1100.000
21
208.000
31
0.000
0
POLYLINE
8
OVERSIZE
6
CONTINUOUS
62
7
66
1
10
0.000
20
0.000
30
0.000
70
1
0
VERTEX
8
OVERSIZE
10
1100.000
20
348.000
30
0.000
42
1.00000000
0
VERTEX
8
OVERSIZE
10
1100.000
20
312.000
30
0.000
42
1.00000000
0
SEQEND
0
LINE
8
OVERSIZE
6
CONTINUOUS
62
7
39
1.000
10
1082.000
20
330.000
30
0.000
11
1118.000
21
330.000
31
0.000
0
LINE
8
OVERSIZE
6
CONTINUOUS
62
7
39
1.000
10
1100.000
20
312.000
30
0.000
11
1100.000
21
348.000
31
0.000
0
POLYLINE
8
OVERSIZE
6
CONTINUOUS
62
7
66
1
10
0.000
20
0.000
30
0.000
70
1
0
VERTEX
8
OVERSIZE
10
1100.000
20
468.000
30
0.000
42
1.00000000
0
VERTEX
8
OVERSIZE
10
1100.000
20
432.000
30
0.000
42
1.00000000
0
SEQEND
0
LINE
8
OVERSIZE
6
CONTINUOUS
62
7
39
1.000
10
1082.000
20
450.000
30
0.000
11
1118.000
21
450.000
31
0.000
0
LINE
8
OVERSIZE
6
CONTINUOUS
62
7
39
1.000
10
1100.000
20
432.000
30
0.000
11
1100.000
21
468.000
31
0.000
0
POLYLINE
8
OVERSIZE
6
CONTINUOUS
62
7
66
1
10
0.000
20
0.000
30
0.000
70
1
0
VERTEX
8
OVERSIZE
10
1260.000
20
88.000
30
0.000
42
1.00000000
0
VERTEX
8
OVERSIZE
10
1260.000
20
52.000
30
0.000
42
1.00000000
0
SEQEND
0
LINE
8
OVERSIZE
6
CONTINUOUS
62
7
39
1.000
10
1242.000
20
70.000
30
0.000
11
1278.000
21
70.000
31
0.000
0
LINE
8
OVERSIZE
6
CONTINUOUS
62
7
39
1.000
10
1260.000
20
52.000
30
0.000
11
1260.000
21
88.000
31
0.000
0
POLYLINE
8
OVERSIZE
6
CONTINUOUS
62
7
66
1
10
0.000
20
0.000
30
0.000
70
1
0
VERTEX
8
OVERSIZE
10
1260.000
20
208.000
30
0.000
42
1.00000000
0
VERTEX
8
OVERSIZE
10
1260.000
20
172.000
30
0.000
42
1.00000000
0
SEQEND
0
LINE
8
OVERSIZE
6
CONTINUOUS
62
7
39
1.000
10
1242.000
20
190.000
30
0.000
11
1278.000
21
190.000
31
0.000
0
LINE
8
OVERSIZE
6
CONTINUOUS
62
7
39
1.000
10
1260.000
20
172.000
30
0.000
11
1260.000
21
208.000
31
0.000
0
POLYLINE
8
OVERSIZE
6
CONTINUOUS
62
7
66
1
10
0.000
20
0.000
30
0.000
70
1
0
VERTEX
8
OVERSIZE
10
1260.000
20
348.000
30
0.000
42
1.00000000
0
VERTEX
8
OVERSIZE
10
1260.000
20
312.000
30
0.000
42
1.00000000
0
SEQEND
0
LINE
8
OVERSIZE
6
CONTINUOUS
62
7
39
1.000
10
1242.000
20
330.000
30
0.000
11
1278.000
21
330.000
31
0.000
0
LINE
8
OVERSIZE
6
CONTINUOUS
62
7
39
1.000
10
1260.000
20
312.000
30
0.000
11
1260.000
21
348.000
31
0.000
0
POLYLINE
8
OVERSIZE
6
CONTINUOUS
62
7
66
1
10
0.000
20
0.000
30
0.000
70
1
0
VERTEX
8
OVERSIZE
10
1260.000
20
468.000
30
0.000
42
1.00000000
0
VERTEX
8
OVERSIZE
10
1260.000
20
432.000
30
0.000
42
1.00000000
0
SEQEND
0
LINE
8
OVERSIZE
6
CONTINUOUS
62
7
39
1.000
10
1242.000
20
450.000
30
0.000
11
1278.000
21
450.000
31
0.000
0
LINE
8
OVERSIZE
6
CONTINUOUS
62
7
39
1.000
10
1260.000
20
432.000
30
0.000
11
1260.000
21
468.000
31
0.000
0
POLYLINE
8
OVERSIZE
6
CONTINUOUS
62
7
66
1
10
0.000
20
0.000
30
0.000
70
1
0
VERTEX
8
OVERSIZE
10
1390.000
20
88.000
30
0.000
42
1.00000000
0
VERTEX
8
OVERSIZE
10
1390.000
20
52.000
30
0.000
42
1.00000000
0
SEQEND
0
LINE
8
OVERSIZE
6
CONTINUOUS
62
7
39
1.000
10
1372.000
20
70.000
30
0.000
11
1408.000
21
70.000
31
0.000
0
LINE
8
OVERSIZE
6
CONTINUOUS
62
7
39
1.000
10
1390.000
20
52.000
30
0.000
11
1390.000
21
88.000
31
0.000
0
POLYLINE
8
OVERSIZE
6
CONTINUOUS
62
7
66
1
10
0.000
20
0.000
30
0.000
70
1
0
VERTEX
8
OVERSIZE
10
1390.000
20
208.000
30
0.000
42
1.00000000
0
VERTEX
8
OVERSIZE
10
1390.000
20
172.000
30
0.000
42
1.00000000
0
SEQEND
0
LINE
8
OVERSIZE
6
CONTINUOUS
62
7
39
1.000
10
1372.000
20
190.000
30
0.000
11
1408.000
21
190.000
31
0.000
0
LINE
8
OVERSIZE
6
CONTINUOUS
62
7
39
1.000
10
1390.000
20
172.000
30
0.000
11
1390.000
21
208.000
31
0.000
0
POLYLINE
8
OVERSIZE
6
CONTINUOUS
62
7
66
1
10
0.000
20
0.000
30
0.000
70
1
0
VERTEX
8
OVERSIZE
10
1390.000
20
348.000
30
0.000
42
1.00000000
0
VERTEX
8
OVERSIZE
10
1390.000
20
312.000
30
0.000
42
1.00000000
0
SEQEND
0
LINE
8
OVERSIZE
6
CONTINUOUS
62
7
39
1.000
10
1372.000
20
330.000
30
0.000
11
1408.000
21
330.000
31
0.000
0
LINE
8
OVERSIZE
6
CONTINUOUS
62
7
39
1.000
10
1390.000
20
312.000
30
0.000
11
1390.000
21
348.000
31
0.000
0
POLYLINE
8
OVERSIZE
6
CONTINUOUS
62
7
66
1
10
0.000
20
0.000
30
0.000
70
1
0
VERTEX
8
OVERSIZE
10
1390.000
20
468.000
30
0.000
42
1.00000000
0
VERTEX
8
OVERSIZE
10
1390.000
20
432.000
30
0.000
42
1.00000000
0
SEQEND
0
LINE
8
OVERSIZE
6
CONTINUOUS
62
7
39
1.000
10
1372.000
20
450.000
30
0.000
11
1408.000
21
450.000
31
0.000
0
LINE
8
OVERSIZE
6
CONTINUOUS
62
7
39
1.000
10
1390.000
20
432.000
30
0.000
11
1390.000
21
468.000
31
0.000
0
ENDSEC
0
EOF
