0
SECTION
2
HEADER
9
$PDMODE
70
33
9
$PDSIZE
40
1.000
9
$EXTMIN
10
-186.700
20
-40.000
30
-1.000
9
$EXTMAX
10
2053.700
20
440.000
30
1.000
9
$LIMMIN
10
-186.700
20
-40.000
9
$LIMMAX
10
2053.700
20
440.000
0
ENDSEC
0
SECTION
2
TABLES
0
TABLE
2
LAYER
70
7
0
LAYER
2
SCRIBE
70
0
62
3
6
CONTINUOUS
0
LAYER
2
TEXT
70
0
62
7
6
CONTINUOUS
0
LAYER
2
CUT
70
0
62
7
6
CONTINUOUS
0
LAYER
2
30
70
0
62
7
6
CONTINUOUS
0
ENDTAB
0
TABLE
2
VPORT
70
4
0
VPORT
2
*ACTIVE
70
0
10
0.000000
20
0.000000
11
1.000000
21
1.000000
12
933.500000
22
200.000000
13
0.000000
23
0.000000
14
1.000000
24
1.000000
15
1.000000
25
1.000000
16
0.000000
26
0.000000
36
1.000000
17
0.000000
27
0.000000
37
0.000000
40
1867.000000
41
1.500000
42
50.000000
43
0.000000
44
0.000000
50
0.000000
51
0.000000
71
0
72
100
73
1
74
1
75
0
76
0
77
0
78
0
0
ENDTAB
0
ENDSEC
0
SECTION
2
ENTITIES
0
TEXT
8
SCRIBE
62
3
10
30.000
20
30.000
30
0.000
40
10.000
1
PL255
0
TEXT
8
TEXT
62
7
10
30.000
20
15.000
30
0.000
40
10.000
1
PL25+S355JR+1
0
POLYLINE
8
CUT
6
CONTINUOUS
62
7
66
1
10
0.000
20
0.000
30
0.000
70
1
0
VERTEX
8
CUT
10
0.000
20
0.000
30
0.000
42
0.00000000
0
VERTEX
8
CUT
10
0.000
20
400.000
30
0.000
42
0.00000000
0
VERTEX
8
CUT
10
1867.000
20
400.000
30
0.000
42
0.00000000
0
VERTEX
8
CUT
10
1867.000
20
0.000
30
0.000
42
0.00000000
0
SEQEND
0
POLYLINE
8
30
6
CONTINUOUS
62
7
66
1
10
0.000
20
0.000
30
0.000
70
1
0
VERTEX
8
30
10
60.000
20
129.500
30
0.000
42
1.00000000
0
VERTEX
8
30
10
60.000
20
100.500
30
0.000
42
1.00000000
0
SEQEND
0
LINE
8
30
6
CONTINUOUS
62
7
39
1.000
10
45.500
20
115.000
30
0.000
11
74.500
21
115.000
31
0.000
0
LINE
8
30
6
CONTINUOUS
62
7
39
1.000
10
60.000
20
100.500
30
0.000
11
60.000
21
129.500
31
0.000
0
POLYLINE
8
30
6
CONTINUOUS
62
7
66
1
10
0.000
20
0.000
30
0.000
70
1
0
VERTEX
8
30
10
60.000
20
299.500
30
0.000
42
1.00000000
0
VERTEX
8
30
10
60.000
20
270.500
30
0.000
42
1.00000000
0
SEQEND
0
LINE
8
30
6
CONTINUOUS
62
7
39
1.000
10
45.500
20
285.000
30
0.000
11
74.500
21
285.000
31
0.000
0
LINE
8
30
6
CONTINUOUS
62
7
39
1.000
10
60.000
20
270.500
30
0.000
11
60.000
21
299.500
31
0.000
0
POLYLINE
8
30
6
CONTINUOUS
62
7
66
1
10
0.000
20
0.000
30
0.000
70
1
0
VERTEX
8
30
10
190.000
20
129.500
30
0.000
42
1.00000000
0
VERTEX
8
30
10
190.000
20
100.500
30
0.000
42
1.00000000
0
SEQEND
0
LINE
8
30
6
CONTINUOUS
62
7
39
1.000
10
175.500
20
115.000
30
0.000
11
204.500
21
115.000
31
0.000
0
LINE
8
30
6
CONTINUOUS
62
7
39
1.000
10
190.000
20
100.500
30
0.000
11
190.000
21
129.500
31
0.000
0
POLYLINE
8
30
6
CONTINUOUS
62
7
66
1
10
0.000
20
0.000
30
0.000
70
1
0
VERTEX
8
30
10
190.000
20
299.500
30
0.000
42
1.00000000
0
VERTEX
8
30
10
190.000
20
270.500
30
0.000
42
1.00000000
0
SEQEND
0
LINE
8
30
6
CONTINUOUS
62
7
39
1.000
10
175.500
20
285.000
30
0.000
11
204.500
21
285.000
31
0.000
0
LINE
8
30
6
CONTINUOUS
62
7
39
1.000
10
190.000
20
270.500
30
0.000
11
190.000
21
299.500
31
0.000
0
POLYLINE
8
30
6
CONTINUOUS
62
7
66
1
10
0.000
20
0.000
30
0.000
70
1
0
VERTEX
8
30
10
320.000
20
129.500
30
0.000
42
1.00000000
0
VERTEX
8
30
10
320.000
20
100.500
30
0.000
42
1.00000000
0
SEQEND
0
LINE
8
30
6
CONTINUOUS
62
7
39
1.000
10
305.500
20
115.000
30
0.000
11
334.500
21
115.000
31
0.000
0
LINE
8
30
6
CONTINUOUS
62
7
39
1.000
10
320.000
20
100.500
30
0.000
11
320.000
21
129.500
31
0.000
0
POLYLINE
8
30
6
CONTINUOUS
62
7
66
1
10
0.000
20
0.000
30
0.000
70
1
0
VERTEX
8
30
10
320.000
20
299.500
30
0.000
42
1.00000000
0
VERTEX
8
30
10
320.000
20
270.500
30
0.000
42
1.00000000
0
SEQEND
0
LINE
8
30
6
CONTINUOUS
62
7
39
1.000
10
305.500
20
285.000
30
0.000
11
334.500
21
285.000
31
0.000
0
LINE
8
30
6
CONTINUOUS
62
7
39
1.000
10
320.000
20
270.500
30
0.000
11
320.000
21
299.500
31
0.000
0
POLYLINE
8
30
6
CONTINUOUS
62
7
66
1
10
0.000
20
0.000
30
0.000
70
1
0
VERTEX
8
30
10
450.000
20
129.500
30
0.000
42
1.00000000
0
VERTEX
8
30
10
450.000
20
100.500
30
0.000
42
1.00000000
0
SEQEND
0
LINE
8
30
6
CONTINUOUS
62
7
39
1.000
10
435.500
20
115.000
30
0.000
11
464.500
21
115.000
31
0.000
0
LINE
8
30
6
CONTINUOUS
62
7
39
1.000
10
450.000
20
100.500
30
0.000
11
450.000
21
129.500
31
0.000
0
POLYLINE
8
30
6
CONTINUOUS
62
7
66
1
10
0.000
20
0.000
30
0.000
70
1
0
VERTEX
8
30
10
450.000
20
299.500
30
0.000
42
1.00000000
0
VERTEX
8
30
10
450.000
20
270.500
30
0.000
42
1.00000000
0
SEQEND
0
LINE
8
30
6
CONTINUOUS
62
7
39
1.000
10
435.500
20
285.000
30
0.000
11
464.500
21
285.000
31
0.000
0
LINE
8
30
6
CONTINUOUS
62
7
39
1.000
10
450.000
20
270.500
30
0.000
11
450.000
21
299.500
31
0.000
0
POLYLINE
8
30
6
CONTINUOUS
62
7
66
1
10
0.000
20
0.000
30
0.000
70
1
0
VERTEX
8
30
10
580.000
20
129.500
30
0.000
42
1.00000000
0
VERTEX
8
30
10
580.000
20
100.500
30
0.000
42
1.00000000
0
SEQEND
0
LINE
8
30
6
CONTINUOUS
62
7
39
1.000
10
565.500
20
115.000
30
0.000
11
594.500
21
115.000
31
0.000
0
LINE
8
30
6
CONTINUOUS
62
7
39
1.000
10
580.000
20
100.500
30
0.000
11
580.000
21
129.500
31
0.000
0
POLYLINE
8
30
6
CONTINUOUS
62
7
66
1
10
0.000
20
0.000
30
0.000
70
1
0
VERTEX
8
30
10
580.000
20
299.500
30
0.000
42
1.00000000
0
VERTEX
8
30
10
580.000
20
270.500
30
0.000
42
1.00000000
0
SEQEND
0
LINE
8
30
6
CONTINUOUS
62
7
39
1.000
10
565.500
20
285.000
30
0.000
11
594.500
21
285.000
31
0.000
0
LINE
8
30
6
CONTINUOUS
62
7
39
1.000
10
580.000
20
270.500
30
0.000
11
580.000
21
299.500
31
0.000
0
POLYLINE
8
30
6
CONTINUOUS
62
7
66
1
10
0.000
20
0.000
30
0.000
70
1
0
VERTEX
8
30
10
810.000
20
129.500
30
0.000
42
1.00000000
0
VERTEX
8
30
10
810.000
20
100.500
30
0.000
42
1.00000000
0
SEQEND
0
LINE
8
30
6
CONTINUOUS
62
7
39
1.000
10
795.500
20
115.000
30
0.000
11
824.500
21
115.000
31
0.000
0
LINE
8
30
6
CONTINUOUS
62
7
39
1.000
10
810.000
20
100.500
30
0.000
11
810.000
21
129.500
31
0.000
0
POLYLINE
8
30
6
CONTINUOUS
62
7
66
1
10
0.000
20
0.000
30
0.000
70
1
0
VERTEX
8
30
10
810.000
20
299.500
30
0.000
42
1.00000000
0
VERTEX
8
30
10
810.000
20
270.500
30
0.000
42
1.00000000
0
SEQEND
0
LINE
8
30
6
CONTINUOUS
62
7
39
1.000
10
795.500
20
285.000
30
0.000
11
824.500
21
285.000
31
0.000
0
LINE
8
30
6
CONTINUOUS
62
7
39
1.000
10
810.000
20
270.500
30
0.000
11
810.000
21
299.500
31
0.000
0
POLYLINE
8
30
6
CONTINUOUS
62
7
66
1
10
0.000
20
0.000
30
0.000
70
1
0
VERTEX
8
30
10
1060.000
20
129.500
30
0.000
42
1.00000000
0
VERTEX
8
30
10
1060.000
20
100.500
30
0.000
42
1.00000000
0
SEQEND
0
LINE
8
30
6
CONTINUOUS
62
7
39
1.000
10
1045.500
20
115.000
30
0.000
11
1074.500
21
115.000
31
0.000
0
LINE
8
30
6
CONTINUOUS
62
7
39
1.000
10
1060.000
20
100.500
30
0.000
11
1060.000
21
129.500
31
0.000
0
POLYLINE
8
30
6
CONTINUOUS
62
7
66
1
10
0.000
20
0.000
30
0.000
70
1
0
VERTEX
8
30
10
1060.000
20
299.500
30
0.000
42
1.00000000
0
VERTEX
8
30
10
1060.000
20
270.500
30
0.000
42
1.00000000
0
SEQEND
0
LINE
8
30
6
CONTINUOUS
62
7
39
1.000
10
1045.500
20
285.000
30
0.000
11
1074.500
21
285.000
31
0.000
0
LINE
8
30
6
CONTINUOUS
62
7
39
1.000
10
1060.000
20
270.500
30
0.000
11
1060.000
21
299.500
31
0.000
0
POLYLINE
8
30
6
CONTINUOUS
62
7
66
1
10
0.000
20
0.000
30
0.000
70
1
0
VERTEX
8
30
10
1290.000
20
129.500
30
0.000
42
1.00000000
0
VERTEX
8
30
10
1290.000
20
100.500
30
0.000
42
1.00000000
0
SEQEND
0
LINE
8
30
6
CONTINUOUS
62
7
39
1.000
10
1275.500
20
115.000
30
0.000
11
1304.500
21
115.000
31
0.000
0
LINE
8
30
6
CONTINUOUS
62
7
39
1.000
10
1290.000
20
100.500
30
0.000
11
1290.000
21
129.500
31
0.000
0
POLYLINE
8
30
6
CONTINUOUS
62
7
66
1
10
0.000
20
0.000
30
0.000
70
1
0
VERTEX
8
30
10
1290.000
20
299.500
30
0.000
42
1.00000000
0
VERTEX
8
30
10
1290.000
20
270.500
30
0.000
42
1.00000000
0
SEQEND
0
LINE
8
30
6
CONTINUOUS
62
7
39
1.000
10
1275.500
20
285.000
30
0.000
11
1304.500
21
285.000
31
0.000
0
LINE
8
30
6
CONTINUOUS
62
7
39
1.000
10
1290.000
20
270.500
30
0.000
11
1290.000
21
299.500
31
0.000
0
POLYLINE
8
30
6
CONTINUOUS
62
7
66
1
10
0.000
20
0.000
30
0.000
70
1
0
VERTEX
8
30
10
1420.000
20
129.500
30
0.000
42
1.00000000
0
VERTEX
8
30
10
1420.000
20
100.500
30
0.000
42
1.00000000
0
SEQEND
0
LINE
8
30
6
CONTINUOUS
62
7
39
1.000
10
1405.500
20
115.000
30
0.000
11
1434.500
21
115.000
31
0.000
0
LINE
8
30
6
CONTINUOUS
62
7
39
1.000
10
1420.000
20
100.500
30
0.000
11
1420.000
21
129.500
31
0.000
0
POLYLINE
8
30
6
CONTINUOUS
62
7
66
1
10
0.000
20
0.000
30
0.000
70
1
0
VERTEX
8
30
10
1420.000
20
299.500
30
0.000
42
1.00000000
0
VERTEX
8
30
10
1420.000
20
270.500
30
0.000
42
1.00000000
0
SEQEND
0
LINE
8
30
6
CONTINUOUS
62
7
39
1.000
10
1405.500
20
285.000
30
0.000
11
1434.500
21
285.000
31
0.000
0
LINE
8
30
6
CONTINUOUS
62
7
39
1.000
10
1420.000
20
270.500
30
0.000
11
1420.000
21
299.500
31
0.000
0
POLYLINE
8
30
6
CONTINUOUS
62
7
66
1
10
0.000
20
0.000
30
0.000
70
1
0
VERTEX
8
30
10
1550.000
20
129.500
30
0.000
42
1.00000000
0
VERTEX
8
30
10
1550.000
20
100.500
30
0.000
42
1.00000000
0
SEQEND
0
LINE
8
30
6
CONTINUOUS
62
7
39
1.000
10
1535.500
20
115.000
30
0.000
11
1564.500
21
115.000
31
0.000
0
LINE
8
30
6
CONTINUOUS
62
7
39
1.000
10
1550.000
20
100.500
30
0.000
11
1550.000
21
129.500
31
0.000
0
POLYLINE
8
30
6
CONTINUOUS
62
7
66
1
10
0.000
20
0.000
30
0.000
70
1
0
VERTEX
8
30
10
1550.000
20
299.500
30
0.000
42
1.00000000
0
VERTEX
8
30
10
1550.000
20
270.500
30
0.000
42
1.00000000
0
SEQEND
0
LINE
8
30
6
CONTINUOUS
62
7
39
1.000
10
1535.500
20
285.000
30
0.000
11
1564.500
21
285.000
31
0.000
0
LINE
8
30
6
CONTINUOUS
62
7
39
1.000
10
1550.000
20
270.500
30
0.000
11
1550.000
21
299.500
31
0.000
0
POLYLINE
8
30
6
CONTINUOUS
62
7
66
1
10
0.000
20
0.000
30
0.000
70
1
0
VERTEX
8
30
10
1680.000
20
129.500
30
0.000
42
1.00000000
0
VERTEX
8
30
10
1680.000
20
100.500
30
0.000
42
1.00000000
0
SEQEND
0
LINE
8
30
6
CONTINUOUS
62
7
39
1.000
10
1665.500
20
115.000
30
0.000
11
1694.500
21
115.000
31
0.000
0
LINE
8
30
6
CONTINUOUS
62
7
39
1.000
10
1680.000
20
100.500
30
0.000
11
1680.000
21
129.500
31
0.000
0
POLYLINE
8
30
6
CONTINUOUS
62
7
66
1
10
0.000
20
0.000
30
0.000
70
1
0
VERTEX
8
30
10
1680.000
20
299.500
30
0.000
42
1.00000000
0
VERTEX
8
30
10
1680.000
20
270.500
30
0.000
42
1.00000000
0
SEQEND
0
LINE
8
30
6
CONTINUOUS
62
7
39
1.000
10
1665.500
20
285.000
30
0.000
11
1694.500
21
285.000
31
0.000
0
LINE
8
30
6
CONTINUOUS
62
7
39
1.000
10
1680.000
20
270.500
30
0.000
11
1680.000
21
299.500
31
0.000
0
POLYLINE
8
30
6
CONTINUOUS
62
7
66
1
10
0.000
20
0.000
30
0.000
70
1
0
VERTEX
8
30
10
1810.000
20
129.500
30
0.000
42
1.00000000
0
VERTEX
8
30
10
1810.000
20
100.500
30
0.000
42
1.00000000
0
SEQEND
0
LINE
8
30
6
CONTINUOUS
62
7
39
1.000
10
1795.500
20
115.000
30
0.000
11
1824.500
21
115.000
31
0.000
0
LINE
8
30
6
CONTINUOUS
62
7
39
1.000
10
1810.000
20
100.500
30
0.000
11
1810.000
21
129.500
31
0.000
0
POLYLINE
8
30
6
CONTINUOUS
62
7
66
1
10
0.000
20
0.000
30
0.000
70
1
0
VERTEX
8
30
10
1810.000
20
299.500
30
0.000
42
1.00000000
0
VERTEX
8
30
10
1810.000
20
270.500
30
0.000
42
1.00000000
0
SEQEND
0
LINE
8
30
6
CONTINUOUS
62
7
39
1.000
10
1795.500
20
285.000
30
0.000
11
1824.500
21
285.000
31
0.000
0
LINE
8
30
6
CONTINUOUS
62
7
39
1.000
10
1810.000
20
270.500
30
0.000
11
1810.000
21
299.500
31
0.000
0
ENDSEC
0
EOF
