0
SECTION
2
HEADER
9
$PDMODE
70
33
9
$PDSIZE
40
1.000
9
$EXTMIN
10
-330.000
20
-22.500
30
-1.000
9
$EXTMAX
10
3630.000
20
247.500
30
1.000
9
$LIMMIN
10
-330.000
20
-22.500
9
$LIMMAX
10
3630.000
20
247.500
0
ENDSEC
0
SECTION
2
TABLES
0
TABLE
2
LAYER
70
7
0
LAYER
2
SCRIBE
70
0
62
3
6
CONTINUOUS
0
LAYER
2
TEXT
70
0
62
7
6
CONTINUOUS
0
LAYER
2
CUT
70
0
62
7
6
CONTINUOUS
0
LAYER
2
18
70
0
62
7
6
CONTINUOUS
0
ENDTAB
0
TABLE
2
VPORT
70
4
0
VPORT
2
*ACTIVE
70
0
10
0.000000
20
0.000000
11
1.000000
21
1.000000
12
1650.000000
22
112.500000
13
0.000000
23
0.000000
14
1.000000
24
1.000000
15
1.000000
25
1.000000
16
0.000000
26
0.000000
36
1.000000
17
0.000000
27
0.000000
37
0.000000
40
3300.000000
41
1.500000
42
50.000000
43
0.000000
44
0.000000
50
0.000000
51
0.000000
71
0
72
100
73
1
74
1
75
0
76
0
77
0
78
0
0
ENDTAB
0
ENDSEC
0
SECTION
2
ENTITIES
0
TEXT
8
SCRIBE
62
3
10
30.000
20
30.000
30
0.000
40
10.000
1
OF120
0
TEXT
8
TEXT
62
7
10
30.000
20
15.000
30
0.000
40
10.000
1
PLT12+S355JR+1
0
POLYLINE
8
CUT
6
CONTINUOUS
62
7
66
1
10
0.000
20
0.000
30
0.000
70
1
0
VERTEX
8
CUT
10
0.000
20
0.000
30
0.000
42
0.00000000
0
VERTEX
8
CUT
10
0.000
20
225.000
30
0.000
42
0.00000000
0
VERTEX
8
CUT
10
3300.000
20
225.000
30
0.000
42
0.00000000
0
VERTEX
8
CUT
10
3300.000
20
0.000
30
0.000
42
0.00000000
0
SEQEND
0
POLYLINE
8
18
6
CONTINUOUS
62
7
66
1
10
0.000
20
0.000
30
0.000
70
1
0
VERTEX
8
18
10
920.620
20
81.550
30
0.000
42
1.00000000
0
VERTEX
8
18
10
920.620
20
63.550
30
0.000
42
1.00000000
0
SEQEND
0
LINE
8
18
6
CONTINUOUS
62
7
39
1.000
10
911.620
20
72.550
30
0.000
11
929.620
21
72.550
31
0.000
0
LINE
8
18
6
CONTINUOUS
62
7
39
1.000
10
920.620
20
63.550
30
0.000
11
920.620
21
81.550
31
0.000
0
POLYLINE
8
18
6
CONTINUOUS
62
7
66
1
10
0.000
20
0.000
30
0.000
70
1
0
VERTEX
8
18
10
920.620
20
161.550
30
0.000
42
1.00000000
0
VERTEX
8
18
10
920.620
20
143.550
30
0.000
42
1.00000000
0
SEQEND
0
LINE
8
18
6
CONTINUOUS
62
7
39
1.000
10
911.620
20
152.550
30
0.000
11
929.620
21
152.550
31
0.000
0
LINE
8
18
6
CONTINUOUS
62
7
39
1.000
10
920.620
20
143.550
30
0.000
11
920.620
21
161.550
31
0.000
0
POLYLINE
8
18
6
CONTINUOUS
62
7
66
1
10
0.000
20
0.000
30
0.000
70
1
0
VERTEX
8
18
10
1000.620
20
81.550
30
0.000
42
1.00000000
0
VERTEX
8
18
10
1000.620
20
63.550
30
0.000
42
1.00000000
0
SEQEND
0
LINE
8
18
6
CONTINUOUS
62
7
39
1.000
10
991.620
20
72.550
30
0.000
11
1009.620
21
72.550
31
0.000
0
LINE
8
18
6
CONTINUOUS
62
7
39
1.000
10
1000.620
20
63.550
30
0.000
11
1000.620
21
81.550
31
0.000
0
POLYLINE
8
18
6
CONTINUOUS
62
7
66
1
10
0.000
20
0.000
30
0.000
70
1
0
VERTEX
8
18
10
1000.620
20
161.550
30
0.000
42
1.00000000
0
VERTEX
8
18
10
1000.620
20
143.550
30
0.000
42
1.00000000
0
SEQEND
0
LINE
8
18
6
CONTINUOUS
62
7
39
1.000
10
991.620
20
152.550
30
0.000
11
1009.620
21
152.550
31
0.000
0
LINE
8
18
6
CONTINUOUS
62
7
39
1.000
10
1000.620
20
143.550
30
0.000
11
1000.620
21
161.550
31
0.000
0
POLYLINE
8
18
6
CONTINUOUS
62
7
66
1
10
0.000
20
0.000
30
0.000
70
1
0
VERTEX
8
18
10
1640.620
20
81.550
30
0.000
42
1.00000000
0
VERTEX
8
18
10
1640.620
20
63.550
30
0.000
42
1.00000000
0
SEQEND
0
LINE
8
18
6
CONTINUOUS
62
7
39
1.000
10
1631.620
20
72.550
30
0.000
11
1649.620
21
72.550
31
0.000
0
LINE
8
18
6
CONTINUOUS
62
7
39
1.000
10
1640.620
20
63.550
30
0.000
11
1640.620
21
81.550
31
0.000
0
POLYLINE
8
18
6
CONTINUOUS
62
7
66
1
10
0.000
20
0.000
30
0.000
70
1
0
VERTEX
8
18
10
1640.620
20
161.550
30
0.000
42
1.00000000
0
VERTEX
8
18
10
1640.620
20
143.550
30
0.000
42
1.00000000
0
SEQEND
0
LINE
8
18
6
CONTINUOUS
62
7
39
1.000
10
1631.620
20
152.550
30
0.000
11
1649.620
21
152.550
31
0.000
0
LINE
8
18
6
CONTINUOUS
62
7
39
1.000
10
1640.620
20
143.550
30
0.000
11
1640.620
21
161.550
31
0.000
0
POLYLINE
8
18
6
CONTINUOUS
62
7
66
1
10
0.000
20
0.000
30
0.000
70
1
0
VERTEX
8
18
10
1720.620
20
81.550
30
0.000
42
1.00000000
0
VERTEX
8
18
10
1720.620
20
63.550
30
0.000
42
1.00000000
0
SEQEND
0
LINE
8
18
6
CONTINUOUS
62
7
39
1.000
10
1711.620
20
72.550
30
0.000
11
1729.620
21
72.550
31
0.000
0
LINE
8
18
6
CONTINUOUS
62
7
39
1.000
10
1720.620
20
63.550
30
0.000
11
1720.620
21
81.550
31
0.000
0
POLYLINE
8
18
6
CONTINUOUS
62
7
66
1
10
0.000
20
0.000
30
0.000
70
1
0
VERTEX
8
18
10
1720.620
20
161.550
30
0.000
42
1.00000000
0
VERTEX
8
18
10
1720.620
20
143.550
30
0.000
42
1.00000000
0
SEQEND
0
LINE
8
18
6
CONTINUOUS
62
7
39
1.000
10
1711.620
20
152.550
30
0.000
11
1729.620
21
152.550
31
0.000
0
LINE
8
18
6
CONTINUOUS
62
7
39
1.000
10
1720.620
20
143.550
30
0.000
11
1720.620
21
161.550
31
0.000
0
POLYLINE
8
18
6
CONTINUOUS
62
7
66
1
10
0.000
20
0.000
30
0.000
70
1
0
VERTEX
8
18
10
2360.620
20
81.550
30
0.000
42
1.00000000
0
VERTEX
8
18
10
2360.620
20
63.550
30
0.000
42
1.00000000
0
SEQEND
0
LINE
8
18
6
CONTINUOUS
62
7
39
1.000
10
2351.620
20
72.550
30
0.000
11
2369.620
21
72.550
31
0.000
0
LINE
8
18
6
CONTINUOUS
62
7
39
1.000
10
2360.620
20
63.550
30
0.000
11
2360.620
21
81.550
31
0.000
0
POLYLINE
8
18
6
CONTINUOUS
62
7
66
1
10
0.000
20
0.000
30
0.000
70
1
0
VERTEX
8
18
10
2360.620
20
161.550
30
0.000
42
1.00000000
0
VERTEX
8
18
10
2360.620
20
143.550
30
0.000
42
1.00000000
0
SEQEND
0
LINE
8
18
6
CONTINUOUS
62
7
39
1.000
10
2351.620
20
152.550
30
0.000
11
2369.620
21
152.550
31
0.000
0
LINE
8
18
6
CONTINUOUS
62
7
39
1.000
10
2360.620
20
143.550
30
0.000
11
2360.620
21
161.550
31
0.000
0
POLYLINE
8
18
6
CONTINUOUS
62
7
66
1
10
0.000
20
0.000
30
0.000
70
1
0
VERTEX
8
18
10
2440.620
20
81.550
30
0.000
42
1.00000000
0
VERTEX
8
18
10
2440.620
20
63.550
30
0.000
42
1.00000000
0
SEQEND
0
LINE
8
18
6
CONTINUOUS
62
7
39
1.000
10
2431.620
20
72.550
30
0.000
11
2449.620
21
72.550
31
0.000
0
LINE
8
18
6
CONTINUOUS
62
7
39
1.000
10
2440.620
20
63.550
30
0.000
11
2440.620
21
81.550
31
0.000
0
POLYLINE
8
18
6
CONTINUOUS
62
7
66
1
10
0.000
20
0.000
30
0.000
70
1
0
VERTEX
8
18
10
2440.620
20
161.550
30
0.000
42
1.00000000
0
VERTEX
8
18
10
2440.620
20
143.550
30
0.000
42
1.00000000
0
SEQEND
0
LINE
8
18
6
CONTINUOUS
62
7
39
1.000
10
2431.620
20
152.550
30
0.000
11
2449.620
21
152.550
31
0.000
0
LINE
8
18
6
CONTINUOUS
62
7
39
1.000
10
2440.620
20
143.550
30
0.000
11
2440.620
21
161.550
31
0.000
0
POLYLINE
8
18
6
CONTINUOUS
62
7
66
1
10
0.000
20
0.000
30
0.000
70
1
0
VERTEX
8
18
10
3080.620
20
81.550
30
0.000
42
1.00000000
0
VERTEX
8
18
10
3080.620
20
63.550
30
0.000
42
1.00000000
0
SEQEND
0
LINE
8
18
6
CONTINUOUS
62
7
39
1.000
10
3071.620
20
72.550
30
0.000
11
3089.620
21
72.550
31
0.000
0
LINE
8
18
6
CONTINUOUS
62
7
39
1.000
10
3080.620
20
63.550
30
0.000
11
3080.620
21
81.550
31
0.000
0
POLYLINE
8
18
6
CONTINUOUS
62
7
66
1
10
0.000
20
0.000
30
0.000
70
1
0
VERTEX
8
18
10
3080.620
20
161.550
30
0.000
42
1.00000000
0
VERTEX
8
18
10
3080.620
20
143.550
30
0.000
42
1.00000000
0
SEQEND
0
LINE
8
18
6
CONTINUOUS
62
7
39
1.000
10
3071.620
20
152.550
30
0.000
11
3089.620
21
152.550
31
0.000
0
LINE
8
18
6
CONTINUOUS
62
7
39
1.000
10
3080.620
20
143.550
30
0.000
11
3080.620
21
161.550
31
0.000
0
POLYLINE
8
18
6
CONTINUOUS
62
7
66
1
10
0.000
20
0.000
30
0.000
70
1
0
VERTEX
8
18
10
3160.620
20
81.550
30
0.000
42
1.00000000
0
VERTEX
8
18
10
3160.620
20
63.550
30
0.000
42
1.00000000
0
SEQEND
0
LINE
8
18
6
CONTINUOUS
62
7
39
1.000
10
3151.620
20
72.550
30
0.000
11
3169.620
21
72.550
31
0.000
0
LINE
8
18
6
CONTINUOUS
62
7
39
1.000
10
3160.620
20
63.550
30
0.000
11
3160.620
21
81.550
31
0.000
0
POLYLINE
8
18
6
CONTINUOUS
62
7
66
1
10
0.000
20
0.000
30
0.000
70
1
0
VERTEX
8
18
10
3160.620
20
161.550
30
0.000
42
1.00000000
0
VERTEX
8
18
10
3160.620
20
143.550
30
0.000
42
1.00000000
0
SEQEND
0
LINE
8
18
6
CONTINUOUS
62
7
39
1.000
10
3151.620
20
152.550
30
0.000
11
3169.620
21
152.550
31
0.000
0
LINE
8
18
6
CONTINUOUS
62
7
39
1.000
10
3160.620
20
143.550
30
0.000
11
3160.620
21
161.550
31
0.000
0
ENDSEC
0
EOF
