0
SECTION
2
HEADER
9
$PDMODE
70
33
9
$PDSIZE
40
1.000
9
$EXTMIN
10
-569.000
20
-20.000
30
-1.000
9
$EXTMAX
10
6259.000
20
220.000
30
1.000
9
$LIMMIN
10
-569.000
20
-20.000
9
$LIMMAX
10
6259.000
20
220.000
0
ENDSEC
0
SECTION
2
TABLES
0
TABLE
2
LAYER
70
7
0
LAYER
2
SCRIBE
70
0
62
3
6
CONTINUOUS
0
LAYER
2
TEXT
70
0
62
7
6
CONTINUOUS
0
LAYER
2
CUT
70
0
62
7
6
CONTINUOUS
0
LAYER
2
18
70
0
62
7
6
CONTINUOUS
0
ENDTAB
0
TABLE
2
VPORT
70
4
0
VPORT
2
*ACTIVE
70
0
10
0.000000
20
0.000000
11
1.000000
21
1.000000
12
2845.000000
22
100.000000
13
0.000000
23
0.000000
14
1.000000
24
1.000000
15
1.000000
25
1.000000
16
0.000000
26
0.000000
36
1.000000
17
0.000000
27
0.000000
37
0.000000
40
5690.000000
41
1.500000
42
50.000000
43
0.000000
44
0.000000
50
0.000000
51
0.000000
71
0
72
100
73
1
74
1
75
0
76
0
77
0
78
0
0
ENDTAB
0
ENDSEC
0
SECTION
2
ENTITIES
0
TEXT
8
SCRIBE
62
3
10
30.000
20
30.000
30
0.000
40
10.000
1
OF199
0
TEXT
8
TEXT
62
7
10
30.000
20
15.000
30
0.000
40
10.000
1
PL12+S355JR+1
0
POLYLINE
8
CUT
6
CONTINUOUS
62
7
66
1
10
0.000
20
0.000
30
0.000
70
1
0
VERTEX
8
CUT
10
0.000
20
0.000
30
0.000
42
0.00000000
0
VERTEX
8
CUT
10
0.000
20
200.000
30
0.000
42
0.00000000
0
VERTEX
8
CUT
10
5690.000
20
200.000
30
0.000
42
0.00000000
0
VERTEX
8
CUT
10
5690.000
20
0.000
30
0.000
42
0.00000000
0
SEQEND
0
POLYLINE
8
18
6
CONTINUOUS
62
7
66
1
10
0.000
20
0.000
30
0.000
70
1
0
VERTEX
8
18
10
300.000
20
69.700
30
0.000
42
1.00000000
0
VERTEX
8
18
10
300.000
20
51.700
30
0.000
42
1.00000000
0
SEQEND
0
LINE
8
18
6
CONTINUOUS
62
7
39
1.000
10
291.000
20
60.700
30
0.000
11
309.000
21
60.700
31
0.000
0
LINE
8
18
6
CONTINUOUS
62
7
39
1.000
10
300.000
20
51.700
30
0.000
11
300.000
21
69.700
31
0.000
0
POLYLINE
8
18
6
CONTINUOUS
62
7
66
1
10
0.000
20
0.000
30
0.000
70
1
0
VERTEX
8
18
10
300.000
20
149.700
30
0.000
42
1.00000000
0
VERTEX
8
18
10
300.000
20
131.700
30
0.000
42
1.00000000
0
SEQEND
0
LINE
8
18
6
CONTINUOUS
62
7
39
1.000
10
291.000
20
140.700
30
0.000
11
309.000
21
140.700
31
0.000
0
LINE
8
18
6
CONTINUOUS
62
7
39
1.000
10
300.000
20
131.700
30
0.000
11
300.000
21
149.700
31
0.000
0
POLYLINE
8
18
6
CONTINUOUS
62
7
66
1
10
0.000
20
0.000
30
0.000
70
1
0
VERTEX
8
18
10
380.000
20
69.700
30
0.000
42
1.00000000
0
VERTEX
8
18
10
380.000
20
51.700
30
0.000
42
1.00000000
0
SEQEND
0
LINE
8
18
6
CONTINUOUS
62
7
39
1.000
10
371.000
20
60.700
30
0.000
11
389.000
21
60.700
31
0.000
0
LINE
8
18
6
CONTINUOUS
62
7
39
1.000
10
380.000
20
51.700
30
0.000
11
380.000
21
69.700
31
0.000
0
POLYLINE
8
18
6
CONTINUOUS
62
7
66
1
10
0.000
20
0.000
30
0.000
70
1
0
VERTEX
8
18
10
380.000
20
149.700
30
0.000
42
1.00000000
0
VERTEX
8
18
10
380.000
20
131.700
30
0.000
42
1.00000000
0
SEQEND
0
LINE
8
18
6
CONTINUOUS
62
7
39
1.000
10
371.000
20
140.700
30
0.000
11
389.000
21
140.700
31
0.000
0
LINE
8
18
6
CONTINUOUS
62
7
39
1.000
10
380.000
20
131.700
30
0.000
11
380.000
21
149.700
31
0.000
0
POLYLINE
8
18
6
CONTINUOUS
62
7
66
1
10
0.000
20
0.000
30
0.000
70
1
0
VERTEX
8
18
10
1300.000
20
69.700
30
0.000
42
1.00000000
0
VERTEX
8
18
10
1300.000
20
51.700
30
0.000
42
1.00000000
0
SEQEND
0
LINE
8
18
6
CONTINUOUS
62
7
39
1.000
10
1291.000
20
60.700
30
0.000
11
1309.000
21
60.700
31
0.000
0
LINE
8
18
6
CONTINUOUS
62
7
39
1.000
10
1300.000
20
51.700
30
0.000
11
1300.000
21
69.700
31
0.000
0
POLYLINE
8
18
6
CONTINUOUS
62
7
66
1
10
0.000
20
0.000
30
0.000
70
1
0
VERTEX
8
18
10
1300.000
20
149.700
30
0.000
42
1.00000000
0
VERTEX
8
18
10
1300.000
20
131.700
30
0.000
42
1.00000000
0
SEQEND
0
LINE
8
18
6
CONTINUOUS
62
7
39
1.000
10
1291.000
20
140.700
30
0.000
11
1309.000
21
140.700
31
0.000
0
LINE
8
18
6
CONTINUOUS
62
7
39
1.000
10
1300.000
20
131.700
30
0.000
11
1300.000
21
149.700
31
0.000
0
POLYLINE
8
18
6
CONTINUOUS
62
7
66
1
10
0.000
20
0.000
30
0.000
70
1
0
VERTEX
8
18
10
1380.000
20
69.700
30
0.000
42
1.00000000
0
VERTEX
8
18
10
1380.000
20
51.700
30
0.000
42
1.00000000
0
SEQEND
0
LINE
8
18
6
CONTINUOUS
62
7
39
1.000
10
1371.000
20
60.700
30
0.000
11
1389.000
21
60.700
31
0.000
0
LINE
8
18
6
CONTINUOUS
62
7
39
1.000
10
1380.000
20
51.700
30
0.000
11
1380.000
21
69.700
31
0.000
0
POLYLINE
8
18
6
CONTINUOUS
62
7
66
1
10
0.000
20
0.000
30
0.000
70
1
0
VERTEX
8
18
10
1380.000
20
149.700
30
0.000
42
1.00000000
0
VERTEX
8
18
10
1380.000
20
131.700
30
0.000
42
1.00000000
0
SEQEND
0
LINE
8
18
6
CONTINUOUS
62
7
39
1.000
10
1371.000
20
140.700
30
0.000
11
1389.000
21
140.700
31
0.000
0
LINE
8
18
6
CONTINUOUS
62
7
39
1.000
10
1380.000
20
131.700
30
0.000
11
1380.000
21
149.700
31
0.000
0
POLYLINE
8
18
6
CONTINUOUS
62
7
66
1
10
0.000
20
0.000
30
0.000
70
1
0
VERTEX
8
18
10
2300.000
20
69.700
30
0.000
42
1.00000000
0
VERTEX
8
18
10
2300.000
20
51.700
30
0.000
42
1.00000000
0
SEQEND
0
LINE
8
18
6
CONTINUOUS
62
7
39
1.000
10
2291.000
20
60.700
30
0.000
11
2309.000
21
60.700
31
0.000
0
LINE
8
18
6
CONTINUOUS
62
7
39
1.000
10
2300.000
20
51.700
30
0.000
11
2300.000
21
69.700
31
0.000
0
POLYLINE
8
18
6
CONTINUOUS
62
7
66
1
10
0.000
20
0.000
30
0.000
70
1
0
VERTEX
8
18
10
2300.000
20
149.700
30
0.000
42
1.00000000
0
VERTEX
8
18
10
2300.000
20
131.700
30
0.000
42
1.00000000
0
SEQEND
0
LINE
8
18
6
CONTINUOUS
62
7
39
1.000
10
2291.000
20
140.700
30
0.000
11
2309.000
21
140.700
31
0.000
0
LINE
8
18
6
CONTINUOUS
62
7
39
1.000
10
2300.000
20
131.700
30
0.000
11
2300.000
21
149.700
31
0.000
0
POLYLINE
8
18
6
CONTINUOUS
62
7
66
1
10
0.000
20
0.000
30
0.000
70
1
0
VERTEX
8
18
10
2380.000
20
69.700
30
0.000
42
1.00000000
0
VERTEX
8
18
10
2380.000
20
51.700
30
0.000
42
1.00000000
0
SEQEND
0
LINE
8
18
6
CONTINUOUS
62
7
39
1.000
10
2371.000
20
60.700
30
0.000
11
2389.000
21
60.700
31
0.000
0
LINE
8
18
6
CONTINUOUS
62
7
39
1.000
10
2380.000
20
51.700
30
0.000
11
2380.000
21
69.700
31
0.000
0
POLYLINE
8
18
6
CONTINUOUS
62
7
66
1
10
0.000
20
0.000
30
0.000
70
1
0
VERTEX
8
18
10
2380.000
20
149.700
30
0.000
42
1.00000000
0
VERTEX
8
18
10
2380.000
20
131.700
30
0.000
42
1.00000000
0
SEQEND
0
LINE
8
18
6
CONTINUOUS
62
7
39
1.000
10
2371.000
20
140.700
30
0.000
11
2389.000
21
140.700
31
0.000
0
LINE
8
18
6
CONTINUOUS
62
7
39
1.000
10
2380.000
20
131.700
30
0.000
11
2380.000
21
149.700
31
0.000
0
POLYLINE
8
18
6
CONTINUOUS
62
7
66
1
10
0.000
20
0.000
30
0.000
70
1
0
VERTEX
8
18
10
3300.000
20
69.700
30
0.000
42
1.00000000
0
VERTEX
8
18
10
3300.000
20
51.700
30
0.000
42
1.00000000
0
SEQEND
0
LINE
8
18
6
CONTINUOUS
62
7
39
1.000
10
3291.000
20
60.700
30
0.000
11
3309.000
21
60.700
31
0.000
0
LINE
8
18
6
CONTINUOUS
62
7
39
1.000
10
3300.000
20
51.700
30
0.000
11
3300.000
21
69.700
31
0.000
0
POLYLINE
8
18
6
CONTINUOUS
62
7
66
1
10
0.000
20
0.000
30
0.000
70
1
0
VERTEX
8
18
10
3300.000
20
149.700
30
0.000
42
1.00000000
0
VERTEX
8
18
10
3300.000
20
131.700
30
0.000
42
1.00000000
0
SEQEND
0
LINE
8
18
6
CONTINUOUS
62
7
39
1.000
10
3291.000
20
140.700
30
0.000
11
3309.000
21
140.700
31
0.000
0
LINE
8
18
6
CONTINUOUS
62
7
39
1.000
10
3300.000
20
131.700
30
0.000
11
3300.000
21
149.700
31
0.000
0
POLYLINE
8
18
6
CONTINUOUS
62
7
66
1
10
0.000
20
0.000
30
0.000
70
1
0
VERTEX
8
18
10
3380.000
20
69.700
30
0.000
42
1.00000000
0
VERTEX
8
18
10
3380.000
20
51.700
30
0.000
42
1.00000000
0
SEQEND
0
LINE
8
18
6
CONTINUOUS
62
7
39
1.000
10
3371.000
20
60.700
30
0.000
11
3389.000
21
60.700
31
0.000
0
LINE
8
18
6
CONTINUOUS
62
7
39
1.000
10
3380.000
20
51.700
30
0.000
11
3380.000
21
69.700
31
0.000
0
POLYLINE
8
18
6
CONTINUOUS
62
7
66
1
10
0.000
20
0.000
30
0.000
70
1
0
VERTEX
8
18
10
3380.000
20
149.700
30
0.000
42
1.00000000
0
VERTEX
8
18
10
3380.000
20
131.700
30
0.000
42
1.00000000
0
SEQEND
0
LINE
8
18
6
CONTINUOUS
62
7
39
1.000
10
3371.000
20
140.700
30
0.000
11
3389.000
21
140.700
31
0.000
0
LINE
8
18
6
CONTINUOUS
62
7
39
1.000
10
3380.000
20
131.700
30
0.000
11
3380.000
21
149.700
31
0.000
0
POLYLINE
8
18
6
CONTINUOUS
62
7
66
1
10
0.000
20
0.000
30
0.000
70
1
0
VERTEX
8
18
10
4300.000
20
69.700
30
0.000
42
1.00000000
0
VERTEX
8
18
10
4300.000
20
51.700
30
0.000
42
1.00000000
0
SEQEND
0
LINE
8
18
6
CONTINUOUS
62
7
39
1.000
10
4291.000
20
60.700
30
0.000
11
4309.000
21
60.700
31
0.000
0
LINE
8
18
6
CONTINUOUS
62
7
39
1.000
10
4300.000
20
51.700
30
0.000
11
4300.000
21
69.700
31
0.000
0
POLYLINE
8
18
6
CONTINUOUS
62
7
66
1
10
0.000
20
0.000
30
0.000
70
1
0
VERTEX
8
18
10
4300.000
20
149.700
30
0.000
42
1.00000000
0
VERTEX
8
18
10
4300.000
20
131.700
30
0.000
42
1.00000000
0
SEQEND
0
LINE
8
18
6
CONTINUOUS
62
7
39
1.000
10
4291.000
20
140.700
30
0.000
11
4309.000
21
140.700
31
0.000
0
LINE
8
18
6
CONTINUOUS
62
7
39
1.000
10
4300.000
20
131.700
30
0.000
11
4300.000
21
149.700
31
0.000
0
POLYLINE
8
18
6
CONTINUOUS
62
7
66
1
10
0.000
20
0.000
30
0.000
70
1
0
VERTEX
8
18
10
4380.000
20
69.700
30
0.000
42
1.00000000
0
VERTEX
8
18
10
4380.000
20
51.700
30
0.000
42
1.00000000
0
SEQEND
0
LINE
8
18
6
CONTINUOUS
62
7
39
1.000
10
4371.000
20
60.700
30
0.000
11
4389.000
21
60.700
31
0.000
0
LINE
8
18
6
CONTINUOUS
62
7
39
1.000
10
4380.000
20
51.700
30
0.000
11
4380.000
21
69.700
31
0.000
0
POLYLINE
8
18
6
CONTINUOUS
62
7
66
1
10
0.000
20
0.000
30
0.000
70
1
0
VERTEX
8
18
10
4380.000
20
149.700
30
0.000
42
1.00000000
0
VERTEX
8
18
10
4380.000
20
131.700
30
0.000
42
1.00000000
0
SEQEND
0
LINE
8
18
6
CONTINUOUS
62
7
39
1.000
10
4371.000
20
140.700
30
0.000
11
4389.000
21
140.700
31
0.000
0
LINE
8
18
6
CONTINUOUS
62
7
39
1.000
10
4380.000
20
131.700
30
0.000
11
4380.000
21
149.700
31
0.000
0
POLYLINE
8
18
6
CONTINUOUS
62
7
66
1
10
0.000
20
0.000
30
0.000
70
1
0
VERTEX
8
18
10
5300.000
20
69.700
30
0.000
42
1.00000000
0
VERTEX
8
18
10
5300.000
20
51.700
30
0.000
42
1.00000000
0
SEQEND
0
LINE
8
18
6
CONTINUOUS
62
7
39
1.000
10
5291.000
20
60.700
30
0.000
11
5309.000
21
60.700
31
0.000
0
LINE
8
18
6
CONTINUOUS
62
7
39
1.000
10
5300.000
20
51.700
30
0.000
11
5300.000
21
69.700
31
0.000
0
POLYLINE
8
18
6
CONTINUOUS
62
7
66
1
10
0.000
20
0.000
30
0.000
70
1
0
VERTEX
8
18
10
5300.000
20
149.700
30
0.000
42
1.00000000
0
VERTEX
8
18
10
5300.000
20
131.700
30
0.000
42
1.00000000
0
SEQEND
0
LINE
8
18
6
CONTINUOUS
62
7
39
1.000
10
5291.000
20
140.700
30
0.000
11
5309.000
21
140.700
31
0.000
0
LINE
8
18
6
CONTINUOUS
62
7
39
1.000
10
5300.000
20
131.700
30
0.000
11
5300.000
21
149.700
31
0.000
0
POLYLINE
8
18
6
CONTINUOUS
62
7
66
1
10
0.000
20
0.000
30
0.000
70
1
0
VERTEX
8
18
10
5380.000
20
69.700
30
0.000
42
1.00000000
0
VERTEX
8
18
10
5380.000
20
51.700
30
0.000
42
1.00000000
0
SEQEND
0
LINE
8
18
6
CONTINUOUS
62
7
39
1.000
10
5371.000
20
60.700
30
0.000
11
5389.000
21
60.700
31
0.000
0
LINE
8
18
6
CONTINUOUS
62
7
39
1.000
10
5380.000
20
51.700
30
0.000
11
5380.000
21
69.700
31
0.000
0
POLYLINE
8
18
6
CONTINUOUS
62
7
66
1
10
0.000
20
0.000
30
0.000
70
1
0
VERTEX
8
18
10
5380.000
20
149.700
30
0.000
42
1.00000000
0
VERTEX
8
18
10
5380.000
20
131.700
30
0.000
42
1.00000000
0
SEQEND
0
LINE
8
18
6
CONTINUOUS
62
7
39
1.000
10
5371.000
20
140.700
30
0.000
11
5389.000
21
140.700
31
0.000
0
LINE
8
18
6
CONTINUOUS
62
7
39
1.000
10
5380.000
20
131.700
30
0.000
11
5380.000
21
149.700
31
0.000
0
ENDSEC
0
EOF
