0
SECTION
2
HEADER
9
$PDMODE
70
33
9
$PDSIZE
40
1.000
9
$EXTMIN
10
-705.123
20
-22.500
30
-1.000
9
$EXTMAX
10
7756.353
20
247.500
30
1.000
9
$LIMMIN
10
-705.123
20
-22.500
9
$LIMMAX
10
7756.353
20
247.500
0
ENDSEC
0
SECTION
2
TABLES
0
TABLE
2
LAYER
70
7
0
LAYER
2
SCRIBE
70
0
62
3
6
CONTINUOUS
0
LAYER
2
TEXT
70
0
62
7
6
CONTINUOUS
0
LAYER
2
CUT
70
0
62
7
6
CONTINUOUS
0
LAYER
2
18
70
0
62
7
6
CONTINUOUS
0
ENDTAB
0
TABLE
2
VPORT
70
4
0
VPORT
2
*ACTIVE
70
0
10
0.000000
20
0.000000
11
1.000000
21
1.000000
12
3525.615000
22
112.500000
13
0.000000
23
0.000000
14
1.000000
24
1.000000
15
1.000000
25
1.000000
16
0.000000
26
0.000000
36
1.000000
17
0.000000
27
0.000000
37
0.000000
40
7051.230000
41
1.500000
42
50.000000
43
0.000000
44
0.000000
50
0.000000
51
0.000000
71
0
72
100
73
1
74
1
75
0
76
0
77
0
78
0
0
ENDTAB
0
ENDSEC
0
SECTION
2
ENTITIES
0
TEXT
8
SCRIBE
62
3
10
30.000
20
30.000
30
0.000
40
10.000
1
OF233
0
TEXT
8
TEXT
62
7
10
30.000
20
15.000
30
0.000
40
10.000
1
PLT12+S355JR+1
0
POLYLINE
8
CUT
6
CONTINUOUS
62
7
66
1
10
0.000
20
0.000
30
0.000
70
1
0
VERTEX
8
CUT
10
0.000
20
0.000
30
0.000
42
0.00000000
0
VERTEX
8
CUT
10
0.000
20
225.000
30
0.000
42
0.00000000
0
VERTEX
8
CUT
10
7051.230
20
225.000
30
0.000
42
0.00000000
0
VERTEX
8
CUT
10
7051.230
20
0.000
30
0.000
42
0.00000000
0
SEQEND
0
POLYLINE
8
18
6
CONTINUOUS
62
7
66
1
10
0.000
20
0.000
30
0.000
70
1
0
VERTEX
8
18
10
1151.170
20
81.500
30
0.000
42
1.00000000
0
VERTEX
8
18
10
1151.170
20
63.500
30
0.000
42
1.00000000
0
SEQEND
0
LINE
8
18
6
CONTINUOUS
62
7
39
1.000
10
1142.170
20
72.500
30
0.000
11
1160.170
21
72.500
31
0.000
0
LINE
8
18
6
CONTINUOUS
62
7
39
1.000
10
1151.170
20
63.500
30
0.000
11
1151.170
21
81.500
31
0.000
0
POLYLINE
8
18
6
CONTINUOUS
62
7
66
1
10
0.000
20
0.000
30
0.000
70
1
0
VERTEX
8
18
10
1151.170
20
161.500
30
0.000
42
1.00000000
0
VERTEX
8
18
10
1151.170
20
143.500
30
0.000
42
1.00000000
0
SEQEND
0
LINE
8
18
6
CONTINUOUS
62
7
39
1.000
10
1142.170
20
152.500
30
0.000
11
1160.170
21
152.500
31
0.000
0
LINE
8
18
6
CONTINUOUS
62
7
39
1.000
10
1151.170
20
143.500
30
0.000
11
1151.170
21
161.500
31
0.000
0
POLYLINE
8
18
6
CONTINUOUS
62
7
66
1
10
0.000
20
0.000
30
0.000
70
1
0
VERTEX
8
18
10
1231.170
20
81.500
30
0.000
42
1.00000000
0
VERTEX
8
18
10
1231.170
20
63.500
30
0.000
42
1.00000000
0
SEQEND
0
LINE
8
18
6
CONTINUOUS
62
7
39
1.000
10
1222.170
20
72.500
30
0.000
11
1240.170
21
72.500
31
0.000
0
LINE
8
18
6
CONTINUOUS
62
7
39
1.000
10
1231.170
20
63.500
30
0.000
11
1231.170
21
81.500
31
0.000
0
POLYLINE
8
18
6
CONTINUOUS
62
7
66
1
10
0.000
20
0.000
30
0.000
70
1
0
VERTEX
8
18
10
1231.170
20
161.500
30
0.000
42
1.00000000
0
VERTEX
8
18
10
1231.170
20
143.500
30
0.000
42
1.00000000
0
SEQEND
0
LINE
8
18
6
CONTINUOUS
62
7
39
1.000
10
1222.170
20
152.500
30
0.000
11
1240.170
21
152.500
31
0.000
0
LINE
8
18
6
CONTINUOUS
62
7
39
1.000
10
1231.170
20
143.500
30
0.000
11
1231.170
21
161.500
31
0.000
0
POLYLINE
8
18
6
CONTINUOUS
62
7
66
1
10
0.000
20
0.000
30
0.000
70
1
0
VERTEX
8
18
10
2551.170
20
81.500
30
0.000
42
1.00000000
0
VERTEX
8
18
10
2551.170
20
63.500
30
0.000
42
1.00000000
0
SEQEND
0
LINE
8
18
6
CONTINUOUS
62
7
39
1.000
10
2542.170
20
72.500
30
0.000
11
2560.170
21
72.500
31
0.000
0
LINE
8
18
6
CONTINUOUS
62
7
39
1.000
10
2551.170
20
63.500
30
0.000
11
2551.170
21
81.500
31
0.000
0
POLYLINE
8
18
6
CONTINUOUS
62
7
66
1
10
0.000
20
0.000
30
0.000
70
1
0
VERTEX
8
18
10
2551.170
20
161.500
30
0.000
42
1.00000000
0
VERTEX
8
18
10
2551.170
20
143.500
30
0.000
42
1.00000000
0
SEQEND
0
LINE
8
18
6
CONTINUOUS
62
7
39
1.000
10
2542.170
20
152.500
30
0.000
11
2560.170
21
152.500
31
0.000
0
LINE
8
18
6
CONTINUOUS
62
7
39
1.000
10
2551.170
20
143.500
30
0.000
11
2551.170
21
161.500
31
0.000
0
POLYLINE
8
18
6
CONTINUOUS
62
7
66
1
10
0.000
20
0.000
30
0.000
70
1
0
VERTEX
8
18
10
2631.170
20
81.500
30
0.000
42
1.00000000
0
VERTEX
8
18
10
2631.170
20
63.500
30
0.000
42
1.00000000
0
SEQEND
0
LINE
8
18
6
CONTINUOUS
62
7
39
1.000
10
2622.170
20
72.500
30
0.000
11
2640.170
21
72.500
31
0.000
0
LINE
8
18
6
CONTINUOUS
62
7
39
1.000
10
2631.170
20
63.500
30
0.000
11
2631.170
21
81.500
31
0.000
0
POLYLINE
8
18
6
CONTINUOUS
62
7
66
1
10
0.000
20
0.000
30
0.000
70
1
0
VERTEX
8
18
10
2631.170
20
161.500
30
0.000
42
1.00000000
0
VERTEX
8
18
10
2631.170
20
143.500
30
0.000
42
1.00000000
0
SEQEND
0
LINE
8
18
6
CONTINUOUS
62
7
39
1.000
10
2622.170
20
152.500
30
0.000
11
2640.170
21
152.500
31
0.000
0
LINE
8
18
6
CONTINUOUS
62
7
39
1.000
10
2631.170
20
143.500
30
0.000
11
2631.170
21
161.500
31
0.000
0
POLYLINE
8
18
6
CONTINUOUS
62
7
66
1
10
0.000
20
0.000
30
0.000
70
1
0
VERTEX
8
18
10
3951.170
20
81.500
30
0.000
42
1.00000000
0
VERTEX
8
18
10
3951.170
20
63.500
30
0.000
42
1.00000000
0
SEQEND
0
LINE
8
18
6
CONTINUOUS
62
7
39
1.000
10
3942.170
20
72.500
30
0.000
11
3960.170
21
72.500
31
0.000
0
LINE
8
18
6
CONTINUOUS
62
7
39
1.000
10
3951.170
20
63.500
30
0.000
11
3951.170
21
81.500
31
0.000
0
POLYLINE
8
18
6
CONTINUOUS
62
7
66
1
10
0.000
20
0.000
30
0.000
70
1
0
VERTEX
8
18
10
3951.170
20
161.500
30
0.000
42
1.00000000
0
VERTEX
8
18
10
3951.170
20
143.500
30
0.000
42
1.00000000
0
SEQEND
0
LINE
8
18
6
CONTINUOUS
62
7
39
1.000
10
3942.170
20
152.500
30
0.000
11
3960.170
21
152.500
31
0.000
0
LINE
8
18
6
CONTINUOUS
62
7
39
1.000
10
3951.170
20
143.500
30
0.000
11
3951.170
21
161.500
31
0.000
0
POLYLINE
8
18
6
CONTINUOUS
62
7
66
1
10
0.000
20
0.000
30
0.000
70
1
0
VERTEX
8
18
10
4031.170
20
81.500
30
0.000
42
1.00000000
0
VERTEX
8
18
10
4031.170
20
63.500
30
0.000
42
1.00000000
0
SEQEND
0
LINE
8
18
6
CONTINUOUS
62
7
39
1.000
10
4022.170
20
72.500
30
0.000
11
4040.170
21
72.500
31
0.000
0
LINE
8
18
6
CONTINUOUS
62
7
39
1.000
10
4031.170
20
63.500
30
0.000
11
4031.170
21
81.500
31
0.000
0
POLYLINE
8
18
6
CONTINUOUS
62
7
66
1
10
0.000
20
0.000
30
0.000
70
1
0
VERTEX
8
18
10
4031.170
20
161.500
30
0.000
42
1.00000000
0
VERTEX
8
18
10
4031.170
20
143.500
30
0.000
42
1.00000000
0
SEQEND
0
LINE
8
18
6
CONTINUOUS
62
7
39
1.000
10
4022.170
20
152.500
30
0.000
11
4040.170
21
152.500
31
0.000
0
LINE
8
18
6
CONTINUOUS
62
7
39
1.000
10
4031.170
20
143.500
30
0.000
11
4031.170
21
161.500
31
0.000
0
POLYLINE
8
18
6
CONTINUOUS
62
7
66
1
10
0.000
20
0.000
30
0.000
70
1
0
VERTEX
8
18
10
5351.180
20
81.500
30
0.000
42
1.00000000
0
VERTEX
8
18
10
5351.180
20
63.500
30
0.000
42
1.00000000
0
SEQEND
0
LINE
8
18
6
CONTINUOUS
62
7
39
1.000
10
5342.180
20
72.500
30
0.000
11
5360.180
21
72.500
31
0.000
0
LINE
8
18
6
CONTINUOUS
62
7
39
1.000
10
5351.180
20
63.500
30
0.000
11
5351.180
21
81.500
31
0.000
0
POLYLINE
8
18
6
CONTINUOUS
62
7
66
1
10
0.000
20
0.000
30
0.000
70
1
0
VERTEX
8
18
10
5351.180
20
161.500
30
0.000
42
1.00000000
0
VERTEX
8
18
10
5351.180
20
143.500
30
0.000
42
1.00000000
0
SEQEND
0
LINE
8
18
6
CONTINUOUS
62
7
39
1.000
10
5342.180
20
152.500
30
0.000
11
5360.180
21
152.500
31
0.000
0
LINE
8
18
6
CONTINUOUS
62
7
39
1.000
10
5351.180
20
143.500
30
0.000
11
5351.180
21
161.500
31
0.000
0
POLYLINE
8
18
6
CONTINUOUS
62
7
66
1
10
0.000
20
0.000
30
0.000
70
1
0
VERTEX
8
18
10
5431.180
20
81.500
30
0.000
42
1.00000000
0
VERTEX
8
18
10
5431.180
20
63.500
30
0.000
42
1.00000000
0
SEQEND
0
LINE
8
18
6
CONTINUOUS
62
7
39
1.000
10
5422.180
20
72.500
30
0.000
11
5440.180
21
72.500
31
0.000
0
LINE
8
18
6
CONTINUOUS
62
7
39
1.000
10
5431.180
20
63.500
30
0.000
11
5431.180
21
81.500
31
0.000
0
POLYLINE
8
18
6
CONTINUOUS
62
7
66
1
10
0.000
20
0.000
30
0.000
70
1
0
VERTEX
8
18
10
5431.180
20
161.500
30
0.000
42
1.00000000
0
VERTEX
8
18
10
5431.180
20
143.500
30
0.000
42
1.00000000
0
SEQEND
0
LINE
8
18
6
CONTINUOUS
62
7
39
1.000
10
5422.180
20
152.500
30
0.000
11
5440.180
21
152.500
31
0.000
0
LINE
8
18
6
CONTINUOUS
62
7
39
1.000
10
5431.180
20
143.500
30
0.000
11
5431.180
21
161.500
31
0.000
0
POLYLINE
8
18
6
CONTINUOUS
62
7
66
1
10
0.000
20
0.000
30
0.000
70
1
0
VERTEX
8
18
10
6411.180
20
81.500
30
0.000
42
1.00000000
0
VERTEX
8
18
10
6411.180
20
63.500
30
0.000
42
1.00000000
0
SEQEND
0
LINE
8
18
6
CONTINUOUS
62
7
39
1.000
10
6402.180
20
72.500
30
0.000
11
6420.180
21
72.500
31
0.000
0
LINE
8
18
6
CONTINUOUS
62
7
39
1.000
10
6411.180
20
63.500
30
0.000
11
6411.180
21
81.500
31
0.000
0
POLYLINE
8
18
6
CONTINUOUS
62
7
66
1
10
0.000
20
0.000
30
0.000
70
1
0
VERTEX
8
18
10
6411.180
20
161.500
30
0.000
42
1.00000000
0
VERTEX
8
18
10
6411.180
20
143.500
30
0.000
42
1.00000000
0
SEQEND
0
LINE
8
18
6
CONTINUOUS
62
7
39
1.000
10
6402.180
20
152.500
30
0.000
11
6420.180
21
152.500
31
0.000
0
LINE
8
18
6
CONTINUOUS
62
7
39
1.000
10
6411.180
20
143.500
30
0.000
11
6411.180
21
161.500
31
0.000
0
POLYLINE
8
18
6
CONTINUOUS
62
7
66
1
10
0.000
20
0.000
30
0.000
70
1
0
VERTEX
8
18
10
6491.180
20
81.500
30
0.000
42
1.00000000
0
VERTEX
8
18
10
6491.180
20
63.500
30
0.000
42
1.00000000
0
SEQEND
0
LINE
8
18
6
CONTINUOUS
62
7
39
1.000
10
6482.180
20
72.500
30
0.000
11
6500.180
21
72.500
31
0.000
0
LINE
8
18
6
CONTINUOUS
62
7
39
1.000
10
6491.180
20
63.500
30
0.000
11
6491.180
21
81.500
31
0.000
0
POLYLINE
8
18
6
CONTINUOUS
62
7
66
1
10
0.000
20
0.000
30
0.000
70
1
0
VERTEX
8
18
10
6491.180
20
161.500
30
0.000
42
1.00000000
0
VERTEX
8
18
10
6491.180
20
143.500
30
0.000
42
1.00000000
0
SEQEND
0
LINE
8
18
6
CONTINUOUS
62
7
39
1.000
10
6482.180
20
152.500
30
0.000
11
6500.180
21
152.500
31
0.000
0
LINE
8
18
6
CONTINUOUS
62
7
39
1.000
10
6491.180
20
143.500
30
0.000
11
6491.180
21
161.500
31
0.000
0
POLYLINE
8
18
6
CONTINUOUS
62
7
66
1
10
0.000
20
0.000
30
0.000
70
1
0
VERTEX
8
18
10
6751.180
20
81.500
30
0.000
42
1.00000000
0
VERTEX
8
18
10
6751.180
20
63.500
30
0.000
42
1.00000000
0
SEQEND
0
LINE
8
18
6
CONTINUOUS
62
7
39
1.000
10
6742.180
20
72.500
30
0.000
11
6760.180
21
72.500
31
0.000
0
LINE
8
18
6
CONTINUOUS
62
7
39
1.000
10
6751.180
20
63.500
30
0.000
11
6751.180
21
81.500
31
0.000
0
POLYLINE
8
18
6
CONTINUOUS
62
7
66
1
10
0.000
20
0.000
30
0.000
70
1
0
VERTEX
8
18
10
6751.180
20
161.500
30
0.000
42
1.00000000
0
VERTEX
8
18
10
6751.180
20
143.500
30
0.000
42
1.00000000
0
SEQEND
0
LINE
8
18
6
CONTINUOUS
62
7
39
1.000
10
6742.180
20
152.500
30
0.000
11
6760.180
21
152.500
31
0.000
0
LINE
8
18
6
CONTINUOUS
62
7
39
1.000
10
6751.180
20
143.500
30
0.000
11
6751.180
21
161.500
31
0.000
0
POLYLINE
8
18
6
CONTINUOUS
62
7
66
1
10
0.000
20
0.000
30
0.000
70
1
0
VERTEX
8
18
10
6831.180
20
81.500
30
0.000
42
1.00000000
0
VERTEX
8
18
10
6831.180
20
63.500
30
0.000
42
1.00000000
0
SEQEND
0
LINE
8
18
6
CONTINUOUS
62
7
39
1.000
10
6822.180
20
72.500
30
0.000
11
6840.180
21
72.500
31
0.000
0
LINE
8
18
6
CONTINUOUS
62
7
39
1.000
10
6831.180
20
63.500
30
0.000
11
6831.180
21
81.500
31
0.000
0
POLYLINE
8
18
6
CONTINUOUS
62
7
66
1
10
0.000
20
0.000
30
0.000
70
1
0
VERTEX
8
18
10
6831.180
20
161.500
30
0.000
42
1.00000000
0
VERTEX
8
18
10
6831.180
20
143.500
30
0.000
42
1.00000000
0
SEQEND
0
LINE
8
18
6
CONTINUOUS
62
7
39
1.000
10
6822.180
20
152.500
30
0.000
11
6840.180
21
152.500
31
0.000
0
LINE
8
18
6
CONTINUOUS
62
7
39
1.000
10
6831.180
20
143.500
30
0.000
11
6831.180
21
161.500
31
0.000
0
ENDSEC
0
EOF
