0
SECTION
2
HEADER
9
$PDMODE
70
33
9
$PDSIZE
40
1.000
9
$EXTMIN
10
-304.696
20
-30.000
30
-1.000
9
$EXTMAX
10
3351.656
20
330.000
30
1.000
9
$LIMMIN
10
-304.696
20
-30.000
9
$LIMMAX
10
3351.656
20
330.000
0
ENDSEC
0
SECTION
2
TABLES
0
TABLE
2
LAYER
70
7
0
LAYER
2
SCRIBE
70
0
62
3
6
CONTINUOUS
0
LAYER
2
TEXT
70
0
62
7
6
CONTINUOUS
0
LAYER
2
CUT
70
0
62
7
6
CONTINUOUS
0
LAYER
2
18
70
0
62
7
6
CONTINUOUS
0
ENDTAB
0
TABLE
2
VPORT
70
4
0
VPORT
2
*ACTIVE
70
0
10
0.000000
20
0.000000
11
1.000000
21
1.000000
12
1523.480000
22
150.000000
13
0.000000
23
0.000000
14
1.000000
24
1.000000
15
1.000000
25
1.000000
16
0.000000
26
0.000000
36
1.000000
17
0.000000
27
0.000000
37
0.000000
40
3046.960000
41
1.500000
42
50.000000
43
0.000000
44
0.000000
50
0.000000
51
0.000000
71
0
72
100
73
1
74
1
75
0
76
0
77
0
78
0
0
ENDTAB
0
ENDSEC
0
SECTION
2
ENTITIES
0
TEXT
8
SCRIBE
62
3
10
30.000
20
30.000
30
0.000
40
10.000
1
OF318
0
TEXT
8
TEXT
62
7
10
30.000
20
15.000
30
0.000
40
10.000
1
PL12+S355JR+1
0
POLYLINE
8
CUT
6
CONTINUOUS
62
7
66
1
10
0.000
20
0.000
30
0.000
70
1
0
VERTEX
8
CUT
10
0.000
20
0.000
30
0.000
42
0.00000000
0
VERTEX
8
CUT
10
0.000
20
300.000
30
0.000
42
0.00000000
0
VERTEX
8
CUT
10
3046.960
20
300.000
30
0.000
42
0.00000000
0
VERTEX
8
CUT
10
3046.960
20
0.000
30
0.000
42
0.00000000
0
SEQEND
0
POLYLINE
8
18
6
CONTINUOUS
62
7
66
1
10
0.000
20
0.000
30
0.000
70
1
0
VERTEX
8
18
10
97.570
20
119.000
30
0.000
42
1.00000000
0
VERTEX
8
18
10
97.570
20
101.000
30
0.000
42
1.00000000
0
SEQEND
0
LINE
8
18
6
CONTINUOUS
62
7
39
1.000
10
88.570
20
110.000
30
0.000
11
106.570
21
110.000
31
0.000
0
LINE
8
18
6
CONTINUOUS
62
7
39
1.000
10
97.570
20
101.000
30
0.000
11
97.570
21
119.000
31
0.000
0
POLYLINE
8
18
6
CONTINUOUS
62
7
66
1
10
0.000
20
0.000
30
0.000
70
1
0
VERTEX
8
18
10
97.570
20
199.000
30
0.000
42
1.00000000
0
VERTEX
8
18
10
97.570
20
181.000
30
0.000
42
1.00000000
0
SEQEND
0
LINE
8
18
6
CONTINUOUS
62
7
39
1.000
10
88.570
20
190.000
30
0.000
11
106.570
21
190.000
31
0.000
0
LINE
8
18
6
CONTINUOUS
62
7
39
1.000
10
97.570
20
181.000
30
0.000
11
97.570
21
199.000
31
0.000
0
POLYLINE
8
18
6
CONTINUOUS
62
7
66
1
10
0.000
20
0.000
30
0.000
70
1
0
VERTEX
8
18
10
177.570
20
119.000
30
0.000
42
1.00000000
0
VERTEX
8
18
10
177.570
20
101.000
30
0.000
42
1.00000000
0
SEQEND
0
LINE
8
18
6
CONTINUOUS
62
7
39
1.000
10
168.570
20
110.000
30
0.000
11
186.570
21
110.000
31
0.000
0
LINE
8
18
6
CONTINUOUS
62
7
39
1.000
10
177.570
20
101.000
30
0.000
11
177.570
21
119.000
31
0.000
0
POLYLINE
8
18
6
CONTINUOUS
62
7
66
1
10
0.000
20
0.000
30
0.000
70
1
0
VERTEX
8
18
10
177.570
20
199.000
30
0.000
42
1.00000000
0
VERTEX
8
18
10
177.570
20
181.000
30
0.000
42
1.00000000
0
SEQEND
0
LINE
8
18
6
CONTINUOUS
62
7
39
1.000
10
168.570
20
190.000
30
0.000
11
186.570
21
190.000
31
0.000
0
LINE
8
18
6
CONTINUOUS
62
7
39
1.000
10
177.570
20
181.000
30
0.000
11
177.570
21
199.000
31
0.000
0
POLYLINE
8
18
6
CONTINUOUS
62
7
66
1
10
0.000
20
0.000
30
0.000
70
1
0
VERTEX
8
18
10
817.570
20
119.000
30
0.000
42
1.00000000
0
VERTEX
8
18
10
817.570
20
101.000
30
0.000
42
1.00000000
0
SEQEND
0
LINE
8
18
6
CONTINUOUS
62
7
39
1.000
10
808.570
20
110.000
30
0.000
11
826.570
21
110.000
31
0.000
0
LINE
8
18
6
CONTINUOUS
62
7
39
1.000
10
817.570
20
101.000
30
0.000
11
817.570
21
119.000
31
0.000
0
POLYLINE
8
18
6
CONTINUOUS
62
7
66
1
10
0.000
20
0.000
30
0.000
70
1
0
VERTEX
8
18
10
817.570
20
199.000
30
0.000
42
1.00000000
0
VERTEX
8
18
10
817.570
20
181.000
30
0.000
42
1.00000000
0
SEQEND
0
LINE
8
18
6
CONTINUOUS
62
7
39
1.000
10
808.570
20
190.000
30
0.000
11
826.570
21
190.000
31
0.000
0
LINE
8
18
6
CONTINUOUS
62
7
39
1.000
10
817.570
20
181.000
30
0.000
11
817.570
21
199.000
31
0.000
0
POLYLINE
8
18
6
CONTINUOUS
62
7
66
1
10
0.000
20
0.000
30
0.000
70
1
0
VERTEX
8
18
10
897.570
20
119.000
30
0.000
42
1.00000000
0
VERTEX
8
18
10
897.570
20
101.000
30
0.000
42
1.00000000
0
SEQEND
0
LINE
8
18
6
CONTINUOUS
62
7
39
1.000
10
888.570
20
110.000
30
0.000
11
906.570
21
110.000
31
0.000
0
LINE
8
18
6
CONTINUOUS
62
7
39
1.000
10
897.570
20
101.000
30
0.000
11
897.570
21
119.000
31
0.000
0
POLYLINE
8
18
6
CONTINUOUS
62
7
66
1
10
0.000
20
0.000
30
0.000
70
1
0
VERTEX
8
18
10
897.570
20
199.000
30
0.000
42
1.00000000
0
VERTEX
8
18
10
897.570
20
181.000
30
0.000
42
1.00000000
0
SEQEND
0
LINE
8
18
6
CONTINUOUS
62
7
39
1.000
10
888.570
20
190.000
30
0.000
11
906.570
21
190.000
31
0.000
0
LINE
8
18
6
CONTINUOUS
62
7
39
1.000
10
897.570
20
181.000
30
0.000
11
897.570
21
199.000
31
0.000
0
POLYLINE
8
18
6
CONTINUOUS
62
7
66
1
10
0.000
20
0.000
30
0.000
70
1
0
VERTEX
8
18
10
1537.570
20
119.000
30
0.000
42
1.00000000
0
VERTEX
8
18
10
1537.570
20
101.000
30
0.000
42
1.00000000
0
SEQEND
0
LINE
8
18
6
CONTINUOUS
62
7
39
1.000
10
1528.570
20
110.000
30
0.000
11
1546.570
21
110.000
31
0.000
0
LINE
8
18
6
CONTINUOUS
62
7
39
1.000
10
1537.570
20
101.000
30
0.000
11
1537.570
21
119.000
31
0.000
0
POLYLINE
8
18
6
CONTINUOUS
62
7
66
1
10
0.000
20
0.000
30
0.000
70
1
0
VERTEX
8
18
10
1537.570
20
199.000
30
0.000
42
1.00000000
0
VERTEX
8
18
10
1537.570
20
181.000
30
0.000
42
1.00000000
0
SEQEND
0
LINE
8
18
6
CONTINUOUS
62
7
39
1.000
10
1528.570
20
190.000
30
0.000
11
1546.570
21
190.000
31
0.000
0
LINE
8
18
6
CONTINUOUS
62
7
39
1.000
10
1537.570
20
181.000
30
0.000
11
1537.570
21
199.000
31
0.000
0
POLYLINE
8
18
6
CONTINUOUS
62
7
66
1
10
0.000
20
0.000
30
0.000
70
1
0
VERTEX
8
18
10
1617.570
20
119.000
30
0.000
42
1.00000000
0
VERTEX
8
18
10
1617.570
20
101.000
30
0.000
42
1.00000000
0
SEQEND
0
LINE
8
18
6
CONTINUOUS
62
7
39
1.000
10
1608.570
20
110.000
30
0.000
11
1626.570
21
110.000
31
0.000
0
LINE
8
18
6
CONTINUOUS
62
7
39
1.000
10
1617.570
20
101.000
30
0.000
11
1617.570
21
119.000
31
0.000
0
POLYLINE
8
18
6
CONTINUOUS
62
7
66
1
10
0.000
20
0.000
30
0.000
70
1
0
VERTEX
8
18
10
1617.570
20
199.000
30
0.000
42
1.00000000
0
VERTEX
8
18
10
1617.570
20
181.000
30
0.000
42
1.00000000
0
SEQEND
0
LINE
8
18
6
CONTINUOUS
62
7
39
1.000
10
1608.570
20
190.000
30
0.000
11
1626.570
21
190.000
31
0.000
0
LINE
8
18
6
CONTINUOUS
62
7
39
1.000
10
1617.570
20
181.000
30
0.000
11
1617.570
21
199.000
31
0.000
0
POLYLINE
8
18
6
CONTINUOUS
62
7
66
1
10
0.000
20
0.000
30
0.000
70
1
0
VERTEX
8
18
10
2257.570
20
119.000
30
0.000
42
1.00000000
0
VERTEX
8
18
10
2257.570
20
101.000
30
0.000
42
1.00000000
0
SEQEND
0
LINE
8
18
6
CONTINUOUS
62
7
39
1.000
10
2248.570
20
110.000
30
0.000
11
2266.570
21
110.000
31
0.000
0
LINE
8
18
6
CONTINUOUS
62
7
39
1.000
10
2257.570
20
101.000
30
0.000
11
2257.570
21
119.000
31
0.000
0
POLYLINE
8
18
6
CONTINUOUS
62
7
66
1
10
0.000
20
0.000
30
0.000
70
1
0
VERTEX
8
18
10
2257.570
20
199.000
30
0.000
42
1.00000000
0
VERTEX
8
18
10
2257.570
20
181.000
30
0.000
42
1.00000000
0
SEQEND
0
LINE
8
18
6
CONTINUOUS
62
7
39
1.000
10
2248.570
20
190.000
30
0.000
11
2266.570
21
190.000
31
0.000
0
LINE
8
18
6
CONTINUOUS
62
7
39
1.000
10
2257.570
20
181.000
30
0.000
11
2257.570
21
199.000
31
0.000
0
POLYLINE
8
18
6
CONTINUOUS
62
7
66
1
10
0.000
20
0.000
30
0.000
70
1
0
VERTEX
8
18
10
2337.570
20
119.000
30
0.000
42
1.00000000
0
VERTEX
8
18
10
2337.570
20
101.000
30
0.000
42
1.00000000
0
SEQEND
0
LINE
8
18
6
CONTINUOUS
62
7
39
1.000
10
2328.570
20
110.000
30
0.000
11
2346.570
21
110.000
31
0.000
0
LINE
8
18
6
CONTINUOUS
62
7
39
1.000
10
2337.570
20
101.000
30
0.000
11
2337.570
21
119.000
31
0.000
0
POLYLINE
8
18
6
CONTINUOUS
62
7
66
1
10
0.000
20
0.000
30
0.000
70
1
0
VERTEX
8
18
10
2337.570
20
199.000
30
0.000
42
1.00000000
0
VERTEX
8
18
10
2337.570
20
181.000
30
0.000
42
1.00000000
0
SEQEND
0
LINE
8
18
6
CONTINUOUS
62
7
39
1.000
10
2328.570
20
190.000
30
0.000
11
2346.570
21
190.000
31
0.000
0
LINE
8
18
6
CONTINUOUS
62
7
39
1.000
10
2337.570
20
181.000
30
0.000
11
2337.570
21
199.000
31
0.000
0
POLYLINE
8
18
6
CONTINUOUS
62
7
66
1
10
0.000
20
0.000
30
0.000
70
1
0
VERTEX
8
18
10
2727.570
20
119.000
30
0.000
42
1.00000000
0
VERTEX
8
18
10
2727.570
20
101.000
30
0.000
42
1.00000000
0
SEQEND
0
LINE
8
18
6
CONTINUOUS
62
7
39
1.000
10
2718.570
20
110.000
30
0.000
11
2736.570
21
110.000
31
0.000
0
LINE
8
18
6
CONTINUOUS
62
7
39
1.000
10
2727.570
20
101.000
30
0.000
11
2727.570
21
119.000
31
0.000
0
POLYLINE
8
18
6
CONTINUOUS
62
7
66
1
10
0.000
20
0.000
30
0.000
70
1
0
VERTEX
8
18
10
2727.570
20
199.000
30
0.000
42
1.00000000
0
VERTEX
8
18
10
2727.570
20
181.000
30
0.000
42
1.00000000
0
SEQEND
0
LINE
8
18
6
CONTINUOUS
62
7
39
1.000
10
2718.570
20
190.000
30
0.000
11
2736.570
21
190.000
31
0.000
0
LINE
8
18
6
CONTINUOUS
62
7
39
1.000
10
2727.570
20
181.000
30
0.000
11
2727.570
21
199.000
31
0.000
0
POLYLINE
8
18
6
CONTINUOUS
62
7
66
1
10
0.000
20
0.000
30
0.000
70
1
0
VERTEX
8
18
10
2807.570
20
119.000
30
0.000
42
1.00000000
0
VERTEX
8
18
10
2807.570
20
101.000
30
0.000
42
1.00000000
0
SEQEND
0
LINE
8
18
6
CONTINUOUS
62
7
39
1.000
10
2798.570
20
110.000
30
0.000
11
2816.570
21
110.000
31
0.000
0
LINE
8
18
6
CONTINUOUS
62
7
39
1.000
10
2807.570
20
101.000
30
0.000
11
2807.570
21
119.000
31
0.000
0
POLYLINE
8
18
6
CONTINUOUS
62
7
66
1
10
0.000
20
0.000
30
0.000
70
1
0
VERTEX
8
18
10
2807.570
20
199.000
30
0.000
42
1.00000000
0
VERTEX
8
18
10
2807.570
20
181.000
30
0.000
42
1.00000000
0
SEQEND
0
LINE
8
18
6
CONTINUOUS
62
7
39
1.000
10
2798.570
20
190.000
30
0.000
11
2816.570
21
190.000
31
0.000
0
LINE
8
18
6
CONTINUOUS
62
7
39
1.000
10
2807.570
20
181.000
30
0.000
11
2807.570
21
199.000
31
0.000
0
ENDSEC
0
EOF
