0
SECTION
2
HEADER
9
$PDMODE
70
33
9
$PDSIZE
40
1.000
9
$EXTMIN
10
-60.883
20
-30.146
30
-1.000
9
$EXTMAX
10
669.713
20
331.606
30
1.000
9
$LIMMIN
10
-60.883
20
-30.146
9
$LIMMAX
10
669.713
20
331.606
0
ENDSEC
0
SECTION
2
TABLES
0
TABLE
2
LAYER
70
7
0
LAYER
2
SCRIBE
70
0
62
3
6
CONTINUOUS
0
LAYER
2
TEXT
70
0
62
7
6
CONTINUOUS
0
LAYER
2
CUT
70
0
62
7
6
CONTINUOUS
0
LAYER
2
22
70
0
62
7
6
CONTINUOUS
0
ENDTAB
0
TABLE
2
VPORT
70
4
0
VPORT
2
*ACTIVE
70
0
10
0.000000
20
0.000000
11
1.000000
21
1.000000
12
304.415000
22
150.730000
13
0.000000
23
0.000000
14
1.000000
24
1.000000
15
1.000000
25
1.000000
16
0.000000
26
0.000000
36
1.000000
17
0.000000
27
0.000000
37
0.000000
40
608.830000
41
1.500000
42
50.000000
43
0.000000
44
0.000000
50
0.000000
51
0.000000
71
0
72
100
73
1
74
1
75
0
76
0
77
0
78
0
0
ENDTAB
0
ENDSEC
0
SECTION
2
ENTITIES
0
TEXT
8
SCRIBE
62
3
10
30.000
20
30.000
30
0.000
40
10.000
1
PL321
0
TEXT
8
TEXT
62
7
10
30.000
20
15.000
30
0.000
40
10.000
1
PL12+S355JR+2
0
POLYLINE
8
CUT
6
CONTINUOUS
62
7
66
1
10
0.000
20
0.000
30
0.000
70
1
0
VERTEX
8
CUT
10
0.000
20
226.970
30
0.000
42
0.00000000
0
VERTEX
8
CUT
10
29.170
20
301.460
30
0.000
42
0.00000000
0
VERTEX
8
CUT
10
440.550
20
301.460
30
0.000
42
0.00000000
0
VERTEX
8
CUT
10
608.830
20
74.490
30
0.000
42
0.00000000
0
VERTEX
8
CUT
10
579.660
20
0.000
30
0.000
42
0.00000000
0
VERTEX
8
CUT
10
168.280
20
0.000
30
0.000
42
0.00000000
0
SEQEND
0
POLYLINE
8
22
6
CONTINUOUS
62
7
66
1
10
0.000
20
0.000
30
0.000
70
1
0
VERTEX
8
22
10
51.830
20
260.630
30
0.000
42
1.00000000
0
VERTEX
8
22
10
51.830
20
238.630
30
0.000
42
1.00000000
0
SEQEND
0
LINE
8
22
6
CONTINUOUS
62
7
39
1.000
10
40.830
20
249.630
30
0.000
11
62.830
21
249.630
31
0.000
0
LINE
8
22
6
CONTINUOUS
62
7
39
1.000
10
51.830
20
238.630
30
0.000
11
51.830
21
260.630
31
0.000
0
POLYLINE
8
22
6
CONTINUOUS
62
7
66
1
10
0.000
20
0.000
30
0.000
70
1
0
VERTEX
8
22
10
144.950
20
224.170
30
0.000
42
1.00000000
0
VERTEX
8
22
10
144.950
20
202.170
30
0.000
42
1.00000000
0
SEQEND
0
LINE
8
22
6
CONTINUOUS
62
7
39
1.000
10
133.950
20
213.170
30
0.000
11
155.950
21
213.170
31
0.000
0
LINE
8
22
6
CONTINUOUS
62
7
39
1.000
10
144.950
20
202.170
30
0.000
11
144.950
21
224.170
31
0.000
0
POLYLINE
8
22
6
CONTINUOUS
62
7
66
1
10
0.000
20
0.000
30
0.000
70
1
0
VERTEX
8
22
10
303.350
20
160.940
30
0.000
42
1.00000000
0
VERTEX
8
22
10
303.350
20
138.940
30
0.000
42
1.00000000
0
SEQEND
0
LINE
8
22
6
CONTINUOUS
62
7
39
1.000
10
292.350
20
149.940
30
0.000
11
314.350
21
149.940
31
0.000
0
LINE
8
22
6
CONTINUOUS
62
7
39
1.000
10
303.350
20
138.940
30
0.000
11
303.350
21
160.940
31
0.000
0
POLYLINE
8
22
6
CONTINUOUS
62
7
66
1
10
0.000
20
0.000
30
0.000
70
1
0
VERTEX
8
22
10
463.880
20
99.290
30
0.000
42
1.00000000
0
VERTEX
8
22
10
463.880
20
77.290
30
0.000
42
1.00000000
0
SEQEND
0
LINE
8
22
6
CONTINUOUS
62
7
39
1.000
10
452.880
20
88.290
30
0.000
11
474.880
21
88.290
31
0.000
0
LINE
8
22
6
CONTINUOUS
62
7
39
1.000
10
463.880
20
77.290
30
0.000
11
463.880
21
99.290
31
0.000
0
POLYLINE
8
22
6
CONTINUOUS
62
7
66
1
10
0.000
20
0.000
30
0.000
70
1
0
VERTEX
8
22
10
557.000
20
62.830
30
0.000
42
1.00000000
0
VERTEX
8
22
10
557.000
20
40.830
30
0.000
42
1.00000000
0
SEQEND
0
LINE
8
22
6
CONTINUOUS
62
7
39
1.000
10
546.000
20
51.830
30
0.000
11
568.000
21
51.830
31
0.000
0
LINE
8
22
6
CONTINUOUS
62
7
39
1.000
10
557.000
20
40.830
30
0.000
11
557.000
21
62.830
31
0.000
0
ENDSEC
0
EOF
