0
SECTION
2
HEADER
9
$PDMODE
70
33
9
$PDSIZE
40
1.000
9
$EXTMIN
10
-28.600
20
-27.850
30
-1.000
9
$EXTMAX
10
314.600
20
306.350
30
1.000
9
$LIMMIN
10
-28.600
20
-27.850
9
$LIMMAX
10
314.600
20
306.350
0
ENDSEC
0
SECTION
2
TABLES
0
TABLE
2
LAYER
70
7
0
LAYER
2
SCRIBE
70
0
62
3
6
CONTINUOUS
0
LAYER
2
TEXT
70
0
62
7
6
CONTINUOUS
0
LAYER
2
CUT
70
0
62
7
6
CONTINUOUS
0
LAYER
2
22
70
0
62
7
6
CONTINUOUS
0
ENDTAB
0
TABLE
2
VPORT
70
4
0
VPORT
2
*ACTIVE
70
0
10
0.000000
20
0.000000
11
1.000000
21
1.000000
12
143.000000
22
139.250000
13
0.000000
23
0.000000
14
1.000000
24
1.000000
15
1.000000
25
1.000000
16
0.000000
26
0.000000
36
1.000000
17
0.000000
27
0.000000
37
0.000000
40
286.000000
41
1.500000
42
50.000000
43
0.000000
44
0.000000
50
0.000000
51
0.000000
71
0
72
100
73
1
74
1
75
0
76
0
77
0
78
0
0
ENDTAB
0
ENDSEC
0
SECTION
2
ENTITIES
0
TEXT
8
SCRIBE
62
3
10
30.000
20
30.000
30
0.000
40
10.000
1
PL325
0
TEXT
8
TEXT
62
7
10
30.000
20
15.000
30
0.000
40
10.000
1
PL12+S355JR+16
0
POLYLINE
8
CUT
6
CONTINUOUS
62
7
66
1
10
0.000
20
0.000
30
0.000
70
1
0
VERTEX
8
CUT
10
0.000
20
0.000
30
0.000
42
0.00000000
0
VERTEX
8
CUT
10
0.000
20
278.500
30
0.000
42
0.00000000
0
VERTEX
8
CUT
10
212.490
20
278.500
30
0.000
42
0.00000000
0
VERTEX
8
CUT
10
281.320
20
134.070
30
0.000
42
0.00000000
0
VERTEX
8
CUT
10
286.000
20
0.000
30
0.000
42
0.00000000
0
SEQEND
0
POLYLINE
8
22
6
CONTINUOUS
62
7
66
1
10
0.000
20
0.000
30
0.000
70
1
0
VERTEX
8
22
10
99.020
20
202.190
30
0.000
42
1.00000000
0
VERTEX
8
22
10
99.020
20
180.190
30
0.000
42
1.00000000
0
SEQEND
0
LINE
8
22
6
CONTINUOUS
62
7
39
1.000
10
88.020
20
191.190
30
0.000
11
110.020
21
191.190
31
0.000
0
LINE
8
22
6
CONTINUOUS
62
7
39
1.000
10
99.020
20
180.190
30
0.000
11
99.020
21
202.190
31
0.000
0
POLYLINE
8
22
6
CONTINUOUS
62
7
66
1
10
0.000
20
0.000
30
0.000
70
1
0
VERTEX
8
22
10
189.290
20
245.210
30
0.000
42
1.00000000
0
VERTEX
8
22
10
189.290
20
223.210
30
0.000
42
1.00000000
0
SEQEND
0
LINE
8
22
6
CONTINUOUS
62
7
39
1.000
10
178.290
20
234.210
30
0.000
11
200.290
21
234.210
31
0.000
0
LINE
8
22
6
CONTINUOUS
62
7
39
1.000
10
189.290
20
223.210
30
0.000
11
189.290
21
245.210
31
0.000
0
POLYLINE
8
22
6
CONTINUOUS
62
7
66
1
10
0.000
20
0.000
30
0.000
70
1
0
VERTEX
8
22
10
247.960
20
38.050
30
0.000
42
1.00000000
0
VERTEX
8
22
10
247.960
20
16.050
30
0.000
42
1.00000000
0
SEQEND
0
LINE
8
22
6
CONTINUOUS
62
7
39
1.000
10
236.960
20
27.050
30
0.000
11
258.960
21
27.050
31
0.000
0
LINE
8
22
6
CONTINUOUS
62
7
39
1.000
10
247.960
20
16.050
30
0.000
11
247.960
21
38.050
31
0.000
0
POLYLINE
8
22
6
CONTINUOUS
62
7
66
1
10
0.000
20
0.000
30
0.000
70
1
0
VERTEX
8
22
10
247.960
20
98.050
30
0.000
42
1.00000000
0
VERTEX
8
22
10
247.960
20
76.050
30
0.000
42
1.00000000
0
SEQEND
0
LINE
8
22
6
CONTINUOUS
62
7
39
1.000
10
236.960
20
87.050
30
0.000
11
258.960
21
87.050
31
0.000
0
LINE
8
22
6
CONTINUOUS
62
7
39
1.000
10
247.960
20
76.050
30
0.000
11
247.960
21
98.050
31
0.000
0
POLYLINE
8
22
6
CONTINUOUS
62
7
66
1
10
0.000
20
0.000
30
0.000
70
1
0
VERTEX
8
22
10
247.960
20
158.050
30
0.000
42
1.00000000
0
VERTEX
8
22
10
247.960
20
136.050
30
0.000
42
1.00000000
0
SEQEND
0
LINE
8
22
6
CONTINUOUS
62
7
39
1.000
10
236.960
20
147.050
30
0.000
11
258.960
21
147.050
31
0.000
0
LINE
8
22
6
CONTINUOUS
62
7
39
1.000
10
247.960
20
136.050
30
0.000
11
247.960
21
158.050
31
0.000
0
ENDSEC
0
EOF
