0
SECTION
2
HEADER
9
$PDMODE
70
33
9
$PDSIZE
40
1.000
9
$EXTMIN
10
-51.306
20
-24.679
30
-1.000
9
$EXTMAX
10
564.366
20
271.469
30
1.000
9
$LIMMIN
10
-51.306
20
-24.679
9
$LIMMAX
10
564.366
20
271.469
0
ENDSEC
0
SECTION
2
TABLES
0
TABLE
2
LAYER
70
7
0
LAYER
2
SCRIBE
70
0
62
3
6
CONTINUOUS
0
LAYER
2
TEXT
70
0
62
7
6
CONTINUOUS
0
LAYER
2
CUT
70
0
62
7
6
CONTINUOUS
0
LAYER
2
22
70
0
62
7
6
CONTINUOUS
0
ENDTAB
0
TABLE
2
VPORT
70
4
0
VPORT
2
*ACTIVE
70
0
10
0.000000
20
0.000000
11
1.000000
21
1.000000
12
256.530000
22
123.395000
13
0.000000
23
0.000000
14
1.000000
24
1.000000
15
1.000000
25
1.000000
16
0.000000
26
0.000000
36
1.000000
17
0.000000
27
0.000000
37
0.000000
40
513.060000
41
1.500000
42
50.000000
43
0.000000
44
0.000000
50
0.000000
51
0.000000
71
0
72
100
73
1
74
1
75
0
76
0
77
0
78
0
0
ENDTAB
0
ENDSEC
0
SECTION
2
ENTITIES
0
TEXT
8
SCRIBE
62
3
10
30.000
20
30.000
30
0.000
40
10.000
1
PL335
0
TEXT
8
TEXT
62
7
10
30.000
20
15.000
30
0.000
40
10.000
1
PL12+S355JR+2
0
POLYLINE
8
CUT
6
CONTINUOUS
62
7
66
1
10
0.000
20
0.000
30
0.000
70
1
0
VERTEX
8
CUT
10
0.000
20
0.000
30
0.000
42
0.00000000
0
VERTEX
8
CUT
10
0.000
20
211.160
30
0.000
42
0.00000000
0
VERTEX
8
CUT
10
71.630
20
246.790
30
0.000
42
0.00000000
0
VERTEX
8
CUT
10
442.050
20
246.790
30
0.000
42
0.00000000
0
VERTEX
8
CUT
10
513.060
20
207.480
30
0.000
42
0.00000000
0
VERTEX
8
CUT
10
513.060
20
0.000
30
0.000
42
0.00000000
0
SEQEND
0
POLYLINE
8
22
6
CONTINUOUS
62
7
66
1
10
0.000
20
0.000
30
0.000
70
1
0
VERTEX
8
22
10
53.630
20
204.160
30
0.000
42
1.00000000
0
VERTEX
8
22
10
53.630
20
182.160
30
0.000
42
1.00000000
0
SEQEND
0
LINE
8
22
6
CONTINUOUS
62
7
39
1.000
10
42.630
20
193.160
30
0.000
11
64.630
21
193.160
31
0.000
0
LINE
8
22
6
CONTINUOUS
62
7
39
1.000
10
53.630
20
182.160
30
0.000
11
53.630
21
204.160
31
0.000
0
POLYLINE
8
22
6
CONTINUOUS
62
7
66
1
10
0.000
20
0.000
30
0.000
70
1
0
VERTEX
8
22
10
98.170
20
114.630
30
0.000
42
1.00000000
0
VERTEX
8
22
10
98.170
20
92.630
30
0.000
42
1.00000000
0
SEQEND
0
LINE
8
22
6
CONTINUOUS
62
7
39
1.000
10
87.170
20
103.630
30
0.000
11
109.170
21
103.630
31
0.000
0
LINE
8
22
6
CONTINUOUS
62
7
39
1.000
10
98.170
20
92.630
30
0.000
11
98.170
21
114.630
31
0.000
0
POLYLINE
8
22
6
CONTINUOUS
62
7
66
1
10
0.000
20
0.000
30
0.000
70
1
0
VERTEX
8
22
10
191.870
20
202.790
30
0.000
42
1.00000000
0
VERTEX
8
22
10
191.870
20
180.790
30
0.000
42
1.00000000
0
SEQEND
0
LINE
8
22
6
CONTINUOUS
62
7
39
1.000
10
180.870
20
191.790
30
0.000
11
202.870
21
191.790
31
0.000
0
LINE
8
22
6
CONTINUOUS
62
7
39
1.000
10
191.870
20
180.790
30
0.000
11
191.870
21
202.790
31
0.000
0
POLYLINE
8
22
6
CONTINUOUS
62
7
66
1
10
0.000
20
0.000
30
0.000
70
1
0
VERTEX
8
22
10
251.870
20
202.790
30
0.000
42
1.00000000
0
VERTEX
8
22
10
251.870
20
180.790
30
0.000
42
1.00000000
0
SEQEND
0
LINE
8
22
6
CONTINUOUS
62
7
39
1.000
10
240.870
20
191.790
30
0.000
11
262.870
21
191.790
31
0.000
0
LINE
8
22
6
CONTINUOUS
62
7
39
1.000
10
251.870
20
180.790
30
0.000
11
251.870
21
202.790
31
0.000
0
POLYLINE
8
22
6
CONTINUOUS
62
7
66
1
10
0.000
20
0.000
30
0.000
70
1
0
VERTEX
8
22
10
311.870
20
202.790
30
0.000
42
1.00000000
0
VERTEX
8
22
10
311.870
20
180.790
30
0.000
42
1.00000000
0
SEQEND
0
LINE
8
22
6
CONTINUOUS
62
7
39
1.000
10
300.870
20
191.790
30
0.000
11
322.870
21
191.790
31
0.000
0
LINE
8
22
6
CONTINUOUS
62
7
39
1.000
10
311.870
20
180.790
30
0.000
11
311.870
21
202.790
31
0.000
0
POLYLINE
8
22
6
CONTINUOUS
62
7
66
1
10
0.000
20
0.000
30
0.000
70
1
0
VERTEX
8
22
10
410.260
20
115.370
30
0.000
42
1.00000000
0
VERTEX
8
22
10
410.260
20
93.370
30
0.000
42
1.00000000
0
SEQEND
0
LINE
8
22
6
CONTINUOUS
62
7
39
1.000
10
399.260
20
104.370
30
0.000
11
421.260
21
104.370
31
0.000
0
LINE
8
22
6
CONTINUOUS
62
7
39
1.000
10
410.260
20
93.370
30
0.000
11
410.260
21
115.370
31
0.000
0
POLYLINE
8
22
6
CONTINUOUS
62
7
66
1
10
0.000
20
0.000
30
0.000
70
1
0
VERTEX
8
22
10
458.690
20
202.860
30
0.000
42
1.00000000
0
VERTEX
8
22
10
458.690
20
180.860
30
0.000
42
1.00000000
0
SEQEND
0
LINE
8
22
6
CONTINUOUS
62
7
39
1.000
10
447.690
20
191.860
30
0.000
11
469.690
21
191.860
31
0.000
0
LINE
8
22
6
CONTINUOUS
62
7
39
1.000
10
458.690
20
180.860
30
0.000
11
458.690
21
202.860
31
0.000
0
ENDSEC
0
EOF
