0
SECTION
2
HEADER
9
$PDMODE
70
33
9
$PDSIZE
40
1.000
9
$EXTMIN
10
-41.782
20
-24.446
30
-1.000
9
$EXTMAX
10
459.602
20
268.906
30
1.000
9
$LIMMIN
10
-41.782
20
-24.446
9
$LIMMAX
10
459.602
20
268.906
0
ENDSEC
0
SECTION
2
TABLES
0
TABLE
2
LAYER
70
7
0
LAYER
2
SCRIBE
70
0
62
3
6
CONTINUOUS
0
LAYER
2
TEXT
70
0
62
7
6
CONTINUOUS
0
LAYER
2
CUT
70
0
62
7
6
CONTINUOUS
0
LAYER
2
22
70
0
62
7
6
CONTINUOUS
0
ENDTAB
0
TABLE
2
VPORT
70
4
0
VPORT
2
*ACTIVE
70
0
10
0.000000
20
0.000000
11
1.000000
21
1.000000
12
208.910000
22
122.230000
13
0.000000
23
0.000000
14
1.000000
24
1.000000
15
1.000000
25
1.000000
16
0.000000
26
0.000000
36
1.000000
17
0.000000
27
0.000000
37
0.000000
40
417.820000
41
1.500000
42
50.000000
43
0.000000
44
0.000000
50
0.000000
51
0.000000
71
0
72
100
73
1
74
1
75
0
76
0
77
0
78
0
0
ENDTAB
0
ENDSEC
0
SECTION
2
ENTITIES
0
TEXT
8
SCRIBE
62
3
10
30.000
20
30.000
30
0.000
40
10.000
1
PL398
0
TEXT
8
TEXT
62
7
10
30.000
20
15.000
30
0.000
40
10.000
1
PL12+S355JR+4
0
POLYLINE
8
CUT
6
CONTINUOUS
62
7
66
1
10
0.000
20
0.000
30
0.000
70
1
0
VERTEX
8
CUT
10
0.000
20
0.000
30
0.000
42
0.00000000
0
VERTEX
8
CUT
10
0.000
20
244.460
30
0.000
42
0.00000000
0
VERTEX
8
CUT
10
350.820
20
244.460
30
0.000
42
0.00000000
0
VERTEX
8
CUT
10
417.820
20
200.740
30
0.000
42
0.00000000
0
VERTEX
8
CUT
10
417.820
20
0.000
30
0.000
42
0.00000000
0
SEQEND
0
POLYLINE
8
22
6
CONTINUOUS
62
7
66
1
10
0.000
20
0.000
30
0.000
70
1
0
VERTEX
8
22
10
36.920
20
220.460
30
0.000
42
1.00000000
0
VERTEX
8
22
10
36.920
20
198.460
30
0.000
42
1.00000000
0
SEQEND
0
LINE
8
22
6
CONTINUOUS
62
7
39
1.000
10
25.920
20
209.460
30
0.000
11
47.920
21
209.460
31
0.000
0
LINE
8
22
6
CONTINUOUS
62
7
39
1.000
10
36.920
20
198.460
30
0.000
11
36.920
21
220.460
31
0.000
0
POLYLINE
8
22
6
CONTINUOUS
62
7
66
1
10
0.000
20
0.000
30
0.000
70
1
0
VERTEX
8
22
10
106.920
20
220.460
30
0.000
42
1.00000000
0
VERTEX
8
22
10
106.920
20
198.460
30
0.000
42
1.00000000
0
SEQEND
0
LINE
8
22
6
CONTINUOUS
62
7
39
1.000
10
95.920
20
209.460
30
0.000
11
117.920
21
209.460
31
0.000
0
LINE
8
22
6
CONTINUOUS
62
7
39
1.000
10
106.920
20
198.460
30
0.000
11
106.920
21
220.460
31
0.000
0
POLYLINE
8
22
6
CONTINUOUS
62
7
66
1
10
0.000
20
0.000
30
0.000
70
1
0
VERTEX
8
22
10
176.920
20
220.460
30
0.000
42
1.00000000
0
VERTEX
8
22
10
176.920
20
198.460
30
0.000
42
1.00000000
0
SEQEND
0
LINE
8
22
6
CONTINUOUS
62
7
39
1.000
10
165.920
20
209.460
30
0.000
11
187.920
21
209.460
31
0.000
0
LINE
8
22
6
CONTINUOUS
62
7
39
1.000
10
176.920
20
198.460
30
0.000
11
176.920
21
220.460
31
0.000
0
POLYLINE
8
22
6
CONTINUOUS
62
7
66
1
10
0.000
20
0.000
30
0.000
70
1
0
VERTEX
8
22
10
307.800
20
116.360
30
0.000
42
1.00000000
0
VERTEX
8
22
10
307.800
20
94.360
30
0.000
42
1.00000000
0
SEQEND
0
LINE
8
22
6
CONTINUOUS
62
7
39
1.000
10
296.800
20
105.360
30
0.000
11
318.800
21
105.360
31
0.000
0
LINE
8
22
6
CONTINUOUS
62
7
39
1.000
10
307.800
20
94.360
30
0.000
11
307.800
21
116.360
31
0.000
0
POLYLINE
8
22
6
CONTINUOUS
62
7
66
1
10
0.000
20
0.000
30
0.000
70
1
0
VERTEX
8
22
10
362.460
20
200.100
30
0.000
42
1.00000000
0
VERTEX
8
22
10
362.460
20
178.100
30
0.000
42
1.00000000
0
SEQEND
0
LINE
8
22
6
CONTINUOUS
62
7
39
1.000
10
351.460
20
189.100
30
0.000
11
373.460
21
189.100
31
0.000
0
LINE
8
22
6
CONTINUOUS
62
7
39
1.000
10
362.460
20
178.100
30
0.000
11
362.460
21
200.100
31
0.000
0
ENDSEC
0
EOF
