0
SECTION
2
HEADER
9
$PDMODE
70
33
9
$PDSIZE
40
1.000
9
$EXTMIN
10
-63.170
20
-30.711
30
-1.000
9
$EXTMAX
10
694.870
20
337.821
30
1.000
9
$LIMMIN
10
-63.170
20
-30.711
9
$LIMMAX
10
694.870
20
337.821
0
ENDSEC
0
SECTION
2
TABLES
0
TABLE
2
LAYER
70
7
0
LAYER
2
SCRIBE
70
0
62
3
6
CONTINUOUS
0
LAYER
2
TEXT
70
0
62
7
6
CONTINUOUS
0
LAYER
2
CUT
70
0
62
7
6
CONTINUOUS
0
LAYER
2
22
70
0
62
7
6
CONTINUOUS
0
ENDTAB
0
TABLE
2
VPORT
70
4
0
VPORT
2
*ACTIVE
70
0
10
0.000000
20
0.000000
11
1.000000
21
1.000000
12
315.850000
22
153.555000
13
0.000000
23
0.000000
14
1.000000
24
1.000000
15
1.000000
25
1.000000
16
0.000000
26
0.000000
36
1.000000
17
0.000000
27
0.000000
37
0.000000
40
631.700000
41
1.500000
42
50.000000
43
0.000000
44
0.000000
50
0.000000
51
0.000000
71
0
72
100
73
1
74
1
75
0
76
0
77
0
78
0
0
ENDTAB
0
ENDSEC
0
SECTION
2
ENTITIES
0
TEXT
8
SCRIBE
62
3
10
30.000
20
30.000
30
0.000
40
10.000
1
PL417
0
TEXT
8
TEXT
62
7
10
30.000
20
15.000
30
0.000
40
10.000
1
PL12+S355JR+2
0
POLYLINE
8
CUT
6
CONTINUOUS
62
7
66
1
10
0.000
20
0.000
30
0.000
70
1
0
VERTEX
8
CUT
10
0.000
20
232.460
30
0.000
42
0.00000000
0
VERTEX
8
CUT
10
28.780
20
307.110
30
0.000
42
0.00000000
0
VERTEX
8
CUT
10
487.480
20
307.110
30
0.000
42
0.00000000
0
VERTEX
8
CUT
10
631.700
20
74.640
30
0.000
42
0.00000000
0
VERTEX
8
CUT
10
602.920
20
0.000
30
0.000
42
0.00000000
0
VERTEX
8
CUT
10
144.220
20
0.000
30
0.000
42
0.00000000
0
SEQEND
0
POLYLINE
8
22
6
CONTINUOUS
62
7
66
1
10
0.000
20
0.000
30
0.000
70
1
0
VERTEX
8
22
10
51.710
20
266.390
30
0.000
42
1.00000000
0
VERTEX
8
22
10
51.710
20
244.390
30
0.000
42
1.00000000
0
SEQEND
0
LINE
8
22
6
CONTINUOUS
62
7
39
1.000
10
40.710
20
255.390
30
0.000
11
62.710
21
255.390
31
0.000
0
LINE
8
22
6
CONTINUOUS
62
7
39
1.000
10
51.710
20
244.390
30
0.000
11
51.710
21
266.390
31
0.000
0
POLYLINE
8
22
6
CONTINUOUS
62
7
66
1
10
0.000
20
0.000
30
0.000
70
1
0
VERTEX
8
22
10
145.020
20
230.420
30
0.000
42
1.00000000
0
VERTEX
8
22
10
145.020
20
208.420
30
0.000
42
1.00000000
0
SEQEND
0
LINE
8
22
6
CONTINUOUS
62
7
39
1.000
10
134.020
20
219.420
30
0.000
11
156.020
21
219.420
31
0.000
0
LINE
8
22
6
CONTINUOUS
62
7
39
1.000
10
145.020
20
208.420
30
0.000
11
145.020
21
230.420
31
0.000
0
POLYLINE
8
22
6
CONTINUOUS
62
7
66
1
10
0.000
20
0.000
30
0.000
70
1
0
VERTEX
8
22
10
315.850
20
164.550
30
0.000
42
1.00000000
0
VERTEX
8
22
10
315.850
20
142.550
30
0.000
42
1.00000000
0
SEQEND
0
LINE
8
22
6
CONTINUOUS
62
7
39
1.000
10
304.850
20
153.550
30
0.000
11
326.850
21
153.550
31
0.000
0
LINE
8
22
6
CONTINUOUS
62
7
39
1.000
10
315.850
20
142.550
30
0.000
11
315.850
21
164.550
31
0.000
0
POLYLINE
8
22
6
CONTINUOUS
62
7
66
1
10
0.000
20
0.000
30
0.000
70
1
0
VERTEX
8
22
10
486.680
20
98.690
30
0.000
42
1.00000000
0
VERTEX
8
22
10
486.680
20
76.690
30
0.000
42
1.00000000
0
SEQEND
0
LINE
8
22
6
CONTINUOUS
62
7
39
1.000
10
475.680
20
87.690
30
0.000
11
497.680
21
87.690
31
0.000
0
LINE
8
22
6
CONTINUOUS
62
7
39
1.000
10
486.680
20
76.690
30
0.000
11
486.680
21
98.690
31
0.000
0
POLYLINE
8
22
6
CONTINUOUS
62
7
66
1
10
0.000
20
0.000
30
0.000
70
1
0
VERTEX
8
22
10
579.990
20
62.710
30
0.000
42
1.00000000
0
VERTEX
8
22
10
579.990
20
40.710
30
0.000
42
1.00000000
0
SEQEND
0
LINE
8
22
6
CONTINUOUS
62
7
39
1.000
10
568.990
20
51.710
30
0.000
11
590.990
21
51.710
31
0.000
0
LINE
8
22
6
CONTINUOUS
62
7
39
1.000
10
579.990
20
40.710
30
0.000
11
579.990
21
62.710
31
0.000
0
ENDSEC
0
EOF
