0
SECTION
2
HEADER
9
$PDMODE
70
33
9
$PDSIZE
40
1.000
9
$EXTMIN
10
-62.002
20
-24.651
30
-1.000
9
$EXTMAX
10
682.022
20
271.161
30
1.000
9
$LIMMIN
10
-62.002
20
-24.651
9
$LIMMAX
10
682.022
20
271.161
0
ENDSEC
0
SECTION
2
TABLES
0
TABLE
2
LAYER
70
7
0
LAYER
2
SCRIBE
70
0
62
3
6
CONTINUOUS
0
LAYER
2
TEXT
70
0
62
7
6
CONTINUOUS
0
LAYER
2
CUT
70
0
62
7
6
CONTINUOUS
0
LAYER
2
22
70
0
62
7
6
CONTINUOUS
0
ENDTAB
0
TABLE
2
VPORT
70
4
0
VPORT
2
*ACTIVE
70
0
10
0.000000
20
0.000000
11
1.000000
21
1.000000
12
310.010000
22
123.255000
13
0.000000
23
0.000000
14
1.000000
24
1.000000
15
1.000000
25
1.000000
16
0.000000
26
0.000000
36
1.000000
17
0.000000
27
0.000000
37
0.000000
40
620.020000
41
1.500000
42
50.000000
43
0.000000
44
0.000000
50
0.000000
51
0.000000
71
0
72
100
73
1
74
1
75
0
76
0
77
0
78
0
0
ENDTAB
0
ENDSEC
0
SECTION
2
ENTITIES
0
TEXT
8
SCRIBE
62
3
10
30.000
20
30.000
30
0.000
40
10.000
1
PL485
0
TEXT
8
TEXT
62
7
10
30.000
20
15.000
30
0.000
40
10.000
1
PL12+S355JR+4
0
POLYLINE
8
CUT
6
CONTINUOUS
62
7
66
1
10
0.000
20
0.000
30
0.000
70
1
0
VERTEX
8
CUT
10
0.000
20
0.000
30
0.000
42
0.00000000
0
VERTEX
8
CUT
10
0.000
20
219.140
30
0.000
42
0.00000000
0
VERTEX
8
CUT
10
75.170
20
246.510
30
0.000
42
0.00000000
0
VERTEX
8
CUT
10
550.220
20
246.510
30
0.000
42
0.00000000
0
VERTEX
8
CUT
10
620.020
20
186.470
30
0.000
42
0.00000000
0
VERTEX
8
CUT
10
620.020
20
0.000
30
0.000
42
0.00000000
0
SEQEND
0
POLYLINE
8
22
6
CONTINUOUS
62
7
66
1
10
0.000
20
0.000
30
0.000
70
1
0
VERTEX
8
22
10
51.270
20
206.240
30
0.000
42
1.00000000
0
VERTEX
8
22
10
51.270
20
184.240
30
0.000
42
1.00000000
0
SEQEND
0
LINE
8
22
6
CONTINUOUS
62
7
39
1.000
10
40.270
20
195.240
30
0.000
11
62.270
21
195.240
31
0.000
0
LINE
8
22
6
CONTINUOUS
62
7
39
1.000
10
51.270
20
184.240
30
0.000
11
51.270
21
206.240
31
0.000
0
POLYLINE
8
22
6
CONTINUOUS
62
7
66
1
10
0.000
20
0.000
30
0.000
70
1
0
VERTEX
8
22
10
85.490
20
112.270
30
0.000
42
1.00000000
0
VERTEX
8
22
10
85.490
20
90.270
30
0.000
42
1.00000000
0
SEQEND
0
LINE
8
22
6
CONTINUOUS
62
7
39
1.000
10
74.490
20
101.270
30
0.000
11
96.490
21
101.270
31
0.000
0
LINE
8
22
6
CONTINUOUS
62
7
39
1.000
10
85.490
20
90.270
30
0.000
11
85.490
21
112.270
31
0.000
0
POLYLINE
8
22
6
CONTINUOUS
62
7
66
1
10
0.000
20
0.000
30
0.000
70
1
0
VERTEX
8
22
10
209.150
20
202.510
30
0.000
42
1.00000000
0
VERTEX
8
22
10
209.150
20
180.510
30
0.000
42
1.00000000
0
SEQEND
0
LINE
8
22
6
CONTINUOUS
62
7
39
1.000
10
198.150
20
191.510
30
0.000
11
220.150
21
191.510
31
0.000
0
LINE
8
22
6
CONTINUOUS
62
7
39
1.000
10
209.150
20
180.510
30
0.000
11
209.150
21
202.510
31
0.000
0
POLYLINE
8
22
6
CONTINUOUS
62
7
66
1
10
0.000
20
0.000
30
0.000
70
1
0
VERTEX
8
22
10
269.150
20
202.510
30
0.000
42
1.00000000
0
VERTEX
8
22
10
269.150
20
180.510
30
0.000
42
1.00000000
0
SEQEND
0
LINE
8
22
6
CONTINUOUS
62
7
39
1.000
10
258.150
20
191.510
30
0.000
11
280.150
21
191.510
31
0.000
0
LINE
8
22
6
CONTINUOUS
62
7
39
1.000
10
269.150
20
180.510
30
0.000
11
269.150
21
202.510
31
0.000
0
POLYLINE
8
22
6
CONTINUOUS
62
7
66
1
10
0.000
20
0.000
30
0.000
70
1
0
VERTEX
8
22
10
329.150
20
202.510
30
0.000
42
1.00000000
0
VERTEX
8
22
10
329.150
20
180.510
30
0.000
42
1.00000000
0
SEQEND
0
LINE
8
22
6
CONTINUOUS
62
7
39
1.000
10
318.150
20
191.510
30
0.000
11
340.150
21
191.510
31
0.000
0
LINE
8
22
6
CONTINUOUS
62
7
39
1.000
10
329.150
20
180.510
30
0.000
11
329.150
21
202.510
31
0.000
0
POLYLINE
8
22
6
CONTINUOUS
62
7
66
1
10
0.000
20
0.000
30
0.000
70
1
0
VERTEX
8
22
10
498.410
20
117.410
30
0.000
42
1.00000000
0
VERTEX
8
22
10
498.410
20
95.410
30
0.000
42
1.00000000
0
SEQEND
0
LINE
8
22
6
CONTINUOUS
62
7
39
1.000
10
487.410
20
106.410
30
0.000
11
509.410
21
106.410
31
0.000
0
LINE
8
22
6
CONTINUOUS
62
7
39
1.000
10
498.410
20
95.410
30
0.000
11
498.410
21
117.410
31
0.000
0
POLYLINE
8
22
6
CONTINUOUS
62
7
66
1
10
0.000
20
0.000
30
0.000
70
1
0
VERTEX
8
22
10
563.620
20
193.230
30
0.000
42
1.00000000
0
VERTEX
8
22
10
563.620
20
171.230
30
0.000
42
1.00000000
0
SEQEND
0
LINE
8
22
6
CONTINUOUS
62
7
39
1.000
10
552.620
20
182.230
30
0.000
11
574.620
21
182.230
31
0.000
0
LINE
8
22
6
CONTINUOUS
62
7
39
1.000
10
563.620
20
171.230
30
0.000
11
563.620
21
193.230
31
0.000
0
ENDSEC
0
EOF
