0
SECTION
2
HEADER
9
$PDMODE
70
33
9
$PDSIZE
40
1.000
9
$EXTMIN
10
-72.847
20
-23.990
30
-1.000
9
$EXTMAX
10
801.317
20
263.890
30
1.000
9
$LIMMIN
10
-72.847
20
-23.990
9
$LIMMAX
10
801.317
20
263.890
0
ENDSEC
0
SECTION
2
TABLES
0
TABLE
2
LAYER
70
7
0
LAYER
2
SCRIBE
70
0
62
3
6
CONTINUOUS
0
LAYER
2
TEXT
70
0
62
7
6
CONTINUOUS
0
LAYER
2
CUT
70
0
62
7
6
CONTINUOUS
0
LAYER
2
22
70
0
62
7
6
CONTINUOUS
0
ENDTAB
0
TABLE
2
VPORT
70
4
0
VPORT
2
*ACTIVE
70
0
10
0.000000
20
0.000000
11
1.000000
21
1.000000
12
364.235000
22
119.950000
13
0.000000
23
0.000000
14
1.000000
24
1.000000
15
1.000000
25
1.000000
16
0.000000
26
0.000000
36
1.000000
17
0.000000
27
0.000000
37
0.000000
40
728.470000
41
1.500000
42
50.000000
43
0.000000
44
0.000000
50
0.000000
51
0.000000
71
0
72
100
73
1
74
1
75
0
76
0
77
0
78
0
0
ENDTAB
0
ENDSEC
0
SECTION
2
ENTITIES
0
TEXT
8
SCRIBE
62
3
10
30.000
20
30.000
30
0.000
40
10.000
1
PL498
0
TEXT
8
TEXT
62
7
10
30.000
20
15.000
30
0.000
40
10.000
1
PL12+S355JR+4
0
POLYLINE
8
CUT
6
CONTINUOUS
62
7
66
1
10
0.000
20
0.000
30
0.000
70
1
0
VERTEX
8
CUT
10
0.000
20
0.000
30
0.000
42
0.00000000
0
VERTEX
8
CUT
10
0.000
20
189.150
30
0.000
42
0.00000000
0
VERTEX
8
CUT
10
61.850
20
239.900
30
0.000
42
0.00000000
0
VERTEX
8
CUT
10
666.350
20
239.900
30
0.000
42
0.00000000
0
VERTEX
8
CUT
10
728.470
20
186.470
30
0.000
42
0.00000000
0
VERTEX
8
CUT
10
728.470
20
0.000
30
0.000
42
0.00000000
0
SEQEND
0
POLYLINE
8
22
6
CONTINUOUS
62
7
66
1
10
0.000
20
0.000
30
0.000
70
1
0
VERTEX
8
22
10
56.300
20
194.600
30
0.000
42
1.00000000
0
VERTEX
8
22
10
56.300
20
172.600
30
0.000
42
1.00000000
0
SEQEND
0
LINE
8
22
6
CONTINUOUS
62
7
39
1.000
10
45.300
20
183.600
30
0.000
11
67.300
21
183.600
31
0.000
0
LINE
8
22
6
CONTINUOUS
62
7
39
1.000
10
56.300
20
172.600
30
0.000
11
56.300
21
194.600
31
0.000
0
POLYLINE
8
22
6
CONTINUOUS
62
7
66
1
10
0.000
20
0.000
30
0.000
70
1
0
VERTEX
8
22
10
119.730
20
117.300
30
0.000
42
1.00000000
0
VERTEX
8
22
10
119.730
20
95.300
30
0.000
42
1.00000000
0
SEQEND
0
LINE
8
22
6
CONTINUOUS
62
7
39
1.000
10
108.730
20
106.300
30
0.000
11
130.730
21
106.300
31
0.000
0
LINE
8
22
6
CONTINUOUS
62
7
39
1.000
10
119.730
20
95.300
30
0.000
11
119.730
21
117.300
31
0.000
0
POLYLINE
8
22
6
CONTINUOUS
62
7
66
1
10
0.000
20
0.000
30
0.000
70
1
0
VERTEX
8
22
10
314.260
20
195.900
30
0.000
42
1.00000000
0
VERTEX
8
22
10
314.260
20
173.900
30
0.000
42
1.00000000
0
SEQEND
0
LINE
8
22
6
CONTINUOUS
62
7
39
1.000
10
303.260
20
184.900
30
0.000
11
325.260
21
184.900
31
0.000
0
LINE
8
22
6
CONTINUOUS
62
7
39
1.000
10
314.260
20
173.900
30
0.000
11
314.260
21
195.900
31
0.000
0
POLYLINE
8
22
6
CONTINUOUS
62
7
66
1
10
0.000
20
0.000
30
0.000
70
1
0
VERTEX
8
22
10
374.260
20
195.900
30
0.000
42
1.00000000
0
VERTEX
8
22
10
374.260
20
173.900
30
0.000
42
1.00000000
0
SEQEND
0
LINE
8
22
6
CONTINUOUS
62
7
39
1.000
10
363.260
20
184.900
30
0.000
11
385.260
21
184.900
31
0.000
0
LINE
8
22
6
CONTINUOUS
62
7
39
1.000
10
374.260
20
173.900
30
0.000
11
374.260
21
195.900
31
0.000
0
POLYLINE
8
22
6
CONTINUOUS
62
7
66
1
10
0.000
20
0.000
30
0.000
70
1
0
VERTEX
8
22
10
434.260
20
195.900
30
0.000
42
1.00000000
0
VERTEX
8
22
10
434.260
20
173.900
30
0.000
42
1.00000000
0
SEQEND
0
LINE
8
22
6
CONTINUOUS
62
7
39
1.000
10
423.260
20
184.900
30
0.000
11
445.260
21
184.900
31
0.000
0
LINE
8
22
6
CONTINUOUS
62
7
39
1.000
10
434.260
20
173.900
30
0.000
11
434.260
21
195.900
31
0.000
0
POLYLINE
8
22
6
CONTINUOUS
62
7
66
1
10
0.000
20
0.000
30
0.000
70
1
0
VERTEX
8
22
10
606.860
20
117.410
30
0.000
42
1.00000000
0
VERTEX
8
22
10
606.860
20
95.410
30
0.000
42
1.00000000
0
SEQEND
0
LINE
8
22
6
CONTINUOUS
62
7
39
1.000
10
595.860
20
106.410
30
0.000
11
617.860
21
106.410
31
0.000
0
LINE
8
22
6
CONTINUOUS
62
7
39
1.000
10
606.860
20
95.410
30
0.000
11
606.860
21
117.410
31
0.000
0
POLYLINE
8
22
6
CONTINUOUS
62
7
66
1
10
0.000
20
0.000
30
0.000
70
1
0
VERTEX
8
22
10
672.060
20
193.230
30
0.000
42
1.00000000
0
VERTEX
8
22
10
672.060
20
171.230
30
0.000
42
1.00000000
0
SEQEND
0
LINE
8
22
6
CONTINUOUS
62
7
39
1.000
10
661.060
20
182.230
30
0.000
11
683.060
21
182.230
31
0.000
0
LINE
8
22
6
CONTINUOUS
62
7
39
1.000
10
672.060
20
171.230
30
0.000
11
672.060
21
193.230
31
0.000
0
ENDSEC
0
EOF
