0
SECTION
2
HEADER
9
$PDMODE
70
33
9
$PDSIZE
40
1.000
9
$EXTMIN
10
-56.431
20
-18.771
30
-1.000
9
$EXTMAX
10
620.741
20
206.481
30
1.000
9
$LIMMIN
10
-56.431
20
-18.771
9
$LIMMAX
10
620.741
20
206.481
0
ENDSEC
0
SECTION
2
TABLES
0
TABLE
2
LAYER
70
7
0
LAYER
2
SCRIBE
70
0
62
3
6
CONTINUOUS
0
LAYER
2
TEXT
70
0
62
7
6
CONTINUOUS
0
LAYER
2
CUT
70
0
62
7
6
CONTINUOUS
0
LAYER
2
22
70
0
62
7
6
CONTINUOUS
0
ENDTAB
0
TABLE
2
VPORT
70
4
0
VPORT
2
*ACTIVE
70
0
10
0.000000
20
0.000000
11
1.000000
21
1.000000
12
282.155000
22
93.855000
13
0.000000
23
0.000000
14
1.000000
24
1.000000
15
1.000000
25
1.000000
16
0.000000
26
0.000000
36
1.000000
17
0.000000
27
0.000000
37
0.000000
40
564.310000
41
1.500000
42
50.000000
43
0.000000
44
0.000000
50
0.000000
51
0.000000
71
0
72
100
73
1
74
1
75
0
76
0
77
0
78
0
0
ENDTAB
0
ENDSEC
0
SECTION
2
ENTITIES
0
TEXT
8
SCRIBE
62
3
10
30.000
20
30.000
30
0.000
40
10.000
1
PL503
0
TEXT
8
TEXT
62
7
10
30.000
20
15.000
30
0.000
40
10.000
1
PL12+S355JR+4
0
POLYLINE
8
CUT
6
CONTINUOUS
62
7
66
1
10
0.000
20
0.000
30
0.000
70
1
0
VERTEX
8
CUT
10
0.000
20
109.250
30
0.000
42
0.00000000
0
VERTEX
8
CUT
10
15.620
20
187.710
30
0.000
42
0.00000000
0
VERTEX
8
CUT
10
322.160
20
187.710
30
0.000
42
0.00000000
0
VERTEX
8
CUT
10
564.310
20
78.460
30
0.000
42
0.00000000
0
VERTEX
8
CUT
10
548.690
20
0.000
30
0.000
42
0.00000000
0
VERTEX
8
CUT
10
242.160
20
0.000
30
0.000
42
0.00000000
0
SEQEND
0
POLYLINE
8
22
6
CONTINUOUS
62
7
66
1
10
0.000
20
0.000
30
0.000
70
1
0
VERTEX
8
22
10
47.040
20
151.670
30
0.000
42
1.00000000
0
VERTEX
8
22
10
47.040
20
129.670
30
0.000
42
1.00000000
0
SEQEND
0
LINE
8
22
6
CONTINUOUS
62
7
39
1.000
10
36.040
20
140.670
30
0.000
11
58.040
21
140.670
31
0.000
0
LINE
8
22
6
CONTINUOUS
62
7
39
1.000
10
47.040
20
129.670
30
0.000
11
47.040
21
151.670
31
0.000
0
POLYLINE
8
22
6
CONTINUOUS
62
7
66
1
10
0.000
20
0.000
30
0.000
70
1
0
VERTEX
8
22
10
145.120
20
132.140
30
0.000
42
1.00000000
0
VERTEX
8
22
10
145.120
20
110.140
30
0.000
42
1.00000000
0
SEQEND
0
LINE
8
22
6
CONTINUOUS
62
7
39
1.000
10
134.120
20
121.140
30
0.000
11
156.120
21
121.140
31
0.000
0
LINE
8
22
6
CONTINUOUS
62
7
39
1.000
10
145.120
20
110.140
30
0.000
11
145.120
21
132.140
31
0.000
0
POLYLINE
8
22
6
CONTINUOUS
62
7
66
1
10
0.000
20
0.000
30
0.000
70
1
0
VERTEX
8
22
10
282.160
20
105.510
30
0.000
42
1.00000000
0
VERTEX
8
22
10
282.160
20
83.510
30
0.000
42
1.00000000
0
SEQEND
0
LINE
8
22
6
CONTINUOUS
62
7
39
1.000
10
271.160
20
94.510
30
0.000
11
293.160
21
94.510
31
0.000
0
LINE
8
22
6
CONTINUOUS
62
7
39
1.000
10
282.160
20
83.510
30
0.000
11
282.160
21
105.510
31
0.000
0
POLYLINE
8
22
6
CONTINUOUS
62
7
66
1
10
0.000
20
0.000
30
0.000
70
1
0
VERTEX
8
22
10
419.200
20
77.570
30
0.000
42
1.00000000
0
VERTEX
8
22
10
419.200
20
55.570
30
0.000
42
1.00000000
0
SEQEND
0
LINE
8
22
6
CONTINUOUS
62
7
39
1.000
10
408.200
20
66.570
30
0.000
11
430.200
21
66.570
31
0.000
0
LINE
8
22
6
CONTINUOUS
62
7
39
1.000
10
419.200
20
55.570
30
0.000
11
419.200
21
77.570
31
0.000
0
POLYLINE
8
22
6
CONTINUOUS
62
7
66
1
10
0.000
20
0.000
30
0.000
70
1
0
VERTEX
8
22
10
517.270
20
58.040
30
0.000
42
1.00000000
0
VERTEX
8
22
10
517.270
20
36.040
30
0.000
42
1.00000000
0
SEQEND
0
LINE
8
22
6
CONTINUOUS
62
7
39
1.000
10
506.270
20
47.040
30
0.000
11
528.270
21
47.040
31
0.000
0
LINE
8
22
6
CONTINUOUS
62
7
39
1.000
10
517.270
20
36.040
30
0.000
11
517.270
21
58.040
31
0.000
0
ENDSEC
0
EOF
