0
SECTION
2
HEADER
9
$PDMODE
70
33
9
$PDSIZE
40
1.000
9
$EXTMIN
10
-72.511
20
-23.990
30
-1.000
9
$EXTMAX
10
797.621
20
263.890
30
1.000
9
$LIMMIN
10
-72.511
20
-23.990
9
$LIMMAX
10
797.621
20
263.890
0
ENDSEC
0
SECTION
2
TABLES
0
TABLE
2
LAYER
70
7
0
LAYER
2
SCRIBE
70
0
62
3
6
CONTINUOUS
0
LAYER
2
TEXT
70
0
62
7
6
CONTINUOUS
0
LAYER
2
CUT
70
0
62
7
6
CONTINUOUS
0
LAYER
2
22
70
0
62
7
6
CONTINUOUS
0
ENDTAB
0
TABLE
2
VPORT
70
4
0
VPORT
2
*ACTIVE
70
0
10
0.000000
20
0.000000
11
1.000000
21
1.000000
12
362.555000
22
119.950000
13
0.000000
23
0.000000
14
1.000000
24
1.000000
15
1.000000
25
1.000000
16
0.000000
26
0.000000
36
1.000000
17
0.000000
27
0.000000
37
0.000000
40
725.110000
41
1.500000
42
50.000000
43
0.000000
44
0.000000
50
0.000000
51
0.000000
71
0
72
100
73
1
74
1
75
0
76
0
77
0
78
0
0
ENDTAB
0
ENDSEC
0
SECTION
2
ENTITIES
0
TEXT
8
SCRIBE
62
3
10
30.000
20
30.000
30
0.000
40
10.000
1
PL512
0
TEXT
8
TEXT
62
7
10
30.000
20
15.000
30
0.000
40
10.000
1
PL12+S355JR+4
0
POLYLINE
8
CUT
6
CONTINUOUS
62
7
66
1
10
0.000
20
0.000
30
0.000
70
1
0
VERTEX
8
CUT
10
0.000
20
0.000
30
0.000
42
0.00000000
0
VERTEX
8
CUT
10
0.000
20
186.470
30
0.000
42
0.00000000
0
VERTEX
8
CUT
10
62.120
20
239.900
30
0.000
42
0.00000000
0
VERTEX
8
CUT
10
663.260
20
239.900
30
0.000
42
0.00000000
0
VERTEX
8
CUT
10
725.110
20
189.150
30
0.000
42
0.00000000
0
VERTEX
8
CUT
10
725.110
20
0.000
30
0.000
42
0.00000000
0
SEQEND
0
POLYLINE
8
22
6
CONTINUOUS
62
7
66
1
10
0.000
20
0.000
30
0.000
70
1
0
VERTEX
8
22
10
56.410
20
193.230
30
0.000
42
1.00000000
0
VERTEX
8
22
10
56.410
20
171.230
30
0.000
42
1.00000000
0
SEQEND
0
LINE
8
22
6
CONTINUOUS
62
7
39
1.000
10
45.410
20
182.230
30
0.000
11
67.410
21
182.230
31
0.000
0
LINE
8
22
6
CONTINUOUS
62
7
39
1.000
10
56.410
20
171.230
30
0.000
11
56.410
21
193.230
31
0.000
0
POLYLINE
8
22
6
CONTINUOUS
62
7
66
1
10
0.000
20
0.000
30
0.000
70
1
0
VERTEX
8
22
10
121.610
20
117.410
30
0.000
42
1.00000000
0
VERTEX
8
22
10
121.610
20
95.410
30
0.000
42
1.00000000
0
SEQEND
0
LINE
8
22
6
CONTINUOUS
62
7
39
1.000
10
110.610
20
106.410
30
0.000
11
132.610
21
106.410
31
0.000
0
LINE
8
22
6
CONTINUOUS
62
7
39
1.000
10
121.610
20
95.410
30
0.000
11
121.610
21
117.410
31
0.000
0
POLYLINE
8
22
6
CONTINUOUS
62
7
66
1
10
0.000
20
0.000
30
0.000
70
1
0
VERTEX
8
22
10
292.480
20
195.900
30
0.000
42
1.00000000
0
VERTEX
8
22
10
292.480
20
173.900
30
0.000
42
1.00000000
0
SEQEND
0
LINE
8
22
6
CONTINUOUS
62
7
39
1.000
10
281.480
20
184.900
30
0.000
11
303.480
21
184.900
31
0.000
0
LINE
8
22
6
CONTINUOUS
62
7
39
1.000
10
292.480
20
173.900
30
0.000
11
292.480
21
195.900
31
0.000
0
POLYLINE
8
22
6
CONTINUOUS
62
7
66
1
10
0.000
20
0.000
30
0.000
70
1
0
VERTEX
8
22
10
352.480
20
195.900
30
0.000
42
1.00000000
0
VERTEX
8
22
10
352.480
20
173.900
30
0.000
42
1.00000000
0
SEQEND
0
LINE
8
22
6
CONTINUOUS
62
7
39
1.000
10
341.480
20
184.900
30
0.000
11
363.480
21
184.900
31
0.000
0
LINE
8
22
6
CONTINUOUS
62
7
39
1.000
10
352.480
20
173.900
30
0.000
11
352.480
21
195.900
31
0.000
0
POLYLINE
8
22
6
CONTINUOUS
62
7
66
1
10
0.000
20
0.000
30
0.000
70
1
0
VERTEX
8
22
10
412.480
20
195.900
30
0.000
42
1.00000000
0
VERTEX
8
22
10
412.480
20
173.900
30
0.000
42
1.00000000
0
SEQEND
0
LINE
8
22
6
CONTINUOUS
62
7
39
1.000
10
401.480
20
184.900
30
0.000
11
423.480
21
184.900
31
0.000
0
LINE
8
22
6
CONTINUOUS
62
7
39
1.000
10
412.480
20
173.900
30
0.000
11
412.480
21
195.900
31
0.000
0
POLYLINE
8
22
6
CONTINUOUS
62
7
66
1
10
0.000
20
0.000
30
0.000
70
1
0
VERTEX
8
22
10
605.380
20
117.300
30
0.000
42
1.00000000
0
VERTEX
8
22
10
605.380
20
95.300
30
0.000
42
1.00000000
0
SEQEND
0
LINE
8
22
6
CONTINUOUS
62
7
39
1.000
10
594.380
20
106.300
30
0.000
11
616.380
21
106.300
31
0.000
0
LINE
8
22
6
CONTINUOUS
62
7
39
1.000
10
605.380
20
95.300
30
0.000
11
605.380
21
117.300
31
0.000
0
POLYLINE
8
22
6
CONTINUOUS
62
7
66
1
10
0.000
20
0.000
30
0.000
70
1
0
VERTEX
8
22
10
668.810
20
194.600
30
0.000
42
1.00000000
0
VERTEX
8
22
10
668.810
20
172.600
30
0.000
42
1.00000000
0
SEQEND
0
LINE
8
22
6
CONTINUOUS
62
7
39
1.000
10
657.810
20
183.600
30
0.000
11
679.810
21
183.600
31
0.000
0
LINE
8
22
6
CONTINUOUS
62
7
39
1.000
10
668.810
20
172.600
30
0.000
11
668.810
21
194.600
31
0.000
0
ENDSEC
0
EOF
