0
SECTION
2
HEADER
9
$PDMODE
70
33
9
$PDSIZE
40
1.000
9
$EXTMIN
10
-46.823
20
-28.864
30
-1.000
9
$EXTMAX
10
515.053
20
317.504
30
1.000
9
$LIMMIN
10
-46.823
20
-28.864
9
$LIMMAX
10
515.053
20
317.504
0
ENDSEC
0
SECTION
2
TABLES
0
TABLE
2
LAYER
70
7
0
LAYER
2
SCRIBE
70
0
62
3
6
CONTINUOUS
0
LAYER
2
TEXT
70
0
62
7
6
CONTINUOUS
0
LAYER
2
CUT
70
0
62
7
6
CONTINUOUS
0
LAYER
2
22
70
0
62
7
6
CONTINUOUS
0
ENDTAB
0
TABLE
2
VPORT
70
4
0
VPORT
2
*ACTIVE
70
0
10
0.000000
20
0.000000
11
1.000000
21
1.000000
12
234.115000
22
144.320000
13
0.000000
23
0.000000
14
1.000000
24
1.000000
15
1.000000
25
1.000000
16
0.000000
26
0.000000
36
1.000000
17
0.000000
27
0.000000
37
0.000000
40
468.230000
41
1.500000
42
50.000000
43
0.000000
44
0.000000
50
0.000000
51
0.000000
71
0
72
100
73
1
74
1
75
0
76
0
77
0
78
0
0
ENDTAB
0
ENDSEC
0
SECTION
2
ENTITIES
0
TEXT
8
SCRIBE
62
3
10
30.000
20
30.000
30
0.000
40
10.000
1
PL517
0
TEXT
8
TEXT
62
7
10
30.000
20
15.000
30
0.000
40
10.000
1
PL12+S355JR+4
0
POLYLINE
8
CUT
6
CONTINUOUS
62
7
66
1
10
0.000
20
0.000
30
0.000
70
1
0
VERTEX
8
CUT
10
0.000
20
0.000
30
0.000
42
0.00000000
0
VERTEX
8
CUT
10
0.000
20
236.470
30
0.000
42
0.00000000
0
VERTEX
8
CUT
10
60.660
20
288.640
30
0.000
42
0.00000000
0
VERTEX
8
CUT
10
468.230
20
288.640
30
0.000
42
0.00000000
0
VERTEX
8
CUT
10
468.230
20
0.000
30
0.000
42
0.00000000
0
SEQEND
0
POLYLINE
8
22
6
CONTINUOUS
62
7
66
1
10
0.000
20
0.000
30
0.000
70
1
0
VERTEX
8
22
10
56.410
20
243.230
30
0.000
42
1.00000000
0
VERTEX
8
22
10
56.410
20
221.230
30
0.000
42
1.00000000
0
SEQEND
0
LINE
8
22
6
CONTINUOUS
62
7
39
1.000
10
45.410
20
232.230
30
0.000
11
67.410
21
232.230
31
0.000
0
LINE
8
22
6
CONTINUOUS
62
7
39
1.000
10
56.410
20
221.230
30
0.000
11
56.410
21
243.230
31
0.000
0
POLYLINE
8
22
6
CONTINUOUS
62
7
66
1
10
0.000
20
0.000
30
0.000
70
1
0
VERTEX
8
22
10
121.610
20
167.410
30
0.000
42
1.00000000
0
VERTEX
8
22
10
121.610
20
145.410
30
0.000
42
1.00000000
0
SEQEND
0
LINE
8
22
6
CONTINUOUS
62
7
39
1.000
10
110.610
20
156.410
30
0.000
11
132.610
21
156.410
31
0.000
0
LINE
8
22
6
CONTINUOUS
62
7
39
1.000
10
121.610
20
145.410
30
0.000
11
121.610
21
167.410
31
0.000
0
POLYLINE
8
22
6
CONTINUOUS
62
7
66
1
10
0.000
20
0.000
30
0.000
70
1
0
VERTEX
8
22
10
312.150
20
244.640
30
0.000
42
1.00000000
0
VERTEX
8
22
10
312.150
20
222.640
30
0.000
42
1.00000000
0
SEQEND
0
LINE
8
22
6
CONTINUOUS
62
7
39
1.000
10
301.150
20
233.640
30
0.000
11
323.150
21
233.640
31
0.000
0
LINE
8
22
6
CONTINUOUS
62
7
39
1.000
10
312.150
20
222.640
30
0.000
11
312.150
21
244.640
31
0.000
0
POLYLINE
8
22
6
CONTINUOUS
62
7
66
1
10
0.000
20
0.000
30
0.000
70
1
0
VERTEX
8
22
10
372.150
20
244.640
30
0.000
42
1.00000000
0
VERTEX
8
22
10
372.150
20
222.640
30
0.000
42
1.00000000
0
SEQEND
0
LINE
8
22
6
CONTINUOUS
62
7
39
1.000
10
361.150
20
233.640
30
0.000
11
383.150
21
233.640
31
0.000
0
LINE
8
22
6
CONTINUOUS
62
7
39
1.000
10
372.150
20
222.640
30
0.000
11
372.150
21
244.640
31
0.000
0
POLYLINE
8
22
6
CONTINUOUS
62
7
66
1
10
0.000
20
0.000
30
0.000
70
1
0
VERTEX
8
22
10
432.150
20
244.640
30
0.000
42
1.00000000
0
VERTEX
8
22
10
432.150
20
222.640
30
0.000
42
1.00000000
0
SEQEND
0
LINE
8
22
6
CONTINUOUS
62
7
39
1.000
10
421.150
20
233.640
30
0.000
11
443.150
21
233.640
31
0.000
0
LINE
8
22
6
CONTINUOUS
62
7
39
1.000
10
432.150
20
222.640
30
0.000
11
432.150
21
244.640
31
0.000
0
ENDSEC
0
EOF
