0
SECTION
2
HEADER
9
$PDMODE
70
33
9
$PDSIZE
40
1.000
9
$EXTMIN
10
-55.990
20
-16.207
30
-1.000
9
$EXTMAX
10
615.890
20
178.277
30
1.000
9
$LIMMIN
10
-55.990
20
-16.207
9
$LIMMAX
10
615.890
20
178.277
0
ENDSEC
0
SECTION
2
TABLES
0
TABLE
2
LAYER
70
7
0
LAYER
2
SCRIBE
70
0
62
3
6
CONTINUOUS
0
LAYER
2
TEXT
70
0
62
7
6
CONTINUOUS
0
LAYER
2
CUT
70
0
62
7
6
CONTINUOUS
0
LAYER
2
22
70
0
62
7
6
CONTINUOUS
0
ENDTAB
0
TABLE
2
VPORT
70
4
0
VPORT
2
*ACTIVE
70
0
10
0.000000
20
0.000000
11
1.000000
21
1.000000
12
279.950000
22
81.035000
13
0.000000
23
0.000000
14
1.000000
24
1.000000
15
1.000000
25
1.000000
16
0.000000
26
0.000000
36
1.000000
17
0.000000
27
0.000000
37
0.000000
40
559.900000
41
1.500000
42
50.000000
43
0.000000
44
0.000000
50
0.000000
51
0.000000
71
0
72
100
73
1
74
1
75
0
76
0
77
0
78
0
0
ENDTAB
0
ENDSEC
0
SECTION
2
ENTITIES
0
TEXT
8
SCRIBE
62
3
10
30.000
20
30.000
30
0.000
40
10.000
1
PL515
0
TEXT
8
TEXT
62
7
10
30.000
20
15.000
30
0.000
40
10.000
1
PL12+S355JR+2
0
POLYLINE
8
CUT
6
CONTINUOUS
62
7
66
1
10
0.000
20
0.000
30
0.000
70
1
0
VERTEX
8
CUT
10
0.000
20
82.970
30
0.000
42
0.00000000
0
VERTEX
8
CUT
10
11.980
20
162.070
30
0.000
42
0.00000000
0
VERTEX
8
CUT
10
319.950
20
162.070
30
0.000
42
0.00000000
0
VERTEX
8
CUT
10
559.900
20
79.100
30
0.000
42
0.00000000
0
VERTEX
8
CUT
10
547.920
20
0.000
30
0.000
42
0.00000000
0
VERTEX
8
CUT
10
239.950
20
0.000
30
0.000
42
0.00000000
0
SEQEND
0
POLYLINE
8
22
6
CONTINUOUS
62
7
66
1
10
0.000
20
0.000
30
0.000
70
1
0
VERTEX
8
22
10
45.540
20
127.530
30
0.000
42
1.00000000
0
VERTEX
8
22
10
45.540
20
105.530
30
0.000
42
1.00000000
0
SEQEND
0
LINE
8
22
6
CONTINUOUS
62
7
39
1.000
10
34.540
20
116.530
30
0.000
11
56.540
21
116.530
31
0.000
0
LINE
8
22
6
CONTINUOUS
62
7
39
1.000
10
45.540
20
105.530
30
0.000
11
45.540
21
127.530
31
0.000
0
POLYLINE
8
22
6
CONTINUOUS
62
7
66
1
10
0.000
20
0.000
30
0.000
70
1
0
VERTEX
8
22
10
144.410
20
112.560
30
0.000
42
1.00000000
0
VERTEX
8
22
10
144.410
20
90.560
30
0.000
42
1.00000000
0
SEQEND
0
LINE
8
22
6
CONTINUOUS
62
7
39
1.000
10
133.410
20
101.560
30
0.000
11
155.410
21
101.560
31
0.000
0
LINE
8
22
6
CONTINUOUS
62
7
39
1.000
10
144.410
20
90.560
30
0.000
11
144.410
21
112.560
31
0.000
0
POLYLINE
8
22
6
CONTINUOUS
62
7
66
1
10
0.000
20
0.000
30
0.000
70
1
0
VERTEX
8
22
10
279.950
20
59.050
30
0.000
42
1.00000000
0
VERTEX
8
22
10
279.950
20
37.050
30
0.000
42
1.00000000
0
SEQEND
0
LINE
8
22
6
CONTINUOUS
62
7
39
1.000
10
268.950
20
48.050
30
0.000
11
290.950
21
48.050
31
0.000
0
LINE
8
22
6
CONTINUOUS
62
7
39
1.000
10
279.950
20
37.050
30
0.000
11
279.950
21
59.050
31
0.000
0
POLYLINE
8
22
6
CONTINUOUS
62
7
66
1
10
0.000
20
0.000
30
0.000
70
1
0
VERTEX
8
22
10
415.490
20
71.510
30
0.000
42
1.00000000
0
VERTEX
8
22
10
415.490
20
49.510
30
0.000
42
1.00000000
0
SEQEND
0
LINE
8
22
6
CONTINUOUS
62
7
39
1.000
10
404.490
20
60.510
30
0.000
11
426.490
21
60.510
31
0.000
0
LINE
8
22
6
CONTINUOUS
62
7
39
1.000
10
415.490
20
49.510
30
0.000
11
415.490
21
71.510
31
0.000
0
POLYLINE
8
22
6
CONTINUOUS
62
7
66
1
10
0.000
20
0.000
30
0.000
70
1
0
VERTEX
8
22
10
514.360
20
56.540
30
0.000
42
1.00000000
0
VERTEX
8
22
10
514.360
20
34.540
30
0.000
42
1.00000000
0
SEQEND
0
LINE
8
22
6
CONTINUOUS
62
7
39
1.000
10
503.360
20
45.540
30
0.000
11
525.360
21
45.540
31
0.000
0
LINE
8
22
6
CONTINUOUS
62
7
39
1.000
10
514.360
20
34.540
30
0.000
11
514.360
21
56.540
31
0.000
0
ENDSEC
0
EOF
