0
SECTION
2
HEADER
9
$PDMODE
70
33
9
$PDSIZE
40
1.000
9
$EXTMIN
10
-51.046
20
-25.656
30
-1.000
9
$EXTMAX
10
561.506
20
282.216
30
1.000
9
$LIMMIN
10
-51.046
20
-25.656
9
$LIMMAX
10
561.506
20
282.216
0
ENDSEC
0
SECTION
2
TABLES
0
TABLE
2
LAYER
70
7
0
LAYER
2
SCRIBE
70
0
62
3
6
CONTINUOUS
0
LAYER
2
TEXT
70
0
62
7
6
CONTINUOUS
0
LAYER
2
CUT
70
0
62
7
6
CONTINUOUS
0
LAYER
2
22
70
0
62
7
6
CONTINUOUS
0
ENDTAB
0
TABLE
2
VPORT
70
4
0
VPORT
2
*ACTIVE
70
0
10
0.000000
20
0.000000
11
1.000000
21
1.000000
12
255.230000
22
128.280000
13
0.000000
23
0.000000
14
1.000000
24
1.000000
15
1.000000
25
1.000000
16
0.000000
26
0.000000
36
1.000000
17
0.000000
27
0.000000
37
0.000000
40
510.460000
41
1.500000
42
50.000000
43
0.000000
44
0.000000
50
0.000000
51
0.000000
71
0
72
100
73
1
74
1
75
0
76
0
77
0
78
0
0
ENDTAB
0
ENDSEC
0
SECTION
2
ENTITIES
0
TEXT
8
SCRIBE
62
3
10
30.000
20
30.000
30
0.000
40
10.000
1
PL616
0
TEXT
8
TEXT
62
7
10
30.000
20
15.000
30
0.000
40
10.000
1
PL12+S355JR+2
0
POLYLINE
8
CUT
6
CONTINUOUS
62
7
66
1
10
0.000
20
0.000
30
0.000
70
1
0
VERTEX
8
CUT
10
0.000
20
181.700
30
0.000
42
0.00000000
0
VERTEX
8
CUT
10
28.210
20
256.560
30
0.000
42
0.00000000
0
VERTEX
8
CUT
10
324.810
20
256.560
30
0.000
42
0.00000000
0
VERTEX
8
CUT
10
510.460
20
74.860
30
0.000
42
0.00000000
0
VERTEX
8
CUT
10
482.260
20
0.000
30
0.000
42
0.00000000
0
VERTEX
8
CUT
10
185.650
20
0.000
30
0.000
42
0.00000000
0
SEQEND
0
POLYLINE
8
22
6
CONTINUOUS
62
7
66
1
10
0.000
20
0.000
30
0.000
70
1
0
VERTEX
8
22
10
51.530
20
216.030
30
0.000
42
1.00000000
0
VERTEX
8
22
10
51.530
20
194.030
30
0.000
42
1.00000000
0
SEQEND
0
LINE
8
22
6
CONTINUOUS
62
7
39
1.000
10
40.530
20
205.030
30
0.000
11
62.530
21
205.030
31
0.000
0
LINE
8
22
6
CONTINUOUS
62
7
39
1.000
10
51.530
20
194.030
30
0.000
11
51.530
21
216.030
31
0.000
0
POLYLINE
8
22
6
CONTINUOUS
62
7
66
1
10
0.000
20
0.000
30
0.000
70
1
0
VERTEX
8
22
10
145.110
20
180.770
30
0.000
42
1.00000000
0
VERTEX
8
22
10
145.110
20
158.770
30
0.000
42
1.00000000
0
SEQEND
0
LINE
8
22
6
CONTINUOUS
62
7
39
1.000
10
134.110
20
169.770
30
0.000
11
156.110
21
169.770
31
0.000
0
LINE
8
22
6
CONTINUOUS
62
7
39
1.000
10
145.110
20
158.770
30
0.000
11
145.110
21
180.770
31
0.000
0
POLYLINE
8
22
6
CONTINUOUS
62
7
66
1
10
0.000
20
0.000
30
0.000
70
1
0
VERTEX
8
22
10
255.230
20
139.280
30
0.000
42
1.00000000
0
VERTEX
8
22
10
255.230
20
117.280
30
0.000
42
1.00000000
0
SEQEND
0
LINE
8
22
6
CONTINUOUS
62
7
39
1.000
10
244.230
20
128.280
30
0.000
11
266.230
21
128.280
31
0.000
0
LINE
8
22
6
CONTINUOUS
62
7
39
1.000
10
255.230
20
117.280
30
0.000
11
255.230
21
139.280
31
0.000
0
POLYLINE
8
22
6
CONTINUOUS
62
7
66
1
10
0.000
20
0.000
30
0.000
70
1
0
VERTEX
8
22
10
365.350
20
97.790
30
0.000
42
1.00000000
0
VERTEX
8
22
10
365.350
20
75.790
30
0.000
42
1.00000000
0
SEQEND
0
LINE
8
22
6
CONTINUOUS
62
7
39
1.000
10
354.350
20
86.790
30
0.000
11
376.350
21
86.790
31
0.000
0
LINE
8
22
6
CONTINUOUS
62
7
39
1.000
10
365.350
20
75.790
30
0.000
11
365.350
21
97.790
31
0.000
0
POLYLINE
8
22
6
CONTINUOUS
62
7
66
1
10
0.000
20
0.000
30
0.000
70
1
0
VERTEX
8
22
10
458.930
20
62.530
30
0.000
42
1.00000000
0
VERTEX
8
22
10
458.930
20
40.530
30
0.000
42
1.00000000
0
SEQEND
0
LINE
8
22
6
CONTINUOUS
62
7
39
1.000
10
447.930
20
51.530
30
0.000
11
469.930
21
51.530
31
0.000
0
LINE
8
22
6
CONTINUOUS
62
7
39
1.000
10
458.930
20
40.530
30
0.000
11
458.930
21
62.530
31
0.000
0
ENDSEC
0
EOF
