0
SECTION
2
HEADER
9
$PDMODE
70
33
9
$PDSIZE
40
1.000
9
$EXTMIN
10
-56.550
20
-19.556
30
-1.000
9
$EXTMAX
10
622.050
20
215.116
30
1.000
9
$LIMMIN
10
-56.550
20
-19.556
9
$LIMMAX
10
622.050
20
215.116
0
ENDSEC
0
SECTION
2
TABLES
0
TABLE
2
LAYER
70
7
0
LAYER
2
SCRIBE
70
0
62
3
6
CONTINUOUS
0
LAYER
2
TEXT
70
0
62
7
6
CONTINUOUS
0
LAYER
2
CUT
70
0
62
7
6
CONTINUOUS
0
LAYER
2
22
70
0
62
7
6
CONTINUOUS
0
ENDTAB
0
TABLE
2
VPORT
70
4
0
VPORT
2
*ACTIVE
70
0
10
0.000000
20
0.000000
11
1.000000
21
1.000000
12
282.750000
22
97.780000
13
0.000000
23
0.000000
14
1.000000
24
1.000000
15
1.000000
25
1.000000
16
0.000000
26
0.000000
36
1.000000
17
0.000000
27
0.000000
37
0.000000
40
565.500000
41
1.500000
42
50.000000
43
0.000000
44
0.000000
50
0.000000
51
0.000000
71
0
72
100
73
1
74
1
75
0
76
0
77
0
78
0
0
ENDTAB
0
ENDSEC
0
SECTION
2
ENTITIES
0
TEXT
8
SCRIBE
62
3
10
30.000
20
30.000
30
0.000
40
10.000
1
PL628
0
TEXT
8
TEXT
62
7
10
30.000
20
15.000
30
0.000
40
10.000
1
PL12+S355JR+2
0
POLYLINE
8
CUT
6
CONTINUOUS
62
7
66
1
10
0.000
20
0.000
30
0.000
70
1
0
VERTEX
8
CUT
10
0.000
20
78.230
30
0.000
42
0.00000000
0
VERTEX
8
CUT
10
242.750
20
195.560
30
0.000
42
0.00000000
0
VERTEX
8
CUT
10
548.770
20
195.560
30
0.000
42
0.00000000
0
VERTEX
8
CUT
10
565.500
20
117.330
30
0.000
42
0.00000000
0
VERTEX
8
CUT
10
322.750
20
0.000
30
0.000
42
0.00000000
0
VERTEX
8
CUT
10
16.730
20
0.000
30
0.000
42
0.00000000
0
SEQEND
0
POLYLINE
8
22
6
CONTINUOUS
62
7
66
1
10
0.000
20
0.000
30
0.000
70
1
0
VERTEX
8
22
10
47.480
20
58.480
30
0.000
42
1.00000000
0
VERTEX
8
22
10
47.480
20
36.480
30
0.000
42
1.00000000
0
SEQEND
0
LINE
8
22
6
CONTINUOUS
62
7
39
1.000
10
36.480
20
47.480
30
0.000
11
58.480
21
47.480
31
0.000
0
LINE
8
22
6
CONTINUOUS
62
7
39
1.000
10
47.480
20
36.480
30
0.000
11
47.480
21
58.480
31
0.000
0
POLYLINE
8
22
6
CONTINUOUS
62
7
66
1
10
0.000
20
0.000
30
0.000
70
1
0
VERTEX
8
22
10
145.270
20
79.390
30
0.000
42
1.00000000
0
VERTEX
8
22
10
145.270
20
57.390
30
0.000
42
1.00000000
0
SEQEND
0
LINE
8
22
6
CONTINUOUS
62
7
39
1.000
10
134.270
20
68.390
30
0.000
11
156.270
21
68.390
31
0.000
0
LINE
8
22
6
CONTINUOUS
62
7
39
1.000
10
145.270
20
57.390
30
0.000
11
145.270
21
79.390
31
0.000
0
POLYLINE
8
22
6
CONTINUOUS
62
7
66
1
10
0.000
20
0.000
30
0.000
70
1
0
VERTEX
8
22
10
282.750
20
108.780
30
0.000
42
1.00000000
0
VERTEX
8
22
10
282.750
20
86.780
30
0.000
42
1.00000000
0
SEQEND
0
LINE
8
22
6
CONTINUOUS
62
7
39
1.000
10
271.750
20
97.780
30
0.000
11
293.750
21
97.780
31
0.000
0
LINE
8
22
6
CONTINUOUS
62
7
39
1.000
10
282.750
20
86.780
30
0.000
11
282.750
21
108.780
31
0.000
0
POLYLINE
8
22
6
CONTINUOUS
62
7
66
1
10
0.000
20
0.000
30
0.000
70
1
0
VERTEX
8
22
10
420.230
20
138.180
30
0.000
42
1.00000000
0
VERTEX
8
22
10
420.230
20
116.180
30
0.000
42
1.00000000
0
SEQEND
0
LINE
8
22
6
CONTINUOUS
62
7
39
1.000
10
409.230
20
127.180
30
0.000
11
431.230
21
127.180
31
0.000
0
LINE
8
22
6
CONTINUOUS
62
7
39
1.000
10
420.230
20
116.180
30
0.000
11
420.230
21
138.180
31
0.000
0
POLYLINE
8
22
6
CONTINUOUS
62
7
66
1
10
0.000
20
0.000
30
0.000
70
1
0
VERTEX
8
22
10
518.020
20
159.080
30
0.000
42
1.00000000
0
VERTEX
8
22
10
518.020
20
137.080
30
0.000
42
1.00000000
0
SEQEND
0
LINE
8
22
6
CONTINUOUS
62
7
39
1.000
10
507.020
20
148.080
30
0.000
11
529.020
21
148.080
31
0.000
0
LINE
8
22
6
CONTINUOUS
62
7
39
1.000
10
518.020
20
137.080
30
0.000
11
518.020
21
159.080
31
0.000
0
ENDSEC
0
EOF
