0
SECTION
2
HEADER
9
$PDMODE
70
33
9
$PDSIZE
40
1.000
9
$EXTMIN
10
-57.664
20
-24.026
30
-1.000
9
$EXTMAX
10
634.304
20
264.286
30
1.000
9
$LIMMIN
10
-57.664
20
-24.026
9
$LIMMAX
10
634.304
20
264.286
0
ENDSEC
0
SECTION
2
TABLES
0
TABLE
2
LAYER
70
7
0
LAYER
2
SCRIBE
70
0
62
3
6
CONTINUOUS
0
LAYER
2
TEXT
70
0
62
7
6
CONTINUOUS
0
LAYER
2
CUT
70
0
62
7
6
CONTINUOUS
0
LAYER
2
22
70
0
62
7
6
CONTINUOUS
0
ENDTAB
0
TABLE
2
VPORT
70
4
0
VPORT
2
*ACTIVE
70
0
10
0.000000
20
0.000000
11
1.000000
21
1.000000
12
288.320000
22
120.130000
13
0.000000
23
0.000000
14
1.000000
24
1.000000
15
1.000000
25
1.000000
16
0.000000
26
0.000000
36
1.000000
17
0.000000
27
0.000000
37
0.000000
40
576.640000
41
1.500000
42
50.000000
43
0.000000
44
0.000000
50
0.000000
51
0.000000
71
0
72
100
73
1
74
1
75
0
76
0
77
0
78
0
0
ENDTAB
0
ENDSEC
0
SECTION
2
ENTITIES
0
TEXT
8
SCRIBE
62
3
10
30.000
20
30.000
30
0.000
40
10.000
1
PL637
0
TEXT
8
TEXT
62
7
10
30.000
20
15.000
30
0.000
40
10.000
1
PL12+S355JR+4
0
POLYLINE
8
CUT
6
CONTINUOUS
62
7
66
1
10
0.000
20
0.000
30
0.000
70
1
0
VERTEX
8
CUT
10
0.000
20
0.000
30
0.000
42
0.00000000
0
VERTEX
8
CUT
10
0.000
20
240.260
30
0.000
42
0.00000000
0
VERTEX
8
CUT
10
514.440
20
240.260
30
0.000
42
0.00000000
0
VERTEX
8
CUT
10
576.640
20
189.950
30
0.000
42
0.00000000
0
VERTEX
8
CUT
10
576.640
20
0.000
30
0.000
42
0.00000000
0
SEQEND
0
POLYLINE
8
22
6
CONTINUOUS
62
7
66
1
10
0.000
20
0.000
30
0.000
70
1
0
VERTEX
8
22
10
157.520
20
196.260
30
0.000
42
1.00000000
0
VERTEX
8
22
10
157.520
20
174.260
30
0.000
42
1.00000000
0
SEQEND
0
LINE
8
22
6
CONTINUOUS
62
7
39
1.000
10
146.520
20
185.260
30
0.000
11
168.520
21
185.260
31
0.000
0
LINE
8
22
6
CONTINUOUS
62
7
39
1.000
10
157.520
20
174.260
30
0.000
11
157.520
21
196.260
31
0.000
0
POLYLINE
8
22
6
CONTINUOUS
62
7
66
1
10
0.000
20
0.000
30
0.000
70
1
0
VERTEX
8
22
10
217.520
20
196.260
30
0.000
42
1.00000000
0
VERTEX
8
22
10
217.520
20
174.260
30
0.000
42
1.00000000
0
SEQEND
0
LINE
8
22
6
CONTINUOUS
62
7
39
1.000
10
206.520
20
185.260
30
0.000
11
228.520
21
185.260
31
0.000
0
LINE
8
22
6
CONTINUOUS
62
7
39
1.000
10
217.520
20
174.260
30
0.000
11
217.520
21
196.260
31
0.000
0
POLYLINE
8
22
6
CONTINUOUS
62
7
66
1
10
0.000
20
0.000
30
0.000
70
1
0
VERTEX
8
22
10
277.520
20
196.260
30
0.000
42
1.00000000
0
VERTEX
8
22
10
277.520
20
174.260
30
0.000
42
1.00000000
0
SEQEND
0
LINE
8
22
6
CONTINUOUS
62
7
39
1.000
10
266.520
20
185.260
30
0.000
11
288.520
21
185.260
31
0.000
0
LINE
8
22
6
CONTINUOUS
62
7
39
1.000
10
277.520
20
174.260
30
0.000
11
277.520
21
196.260
31
0.000
0
POLYLINE
8
22
6
CONTINUOUS
62
7
66
1
10
0.000
20
0.000
30
0.000
70
1
0
VERTEX
8
22
10
457.500
20
117.250
30
0.000
42
1.00000000
0
VERTEX
8
22
10
457.500
20
95.250
30
0.000
42
1.00000000
0
SEQEND
0
LINE
8
22
6
CONTINUOUS
62
7
39
1.000
10
446.500
20
106.250
30
0.000
11
468.500
21
106.250
31
0.000
0
LINE
8
22
6
CONTINUOUS
62
7
39
1.000
10
457.500
20
95.250
30
0.000
11
457.500
21
117.250
31
0.000
0
POLYLINE
8
22
6
CONTINUOUS
62
7
66
1
10
0.000
20
0.000
30
0.000
70
1
0
VERTEX
8
22
10
520.390
20
195.010
30
0.000
42
1.00000000
0
VERTEX
8
22
10
520.390
20
173.010
30
0.000
42
1.00000000
0
SEQEND
0
LINE
8
22
6
CONTINUOUS
62
7
39
1.000
10
509.390
20
184.010
30
0.000
11
531.390
21
184.010
31
0.000
0
LINE
8
22
6
CONTINUOUS
62
7
39
1.000
10
520.390
20
173.010
30
0.000
11
520.390
21
195.010
31
0.000
0
ENDSEC
0
EOF
