0
SECTION
2
HEADER
9
$PDMODE
70
33
9
$PDSIZE
40
1.000
9
$EXTMIN
10
-109.626
20
-75.000
30
-1.000
9
$EXTMAX
10
1205.886
20
825.000
30
1.000
9
$LIMMIN
10
-109.626
20
-75.000
9
$LIMMAX
10
1205.886
20
825.000
0
ENDSEC
0
SECTION
2
TABLES
0
TABLE
2
LAYER
70
7
0
LAYER
2
SCRIBE
70
0
62
3
6
CONTINUOUS
0
LAYER
2
TEXT
70
0
62
7
6
CONTINUOUS
0
LAYER
2
CUT
70
0
62
7
6
CONTINUOUS
0
LAYER
2
LAYOUT
70
0
62
4
6
CONTINUOUS
0
LAYER
2
18
70
0
62
7
6
CONTINUOUS
0
LAYER
2
22
70
0
62
7
6
CONTINUOUS
0
ENDTAB
0
TABLE
2
VPORT
70
4
0
VPORT
2
*ACTIVE
70
0
10
0.000000
20
0.000000
11
1.000000
21
1.000000
12
548.130000
22
375.000000
13
0.000000
23
0.000000
14
1.000000
24
1.000000
15
1.000000
25
1.000000
16
0.000000
26
0.000000
36
1.000000
17
0.000000
27
0.000000
37
0.000000
40
1096.260000
41
1.500000
42
50.000000
43
0.000000
44
0.000000
50
0.000000
51
0.000000
71
0
72
100
73
1
74
1
75
0
76
0
77
0
78
0
0
ENDTAB
0
ENDSEC
0
SECTION
2
ENTITIES
0
TEXT
8
SCRIBE
62
3
10
30.000
20
30.000
30
0.000
40
10.000
1
W156
0
TEXT
8
TEXT
62
7
10
30.000
20
15.000
30
0.000
40
10.000
1
PLT12+S355JR+1
0
POLYLINE
8
CUT
6
CONTINUOUS
62
7
66
1
10
0.000
20
0.000
30
0.000
70
1
0
VERTEX
8
CUT
10
0.000
20
0.000
30
0.000
42
0.00000000
0
VERTEX
8
CUT
10
0.000
20
750.000
30
0.000
42
0.00000000
0
VERTEX
8
CUT
10
977.000
20
750.000
30
0.000
42
0.00000000
0
VERTEX
8
CUT
10
1096.260
20
0.000
30
0.000
42
0.00000000
0
SEQEND
0
POLYLINE
8
LAYOUT
6
CONTINUOUS
62
4
66
1
10
0.000
20
0.000
30
0.000
70
1
0
VERTEX
8
LAYOUT
10
412.150
20
554.000
30
0.000
42
-1.00000000
0
VERTEX
8
LAYOUT
10
412.150
20
576.000
30
0.000
42
0.00000000
0
VERTEX
8
LAYOUT
10
460.150
20
576.000
30
0.000
42
-1.00000000
0
VERTEX
8
LAYOUT
10
460.150
20
554.000
30
0.000
42
0.00000000
0
SEQEND
0
CIRCLE
8
22
6
CONTINUOUS
62
7
39
1.000
10
412.150
20
565.000
30
0.000
40
11.000
0
CIRCLE
8
22
6
CONTINUOUS
62
7
39
1.000
10
436.150
20
565.000
30
0.000
40
11.000
0
CIRCLE
8
22
6
CONTINUOUS
62
7
39
1.000
10
460.150
20
565.000
30
0.000
40
11.000
0
CIRCLE
8
22
6
CONTINUOUS
62
7
39
1.000
10
0.000
20
0.000
30
0.000
40
0.000
0
POLYLINE
8
LAYOUT
6
CONTINUOUS
62
4
66
1
10
0.000
20
0.000
30
0.000
70
1
0
VERTEX
8
LAYOUT
10
412.150
20
624.000
30
0.000
42
-1.00000000
0
VERTEX
8
LAYOUT
10
412.150
20
646.000
30
0.000
42
0.00000000
0
VERTEX
8
LAYOUT
10
460.150
20
646.000
30
0.000
42
-1.00000000
0
VERTEX
8
LAYOUT
10
460.150
20
624.000
30
0.000
42
0.00000000
0
SEQEND
0
CIRCLE
8
22
6
CONTINUOUS
62
7
39
1.000
10
412.150
20
635.000
30
0.000
40
11.000
0
CIRCLE
8
22
6
CONTINUOUS
62
7
39
1.000
10
436.150
20
635.000
30
0.000
40
11.000
0
CIRCLE
8
22
6
CONTINUOUS
62
7
39
1.000
10
460.150
20
635.000
30
0.000
40
11.000
0
CIRCLE
8
22
6
CONTINUOUS
62
7
39
1.000
10
0.000
20
0.000
30
0.000
40
0.000
0
POLYLINE
8
LAYOUT
6
CONTINUOUS
62
4
66
1
10
0.000
20
0.000
30
0.000
70
1
0
VERTEX
8
LAYOUT
10
673.418
20
519.104
30
0.000
42
-0.99999991
0
VERTEX
8
LAYOUT
10
655.642
20
516.276
30
0.000
42
0.00000000
0
VERTEX
8
LAYOUT
10
648.100
20
563.680
30
0.000
42
-1.00000000
0
VERTEX
8
LAYOUT
10
665.876
20
566.508
30
0.000
42
0.00000000
0
SEQEND
0
CIRCLE
8
18
6
CONTINUOUS
62
7
39
1.000
10
664.530
20
517.690
30
0.000
40
9.000
0
CIRCLE
8
18
6
CONTINUOUS
62
7
39
1.000
10
660.759
20
541.392
30
0.000
40
9.000
0
CIRCLE
8
18
6
CONTINUOUS
62
7
39
1.000
10
656.988
20
565.094
30
0.000
40
9.000
0
CIRCLE
8
18
6
CONTINUOUS
62
7
39
1.000
10
0.000
20
0.000
30
0.000
40
0.000
0
ENDSEC
0
EOF
