0
SECTION
2
HEADER
9
$PDMODE
70
33
9
$PDSIZE
40
1.000
9
$EXTMIN
10
-100.248
20
-85.000
30
-1.000
9
$EXTMAX
10
1102.728
20
935.000
30
1.000
9
$LIMMIN
10
-100.248
20
-85.000
9
$LIMMAX
10
1102.728
20
935.000
0
ENDSEC
0
SECTION
2
TABLES
0
TABLE
2
LAYER
70
7
0
LAYER
2
SCRIBE
70
0
62
3
6
CONTINUOUS
0
LAYER
2
TEXT
70
0
62
7
6
CONTINUOUS
0
LAYER
2
CUT
70
0
62
7
6
CONTINUOUS
0
LAYER
2
LAYOUT
70
0
62
4
6
CONTINUOUS
0
LAYER
2
22
70
0
62
7
6
CONTINUOUS
0
ENDTAB
0
TABLE
2
VPORT
70
4
0
VPORT
2
*ACTIVE
70
0
10
0.000000
20
0.000000
11
1.000000
21
1.000000
12
501.240000
22
425.000000
13
0.000000
23
0.000000
14
1.000000
24
1.000000
15
1.000000
25
1.000000
16
0.000000
26
0.000000
36
1.000000
17
0.000000
27
0.000000
37
0.000000
40
1002.480000
41
1.500000
42
50.000000
43
0.000000
44
0.000000
50
0.000000
51
0.000000
71
0
72
100
73
1
74
1
75
0
76
0
77
0
78
0
0
ENDTAB
0
ENDSEC
0
SECTION
2
ENTITIES
0
TEXT
8
SCRIBE
62
3
10
30.000
20
30.000
30
0.000
40
10.000
1
W172
0
TEXT
8
TEXT
62
7
10
30.000
20
15.000
30
0.000
40
10.000
1
PLT12+S355JR+3
0
POLYLINE
8
CUT
6
CONTINUOUS
62
7
66
1
10
0.000
20
0.000
30
0.000
70
1
0
VERTEX
8
CUT
10
0.000
20
0.000
30
0.000
42
0.00000000
0
VERTEX
8
CUT
10
0.000
20
850.000
30
0.000
42
0.00000000
0
VERTEX
8
CUT
10
878.200
20
850.000
30
0.000
42
0.00000000
0
VERTEX
8
CUT
10
1002.480
20
188.270
30
0.000
42
0.00000000
0
SEQEND
0
POLYLINE
8
LAYOUT
6
CONTINUOUS
62
4
66
1
10
0.000
20
0.000
30
0.000
70
1
0
VERTEX
8
LAYOUT
10
217.270
20
669.020
30
0.000
42
-1.00000000
0
VERTEX
8
LAYOUT
10
217.270
20
691.020
30
0.000
42
0.00000000
0
VERTEX
8
LAYOUT
10
265.270
20
691.020
30
0.000
42
-1.00000000
0
VERTEX
8
LAYOUT
10
265.270
20
669.020
30
0.000
42
0.00000000
0
SEQEND
0
CIRCLE
8
22
6
CONTINUOUS
62
7
39
1.000
10
217.270
20
680.020
30
0.000
40
11.000
0
CIRCLE
8
22
6
CONTINUOUS
62
7
39
1.000
10
241.270
20
680.020
30
0.000
40
11.000
0
CIRCLE
8
22
6
CONTINUOUS
62
7
39
1.000
10
265.270
20
680.020
30
0.000
40
11.000
0
CIRCLE
8
22
6
CONTINUOUS
62
7
39
1.000
10
0.000
20
0.000
30
0.000
40
0.000
0
POLYLINE
8
LAYOUT
6
CONTINUOUS
62
4
66
1
10
0.000
20
0.000
30
0.000
70
1
0
VERTEX
8
LAYOUT
10
217.270
20
739.020
30
0.000
42
-1.00000000
0
VERTEX
8
LAYOUT
10
217.270
20
761.020
30
0.000
42
0.00000000
0
VERTEX
8
LAYOUT
10
265.270
20
761.020
30
0.000
42
-1.00000000
0
VERTEX
8
LAYOUT
10
265.270
20
739.020
30
0.000
42
0.00000000
0
SEQEND
0
CIRCLE
8
22
6
CONTINUOUS
62
7
39
1.000
10
217.270
20
750.020
30
0.000
40
11.000
0
CIRCLE
8
22
6
CONTINUOUS
62
7
39
1.000
10
241.270
20
750.020
30
0.000
40
11.000
0
CIRCLE
8
22
6
CONTINUOUS
62
7
39
1.000
10
265.270
20
750.020
30
0.000
40
11.000
0
CIRCLE
8
22
6
CONTINUOUS
62
7
39
1.000
10
0.000
20
0.000
30
0.000
40
0.000
0
POLYLINE
8
LAYOUT
6
CONTINUOUS
62
4
66
1
10
0.000
20
0.000
30
0.000
70
1
0
VERTEX
8
LAYOUT
10
462.601
20
494.961
30
0.000
42
-1.00000000
0
VERTEX
8
LAYOUT
10
440.979
20
490.899
30
0.000
42
0.00000000
0
VERTEX
8
LAYOUT
10
432.117
20
538.074
30
0.000
42
-0.99999997
0
VERTEX
8
LAYOUT
10
453.738
20
542.136
30
0.000
42
0.00000000
0
SEQEND
0
CIRCLE
8
22
6
CONTINUOUS
62
7
39
1.000
10
451.790
20
492.930
30
0.000
40
11.000
0
CIRCLE
8
22
6
CONTINUOUS
62
7
39
1.000
10
0.000
20
0.000
30
0.000
40
0.000
0
POLYLINE
8
LAYOUT
6
CONTINUOUS
62
4
66
1
10
0.000
20
0.000
30
0.000
70
1
0
VERTEX
8
LAYOUT
10
531.391
20
507.881
30
0.000
42
-1.00000000
0
VERTEX
8
LAYOUT
10
509.769
20
503.819
30
0.000
42
0.00000000
0
VERTEX
8
LAYOUT
10
500.907
20
550.994
30
0.000
42
-0.99999997
0
VERTEX
8
LAYOUT
10
522.528
20
555.056
30
0.000
42
0.00000000
0
SEQEND
0
CIRCLE
8
22
6
CONTINUOUS
62
7
39
1.000
10
520.580
20
505.850
30
0.000
40
11.000
0
CIRCLE
8
22
6
CONTINUOUS
62
7
39
1.000
10
516.149
20
529.437
30
0.000
40
11.000
0
CIRCLE
8
22
6
CONTINUOUS
62
7
39
1.000
10
511.717
20
553.025
30
0.000
40
11.000
0
CIRCLE
8
22
6
CONTINUOUS
62
7
39
1.000
10
0.000
20
0.000
30
0.000
40
0.000
0
ENDSEC
0
EOF
