0
SECTION
2
HEADER
9
$PDMODE
70
33
9
$PDSIZE
40
1.000
9
$EXTMIN
10
-109.726
20
-75.000
30
-1.000
9
$EXTMAX
10
1206.986
20
825.000
30
1.000
9
$LIMMIN
10
-109.726
20
-75.000
9
$LIMMAX
10
1206.986
20
825.000
0
ENDSEC
0
SECTION
2
TABLES
0
TABLE
2
LAYER
70
7
0
LAYER
2
SCRIBE
70
0
62
3
6
CONTINUOUS
0
LAYER
2
TEXT
70
0
62
7
6
CONTINUOUS
0
LAYER
2
CUT
70
0
62
7
6
CONTINUOUS
0
LAYER
2
LAYOUT
70
0
62
4
6
CONTINUOUS
0
LAYER
2
18
70
0
62
7
6
CONTINUOUS
0
LAYER
2
22
70
0
62
7
6
CONTINUOUS
0
ENDTAB
0
TABLE
2
VPORT
70
4
0
VPORT
2
*ACTIVE
70
0
10
0.000000
20
0.000000
11
1.000000
21
1.000000
12
548.630000
22
375.000000
13
0.000000
23
0.000000
14
1.000000
24
1.000000
15
1.000000
25
1.000000
16
0.000000
26
0.000000
36
1.000000
17
0.000000
27
0.000000
37
0.000000
40
1097.260000
41
1.500000
42
50.000000
43
0.000000
44
0.000000
50
0.000000
51
0.000000
71
0
72
100
73
1
74
1
75
0
76
0
77
0
78
0
0
ENDTAB
0
ENDSEC
0
SECTION
2
ENTITIES
0
TEXT
8
SCRIBE
62
3
10
30.000
20
30.000
30
0.000
40
10.000
1
W234
0
TEXT
8
TEXT
62
7
10
30.000
20
15.000
30
0.000
40
10.000
1
PLT12+S355JR+10
0
POLYLINE
8
CUT
6
CONTINUOUS
62
7
66
1
10
0.000
20
0.000
30
0.000
70
1
0
VERTEX
8
CUT
10
0.000
20
0.000
30
0.000
42
0.00000000
0
VERTEX
8
CUT
10
0.000
20
750.000
30
0.000
42
0.00000000
0
VERTEX
8
CUT
10
978.000
20
750.000
30
0.000
42
0.00000000
0
VERTEX
8
CUT
10
1097.260
20
0.000
30
0.000
42
0.00000000
0
SEQEND
0
POLYLINE
8
LAYOUT
6
CONTINUOUS
62
4
66
1
10
0.000
20
0.000
30
0.000
70
1
0
VERTEX
8
LAYOUT
10
413.150
20
554.000
30
0.000
42
-1.00000000
0
VERTEX
8
LAYOUT
10
413.150
20
576.000
30
0.000
42
0.00000000
0
VERTEX
8
LAYOUT
10
461.150
20
576.000
30
0.000
42
-1.00000000
0
VERTEX
8
LAYOUT
10
461.150
20
554.000
30
0.000
42
0.00000000
0
SEQEND
0
CIRCLE
8
22
6
CONTINUOUS
62
7
39
1.000
10
413.150
20
565.000
30
0.000
40
11.000
0
CIRCLE
8
22
6
CONTINUOUS
62
7
39
1.000
10
437.150
20
565.000
30
0.000
40
11.000
0
CIRCLE
8
22
6
CONTINUOUS
62
7
39
1.000
10
461.150
20
565.000
30
0.000
40
11.000
0
CIRCLE
8
22
6
CONTINUOUS
62
7
39
1.000
10
0.000
20
0.000
30
0.000
40
0.000
0
POLYLINE
8
LAYOUT
6
CONTINUOUS
62
4
66
1
10
0.000
20
0.000
30
0.000
70
1
0
VERTEX
8
LAYOUT
10
413.150
20
624.000
30
0.000
42
-1.00000000
0
VERTEX
8
LAYOUT
10
413.150
20
646.000
30
0.000
42
0.00000000
0
VERTEX
8
LAYOUT
10
461.150
20
646.000
30
0.000
42
-1.00000000
0
VERTEX
8
LAYOUT
10
461.150
20
624.000
30
0.000
42
0.00000000
0
SEQEND
0
CIRCLE
8
22
6
CONTINUOUS
62
7
39
1.000
10
413.150
20
635.000
30
0.000
40
11.000
0
CIRCLE
8
22
6
CONTINUOUS
62
7
39
1.000
10
437.150
20
635.000
30
0.000
40
11.000
0
CIRCLE
8
22
6
CONTINUOUS
62
7
39
1.000
10
461.150
20
635.000
30
0.000
40
11.000
0
CIRCLE
8
22
6
CONTINUOUS
62
7
39
1.000
10
0.000
20
0.000
30
0.000
40
0.000
0
POLYLINE
8
LAYOUT
6
CONTINUOUS
62
4
66
1
10
0.000
20
0.000
30
0.000
70
1
0
VERTEX
8
LAYOUT
10
894.533
20
479.038
30
0.000
42
-1.00000000
0
VERTEX
8
LAYOUT
10
872.807
20
475.582
30
0.000
42
0.00000000
0
VERTEX
8
LAYOUT
10
865.265
20
522.985
30
0.000
42
-1.00000000
0
VERTEX
8
LAYOUT
10
886.991
20
526.442
30
0.000
42
0.00000000
0
SEQEND
0
CIRCLE
8
22
6
CONTINUOUS
62
7
39
1.000
10
883.670
20
477.310
30
0.000
40
11.000
0
CIRCLE
8
22
6
CONTINUOUS
62
7
39
1.000
10
0.000
20
0.000
30
0.000
40
0.000
0
POLYLINE
8
LAYOUT
6
CONTINUOUS
62
4
66
1
10
0.000
20
0.000
30
0.000
70
1
0
VERTEX
8
LAYOUT
10
939.668
20
182.444
30
0.000
42
-0.99999992
0
VERTEX
8
LAYOUT
10
921.892
20
179.616
30
0.000
42
0.00000000
0
VERTEX
8
LAYOUT
10
914.350
20
227.020
30
0.000
42
-1.00000000
0
VERTEX
8
LAYOUT
10
932.126
20
229.848
30
0.000
42
0.00000000
0
SEQEND
0
CIRCLE
8
18
6
CONTINUOUS
62
7
39
1.000
10
930.780
20
181.030
30
0.000
40
9.000
0
CIRCLE
8
18
6
CONTINUOUS
62
7
39
1.000
10
927.009
20
204.732
30
0.000
40
9.000
0
CIRCLE
8
18
6
CONTINUOUS
62
7
39
1.000
10
923.238
20
228.434
30
0.000
40
9.000
0
CIRCLE
8
18
6
CONTINUOUS
62
7
39
1.000
10
0.000
20
0.000
30
0.000
40
0.000
0
ENDSEC
0
EOF
