0
SECTION
2
HEADER
9
$PDMODE
70
33
9
$PDSIZE
40
1.000
9
$EXTMIN
10
-298.999
20
-99.497
30
-1.000
9
$EXTMAX
10
3288.989
20
1094.467
30
1.000
9
$LIMMIN
10
-298.999
20
-99.497
9
$LIMMAX
10
3288.989
20
1094.467
0
ENDSEC
0
SECTION
2
TABLES
0
TABLE
2
LAYER
70
7
0
LAYER
2
SCRIBE
70
0
62
3
6
CONTINUOUS
0
LAYER
2
TEXT
70
0
62
7
6
CONTINUOUS
0
LAYER
2
CUT
70
0
62
7
6
CONTINUOUS
0
LAYER
2
LAYOUT
70
0
62
4
6
CONTINUOUS
0
LAYER
2
22
70
0
62
7
6
CONTINUOUS
0
ENDTAB
0
TABLE
2
VPORT
70
4
0
VPORT
2
*ACTIVE
70
0
10
0.000000
20
0.000000
11
1.000000
21
1.000000
12
1494.995000
22
497.485000
13
0.000000
23
0.000000
14
1.000000
24
1.000000
15
1.000000
25
1.000000
16
0.000000
26
0.000000
36
1.000000
17
0.000000
27
0.000000
37
0.000000
40
2989.990000
41
1.500000
42
50.000000
43
0.000000
44
0.000000
50
0.000000
51
0.000000
71
0
72
100
73
1
74
1
75
0
76
0
77
0
78
0
0
ENDTAB
0
ENDSEC
0
SECTION
2
ENTITIES
0
TEXT
8
SCRIBE
62
3
10
30.000
20
30.000
30
0.000
40
10.000
1
W331
0
TEXT
8
TEXT
62
7
10
30.000
20
15.000
30
0.000
40
10.000
1
PLT12+S355JR+4
0
POLYLINE
8
CUT
6
CONTINUOUS
62
7
66
1
10
0.000
20
0.000
30
0.000
70
1
0
VERTEX
8
CUT
10
0.000
20
0.000
30
0.000
42
0.00000000
0
VERTEX
8
CUT
10
158.210
20
994.970
30
0.000
42
0.00000000
0
VERTEX
8
CUT
10
2989.990
20
994.970
30
0.000
42
0.00000000
0
VERTEX
8
CUT
10
2989.990
20
244.970
30
0.000
42
0.00000000
0
SEQEND
0
POLYLINE
8
LAYOUT
6
CONTINUOUS
62
4
66
1
10
0.000
20
0.000
30
0.000
70
1
0
VERTEX
8
LAYOUT
10
391.820
20
778.960
30
0.000
42
-1.00000000
0
VERTEX
8
LAYOUT
10
391.820
20
800.960
30
0.000
42
0.00000000
0
VERTEX
8
LAYOUT
10
439.820
20
800.960
30
0.000
42
-1.00000000
0
VERTEX
8
LAYOUT
10
439.820
20
778.960
30
0.000
42
0.00000000
0
SEQEND
0
CIRCLE
8
22
6
CONTINUOUS
62
7
39
1.000
10
391.820
20
789.960
30
0.000
40
11.000
0
CIRCLE
8
22
6
CONTINUOUS
62
7
39
1.000
10
415.820
20
789.960
30
0.000
40
11.000
0
CIRCLE
8
22
6
CONTINUOUS
62
7
39
1.000
10
439.820
20
789.960
30
0.000
40
11.000
0
CIRCLE
8
22
6
CONTINUOUS
62
7
39
1.000
10
0.000
20
0.000
30
0.000
40
0.000
0
POLYLINE
8
LAYOUT
6
CONTINUOUS
62
4
66
1
10
0.000
20
0.000
30
0.000
70
1
0
VERTEX
8
LAYOUT
10
391.820
20
848.960
30
0.000
42
-1.00000000
0
VERTEX
8
LAYOUT
10
391.820
20
870.960
30
0.000
42
0.00000000
0
VERTEX
8
LAYOUT
10
439.820
20
870.960
30
0.000
42
-1.00000000
0
VERTEX
8
LAYOUT
10
439.820
20
848.960
30
0.000
42
0.00000000
0
SEQEND
0
CIRCLE
8
22
6
CONTINUOUS
62
7
39
1.000
10
391.820
20
859.960
30
0.000
40
11.000
0
CIRCLE
8
22
6
CONTINUOUS
62
7
39
1.000
10
415.820
20
859.960
30
0.000
40
11.000
0
CIRCLE
8
22
6
CONTINUOUS
62
7
39
1.000
10
439.820
20
859.960
30
0.000
40
11.000
0
CIRCLE
8
22
6
CONTINUOUS
62
7
39
1.000
10
0.000
20
0.000
30
0.000
40
0.000
0
POLYLINE
8
LAYOUT
6
CONTINUOUS
62
4
66
1
10
0.000
20
0.000
30
0.000
70
1
0
VERTEX
8
LAYOUT
10
691.820
20
778.960
30
0.000
42
-1.00000000
0
VERTEX
8
LAYOUT
10
691.820
20
800.960
30
0.000
42
0.00000000
0
VERTEX
8
LAYOUT
10
739.820
20
800.960
30
0.000
42
-1.00000000
0
VERTEX
8
LAYOUT
10
739.820
20
778.960
30
0.000
42
0.00000000
0
SEQEND
0
CIRCLE
8
22
6
CONTINUOUS
62
7
39
1.000
10
691.820
20
789.960
30
0.000
40
11.000
0
CIRCLE
8
22
6
CONTINUOUS
62
7
39
1.000
10
715.820
20
789.960
30
0.000
40
11.000
0
CIRCLE
8
22
6
CONTINUOUS
62
7
39
1.000
10
739.820
20
789.960
30
0.000
40
11.000
0
CIRCLE
8
22
6
CONTINUOUS
62
7
39
1.000
10
0.000
20
0.000
30
0.000
40
0.000
0
POLYLINE
8
LAYOUT
6
CONTINUOUS
62
4
66
1
10
0.000
20
0.000
30
0.000
70
1
0
VERTEX
8
LAYOUT
10
691.820
20
848.960
30
0.000
42
-1.00000000
0
VERTEX
8
LAYOUT
10
691.820
20
870.960
30
0.000
42
0.00000000
0
VERTEX
8
LAYOUT
10
739.820
20
870.960
30
0.000
42
-1.00000000
0
VERTEX
8
LAYOUT
10
739.820
20
848.960
30
0.000
42
0.00000000
0
SEQEND
0
CIRCLE
8
22
6
CONTINUOUS
62
7
39
1.000
10
691.820
20
859.960
30
0.000
40
11.000
0
CIRCLE
8
22
6
CONTINUOUS
62
7
39
1.000
10
715.820
20
859.960
30
0.000
40
11.000
0
CIRCLE
8
22
6
CONTINUOUS
62
7
39
1.000
10
739.820
20
859.960
30
0.000
40
11.000
0
CIRCLE
8
22
6
CONTINUOUS
62
7
39
1.000
10
0.000
20
0.000
30
0.000
40
0.000
0
ENDSEC
0
EOF
