0
SECTION
2
HEADER
9
$PDMODE
70
33
9
$PDSIZE
40
1.000
9
$EXTMIN
10
-103.000
20
-21.000
30
-1.000
9
$EXTMAX
10
1133.000
20
231.000
30
1.000
9
$LIMMIN
10
-103.000
20
-21.000
9
$LIMMAX
10
1133.000
20
231.000
0
ENDSEC
0
SECTION
2
TABLES
0
TABLE
2
LAYER
70
7
0
LAYER
2
SCRIBE
70
0
62
3
6
CONTINUOUS
0
LAYER
2
TEXT
70
0
62
7
6
CONTINUOUS
0
LAYER
2
CUT
70
0
62
7
6
CONTINUOUS
0
LAYER
2
30
70
0
62
7
6
CONTINUOUS
0
ENDTAB
0
TABLE
2
VPORT
70
4
0
VPORT
2
*ACTIVE
70
0
10
0.000000
20
0.000000
11
1.000000
21
1.000000
12
515.000000
22
105.000000
13
0.000000
23
0.000000
14
1.000000
24
1.000000
15
1.000000
25
1.000000
16
0.000000
26
0.000000
36
1.000000
17
0.000000
27
0.000000
37
0.000000
40
1030.000000
41
1.500000
42
50.000000
43
0.000000
44
0.000000
50
0.000000
51
0.000000
71
0
72
100
73
1
74
1
75
0
76
0
77
0
78
0
0
ENDTAB
0
ENDSEC
0
SECTION
2
ENTITIES
0
TEXT
8
SCRIBE
62
3
10
30.000
20
30.000
30
0.000
40
10.000
1
239
0
TEXT
8
TEXT
62
7
10
30.000
20
15.000
30
0.000
40
10.000
1
110+PL20+S235JR
0
POLYLINE
8
CUT
6
CONTINUOUS
62
7
66
1
10
0.000
20
0.000
30
0.000
70
1
0
VERTEX
8
CUT
10
0.000
20
0.000
30
0.000
42
0.00000000
0
VERTEX
8
CUT
10
0.000
20
210.000
30
0.000
42
0.00000000
0
VERTEX
8
CUT
10
1030.000
20
210.000
30
0.000
42
0.00000000
0
VERTEX
8
CUT
10
1030.000
20
0.000
30
0.000
42
0.00000000
0
SEQEND
0
POLYLINE
8
30
6
CONTINUOUS
62
7
66
1
10
0.000
20
0.000
30
0.000
70
1
0
VERTEX
8
30
10
60.000
20
65.000
30
0.000
42
1.00000000
0
VERTEX
8
30
10
60.000
20
35.000
30
0.000
42
1.00000000
0
SEQEND
0
LINE
8
30
6
CONTINUOUS
62
7
39
1.000
10
45.000
20
50.000
30
0.000
11
75.000
21
50.000
31
0.000
0
LINE
8
30
6
CONTINUOUS
62
7
39
1.000
10
60.000
20
35.000
30
0.000
11
60.000
21
65.000
31
0.000
0
POLYLINE
8
30
6
CONTINUOUS
62
7
66
1
10
0.000
20
0.000
30
0.000
70
1
0
VERTEX
8
30
10
60.000
20
175.000
30
0.000
42
1.00000000
0
VERTEX
8
30
10
60.000
20
145.000
30
0.000
42
1.00000000
0
SEQEND
0
LINE
8
30
6
CONTINUOUS
62
7
39
1.000
10
45.000
20
160.000
30
0.000
11
75.000
21
160.000
31
0.000
0
LINE
8
30
6
CONTINUOUS
62
7
39
1.000
10
60.000
20
145.000
30
0.000
11
60.000
21
175.000
31
0.000
0
POLYLINE
8
30
6
CONTINUOUS
62
7
66
1
10
0.000
20
0.000
30
0.000
70
1
0
VERTEX
8
30
10
200.000
20
65.000
30
0.000
42
1.00000000
0
VERTEX
8
30
10
200.000
20
35.000
30
0.000
42
1.00000000
0
SEQEND
0
LINE
8
30
6
CONTINUOUS
62
7
39
1.000
10
185.000
20
50.000
30
0.000
11
215.000
21
50.000
31
0.000
0
LINE
8
30
6
CONTINUOUS
62
7
39
1.000
10
200.000
20
35.000
30
0.000
11
200.000
21
65.000
31
0.000
0
POLYLINE
8
30
6
CONTINUOUS
62
7
66
1
10
0.000
20
0.000
30
0.000
70
1
0
VERTEX
8
30
10
200.000
20
175.000
30
0.000
42
1.00000000
0
VERTEX
8
30
10
200.000
20
145.000
30
0.000
42
1.00000000
0
SEQEND
0
LINE
8
30
6
CONTINUOUS
62
7
39
1.000
10
185.000
20
160.000
30
0.000
11
215.000
21
160.000
31
0.000
0
LINE
8
30
6
CONTINUOUS
62
7
39
1.000
10
200.000
20
145.000
30
0.000
11
200.000
21
175.000
31
0.000
0
POLYLINE
8
30
6
CONTINUOUS
62
7
66
1
10
0.000
20
0.000
30
0.000
70
1
0
VERTEX
8
30
10
290.000
20
65.000
30
0.000
42
1.00000000
0
VERTEX
8
30
10
290.000
20
35.000
30
0.000
42
1.00000000
0
SEQEND
0
LINE
8
30
6
CONTINUOUS
62
7
39
1.000
10
275.000
20
50.000
30
0.000
11
305.000
21
50.000
31
0.000
0
LINE
8
30
6
CONTINUOUS
62
7
39
1.000
10
290.000
20
35.000
30
0.000
11
290.000
21
65.000
31
0.000
0
POLYLINE
8
30
6
CONTINUOUS
62
7
66
1
10
0.000
20
0.000
30
0.000
70
1
0
VERTEX
8
30
10
290.000
20
175.000
30
0.000
42
1.00000000
0
VERTEX
8
30
10
290.000
20
145.000
30
0.000
42
1.00000000
0
SEQEND
0
LINE
8
30
6
CONTINUOUS
62
7
39
1.000
10
275.000
20
160.000
30
0.000
11
305.000
21
160.000
31
0.000
0
LINE
8
30
6
CONTINUOUS
62
7
39
1.000
10
290.000
20
145.000
30
0.000
11
290.000
21
175.000
31
0.000
0
POLYLINE
8
30
6
CONTINUOUS
62
7
66
1
10
0.000
20
0.000
30
0.000
70
1
0
VERTEX
8
30
10
380.000
20
65.000
30
0.000
42
1.00000000
0
VERTEX
8
30
10
380.000
20
35.000
30
0.000
42
1.00000000
0
SEQEND
0
LINE
8
30
6
CONTINUOUS
62
7
39
1.000
10
365.000
20
50.000
30
0.000
11
395.000
21
50.000
31
0.000
0
LINE
8
30
6
CONTINUOUS
62
7
39
1.000
10
380.000
20
35.000
30
0.000
11
380.000
21
65.000
31
0.000
0
POLYLINE
8
30
6
CONTINUOUS
62
7
66
1
10
0.000
20
0.000
30
0.000
70
1
0
VERTEX
8
30
10
380.000
20
175.000
30
0.000
42
1.00000000
0
VERTEX
8
30
10
380.000
20
145.000
30
0.000
42
1.00000000
0
SEQEND
0
LINE
8
30
6
CONTINUOUS
62
7
39
1.000
10
365.000
20
160.000
30
0.000
11
395.000
21
160.000
31
0.000
0
LINE
8
30
6
CONTINUOUS
62
7
39
1.000
10
380.000
20
145.000
30
0.000
11
380.000
21
175.000
31
0.000
0
POLYLINE
8
30
6
CONTINUOUS
62
7
66
1
10
0.000
20
0.000
30
0.000
70
1
0
VERTEX
8
30
10
660.000
20
65.000
30
0.000
42
1.00000000
0
VERTEX
8
30
10
660.000
20
35.000
30
0.000
42
1.00000000
0
SEQEND
0
LINE
8
30
6
CONTINUOUS
62
7
39
1.000
10
645.000
20
50.000
30
0.000
11
675.000
21
50.000
31
0.000
0
LINE
8
30
6
CONTINUOUS
62
7
39
1.000
10
660.000
20
35.000
30
0.000
11
660.000
21
65.000
31
0.000
0
POLYLINE
8
30
6
CONTINUOUS
62
7
66
1
10
0.000
20
0.000
30
0.000
70
1
0
VERTEX
8
30
10
660.000
20
175.000
30
0.000
42
1.00000000
0
VERTEX
8
30
10
660.000
20
145.000
30
0.000
42
1.00000000
0
SEQEND
0
LINE
8
30
6
CONTINUOUS
62
7
39
1.000
10
645.000
20
160.000
30
0.000
11
675.000
21
160.000
31
0.000
0
LINE
8
30
6
CONTINUOUS
62
7
39
1.000
10
660.000
20
145.000
30
0.000
11
660.000
21
175.000
31
0.000
0
POLYLINE
8
30
6
CONTINUOUS
62
7
66
1
10
0.000
20
0.000
30
0.000
70
1
0
VERTEX
8
30
10
750.000
20
65.000
30
0.000
42
1.00000000
0
VERTEX
8
30
10
750.000
20
35.000
30
0.000
42
1.00000000
0
SEQEND
0
LINE
8
30
6
CONTINUOUS
62
7
39
1.000
10
735.000
20
50.000
30
0.000
11
765.000
21
50.000
31
0.000
0
LINE
8
30
6
CONTINUOUS
62
7
39
1.000
10
750.000
20
35.000
30
0.000
11
750.000
21
65.000
31
0.000
0
POLYLINE
8
30
6
CONTINUOUS
62
7
66
1
10
0.000
20
0.000
30
0.000
70
1
0
VERTEX
8
30
10
750.000
20
175.000
30
0.000
42
1.00000000
0
VERTEX
8
30
10
750.000
20
145.000
30
0.000
42
1.00000000
0
SEQEND
0
LINE
8
30
6
CONTINUOUS
62
7
39
1.000
10
735.000
20
160.000
30
0.000
11
765.000
21
160.000
31
0.000
0
LINE
8
30
6
CONTINUOUS
62
7
39
1.000
10
750.000
20
145.000
30
0.000
11
750.000
21
175.000
31
0.000
0
POLYLINE
8
30
6
CONTINUOUS
62
7
66
1
10
0.000
20
0.000
30
0.000
70
1
0
VERTEX
8
30
10
840.000
20
65.000
30
0.000
42
1.00000000
0
VERTEX
8
30
10
840.000
20
35.000
30
0.000
42
1.00000000
0
SEQEND
0
LINE
8
30
6
CONTINUOUS
62
7
39
1.000
10
825.000
20
50.000
30
0.000
11
855.000
21
50.000
31
0.000
0
LINE
8
30
6
CONTINUOUS
62
7
39
1.000
10
840.000
20
35.000
30
0.000
11
840.000
21
65.000
31
0.000
0
POLYLINE
8
30
6
CONTINUOUS
62
7
66
1
10
0.000
20
0.000
30
0.000
70
1
0
VERTEX
8
30
10
840.000
20
175.000
30
0.000
42
1.00000000
0
VERTEX
8
30
10
840.000
20
145.000
30
0.000
42
1.00000000
0
SEQEND
0
LINE
8
30
6
CONTINUOUS
62
7
39
1.000
10
825.000
20
160.000
30
0.000
11
855.000
21
160.000
31
0.000
0
LINE
8
30
6
CONTINUOUS
62
7
39
1.000
10
840.000
20
145.000
30
0.000
11
840.000
21
175.000
31
0.000
0
POLYLINE
8
30
6
CONTINUOUS
62
7
66
1
10
0.000
20
0.000
30
0.000
70
1
0
VERTEX
8
30
10
970.000
20
65.000
30
0.000
42
1.00000000
0
VERTEX
8
30
10
970.000
20
35.000
30
0.000
42
1.00000000
0
SEQEND
0
LINE
8
30
6
CONTINUOUS
62
7
39
1.000
10
955.000
20
50.000
30
0.000
11
985.000
21
50.000
31
0.000
0
LINE
8
30
6
CONTINUOUS
62
7
39
1.000
10
970.000
20
35.000
30
0.000
11
970.000
21
65.000
31
0.000
0
POLYLINE
8
30
6
CONTINUOUS
62
7
66
1
10
0.000
20
0.000
30
0.000
70
1
0
VERTEX
8
30
10
970.000
20
175.000
30
0.000
42
1.00000000
0
VERTEX
8
30
10
970.000
20
145.000
30
0.000
42
1.00000000
0
SEQEND
0
LINE
8
30
6
CONTINUOUS
62
7
39
1.000
10
955.000
20
160.000
30
0.000
11
985.000
21
160.000
31
0.000
0
LINE
8
30
6
CONTINUOUS
62
7
39
1.000
10
970.000
20
145.000
30
0.000
11
970.000
21
175.000
31
0.000
0
ENDSEC
0
EOF
