0
SECTION
2
HEADER
9
$PDMODE
70
33
9
$PDSIZE
40
1.000
9
$EXTMIN
10
-38.000
20
-20.000
30
-1.000
9
$EXTMAX
10
418.000
20
220.000
30
1.000
9
$LIMMIN
10
-38.000
20
-20.000
9
$LIMMAX
10
418.000
20
220.000
0
ENDSEC
0
SECTION
2
TABLES
0
TABLE
2
LAYER
70
7
0
LAYER
2
SCRIBE
70
0
62
3
6
CONTINUOUS
0
LAYER
2
TEXT
70
0
62
7
6
CONTINUOUS
0
LAYER
2
CUT
70
0
62
7
6
CONTINUOUS
0
LAYER
2
30
70
0
62
7
6
CONTINUOUS
0
ENDTAB
0
TABLE
2
VPORT
70
4
0
VPORT
2
*ACTIVE
70
0
10
0.000000
20
0.000000
11
1.000000
21
1.000000
12
190.000000
22
100.000000
13
0.000000
23
0.000000
14
1.000000
24
1.000000
15
1.000000
25
1.000000
16
0.000000
26
0.000000
36
1.000000
17
0.000000
27
0.000000
37
0.000000
40
380.000000
41
1.500000
42
50.000000
43
0.000000
44
0.000000
50
0.000000
51
0.000000
71
0
72
100
73
1
74
1
75
0
76
0
77
0
78
0
0
ENDTAB
0
ENDSEC
0
SECTION
2
ENTITIES
0
TEXT
8
SCRIBE
62
3
10
30.000
20
30.000
30
0.000
40
10.000
1
243
0
TEXT
8
TEXT
62
7
10
30.000
20
15.000
30
0.000
40
10.000
1
7+PL15+S235JR
0
POLYLINE
8
CUT
6
CONTINUOUS
62
7
66
1
10
0.000
20
0.000
30
0.000
70
1
0
VERTEX
8
CUT
10
0.000
20
0.000
30
0.000
42
0.00000000
0
VERTEX
8
CUT
10
0.000
20
200.000
30
0.000
42
0.00000000
0
VERTEX
8
CUT
10
380.000
20
200.000
30
0.000
42
0.00000000
0
VERTEX
8
CUT
10
380.000
20
0.000
30
0.000
42
0.00000000
0
SEQEND
0
POLYLINE
8
30
6
CONTINUOUS
62
7
66
1
10
0.000
20
0.000
30
0.000
70
1
0
VERTEX
8
30
10
90.000
20
65.000
30
0.000
42
1.00000000
0
VERTEX
8
30
10
90.000
20
35.000
30
0.000
42
1.00000000
0
SEQEND
0
LINE
8
30
6
CONTINUOUS
62
7
39
1.000
10
75.000
20
50.000
30
0.000
11
105.000
21
50.000
31
0.000
0
LINE
8
30
6
CONTINUOUS
62
7
39
1.000
10
90.000
20
35.000
30
0.000
11
90.000
21
65.000
31
0.000
0
POLYLINE
8
30
6
CONTINUOUS
62
7
66
1
10
0.000
20
0.000
30
0.000
70
1
0
VERTEX
8
30
10
90.000
20
165.000
30
0.000
42
1.00000000
0
VERTEX
8
30
10
90.000
20
135.000
30
0.000
42
1.00000000
0
SEQEND
0
LINE
8
30
6
CONTINUOUS
62
7
39
1.000
10
75.000
20
150.000
30
0.000
11
105.000
21
150.000
31
0.000
0
LINE
8
30
6
CONTINUOUS
62
7
39
1.000
10
90.000
20
135.000
30
0.000
11
90.000
21
165.000
31
0.000
0
POLYLINE
8
30
6
CONTINUOUS
62
7
66
1
10
0.000
20
0.000
30
0.000
70
1
0
VERTEX
8
30
10
190.000
20
65.000
30
0.000
42
1.00000000
0
VERTEX
8
30
10
190.000
20
35.000
30
0.000
42
1.00000000
0
SEQEND
0
LINE
8
30
6
CONTINUOUS
62
7
39
1.000
10
175.000
20
50.000
30
0.000
11
205.000
21
50.000
31
0.000
0
LINE
8
30
6
CONTINUOUS
62
7
39
1.000
10
190.000
20
35.000
30
0.000
11
190.000
21
65.000
31
0.000
0
POLYLINE
8
30
6
CONTINUOUS
62
7
66
1
10
0.000
20
0.000
30
0.000
70
1
0
VERTEX
8
30
10
190.000
20
165.000
30
0.000
42
1.00000000
0
VERTEX
8
30
10
190.000
20
135.000
30
0.000
42
1.00000000
0
SEQEND
0
LINE
8
30
6
CONTINUOUS
62
7
39
1.000
10
175.000
20
150.000
30
0.000
11
205.000
21
150.000
31
0.000
0
LINE
8
30
6
CONTINUOUS
62
7
39
1.000
10
190.000
20
135.000
30
0.000
11
190.000
21
165.000
31
0.000
0
POLYLINE
8
30
6
CONTINUOUS
62
7
66
1
10
0.000
20
0.000
30
0.000
70
1
0
VERTEX
8
30
10
290.000
20
65.000
30
0.000
42
1.00000000
0
VERTEX
8
30
10
290.000
20
35.000
30
0.000
42
1.00000000
0
SEQEND
0
LINE
8
30
6
CONTINUOUS
62
7
39
1.000
10
275.000
20
50.000
30
0.000
11
305.000
21
50.000
31
0.000
0
LINE
8
30
6
CONTINUOUS
62
7
39
1.000
10
290.000
20
35.000
30
0.000
11
290.000
21
65.000
31
0.000
0
POLYLINE
8
30
6
CONTINUOUS
62
7
66
1
10
0.000
20
0.000
30
0.000
70
1
0
VERTEX
8
30
10
290.000
20
165.000
30
0.000
42
1.00000000
0
VERTEX
8
30
10
290.000
20
135.000
30
0.000
42
1.00000000
0
SEQEND
0
LINE
8
30
6
CONTINUOUS
62
7
39
1.000
10
275.000
20
150.000
30
0.000
11
305.000
21
150.000
31
0.000
0
LINE
8
30
6
CONTINUOUS
62
7
39
1.000
10
290.000
20
135.000
30
0.000
11
290.000
21
165.000
31
0.000
0
ENDSEC
0
EOF
