0
SECTION
2
HEADER
9
$PDMODE
70
33
9
$PDSIZE
40
1.000
9
$EXTMIN
10
-222.499
20
-62.600
30
-1.000
9
$EXTMAX
10
2447.489
20
688.600
30
1.000
9
$LIMMIN
10
-222.499
20
-62.600
9
$LIMMAX
10
2447.489
20
688.600
0
ENDSEC
0
SECTION
2
TABLES
0
TABLE
2
LAYER
70
7
0
LAYER
2
SCRIBE
70
0
62
3
6
CONTINUOUS
0
LAYER
2
TEXT
70
0
62
7
6
CONTINUOUS
0
LAYER
2
CUT
70
0
62
7
6
CONTINUOUS
0
LAYER
2
22
70
0
62
7
6
CONTINUOUS
0
ENDTAB
0
TABLE
2
VPORT
70
4
0
VPORT
2
*ACTIVE
70
0
10
0.000000
20
0.000000
11
1.000000
21
1.000000
12
1112.495000
22
313.000000
13
0.000000
23
0.000000
14
1.000000
24
1.000000
15
1.000000
25
1.000000
16
0.000000
26
0.000000
36
1.000000
17
0.000000
27
0.000000
37
0.000000
40
2224.990000
41
1.500000
42
50.000000
43
0.000000
44
0.000000
50
0.000000
51
0.000000
71
0
72
100
73
1
74
1
75
0
76
0
77
0
78
0
0
ENDTAB
0
ENDSEC
0
SECTION
2
ENTITIES
0
TEXT
8
SCRIBE
62
3
10
30.000
20
30.000
30
0.000
40
10.000
1
520
0
TEXT
8
TEXT
62
7
10
30.000
20
15.000
30
0.000
40
10.000
1
4+PL5+S235JR
0
POLYLINE
8
CUT
6
CONTINUOUS
62
7
66
1
10
0.000
20
0.000
30
0.000
70
1
0
VERTEX
8
CUT
10
0.000
20
0.000
30
0.000
42
0.00000000
0
VERTEX
8
CUT
10
0.000
20
626.000
30
0.000
42
0.00000000
0
VERTEX
8
CUT
10
2224.990
20
626.000
30
0.000
42
0.00000000
0
VERTEX
8
CUT
10
2224.990
20
0.000
30
0.000
42
0.00000000
0
SEQEND
0
POLYLINE
8
22
6
CONTINUOUS
62
7
66
1
10
0.000
20
0.000
30
0.000
70
1
0
VERTEX
8
22
10
40.000
20
84.000
30
0.000
42
1.00000000
0
VERTEX
8
22
10
40.000
20
62.000
30
0.000
42
1.00000000
0
SEQEND
0
LINE
8
22
6
CONTINUOUS
62
7
39
1.000
10
29.000
20
73.000
30
0.000
11
51.000
21
73.000
31
0.000
0
LINE
8
22
6
CONTINUOUS
62
7
39
1.000
10
40.000
20
62.000
30
0.000
11
40.000
21
84.000
31
0.000
0
POLYLINE
8
22
6
CONTINUOUS
62
7
66
1
10
0.000
20
0.000
30
0.000
70
1
0
VERTEX
8
22
10
40.000
20
204.000
30
0.000
42
1.00000000
0
VERTEX
8
22
10
40.000
20
182.000
30
0.000
42
1.00000000
0
SEQEND
0
LINE
8
22
6
CONTINUOUS
62
7
39
1.000
10
29.000
20
193.000
30
0.000
11
51.000
21
193.000
31
0.000
0
LINE
8
22
6
CONTINUOUS
62
7
39
1.000
10
40.000
20
182.000
30
0.000
11
40.000
21
204.000
31
0.000
0
POLYLINE
8
22
6
CONTINUOUS
62
7
66
1
10
0.000
20
0.000
30
0.000
70
1
0
VERTEX
8
22
10
40.000
20
324.000
30
0.000
42
1.00000000
0
VERTEX
8
22
10
40.000
20
302.000
30
0.000
42
1.00000000
0
SEQEND
0
LINE
8
22
6
CONTINUOUS
62
7
39
1.000
10
29.000
20
313.000
30
0.000
11
51.000
21
313.000
31
0.000
0
LINE
8
22
6
CONTINUOUS
62
7
39
1.000
10
40.000
20
302.000
30
0.000
11
40.000
21
324.000
31
0.000
0
POLYLINE
8
22
6
CONTINUOUS
62
7
66
1
10
0.000
20
0.000
30
0.000
70
1
0
VERTEX
8
22
10
40.000
20
444.000
30
0.000
42
1.00000000
0
VERTEX
8
22
10
40.000
20
422.000
30
0.000
42
1.00000000
0
SEQEND
0
LINE
8
22
6
CONTINUOUS
62
7
39
1.000
10
29.000
20
433.000
30
0.000
11
51.000
21
433.000
31
0.000
0
LINE
8
22
6
CONTINUOUS
62
7
39
1.000
10
40.000
20
422.000
30
0.000
11
40.000
21
444.000
31
0.000
0
POLYLINE
8
22
6
CONTINUOUS
62
7
66
1
10
0.000
20
0.000
30
0.000
70
1
0
VERTEX
8
22
10
40.000
20
564.000
30
0.000
42
1.00000000
0
VERTEX
8
22
10
40.000
20
542.000
30
0.000
42
1.00000000
0
SEQEND
0
LINE
8
22
6
CONTINUOUS
62
7
39
1.000
10
29.000
20
553.000
30
0.000
11
51.000
21
553.000
31
0.000
0
LINE
8
22
6
CONTINUOUS
62
7
39
1.000
10
40.000
20
542.000
30
0.000
11
40.000
21
564.000
31
0.000
0
POLYLINE
8
22
6
CONTINUOUS
62
7
66
1
10
0.000
20
0.000
30
0.000
70
1
0
VERTEX
8
22
10
120.000
20
84.000
30
0.000
42
1.00000000
0
VERTEX
8
22
10
120.000
20
62.000
30
0.000
42
1.00000000
0
SEQEND
0
LINE
8
22
6
CONTINUOUS
62
7
39
1.000
10
109.000
20
73.000
30
0.000
11
131.000
21
73.000
31
0.000
0
LINE
8
22
6
CONTINUOUS
62
7
39
1.000
10
120.000
20
62.000
30
0.000
11
120.000
21
84.000
31
0.000
0
POLYLINE
8
22
6
CONTINUOUS
62
7
66
1
10
0.000
20
0.000
30
0.000
70
1
0
VERTEX
8
22
10
120.000
20
204.000
30
0.000
42
1.00000000
0
VERTEX
8
22
10
120.000
20
182.000
30
0.000
42
1.00000000
0
SEQEND
0
LINE
8
22
6
CONTINUOUS
62
7
39
1.000
10
109.000
20
193.000
30
0.000
11
131.000
21
193.000
31
0.000
0
LINE
8
22
6
CONTINUOUS
62
7
39
1.000
10
120.000
20
182.000
30
0.000
11
120.000
21
204.000
31
0.000
0
POLYLINE
8
22
6
CONTINUOUS
62
7
66
1
10
0.000
20
0.000
30
0.000
70
1
0
VERTEX
8
22
10
120.000
20
324.000
30
0.000
42
1.00000000
0
VERTEX
8
22
10
120.000
20
302.000
30
0.000
42
1.00000000
0
SEQEND
0
LINE
8
22
6
CONTINUOUS
62
7
39
1.000
10
109.000
20
313.000
30
0.000
11
131.000
21
313.000
31
0.000
0
LINE
8
22
6
CONTINUOUS
62
7
39
1.000
10
120.000
20
302.000
30
0.000
11
120.000
21
324.000
31
0.000
0
POLYLINE
8
22
6
CONTINUOUS
62
7
66
1
10
0.000
20
0.000
30
0.000
70
1
0
VERTEX
8
22
10
120.000
20
444.000
30
0.000
42
1.00000000
0
VERTEX
8
22
10
120.000
20
422.000
30
0.000
42
1.00000000
0
SEQEND
0
LINE
8
22
6
CONTINUOUS
62
7
39
1.000
10
109.000
20
433.000
30
0.000
11
131.000
21
433.000
31
0.000
0
LINE
8
22
6
CONTINUOUS
62
7
39
1.000
10
120.000
20
422.000
30
0.000
11
120.000
21
444.000
31
0.000
0
POLYLINE
8
22
6
CONTINUOUS
62
7
66
1
10
0.000
20
0.000
30
0.000
70
1
0
VERTEX
8
22
10
120.000
20
564.000
30
0.000
42
1.00000000
0
VERTEX
8
22
10
120.000
20
542.000
30
0.000
42
1.00000000
0
SEQEND
0
LINE
8
22
6
CONTINUOUS
62
7
39
1.000
10
109.000
20
553.000
30
0.000
11
131.000
21
553.000
31
0.000
0
LINE
8
22
6
CONTINUOUS
62
7
39
1.000
10
120.000
20
542.000
30
0.000
11
120.000
21
564.000
31
0.000
0
ENDSEC
0
EOF
