0
SECTION
2
HEADER
9
$PDMODE
70
33
9
$PDSIZE
40
1.000
9
$EXTMIN
10
-166.821
20
-45.000
30
-1.000
9
$EXTMAX
10
1835.031
20
495.000
30
1.000
9
$LIMMIN
10
-166.821
20
-45.000
9
$LIMMAX
10
1835.031
20
495.000
0
ENDSEC
0
SECTION
2
TABLES
0
TABLE
2
LAYER
70
7
0
LAYER
2
SCRIBE
70
0
62
3
6
CONTINUOUS
0
LAYER
2
TEXT
70
0
62
7
6
CONTINUOUS
0
LAYER
2
CUT
70
0
62
7
6
CONTINUOUS
0
LAYER
2
30
70
0
62
7
6
CONTINUOUS
0
ENDTAB
0
TABLE
2
VPORT
70
4
0
VPORT
2
*ACTIVE
70
0
10
0.000000
20
0.000000
11
1.000000
21
1.000000
12
834.105000
22
225.000000
13
0.000000
23
0.000000
14
1.000000
24
1.000000
15
1.000000
25
1.000000
16
0.000000
26
0.000000
36
1.000000
17
0.000000
27
0.000000
37
0.000000
40
1668.210000
41
1.500000
42
50.000000
43
0.000000
44
0.000000
50
0.000000
51
0.000000
71
0
72
100
73
1
74
1
75
0
76
0
77
0
78
0
0
ENDTAB
0
ENDSEC
0
SECTION
2
ENTITIES
0
TEXT
8
SCRIBE
62
3
10
30.000
20
30.000
30
0.000
40
10.000
1
PL185
0
TEXT
8
TEXT
62
7
10
30.000
20
15.000
30
0.000
40
10.000
1
PL30+S355JR+1
0
POLYLINE
8
CUT
6
CONTINUOUS
62
7
66
1
10
0.000
20
0.000
30
0.000
70
1
0
VERTEX
8
CUT
10
0.000
20
0.000
30
0.000
42
0.00000000
0
VERTEX
8
CUT
10
0.000
20
450.000
30
0.000
42
0.00000000
0
VERTEX
8
CUT
10
1668.210
20
450.000
30
0.000
42
0.00000000
0
VERTEX
8
CUT
10
1668.210
20
0.000
30
0.000
42
0.00000000
0
SEQEND
0
POLYLINE
8
30
6
CONTINUOUS
62
7
66
1
10
0.000
20
0.000
30
0.000
70
1
0
VERTEX
8
30
10
609.460
20
71.000
30
0.000
42
1.00000000
0
VERTEX
8
30
10
609.460
20
39.000
30
0.000
42
1.00000000
0
SEQEND
0
LINE
8
30
6
CONTINUOUS
62
7
39
1.000
10
593.460
20
55.000
30
0.000
11
625.460
21
55.000
31
0.000
0
LINE
8
30
6
CONTINUOUS
62
7
39
1.000
10
609.460
20
39.000
30
0.000
11
609.460
21
71.000
31
0.000
0
POLYLINE
8
30
6
CONTINUOUS
62
7
66
1
10
0.000
20
0.000
30
0.000
70
1
0
VERTEX
8
30
10
609.460
20
171.000
30
0.000
42
1.00000000
0
VERTEX
8
30
10
609.460
20
139.000
30
0.000
42
1.00000000
0
SEQEND
0
LINE
8
30
6
CONTINUOUS
62
7
39
1.000
10
593.460
20
155.000
30
0.000
11
625.460
21
155.000
31
0.000
0
LINE
8
30
6
CONTINUOUS
62
7
39
1.000
10
609.460
20
139.000
30
0.000
11
609.460
21
171.000
31
0.000
0
POLYLINE
8
30
6
CONTINUOUS
62
7
66
1
10
0.000
20
0.000
30
0.000
70
1
0
VERTEX
8
30
10
609.460
20
311.000
30
0.000
42
1.00000000
0
VERTEX
8
30
10
609.460
20
279.000
30
0.000
42
1.00000000
0
SEQEND
0
LINE
8
30
6
CONTINUOUS
62
7
39
1.000
10
593.460
20
295.000
30
0.000
11
625.460
21
295.000
31
0.000
0
LINE
8
30
6
CONTINUOUS
62
7
39
1.000
10
609.460
20
279.000
30
0.000
11
609.460
21
311.000
31
0.000
0
POLYLINE
8
30
6
CONTINUOUS
62
7
66
1
10
0.000
20
0.000
30
0.000
70
1
0
VERTEX
8
30
10
609.460
20
411.000
30
0.000
42
1.00000000
0
VERTEX
8
30
10
609.460
20
379.000
30
0.000
42
1.00000000
0
SEQEND
0
LINE
8
30
6
CONTINUOUS
62
7
39
1.000
10
593.460
20
395.000
30
0.000
11
625.460
21
395.000
31
0.000
0
LINE
8
30
6
CONTINUOUS
62
7
39
1.000
10
609.460
20
379.000
30
0.000
11
609.460
21
411.000
31
0.000
0
POLYLINE
8
30
6
CONTINUOUS
62
7
66
1
10
0.000
20
0.000
30
0.000
70
1
0
VERTEX
8
30
10
749.460
20
71.000
30
0.000
42
1.00000000
0
VERTEX
8
30
10
749.460
20
39.000
30
0.000
42
1.00000000
0
SEQEND
0
LINE
8
30
6
CONTINUOUS
62
7
39
1.000
10
733.460
20
55.000
30
0.000
11
765.460
21
55.000
31
0.000
0
LINE
8
30
6
CONTINUOUS
62
7
39
1.000
10
749.460
20
39.000
30
0.000
11
749.460
21
71.000
31
0.000
0
POLYLINE
8
30
6
CONTINUOUS
62
7
66
1
10
0.000
20
0.000
30
0.000
70
1
0
VERTEX
8
30
10
749.460
20
171.000
30
0.000
42
1.00000000
0
VERTEX
8
30
10
749.460
20
139.000
30
0.000
42
1.00000000
0
SEQEND
0
LINE
8
30
6
CONTINUOUS
62
7
39
1.000
10
733.460
20
155.000
30
0.000
11
765.460
21
155.000
31
0.000
0
LINE
8
30
6
CONTINUOUS
62
7
39
1.000
10
749.460
20
139.000
30
0.000
11
749.460
21
171.000
31
0.000
0
POLYLINE
8
30
6
CONTINUOUS
62
7
66
1
10
0.000
20
0.000
30
0.000
70
1
0
VERTEX
8
30
10
749.460
20
311.000
30
0.000
42
1.00000000
0
VERTEX
8
30
10
749.460
20
279.000
30
0.000
42
1.00000000
0
SEQEND
0
LINE
8
30
6
CONTINUOUS
62
7
39
1.000
10
733.460
20
295.000
30
0.000
11
765.460
21
295.000
31
0.000
0
LINE
8
30
6
CONTINUOUS
62
7
39
1.000
10
749.460
20
279.000
30
0.000
11
749.460
21
311.000
31
0.000
0
POLYLINE
8
30
6
CONTINUOUS
62
7
66
1
10
0.000
20
0.000
30
0.000
70
1
0
VERTEX
8
30
10
749.460
20
411.000
30
0.000
42
1.00000000
0
VERTEX
8
30
10
749.460
20
379.000
30
0.000
42
1.00000000
0
SEQEND
0
LINE
8
30
6
CONTINUOUS
62
7
39
1.000
10
733.460
20
395.000
30
0.000
11
765.460
21
395.000
31
0.000
0
LINE
8
30
6
CONTINUOUS
62
7
39
1.000
10
749.460
20
379.000
30
0.000
11
749.460
21
411.000
31
0.000
0
POLYLINE
8
30
6
CONTINUOUS
62
7
66
1
10
0.000
20
0.000
30
0.000
70
1
0
VERTEX
8
30
10
869.460
20
71.000
30
0.000
42
1.00000000
0
VERTEX
8
30
10
869.460
20
39.000
30
0.000
42
1.00000000
0
SEQEND
0
LINE
8
30
6
CONTINUOUS
62
7
39
1.000
10
853.460
20
55.000
30
0.000
11
885.460
21
55.000
31
0.000
0
LINE
8
30
6
CONTINUOUS
62
7
39
1.000
10
869.460
20
39.000
30
0.000
11
869.460
21
71.000
31
0.000
0
POLYLINE
8
30
6
CONTINUOUS
62
7
66
1
10
0.000
20
0.000
30
0.000
70
1
0
VERTEX
8
30
10
869.460
20
171.000
30
0.000
42
1.00000000
0
VERTEX
8
30
10
869.460
20
139.000
30
0.000
42
1.00000000
0
SEQEND
0
LINE
8
30
6
CONTINUOUS
62
7
39
1.000
10
853.460
20
155.000
30
0.000
11
885.460
21
155.000
31
0.000
0
LINE
8
30
6
CONTINUOUS
62
7
39
1.000
10
869.460
20
139.000
30
0.000
11
869.460
21
171.000
31
0.000
0
POLYLINE
8
30
6
CONTINUOUS
62
7
66
1
10
0.000
20
0.000
30
0.000
70
1
0
VERTEX
8
30
10
869.460
20
311.000
30
0.000
42
1.00000000
0
VERTEX
8
30
10
869.460
20
279.000
30
0.000
42
1.00000000
0
SEQEND
0
LINE
8
30
6
CONTINUOUS
62
7
39
1.000
10
853.460
20
295.000
30
0.000
11
885.460
21
295.000
31
0.000
0
LINE
8
30
6
CONTINUOUS
62
7
39
1.000
10
869.460
20
279.000
30
0.000
11
869.460
21
311.000
31
0.000
0
POLYLINE
8
30
6
CONTINUOUS
62
7
66
1
10
0.000
20
0.000
30
0.000
70
1
0
VERTEX
8
30
10
869.460
20
411.000
30
0.000
42
1.00000000
0
VERTEX
8
30
10
869.460
20
379.000
30
0.000
42
1.00000000
0
SEQEND
0
LINE
8
30
6
CONTINUOUS
62
7
39
1.000
10
853.460
20
395.000
30
0.000
11
885.460
21
395.000
31
0.000
0
LINE
8
30
6
CONTINUOUS
62
7
39
1.000
10
869.460
20
379.000
30
0.000
11
869.460
21
411.000
31
0.000
0
POLYLINE
8
30
6
CONTINUOUS
62
7
66
1
10
0.000
20
0.000
30
0.000
70
1
0
VERTEX
8
30
10
989.460
20
71.000
30
0.000
42
1.00000000
0
VERTEX
8
30
10
989.460
20
39.000
30
0.000
42
1.00000000
0
SEQEND
0
LINE
8
30
6
CONTINUOUS
62
7
39
1.000
10
973.460
20
55.000
30
0.000
11
1005.460
21
55.000
31
0.000
0
LINE
8
30
6
CONTINUOUS
62
7
39
1.000
10
989.460
20
39.000
30
0.000
11
989.460
21
71.000
31
0.000
0
POLYLINE
8
30
6
CONTINUOUS
62
7
66
1
10
0.000
20
0.000
30
0.000
70
1
0
VERTEX
8
30
10
989.460
20
171.000
30
0.000
42
1.00000000
0
VERTEX
8
30
10
989.460
20
139.000
30
0.000
42
1.00000000
0
SEQEND
0
LINE
8
30
6
CONTINUOUS
62
7
39
1.000
10
973.460
20
155.000
30
0.000
11
1005.460
21
155.000
31
0.000
0
LINE
8
30
6
CONTINUOUS
62
7
39
1.000
10
989.460
20
139.000
30
0.000
11
989.460
21
171.000
31
0.000
0
POLYLINE
8
30
6
CONTINUOUS
62
7
66
1
10
0.000
20
0.000
30
0.000
70
1
0
VERTEX
8
30
10
989.460
20
311.000
30
0.000
42
1.00000000
0
VERTEX
8
30
10
989.460
20
279.000
30
0.000
42
1.00000000
0
SEQEND
0
LINE
8
30
6
CONTINUOUS
62
7
39
1.000
10
973.460
20
295.000
30
0.000
11
1005.460
21
295.000
31
0.000
0
LINE
8
30
6
CONTINUOUS
62
7
39
1.000
10
989.460
20
279.000
30
0.000
11
989.460
21
311.000
31
0.000
0
POLYLINE
8
30
6
CONTINUOUS
62
7
66
1
10
0.000
20
0.000
30
0.000
70
1
0
VERTEX
8
30
10
989.460
20
411.000
30
0.000
42
1.00000000
0
VERTEX
8
30
10
989.460
20
379.000
30
0.000
42
1.00000000
0
SEQEND
0
LINE
8
30
6
CONTINUOUS
62
7
39
1.000
10
973.460
20
395.000
30
0.000
11
1005.460
21
395.000
31
0.000
0
LINE
8
30
6
CONTINUOUS
62
7
39
1.000
10
989.460
20
379.000
30
0.000
11
989.460
21
411.000
31
0.000
0
POLYLINE
8
30
6
CONTINUOUS
62
7
66
1
10
0.000
20
0.000
30
0.000
70
1
0
VERTEX
8
30
10
1228.210
20
71.000
30
0.000
42
1.00000000
0
VERTEX
8
30
10
1228.210
20
39.000
30
0.000
42
1.00000000
0
SEQEND
0
LINE
8
30
6
CONTINUOUS
62
7
39
1.000
10
1212.210
20
55.000
30
0.000
11
1244.210
21
55.000
31
0.000
0
LINE
8
30
6
CONTINUOUS
62
7
39
1.000
10
1228.210
20
39.000
30
0.000
11
1228.210
21
71.000
31
0.000
0
POLYLINE
8
30
6
CONTINUOUS
62
7
66
1
10
0.000
20
0.000
30
0.000
70
1
0
VERTEX
8
30
10
1228.210
20
171.000
30
0.000
42
1.00000000
0
VERTEX
8
30
10
1228.210
20
139.000
30
0.000
42
1.00000000
0
SEQEND
0
LINE
8
30
6
CONTINUOUS
62
7
39
1.000
10
1212.210
20
155.000
30
0.000
11
1244.210
21
155.000
31
0.000
0
LINE
8
30
6
CONTINUOUS
62
7
39
1.000
10
1228.210
20
139.000
30
0.000
11
1228.210
21
171.000
31
0.000
0
POLYLINE
8
30
6
CONTINUOUS
62
7
66
1
10
0.000
20
0.000
30
0.000
70
1
0
VERTEX
8
30
10
1228.210
20
311.000
30
0.000
42
1.00000000
0
VERTEX
8
30
10
1228.210
20
279.000
30
0.000
42
1.00000000
0
SEQEND
0
LINE
8
30
6
CONTINUOUS
62
7
39
1.000
10
1212.210
20
295.000
30
0.000
11
1244.210
21
295.000
31
0.000
0
LINE
8
30
6
CONTINUOUS
62
7
39
1.000
10
1228.210
20
279.000
30
0.000
11
1228.210
21
311.000
31
0.000
0
POLYLINE
8
30
6
CONTINUOUS
62
7
66
1
10
0.000
20
0.000
30
0.000
70
1
0
VERTEX
8
30
10
1228.210
20
411.000
30
0.000
42
1.00000000
0
VERTEX
8
30
10
1228.210
20
379.000
30
0.000
42
1.00000000
0
SEQEND
0
LINE
8
30
6
CONTINUOUS
62
7
39
1.000
10
1212.210
20
395.000
30
0.000
11
1244.210
21
395.000
31
0.000
0
LINE
8
30
6
CONTINUOUS
62
7
39
1.000
10
1228.210
20
379.000
30
0.000
11
1228.210
21
411.000
31
0.000
0
POLYLINE
8
30
6
CONTINUOUS
62
7
66
1
10
0.000
20
0.000
30
0.000
70
1
0
VERTEX
8
30
10
1348.210
20
71.000
30
0.000
42
1.00000000
0
VERTEX
8
30
10
1348.210
20
39.000
30
0.000
42
1.00000000
0
SEQEND
0
LINE
8
30
6
CONTINUOUS
62
7
39
1.000
10
1332.210
20
55.000
30
0.000
11
1364.210
21
55.000
31
0.000
0
LINE
8
30
6
CONTINUOUS
62
7
39
1.000
10
1348.210
20
39.000
30
0.000
11
1348.210
21
71.000
31
0.000
0
POLYLINE
8
30
6
CONTINUOUS
62
7
66
1
10
0.000
20
0.000
30
0.000
70
1
0
VERTEX
8
30
10
1348.210
20
171.000
30
0.000
42
1.00000000
0
VERTEX
8
30
10
1348.210
20
139.000
30
0.000
42
1.00000000
0
SEQEND
0
LINE
8
30
6
CONTINUOUS
62
7
39
1.000
10
1332.210
20
155.000
30
0.000
11
1364.210
21
155.000
31
0.000
0
LINE
8
30
6
CONTINUOUS
62
7
39
1.000
10
1348.210
20
139.000
30
0.000
11
1348.210
21
171.000
31
0.000
0
POLYLINE
8
30
6
CONTINUOUS
62
7
66
1
10
0.000
20
0.000
30
0.000
70
1
0
VERTEX
8
30
10
1348.210
20
311.000
30
0.000
42
1.00000000
0
VERTEX
8
30
10
1348.210
20
279.000
30
0.000
42
1.00000000
0
SEQEND
0
LINE
8
30
6
CONTINUOUS
62
7
39
1.000
10
1332.210
20
295.000
30
0.000
11
1364.210
21
295.000
31
0.000
0
LINE
8
30
6
CONTINUOUS
62
7
39
1.000
10
1348.210
20
279.000
30
0.000
11
1348.210
21
311.000
31
0.000
0
POLYLINE
8
30
6
CONTINUOUS
62
7
66
1
10
0.000
20
0.000
30
0.000
70
1
0
VERTEX
8
30
10
1348.210
20
411.000
30
0.000
42
1.00000000
0
VERTEX
8
30
10
1348.210
20
379.000
30
0.000
42
1.00000000
0
SEQEND
0
LINE
8
30
6
CONTINUOUS
62
7
39
1.000
10
1332.210
20
395.000
30
0.000
11
1364.210
21
395.000
31
0.000
0
LINE
8
30
6
CONTINUOUS
62
7
39
1.000
10
1348.210
20
379.000
30
0.000
11
1348.210
21
411.000
31
0.000
0
POLYLINE
8
30
6
CONTINUOUS
62
7
66
1
10
0.000
20
0.000
30
0.000
70
1
0
VERTEX
8
30
10
1468.210
20
71.000
30
0.000
42
1.00000000
0
VERTEX
8
30
10
1468.210
20
39.000
30
0.000
42
1.00000000
0
SEQEND
0
LINE
8
30
6
CONTINUOUS
62
7
39
1.000
10
1452.210
20
55.000
30
0.000
11
1484.210
21
55.000
31
0.000
0
LINE
8
30
6
CONTINUOUS
62
7
39
1.000
10
1468.210
20
39.000
30
0.000
11
1468.210
21
71.000
31
0.000
0
POLYLINE
8
30
6
CONTINUOUS
62
7
66
1
10
0.000
20
0.000
30
0.000
70
1
0
VERTEX
8
30
10
1468.210
20
171.000
30
0.000
42
1.00000000
0
VERTEX
8
30
10
1468.210
20
139.000
30
0.000
42
1.00000000
0
SEQEND
0
LINE
8
30
6
CONTINUOUS
62
7
39
1.000
10
1452.210
20
155.000
30
0.000
11
1484.210
21
155.000
31
0.000
0
LINE
8
30
6
CONTINUOUS
62
7
39
1.000
10
1468.210
20
139.000
30
0.000
11
1468.210
21
171.000
31
0.000
0
POLYLINE
8
30
6
CONTINUOUS
62
7
66
1
10
0.000
20
0.000
30
0.000
70
1
0
VERTEX
8
30
10
1468.210
20
311.000
30
0.000
42
1.00000000
0
VERTEX
8
30
10
1468.210
20
279.000
30
0.000
42
1.00000000
0
SEQEND
0
LINE
8
30
6
CONTINUOUS
62
7
39
1.000
10
1452.210
20
295.000
30
0.000
11
1484.210
21
295.000
31
0.000
0
LINE
8
30
6
CONTINUOUS
62
7
39
1.000
10
1468.210
20
279.000
30
0.000
11
1468.210
21
311.000
31
0.000
0
POLYLINE
8
30
6
CONTINUOUS
62
7
66
1
10
0.000
20
0.000
30
0.000
70
1
0
VERTEX
8
30
10
1468.210
20
411.000
30
0.000
42
1.00000000
0
VERTEX
8
30
10
1468.210
20
379.000
30
0.000
42
1.00000000
0
SEQEND
0
LINE
8
30
6
CONTINUOUS
62
7
39
1.000
10
1452.210
20
395.000
30
0.000
11
1484.210
21
395.000
31
0.000
0
LINE
8
30
6
CONTINUOUS
62
7
39
1.000
10
1468.210
20
379.000
30
0.000
11
1468.210
21
411.000
31
0.000
0
POLYLINE
8
30
6
CONTINUOUS
62
7
66
1
10
0.000
20
0.000
30
0.000
70
1
0
VERTEX
8
30
10
1608.210
20
71.000
30
0.000
42
1.00000000
0
VERTEX
8
30
10
1608.210
20
39.000
30
0.000
42
1.00000000
0
SEQEND
0
LINE
8
30
6
CONTINUOUS
62
7
39
1.000
10
1592.210
20
55.000
30
0.000
11
1624.210
21
55.000
31
0.000
0
LINE
8
30
6
CONTINUOUS
62
7
39
1.000
10
1608.210
20
39.000
30
0.000
11
1608.210
21
71.000
31
0.000
0
POLYLINE
8
30
6
CONTINUOUS
62
7
66
1
10
0.000
20
0.000
30
0.000
70
1
0
VERTEX
8
30
10
1608.210
20
171.000
30
0.000
42
1.00000000
0
VERTEX
8
30
10
1608.210
20
139.000
30
0.000
42
1.00000000
0
SEQEND
0
LINE
8
30
6
CONTINUOUS
62
7
39
1.000
10
1592.210
20
155.000
30
0.000
11
1624.210
21
155.000
31
0.000
0
LINE
8
30
6
CONTINUOUS
62
7
39
1.000
10
1608.210
20
139.000
30
0.000
11
1608.210
21
171.000
31
0.000
0
POLYLINE
8
30
6
CONTINUOUS
62
7
66
1
10
0.000
20
0.000
30
0.000
70
1
0
VERTEX
8
30
10
1608.210
20
311.000
30
0.000
42
1.00000000
0
VERTEX
8
30
10
1608.210
20
279.000
30
0.000
42
1.00000000
0
SEQEND
0
LINE
8
30
6
CONTINUOUS
62
7
39
1.000
10
1592.210
20
295.000
30
0.000
11
1624.210
21
295.000
31
0.000
0
LINE
8
30
6
CONTINUOUS
62
7
39
1.000
10
1608.210
20
279.000
30
0.000
11
1608.210
21
311.000
31
0.000
0
POLYLINE
8
30
6
CONTINUOUS
62
7
66
1
10
0.000
20
0.000
30
0.000
70
1
0
VERTEX
8
30
10
1608.210
20
411.000
30
0.000
42
1.00000000
0
VERTEX
8
30
10
1608.210
20
379.000
30
0.000
42
1.00000000
0
SEQEND
0
LINE
8
30
6
CONTINUOUS
62
7
39
1.000
10
1592.210
20
395.000
30
0.000
11
1624.210
21
395.000
31
0.000
0
LINE
8
30
6
CONTINUOUS
62
7
39
1.000
10
1608.210
20
379.000
30
0.000
11
1608.210
21
411.000
31
0.000
0
ENDSEC
0
EOF
