0
SECTION
2
HEADER
9
$PDMODE
70
33
9
$PDSIZE
40
1.000
9
$EXTMIN
10
-228.268
20
-40.000
30
-1.000
9
$EXTMAX
10
2510.948
20
440.000
30
1.000
9
$LIMMIN
10
-228.268
20
-40.000
9
$LIMMAX
10
2510.948
20
440.000
0
ENDSEC
0
SECTION
2
TABLES
0
TABLE
2
LAYER
70
7
0
LAYER
2
SCRIBE
70
0
62
3
6
CONTINUOUS
0
LAYER
2
TEXT
70
0
62
7
6
CONTINUOUS
0
LAYER
2
CUT
70
0
62
7
6
CONTINUOUS
0
LAYER
2
30
70
0
62
7
6
CONTINUOUS
0
ENDTAB
0
TABLE
2
VPORT
70
4
0
VPORT
2
*ACTIVE
70
0
10
0.000000
20
0.000000
11
1.000000
21
1.000000
12
1141.340000
22
200.000000
13
0.000000
23
0.000000
14
1.000000
24
1.000000
15
1.000000
25
1.000000
16
0.000000
26
0.000000
36
1.000000
17
0.000000
27
0.000000
37
0.000000
40
2282.680000
41
1.500000
42
50.000000
43
0.000000
44
0.000000
50
0.000000
51
0.000000
71
0
72
100
73
1
74
1
75
0
76
0
77
0
78
0
0
ENDTAB
0
ENDSEC
0
SECTION
2
ENTITIES
0
TEXT
8
SCRIBE
62
3
10
30.000
20
30.000
30
0.000
40
10.000
1
PL413
0
TEXT
8
TEXT
62
7
10
30.000
20
15.000
30
0.000
40
10.000
1
PL30+S355JR+5
0
POLYLINE
8
CUT
6
CONTINUOUS
62
7
66
1
10
0.000
20
0.000
30
0.000
70
1
0
VERTEX
8
CUT
10
0.000
20
0.000
30
0.000
42
0.00000000
0
VERTEX
8
CUT
10
0.000
20
400.000
30
0.000
42
0.00000000
0
VERTEX
8
CUT
10
2282.680
20
400.000
30
0.000
42
0.00000000
0
VERTEX
8
CUT
10
2282.680
20
0.000
30
0.000
42
0.00000000
0
SEQEND
0
POLYLINE
8
30
6
CONTINUOUS
62
7
66
1
10
0.000
20
0.000
30
0.000
70
1
0
VERTEX
8
30
10
781.120
20
56.000
30
0.000
42
1.00000000
0
VERTEX
8
30
10
781.120
20
24.000
30
0.000
42
1.00000000
0
SEQEND
0
LINE
8
30
6
CONTINUOUS
62
7
39
1.000
10
765.120
20
40.000
30
0.000
11
797.120
21
40.000
31
0.000
0
LINE
8
30
6
CONTINUOUS
62
7
39
1.000
10
781.120
20
24.000
30
0.000
11
781.120
21
56.000
31
0.000
0
POLYLINE
8
30
6
CONTINUOUS
62
7
66
1
10
0.000
20
0.000
30
0.000
70
1
0
VERTEX
8
30
10
781.120
20
156.000
30
0.000
42
1.00000000
0
VERTEX
8
30
10
781.120
20
124.000
30
0.000
42
1.00000000
0
SEQEND
0
LINE
8
30
6
CONTINUOUS
62
7
39
1.000
10
765.120
20
140.000
30
0.000
11
797.120
21
140.000
31
0.000
0
LINE
8
30
6
CONTINUOUS
62
7
39
1.000
10
781.120
20
124.000
30
0.000
11
781.120
21
156.000
31
0.000
0
POLYLINE
8
30
6
CONTINUOUS
62
7
66
1
10
0.000
20
0.000
30
0.000
70
1
0
VERTEX
8
30
10
781.120
20
276.000
30
0.000
42
1.00000000
0
VERTEX
8
30
10
781.120
20
244.000
30
0.000
42
1.00000000
0
SEQEND
0
LINE
8
30
6
CONTINUOUS
62
7
39
1.000
10
765.120
20
260.000
30
0.000
11
797.120
21
260.000
31
0.000
0
LINE
8
30
6
CONTINUOUS
62
7
39
1.000
10
781.120
20
244.000
30
0.000
11
781.120
21
276.000
31
0.000
0
POLYLINE
8
30
6
CONTINUOUS
62
7
66
1
10
0.000
20
0.000
30
0.000
70
1
0
VERTEX
8
30
10
781.120
20
376.000
30
0.000
42
1.00000000
0
VERTEX
8
30
10
781.120
20
344.000
30
0.000
42
1.00000000
0
SEQEND
0
LINE
8
30
6
CONTINUOUS
62
7
39
1.000
10
765.120
20
360.000
30
0.000
11
797.120
21
360.000
31
0.000
0
LINE
8
30
6
CONTINUOUS
62
7
39
1.000
10
781.120
20
344.000
30
0.000
11
781.120
21
376.000
31
0.000
0
POLYLINE
8
30
6
CONTINUOUS
62
7
66
1
10
0.000
20
0.000
30
0.000
70
1
0
VERTEX
8
30
10
921.120
20
56.000
30
0.000
42
1.00000000
0
VERTEX
8
30
10
921.120
20
24.000
30
0.000
42
1.00000000
0
SEQEND
0
LINE
8
30
6
CONTINUOUS
62
7
39
1.000
10
905.120
20
40.000
30
0.000
11
937.120
21
40.000
31
0.000
0
LINE
8
30
6
CONTINUOUS
62
7
39
1.000
10
921.120
20
24.000
30
0.000
11
921.120
21
56.000
31
0.000
0
POLYLINE
8
30
6
CONTINUOUS
62
7
66
1
10
0.000
20
0.000
30
0.000
70
1
0
VERTEX
8
30
10
921.120
20
156.000
30
0.000
42
1.00000000
0
VERTEX
8
30
10
921.120
20
124.000
30
0.000
42
1.00000000
0
SEQEND
0
LINE
8
30
6
CONTINUOUS
62
7
39
1.000
10
905.120
20
140.000
30
0.000
11
937.120
21
140.000
31
0.000
0
LINE
8
30
6
CONTINUOUS
62
7
39
1.000
10
921.120
20
124.000
30
0.000
11
921.120
21
156.000
31
0.000
0
POLYLINE
8
30
6
CONTINUOUS
62
7
66
1
10
0.000
20
0.000
30
0.000
70
1
0
VERTEX
8
30
10
921.120
20
276.000
30
0.000
42
1.00000000
0
VERTEX
8
30
10
921.120
20
244.000
30
0.000
42
1.00000000
0
SEQEND
0
LINE
8
30
6
CONTINUOUS
62
7
39
1.000
10
905.120
20
260.000
30
0.000
11
937.120
21
260.000
31
0.000
0
LINE
8
30
6
CONTINUOUS
62
7
39
1.000
10
921.120
20
244.000
30
0.000
11
921.120
21
276.000
31
0.000
0
POLYLINE
8
30
6
CONTINUOUS
62
7
66
1
10
0.000
20
0.000
30
0.000
70
1
0
VERTEX
8
30
10
921.120
20
376.000
30
0.000
42
1.00000000
0
VERTEX
8
30
10
921.120
20
344.000
30
0.000
42
1.00000000
0
SEQEND
0
LINE
8
30
6
CONTINUOUS
62
7
39
1.000
10
905.120
20
360.000
30
0.000
11
937.120
21
360.000
31
0.000
0
LINE
8
30
6
CONTINUOUS
62
7
39
1.000
10
921.120
20
344.000
30
0.000
11
921.120
21
376.000
31
0.000
0
POLYLINE
8
30
6
CONTINUOUS
62
7
66
1
10
0.000
20
0.000
30
0.000
70
1
0
VERTEX
8
30
10
1041.120
20
56.000
30
0.000
42
1.00000000
0
VERTEX
8
30
10
1041.120
20
24.000
30
0.000
42
1.00000000
0
SEQEND
0
LINE
8
30
6
CONTINUOUS
62
7
39
1.000
10
1025.120
20
40.000
30
0.000
11
1057.120
21
40.000
31
0.000
0
LINE
8
30
6
CONTINUOUS
62
7
39
1.000
10
1041.120
20
24.000
30
0.000
11
1041.120
21
56.000
31
0.000
0
POLYLINE
8
30
6
CONTINUOUS
62
7
66
1
10
0.000
20
0.000
30
0.000
70
1
0
VERTEX
8
30
10
1041.120
20
156.000
30
0.000
42
1.00000000
0
VERTEX
8
30
10
1041.120
20
124.000
30
0.000
42
1.00000000
0
SEQEND
0
LINE
8
30
6
CONTINUOUS
62
7
39
1.000
10
1025.120
20
140.000
30
0.000
11
1057.120
21
140.000
31
0.000
0
LINE
8
30
6
CONTINUOUS
62
7
39
1.000
10
1041.120
20
124.000
30
0.000
11
1041.120
21
156.000
31
0.000
0
POLYLINE
8
30
6
CONTINUOUS
62
7
66
1
10
0.000
20
0.000
30
0.000
70
1
0
VERTEX
8
30
10
1041.120
20
276.000
30
0.000
42
1.00000000
0
VERTEX
8
30
10
1041.120
20
244.000
30
0.000
42
1.00000000
0
SEQEND
0
LINE
8
30
6
CONTINUOUS
62
7
39
1.000
10
1025.120
20
260.000
30
0.000
11
1057.120
21
260.000
31
0.000
0
LINE
8
30
6
CONTINUOUS
62
7
39
1.000
10
1041.120
20
244.000
30
0.000
11
1041.120
21
276.000
31
0.000
0
POLYLINE
8
30
6
CONTINUOUS
62
7
66
1
10
0.000
20
0.000
30
0.000
70
1
0
VERTEX
8
30
10
1041.120
20
376.000
30
0.000
42
1.00000000
0
VERTEX
8
30
10
1041.120
20
344.000
30
0.000
42
1.00000000
0
SEQEND
0
LINE
8
30
6
CONTINUOUS
62
7
39
1.000
10
1025.120
20
360.000
30
0.000
11
1057.120
21
360.000
31
0.000
0
LINE
8
30
6
CONTINUOUS
62
7
39
1.000
10
1041.120
20
344.000
30
0.000
11
1041.120
21
376.000
31
0.000
0
POLYLINE
8
30
6
CONTINUOUS
62
7
66
1
10
0.000
20
0.000
30
0.000
70
1
0
VERTEX
8
30
10
1161.120
20
56.000
30
0.000
42
1.00000000
0
VERTEX
8
30
10
1161.120
20
24.000
30
0.000
42
1.00000000
0
SEQEND
0
LINE
8
30
6
CONTINUOUS
62
7
39
1.000
10
1145.120
20
40.000
30
0.000
11
1177.120
21
40.000
31
0.000
0
LINE
8
30
6
CONTINUOUS
62
7
39
1.000
10
1161.120
20
24.000
30
0.000
11
1161.120
21
56.000
31
0.000
0
POLYLINE
8
30
6
CONTINUOUS
62
7
66
1
10
0.000
20
0.000
30
0.000
70
1
0
VERTEX
8
30
10
1161.120
20
156.000
30
0.000
42
1.00000000
0
VERTEX
8
30
10
1161.120
20
124.000
30
0.000
42
1.00000000
0
SEQEND
0
LINE
8
30
6
CONTINUOUS
62
7
39
1.000
10
1145.120
20
140.000
30
0.000
11
1177.120
21
140.000
31
0.000
0
LINE
8
30
6
CONTINUOUS
62
7
39
1.000
10
1161.120
20
124.000
30
0.000
11
1161.120
21
156.000
31
0.000
0
POLYLINE
8
30
6
CONTINUOUS
62
7
66
1
10
0.000
20
0.000
30
0.000
70
1
0
VERTEX
8
30
10
1161.120
20
276.000
30
0.000
42
1.00000000
0
VERTEX
8
30
10
1161.120
20
244.000
30
0.000
42
1.00000000
0
SEQEND
0
LINE
8
30
6
CONTINUOUS
62
7
39
1.000
10
1145.120
20
260.000
30
0.000
11
1177.120
21
260.000
31
0.000
0
LINE
8
30
6
CONTINUOUS
62
7
39
1.000
10
1161.120
20
244.000
30
0.000
11
1161.120
21
276.000
31
0.000
0
POLYLINE
8
30
6
CONTINUOUS
62
7
66
1
10
0.000
20
0.000
30
0.000
70
1
0
VERTEX
8
30
10
1161.120
20
376.000
30
0.000
42
1.00000000
0
VERTEX
8
30
10
1161.120
20
344.000
30
0.000
42
1.00000000
0
SEQEND
0
LINE
8
30
6
CONTINUOUS
62
7
39
1.000
10
1145.120
20
360.000
30
0.000
11
1177.120
21
360.000
31
0.000
0
LINE
8
30
6
CONTINUOUS
62
7
39
1.000
10
1161.120
20
344.000
30
0.000
11
1161.120
21
376.000
31
0.000
0
POLYLINE
8
30
6
CONTINUOUS
62
7
66
1
10
0.000
20
0.000
30
0.000
70
1
0
VERTEX
8
30
10
1435.920
20
56.000
30
0.000
42
1.00000000
0
VERTEX
8
30
10
1435.920
20
24.000
30
0.000
42
1.00000000
0
SEQEND
0
LINE
8
30
6
CONTINUOUS
62
7
39
1.000
10
1419.920
20
40.000
30
0.000
11
1451.920
21
40.000
31
0.000
0
LINE
8
30
6
CONTINUOUS
62
7
39
1.000
10
1435.920
20
24.000
30
0.000
11
1435.920
21
56.000
31
0.000
0
POLYLINE
8
30
6
CONTINUOUS
62
7
66
1
10
0.000
20
0.000
30
0.000
70
1
0
VERTEX
8
30
10
1435.920
20
156.000
30
0.000
42
1.00000000
0
VERTEX
8
30
10
1435.920
20
124.000
30
0.000
42
1.00000000
0
SEQEND
0
LINE
8
30
6
CONTINUOUS
62
7
39
1.000
10
1419.920
20
140.000
30
0.000
11
1451.920
21
140.000
31
0.000
0
LINE
8
30
6
CONTINUOUS
62
7
39
1.000
10
1435.920
20
124.000
30
0.000
11
1435.920
21
156.000
31
0.000
0
POLYLINE
8
30
6
CONTINUOUS
62
7
66
1
10
0.000
20
0.000
30
0.000
70
1
0
VERTEX
8
30
10
1435.920
20
276.000
30
0.000
42
1.00000000
0
VERTEX
8
30
10
1435.920
20
244.000
30
0.000
42
1.00000000
0
SEQEND
0
LINE
8
30
6
CONTINUOUS
62
7
39
1.000
10
1419.920
20
260.000
30
0.000
11
1451.920
21
260.000
31
0.000
0
LINE
8
30
6
CONTINUOUS
62
7
39
1.000
10
1435.920
20
244.000
30
0.000
11
1435.920
21
276.000
31
0.000
0
POLYLINE
8
30
6
CONTINUOUS
62
7
66
1
10
0.000
20
0.000
30
0.000
70
1
0
VERTEX
8
30
10
1435.920
20
376.000
30
0.000
42
1.00000000
0
VERTEX
8
30
10
1435.920
20
344.000
30
0.000
42
1.00000000
0
SEQEND
0
LINE
8
30
6
CONTINUOUS
62
7
39
1.000
10
1419.920
20
360.000
30
0.000
11
1451.920
21
360.000
31
0.000
0
LINE
8
30
6
CONTINUOUS
62
7
39
1.000
10
1435.920
20
344.000
30
0.000
11
1435.920
21
376.000
31
0.000
0
POLYLINE
8
30
6
CONTINUOUS
62
7
66
1
10
0.000
20
0.000
30
0.000
70
1
0
VERTEX
8
30
10
1555.920
20
56.000
30
0.000
42
1.00000000
0
VERTEX
8
30
10
1555.920
20
24.000
30
0.000
42
1.00000000
0
SEQEND
0
LINE
8
30
6
CONTINUOUS
62
7
39
1.000
10
1539.920
20
40.000
30
0.000
11
1571.920
21
40.000
31
0.000
0
LINE
8
30
6
CONTINUOUS
62
7
39
1.000
10
1555.920
20
24.000
30
0.000
11
1555.920
21
56.000
31
0.000
0
POLYLINE
8
30
6
CONTINUOUS
62
7
66
1
10
0.000
20
0.000
30
0.000
70
1
0
VERTEX
8
30
10
1555.920
20
156.000
30
0.000
42
1.00000000
0
VERTEX
8
30
10
1555.920
20
124.000
30
0.000
42
1.00000000
0
SEQEND
0
LINE
8
30
6
CONTINUOUS
62
7
39
1.000
10
1539.920
20
140.000
30
0.000
11
1571.920
21
140.000
31
0.000
0
LINE
8
30
6
CONTINUOUS
62
7
39
1.000
10
1555.920
20
124.000
30
0.000
11
1555.920
21
156.000
31
0.000
0
POLYLINE
8
30
6
CONTINUOUS
62
7
66
1
10
0.000
20
0.000
30
0.000
70
1
0
VERTEX
8
30
10
1555.920
20
276.000
30
0.000
42
1.00000000
0
VERTEX
8
30
10
1555.920
20
244.000
30
0.000
42
1.00000000
0
SEQEND
0
LINE
8
30
6
CONTINUOUS
62
7
39
1.000
10
1539.920
20
260.000
30
0.000
11
1571.920
21
260.000
31
0.000
0
LINE
8
30
6
CONTINUOUS
62
7
39
1.000
10
1555.920
20
244.000
30
0.000
11
1555.920
21
276.000
31
0.000
0
POLYLINE
8
30
6
CONTINUOUS
62
7
66
1
10
0.000
20
0.000
30
0.000
70
1
0
VERTEX
8
30
10
1555.920
20
376.000
30
0.000
42
1.00000000
0
VERTEX
8
30
10
1555.920
20
344.000
30
0.000
42
1.00000000
0
SEQEND
0
LINE
8
30
6
CONTINUOUS
62
7
39
1.000
10
1539.920
20
360.000
30
0.000
11
1571.920
21
360.000
31
0.000
0
LINE
8
30
6
CONTINUOUS
62
7
39
1.000
10
1555.920
20
344.000
30
0.000
11
1555.920
21
376.000
31
0.000
0
POLYLINE
8
30
6
CONTINUOUS
62
7
66
1
10
0.000
20
0.000
30
0.000
70
1
0
VERTEX
8
30
10
1675.920
20
56.000
30
0.000
42
1.00000000
0
VERTEX
8
30
10
1675.920
20
24.000
30
0.000
42
1.00000000
0
SEQEND
0
LINE
8
30
6
CONTINUOUS
62
7
39
1.000
10
1659.920
20
40.000
30
0.000
11
1691.920
21
40.000
31
0.000
0
LINE
8
30
6
CONTINUOUS
62
7
39
1.000
10
1675.920
20
24.000
30
0.000
11
1675.920
21
56.000
31
0.000
0
POLYLINE
8
30
6
CONTINUOUS
62
7
66
1
10
0.000
20
0.000
30
0.000
70
1
0
VERTEX
8
30
10
1675.920
20
156.000
30
0.000
42
1.00000000
0
VERTEX
8
30
10
1675.920
20
124.000
30
0.000
42
1.00000000
0
SEQEND
0
LINE
8
30
6
CONTINUOUS
62
7
39
1.000
10
1659.920
20
140.000
30
0.000
11
1691.920
21
140.000
31
0.000
0
LINE
8
30
6
CONTINUOUS
62
7
39
1.000
10
1675.920
20
124.000
30
0.000
11
1675.920
21
156.000
31
0.000
0
POLYLINE
8
30
6
CONTINUOUS
62
7
66
1
10
0.000
20
0.000
30
0.000
70
1
0
VERTEX
8
30
10
1675.920
20
276.000
30
0.000
42
1.00000000
0
VERTEX
8
30
10
1675.920
20
244.000
30
0.000
42
1.00000000
0
SEQEND
0
LINE
8
30
6
CONTINUOUS
62
7
39
1.000
10
1659.920
20
260.000
30
0.000
11
1691.920
21
260.000
31
0.000
0
LINE
8
30
6
CONTINUOUS
62
7
39
1.000
10
1675.920
20
244.000
30
0.000
11
1675.920
21
276.000
31
0.000
0
POLYLINE
8
30
6
CONTINUOUS
62
7
66
1
10
0.000
20
0.000
30
0.000
70
1
0
VERTEX
8
30
10
1675.920
20
376.000
30
0.000
42
1.00000000
0
VERTEX
8
30
10
1675.920
20
344.000
30
0.000
42
1.00000000
0
SEQEND
0
LINE
8
30
6
CONTINUOUS
62
7
39
1.000
10
1659.920
20
360.000
30
0.000
11
1691.920
21
360.000
31
0.000
0
LINE
8
30
6
CONTINUOUS
62
7
39
1.000
10
1675.920
20
344.000
30
0.000
11
1675.920
21
376.000
31
0.000
0
POLYLINE
8
30
6
CONTINUOUS
62
7
66
1
10
0.000
20
0.000
30
0.000
70
1
0
VERTEX
8
30
10
1815.920
20
56.000
30
0.000
42
1.00000000
0
VERTEX
8
30
10
1815.920
20
24.000
30
0.000
42
1.00000000
0
SEQEND
0
LINE
8
30
6
CONTINUOUS
62
7
39
1.000
10
1799.920
20
40.000
30
0.000
11
1831.920
21
40.000
31
0.000
0
LINE
8
30
6
CONTINUOUS
62
7
39
1.000
10
1815.920
20
24.000
30
0.000
11
1815.920
21
56.000
31
0.000
0
POLYLINE
8
30
6
CONTINUOUS
62
7
66
1
10
0.000
20
0.000
30
0.000
70
1
0
VERTEX
8
30
10
1815.920
20
156.000
30
0.000
42
1.00000000
0
VERTEX
8
30
10
1815.920
20
124.000
30
0.000
42
1.00000000
0
SEQEND
0
LINE
8
30
6
CONTINUOUS
62
7
39
1.000
10
1799.920
20
140.000
30
0.000
11
1831.920
21
140.000
31
0.000
0
LINE
8
30
6
CONTINUOUS
62
7
39
1.000
10
1815.920
20
124.000
30
0.000
11
1815.920
21
156.000
31
0.000
0
POLYLINE
8
30
6
CONTINUOUS
62
7
66
1
10
0.000
20
0.000
30
0.000
70
1
0
VERTEX
8
30
10
1815.920
20
276.000
30
0.000
42
1.00000000
0
VERTEX
8
30
10
1815.920
20
244.000
30
0.000
42
1.00000000
0
SEQEND
0
LINE
8
30
6
CONTINUOUS
62
7
39
1.000
10
1799.920
20
260.000
30
0.000
11
1831.920
21
260.000
31
0.000
0
LINE
8
30
6
CONTINUOUS
62
7
39
1.000
10
1815.920
20
244.000
30
0.000
11
1815.920
21
276.000
31
0.000
0
POLYLINE
8
30
6
CONTINUOUS
62
7
66
1
10
0.000
20
0.000
30
0.000
70
1
0
VERTEX
8
30
10
1815.920
20
376.000
30
0.000
42
1.00000000
0
VERTEX
8
30
10
1815.920
20
344.000
30
0.000
42
1.00000000
0
SEQEND
0
LINE
8
30
6
CONTINUOUS
62
7
39
1.000
10
1799.920
20
360.000
30
0.000
11
1831.920
21
360.000
31
0.000
0
LINE
8
30
6
CONTINUOUS
62
7
39
1.000
10
1815.920
20
344.000
30
0.000
11
1815.920
21
376.000
31
0.000
0
ENDSEC
0
EOF
