0
SECTION
2
HEADER
9
$PDMODE
70
33
9
$PDSIZE
40
1.000
9
$EXTMIN
10
-65.000
20
-20.000
30
-1.000
9
$EXTMAX
10
715.000
20
220.000
30
1.000
9
$LIMMIN
10
-65.000
20
-20.000
9
$LIMMAX
10
715.000
20
220.000
0
ENDSEC
0
SECTION
2
TABLES
0
TABLE
2
LAYER
70
7
0
LAYER
2
SCRIBE
70
0
62
3
6
CONTINUOUS
0
LAYER
2
TEXT
70
0
62
7
6
CONTINUOUS
0
LAYER
2
CUT
70
0
62
7
6
CONTINUOUS
0
LAYER
2
18
70
0
62
7
6
CONTINUOUS
0
ENDTAB
0
TABLE
2
VPORT
70
4
0
VPORT
2
*ACTIVE
70
0
10
0.000000
20
0.000000
11
1.000000
21
1.000000
12
325.000000
22
100.000000
13
0.000000
23
0.000000
14
1.000000
24
1.000000
15
1.000000
25
1.000000
16
0.000000
26
0.000000
36
1.000000
17
0.000000
27
0.000000
37
0.000000
40
650.000000
41
1.500000
42
50.000000
43
0.000000
44
0.000000
50
0.000000
51
0.000000
71
0
72
100
73
1
74
1
75
0
76
0
77
0
78
0
0
ENDTAB
0
ENDSEC
0
SECTION
2
ENTITIES
0
TEXT
8
SCRIBE
62
3
10
30.000
20
30.000
30
0.000
40
10.000
1
PL238
0
TEXT
8
TEXT
62
7
10
30.000
20
15.000
30
0.000
40
10.000
1
PLT16+S355JR+4
0
POLYLINE
8
CUT
6
CONTINUOUS
62
7
66
1
10
0.000
20
0.000
30
0.000
70
1
0
VERTEX
8
CUT
10
0.000
20
0.000
30
0.000
42
0.00000000
0
VERTEX
8
CUT
10
0.000
20
200.000
30
0.000
42
0.00000000
0
VERTEX
8
CUT
10
650.000
20
200.000
30
0.000
42
0.00000000
0
VERTEX
8
CUT
10
650.000
20
0.000
30
0.000
42
0.00000000
0
SEQEND
0
POLYLINE
8
18
6
CONTINUOUS
62
7
66
1
10
0.000
20
0.000
30
0.000
70
1
0
VERTEX
8
18
10
50.000
20
59.000
30
0.000
42
1.00000000
0
VERTEX
8
18
10
50.000
20
41.000
30
0.000
42
1.00000000
0
SEQEND
0
LINE
8
18
6
CONTINUOUS
62
7
39
1.000
10
41.000
20
50.000
30
0.000
11
59.000
21
50.000
31
0.000
0
LINE
8
18
6
CONTINUOUS
62
7
39
1.000
10
50.000
20
41.000
30
0.000
11
50.000
21
59.000
31
0.000
0
POLYLINE
8
18
6
CONTINUOUS
62
7
66
1
10
0.000
20
0.000
30
0.000
70
1
0
VERTEX
8
18
10
50.000
20
159.000
30
0.000
42
1.00000000
0
VERTEX
8
18
10
50.000
20
141.000
30
0.000
42
1.00000000
0
SEQEND
0
LINE
8
18
6
CONTINUOUS
62
7
39
1.000
10
41.000
20
150.000
30
0.000
11
59.000
21
150.000
31
0.000
0
LINE
8
18
6
CONTINUOUS
62
7
39
1.000
10
50.000
20
141.000
30
0.000
11
50.000
21
159.000
31
0.000
0
POLYLINE
8
18
6
CONTINUOUS
62
7
66
1
10
0.000
20
0.000
30
0.000
70
1
0
VERTEX
8
18
10
170.000
20
59.000
30
0.000
42
1.00000000
0
VERTEX
8
18
10
170.000
20
41.000
30
0.000
42
1.00000000
0
SEQEND
0
LINE
8
18
6
CONTINUOUS
62
7
39
1.000
10
161.000
20
50.000
30
0.000
11
179.000
21
50.000
31
0.000
0
LINE
8
18
6
CONTINUOUS
62
7
39
1.000
10
170.000
20
41.000
30
0.000
11
170.000
21
59.000
31
0.000
0
POLYLINE
8
18
6
CONTINUOUS
62
7
66
1
10
0.000
20
0.000
30
0.000
70
1
0
VERTEX
8
18
10
170.000
20
159.000
30
0.000
42
1.00000000
0
VERTEX
8
18
10
170.000
20
141.000
30
0.000
42
1.00000000
0
SEQEND
0
LINE
8
18
6
CONTINUOUS
62
7
39
1.000
10
161.000
20
150.000
30
0.000
11
179.000
21
150.000
31
0.000
0
LINE
8
18
6
CONTINUOUS
62
7
39
1.000
10
170.000
20
141.000
30
0.000
11
170.000
21
159.000
31
0.000
0
POLYLINE
8
18
6
CONTINUOUS
62
7
66
1
10
0.000
20
0.000
30
0.000
70
1
0
VERTEX
8
18
10
325.000
20
59.000
30
0.000
42
1.00000000
0
VERTEX
8
18
10
325.000
20
41.000
30
0.000
42
1.00000000
0
SEQEND
0
LINE
8
18
6
CONTINUOUS
62
7
39
1.000
10
316.000
20
50.000
30
0.000
11
334.000
21
50.000
31
0.000
0
LINE
8
18
6
CONTINUOUS
62
7
39
1.000
10
325.000
20
41.000
30
0.000
11
325.000
21
59.000
31
0.000
0
POLYLINE
8
18
6
CONTINUOUS
62
7
66
1
10
0.000
20
0.000
30
0.000
70
1
0
VERTEX
8
18
10
325.000
20
159.000
30
0.000
42
1.00000000
0
VERTEX
8
18
10
325.000
20
141.000
30
0.000
42
1.00000000
0
SEQEND
0
LINE
8
18
6
CONTINUOUS
62
7
39
1.000
10
316.000
20
150.000
30
0.000
11
334.000
21
150.000
31
0.000
0
LINE
8
18
6
CONTINUOUS
62
7
39
1.000
10
325.000
20
141.000
30
0.000
11
325.000
21
159.000
31
0.000
0
POLYLINE
8
18
6
CONTINUOUS
62
7
66
1
10
0.000
20
0.000
30
0.000
70
1
0
VERTEX
8
18
10
480.000
20
59.000
30
0.000
42
1.00000000
0
VERTEX
8
18
10
480.000
20
41.000
30
0.000
42
1.00000000
0
SEQEND
0
LINE
8
18
6
CONTINUOUS
62
7
39
1.000
10
471.000
20
50.000
30
0.000
11
489.000
21
50.000
31
0.000
0
LINE
8
18
6
CONTINUOUS
62
7
39
1.000
10
480.000
20
41.000
30
0.000
11
480.000
21
59.000
31
0.000
0
POLYLINE
8
18
6
CONTINUOUS
62
7
66
1
10
0.000
20
0.000
30
0.000
70
1
0
VERTEX
8
18
10
480.000
20
159.000
30
0.000
42
1.00000000
0
VERTEX
8
18
10
480.000
20
141.000
30
0.000
42
1.00000000
0
SEQEND
0
LINE
8
18
6
CONTINUOUS
62
7
39
1.000
10
471.000
20
150.000
30
0.000
11
489.000
21
150.000
31
0.000
0
LINE
8
18
6
CONTINUOUS
62
7
39
1.000
10
480.000
20
141.000
30
0.000
11
480.000
21
159.000
31
0.000
0
POLYLINE
8
18
6
CONTINUOUS
62
7
66
1
10
0.000
20
0.000
30
0.000
70
1
0
VERTEX
8
18
10
600.000
20
59.000
30
0.000
42
1.00000000
0
VERTEX
8
18
10
600.000
20
41.000
30
0.000
42
1.00000000
0
SEQEND
0
LINE
8
18
6
CONTINUOUS
62
7
39
1.000
10
591.000
20
50.000
30
0.000
11
609.000
21
50.000
31
0.000
0
LINE
8
18
6
CONTINUOUS
62
7
39
1.000
10
600.000
20
41.000
30
0.000
11
600.000
21
59.000
31
0.000
0
POLYLINE
8
18
6
CONTINUOUS
62
7
66
1
10
0.000
20
0.000
30
0.000
70
1
0
VERTEX
8
18
10
600.000
20
159.000
30
0.000
42
1.00000000
0
VERTEX
8
18
10
600.000
20
141.000
30
0.000
42
1.00000000
0
SEQEND
0
LINE
8
18
6
CONTINUOUS
62
7
39
1.000
10
591.000
20
150.000
30
0.000
11
609.000
21
150.000
31
0.000
0
LINE
8
18
6
CONTINUOUS
62
7
39
1.000
10
600.000
20
141.000
30
0.000
11
600.000
21
159.000
31
0.000
0
ENDSEC
0
EOF
