0
SECTION
2
HEADER
9
$PDMODE
70
33
9
$PDSIZE
40
1.000
9
$EXTMIN
10
-366.488
20
-35.000
30
-1.000
9
$EXTMAX
10
4031.368
20
385.000
30
1.000
9
$LIMMIN
10
-366.488
20
-35.000
9
$LIMMAX
10
4031.368
20
385.000
0
ENDSEC
0
SECTION
2
TABLES
0
TABLE
2
LAYER
70
7
0
LAYER
2
SCRIBE
70
0
62
3
6
CONTINUOUS
0
LAYER
2
TEXT
70
0
62
7
6
CONTINUOUS
0
LAYER
2
CUT
70
0
62
7
6
CONTINUOUS
0
LAYER
2
18
70
0
62
7
6
CONTINUOUS
0
ENDTAB
0
TABLE
2
VPORT
70
4
0
VPORT
2
*ACTIVE
70
0
10
0.000000
20
0.000000
11
1.000000
21
1.000000
12
1832.440000
22
175.000000
13
0.000000
23
0.000000
14
1.000000
24
1.000000
15
1.000000
25
1.000000
16
0.000000
26
0.000000
36
1.000000
17
0.000000
27
0.000000
37
0.000000
40
3664.880000
41
1.500000
42
50.000000
43
0.000000
44
0.000000
50
0.000000
51
0.000000
71
0
72
100
73
1
74
1
75
0
76
0
77
0
78
0
0
ENDTAB
0
ENDSEC
0
SECTION
2
ENTITIES
0
TEXT
8
SCRIBE
62
3
10
30.000
20
30.000
30
0.000
40
10.000
1
OF222
0
TEXT
8
TEXT
62
7
10
30.000
20
15.000
30
0.000
40
10.000
1
PL15+S355JR+5
0
POLYLINE
8
CUT
6
CONTINUOUS
62
7
66
1
10
0.000
20
0.000
30
0.000
70
1
0
VERTEX
8
CUT
10
0.000
20
0.000
30
0.000
42
0.00000000
0
VERTEX
8
CUT
10
0.000
20
350.000
30
0.000
42
0.00000000
0
VERTEX
8
CUT
10
3664.880
20
350.000
30
0.000
42
0.00000000
0
VERTEX
8
CUT
10
3664.880
20
0.000
30
0.000
42
0.00000000
0
SEQEND
0
POLYLINE
8
18
6
CONTINUOUS
62
7
66
1
10
0.000
20
0.000
30
0.000
70
1
0
VERTEX
8
18
10
574.950
20
144.000
30
0.000
42
1.00000000
0
VERTEX
8
18
10
574.950
20
126.000
30
0.000
42
1.00000000
0
SEQEND
0
LINE
8
18
6
CONTINUOUS
62
7
39
1.000
10
565.950
20
135.000
30
0.000
11
583.950
21
135.000
31
0.000
0
LINE
8
18
6
CONTINUOUS
62
7
39
1.000
10
574.950
20
126.000
30
0.000
11
574.950
21
144.000
31
0.000
0
POLYLINE
8
18
6
CONTINUOUS
62
7
66
1
10
0.000
20
0.000
30
0.000
70
1
0
VERTEX
8
18
10
574.950
20
224.000
30
0.000
42
1.00000000
0
VERTEX
8
18
10
574.950
20
206.000
30
0.000
42
1.00000000
0
SEQEND
0
LINE
8
18
6
CONTINUOUS
62
7
39
1.000
10
565.950
20
215.000
30
0.000
11
583.950
21
215.000
31
0.000
0
LINE
8
18
6
CONTINUOUS
62
7
39
1.000
10
574.950
20
206.000
30
0.000
11
574.950
21
224.000
31
0.000
0
POLYLINE
8
18
6
CONTINUOUS
62
7
66
1
10
0.000
20
0.000
30
0.000
70
1
0
VERTEX
8
18
10
654.950
20
144.000
30
0.000
42
1.00000000
0
VERTEX
8
18
10
654.950
20
126.000
30
0.000
42
1.00000000
0
SEQEND
0
LINE
8
18
6
CONTINUOUS
62
7
39
1.000
10
645.950
20
135.000
30
0.000
11
663.950
21
135.000
31
0.000
0
LINE
8
18
6
CONTINUOUS
62
7
39
1.000
10
654.950
20
126.000
30
0.000
11
654.950
21
144.000
31
0.000
0
POLYLINE
8
18
6
CONTINUOUS
62
7
66
1
10
0.000
20
0.000
30
0.000
70
1
0
VERTEX
8
18
10
654.950
20
224.000
30
0.000
42
1.00000000
0
VERTEX
8
18
10
654.950
20
206.000
30
0.000
42
1.00000000
0
SEQEND
0
LINE
8
18
6
CONTINUOUS
62
7
39
1.000
10
645.950
20
215.000
30
0.000
11
663.950
21
215.000
31
0.000
0
LINE
8
18
6
CONTINUOUS
62
7
39
1.000
10
654.950
20
206.000
30
0.000
11
654.950
21
224.000
31
0.000
0
POLYLINE
8
18
6
CONTINUOUS
62
7
66
1
10
0.000
20
0.000
30
0.000
70
1
0
VERTEX
8
18
10
1974.950
20
144.000
30
0.000
42
1.00000000
0
VERTEX
8
18
10
1974.950
20
126.000
30
0.000
42
1.00000000
0
SEQEND
0
LINE
8
18
6
CONTINUOUS
62
7
39
1.000
10
1965.950
20
135.000
30
0.000
11
1983.950
21
135.000
31
0.000
0
LINE
8
18
6
CONTINUOUS
62
7
39
1.000
10
1974.950
20
126.000
30
0.000
11
1974.950
21
144.000
31
0.000
0
POLYLINE
8
18
6
CONTINUOUS
62
7
66
1
10
0.000
20
0.000
30
0.000
70
1
0
VERTEX
8
18
10
1974.950
20
224.000
30
0.000
42
1.00000000
0
VERTEX
8
18
10
1974.950
20
206.000
30
0.000
42
1.00000000
0
SEQEND
0
LINE
8
18
6
CONTINUOUS
62
7
39
1.000
10
1965.950
20
215.000
30
0.000
11
1983.950
21
215.000
31
0.000
0
LINE
8
18
6
CONTINUOUS
62
7
39
1.000
10
1974.950
20
206.000
30
0.000
11
1974.950
21
224.000
31
0.000
0
POLYLINE
8
18
6
CONTINUOUS
62
7
66
1
10
0.000
20
0.000
30
0.000
70
1
0
VERTEX
8
18
10
2054.950
20
144.000
30
0.000
42
1.00000000
0
VERTEX
8
18
10
2054.950
20
126.000
30
0.000
42
1.00000000
0
SEQEND
0
LINE
8
18
6
CONTINUOUS
62
7
39
1.000
10
2045.950
20
135.000
30
0.000
11
2063.950
21
135.000
31
0.000
0
LINE
8
18
6
CONTINUOUS
62
7
39
1.000
10
2054.950
20
126.000
30
0.000
11
2054.950
21
144.000
31
0.000
0
POLYLINE
8
18
6
CONTINUOUS
62
7
66
1
10
0.000
20
0.000
30
0.000
70
1
0
VERTEX
8
18
10
2054.950
20
224.000
30
0.000
42
1.00000000
0
VERTEX
8
18
10
2054.950
20
206.000
30
0.000
42
1.00000000
0
SEQEND
0
LINE
8
18
6
CONTINUOUS
62
7
39
1.000
10
2045.950
20
215.000
30
0.000
11
2063.950
21
215.000
31
0.000
0
LINE
8
18
6
CONTINUOUS
62
7
39
1.000
10
2054.950
20
206.000
30
0.000
11
2054.950
21
224.000
31
0.000
0
POLYLINE
8
18
6
CONTINUOUS
62
7
66
1
10
0.000
20
0.000
30
0.000
70
1
0
VERTEX
8
18
10
3034.950
20
144.000
30
0.000
42
1.00000000
0
VERTEX
8
18
10
3034.950
20
126.000
30
0.000
42
1.00000000
0
SEQEND
0
LINE
8
18
6
CONTINUOUS
62
7
39
1.000
10
3025.950
20
135.000
30
0.000
11
3043.950
21
135.000
31
0.000
0
LINE
8
18
6
CONTINUOUS
62
7
39
1.000
10
3034.950
20
126.000
30
0.000
11
3034.950
21
144.000
31
0.000
0
POLYLINE
8
18
6
CONTINUOUS
62
7
66
1
10
0.000
20
0.000
30
0.000
70
1
0
VERTEX
8
18
10
3034.950
20
224.000
30
0.000
42
1.00000000
0
VERTEX
8
18
10
3034.950
20
206.000
30
0.000
42
1.00000000
0
SEQEND
0
LINE
8
18
6
CONTINUOUS
62
7
39
1.000
10
3025.950
20
215.000
30
0.000
11
3043.950
21
215.000
31
0.000
0
LINE
8
18
6
CONTINUOUS
62
7
39
1.000
10
3034.950
20
206.000
30
0.000
11
3034.950
21
224.000
31
0.000
0
POLYLINE
8
18
6
CONTINUOUS
62
7
66
1
10
0.000
20
0.000
30
0.000
70
1
0
VERTEX
8
18
10
3114.950
20
144.000
30
0.000
42
1.00000000
0
VERTEX
8
18
10
3114.950
20
126.000
30
0.000
42
1.00000000
0
SEQEND
0
LINE
8
18
6
CONTINUOUS
62
7
39
1.000
10
3105.950
20
135.000
30
0.000
11
3123.950
21
135.000
31
0.000
0
LINE
8
18
6
CONTINUOUS
62
7
39
1.000
10
3114.950
20
126.000
30
0.000
11
3114.950
21
144.000
31
0.000
0
POLYLINE
8
18
6
CONTINUOUS
62
7
66
1
10
0.000
20
0.000
30
0.000
70
1
0
VERTEX
8
18
10
3114.950
20
224.000
30
0.000
42
1.00000000
0
VERTEX
8
18
10
3114.950
20
206.000
30
0.000
42
1.00000000
0
SEQEND
0
LINE
8
18
6
CONTINUOUS
62
7
39
1.000
10
3105.950
20
215.000
30
0.000
11
3123.950
21
215.000
31
0.000
0
LINE
8
18
6
CONTINUOUS
62
7
39
1.000
10
3114.950
20
206.000
30
0.000
11
3114.950
21
224.000
31
0.000
0
POLYLINE
8
18
6
CONTINUOUS
62
7
66
1
10
0.000
20
0.000
30
0.000
70
1
0
VERTEX
8
18
10
3374.950
20
144.000
30
0.000
42
1.00000000
0
VERTEX
8
18
10
3374.950
20
126.000
30
0.000
42
1.00000000
0
SEQEND
0
LINE
8
18
6
CONTINUOUS
62
7
39
1.000
10
3365.950
20
135.000
30
0.000
11
3383.950
21
135.000
31
0.000
0
LINE
8
18
6
CONTINUOUS
62
7
39
1.000
10
3374.950
20
126.000
30
0.000
11
3374.950
21
144.000
31
0.000
0
POLYLINE
8
18
6
CONTINUOUS
62
7
66
1
10
0.000
20
0.000
30
0.000
70
1
0
VERTEX
8
18
10
3374.950
20
224.000
30
0.000
42
1.00000000
0
VERTEX
8
18
10
3374.950
20
206.000
30
0.000
42
1.00000000
0
SEQEND
0
LINE
8
18
6
CONTINUOUS
62
7
39
1.000
10
3365.950
20
215.000
30
0.000
11
3383.950
21
215.000
31
0.000
0
LINE
8
18
6
CONTINUOUS
62
7
39
1.000
10
3374.950
20
206.000
30
0.000
11
3374.950
21
224.000
31
0.000
0
POLYLINE
8
18
6
CONTINUOUS
62
7
66
1
10
0.000
20
0.000
30
0.000
70
1
0
VERTEX
8
18
10
3454.950
20
144.000
30
0.000
42
1.00000000
0
VERTEX
8
18
10
3454.950
20
126.000
30
0.000
42
1.00000000
0
SEQEND
0
LINE
8
18
6
CONTINUOUS
62
7
39
1.000
10
3445.950
20
135.000
30
0.000
11
3463.950
21
135.000
31
0.000
0
LINE
8
18
6
CONTINUOUS
62
7
39
1.000
10
3454.950
20
126.000
30
0.000
11
3454.950
21
144.000
31
0.000
0
POLYLINE
8
18
6
CONTINUOUS
62
7
66
1
10
0.000
20
0.000
30
0.000
70
1
0
VERTEX
8
18
10
3454.950
20
224.000
30
0.000
42
1.00000000
0
VERTEX
8
18
10
3454.950
20
206.000
30
0.000
42
1.00000000
0
SEQEND
0
LINE
8
18
6
CONTINUOUS
62
7
39
1.000
10
3445.950
20
215.000
30
0.000
11
3463.950
21
215.000
31
0.000
0
LINE
8
18
6
CONTINUOUS
62
7
39
1.000
10
3454.950
20
206.000
30
0.000
11
3454.950
21
224.000
31
0.000
0
ENDSEC
0
EOF
