0
SECTION
2
HEADER
9
$PDMODE
70
33
9
$PDSIZE
40
1.000
9
$EXTMIN
10
-50.438
20
-12.500
30
-1.000
9
$EXTMAX
10
554.818
20
137.500
30
1.000
9
$LIMMIN
10
-50.438
20
-12.500
9
$LIMMAX
10
554.818
20
137.500
0
ENDSEC
0
SECTION
2
TABLES
0
TABLE
2
LAYER
70
7
0
LAYER
2
SCRIBE
70
0
62
3
6
CONTINUOUS
0
LAYER
2
TEXT
70
0
62
7
6
CONTINUOUS
0
LAYER
2
CUT
70
0
62
7
6
CONTINUOUS
0
LAYER
2
LAYOUT
70
0
62
4
6
CONTINUOUS
0
LAYER
2
22
70
0
62
7
6
CONTINUOUS
0
ENDTAB
0
TABLE
2
VPORT
70
4
0
VPORT
2
*ACTIVE
70
0
10
0.000000
20
0.000000
11
1.000000
21
1.000000
12
252.190000
22
62.500000
13
0.000000
23
0.000000
14
1.000000
24
1.000000
15
1.000000
25
1.000000
16
0.000000
26
0.000000
36
1.000000
17
0.000000
27
0.000000
37
0.000000
40
504.380000
41
1.500000
42
50.000000
43
0.000000
44
0.000000
50
0.000000
51
0.000000
71
0
72
100
73
1
74
1
75
0
76
0
77
0
78
0
0
ENDTAB
0
ENDSEC
0
SECTION
2
ENTITIES
0
TEXT
8
SCRIBE
62
3
10
30.000
20
30.000
30
0.000
40
10.000
1
PL376
0
TEXT
8
TEXT
62
7
10
30.000
20
15.000
30
0.000
40
10.000
1
PLT6+S355JR+2
0
POLYLINE
8
CUT
6
CONTINUOUS
62
7
66
1
10
0.000
20
0.000
30
0.000
70
1
0
VERTEX
8
CUT
10
0.000
20
0.000
30
0.000
42
0.00000000
0
VERTEX
8
CUT
10
0.000
20
125.000
30
0.000
42
0.00000000
0
VERTEX
8
CUT
10
504.380
20
125.000
30
0.000
42
0.00000000
0
VERTEX
8
CUT
10
504.380
20
0.000
30
0.000
42
0.00000000
0
SEQEND
0
POLYLINE
8
LAYOUT
6
CONTINUOUS
62
4
66
1
10
0.000
20
0.000
30
0.000
70
1
0
VERTEX
8
LAYOUT
10
46.000
20
21.500
30
0.000
42
-1.00000000
0
VERTEX
8
LAYOUT
10
46.000
20
43.500
30
0.000
42
0.00000000
0
VERTEX
8
LAYOUT
10
164.000
20
43.500
30
0.000
42
-1.00000000
0
VERTEX
8
LAYOUT
10
164.000
20
21.500
30
0.000
42
0.00000000
0
SEQEND
0
CIRCLE
8
22
6
CONTINUOUS
62
7
39
1.000
10
46.000
20
32.500
30
0.000
40
11.000
0
CIRCLE
8
22
6
CONTINUOUS
62
7
39
1.000
10
105.000
20
32.500
30
0.000
40
11.000
0
CIRCLE
8
22
6
CONTINUOUS
62
7
39
1.000
10
164.000
20
32.500
30
0.000
40
11.000
0
CIRCLE
8
22
6
CONTINUOUS
62
7
39
1.000
10
0.000
20
0.000
30
0.000
40
0.000
0
POLYLINE
8
LAYOUT
6
CONTINUOUS
62
4
66
1
10
0.000
20
0.000
30
0.000
70
1
0
VERTEX
8
LAYOUT
10
46.000
20
81.500
30
0.000
42
-1.00000000
0
VERTEX
8
LAYOUT
10
46.000
20
103.500
30
0.000
42
0.00000000
0
VERTEX
8
LAYOUT
10
164.000
20
103.500
30
0.000
42
-1.00000000
0
VERTEX
8
LAYOUT
10
164.000
20
81.500
30
0.000
42
0.00000000
0
SEQEND
0
CIRCLE
8
22
6
CONTINUOUS
62
7
39
1.000
10
46.000
20
92.500
30
0.000
40
11.000
0
CIRCLE
8
22
6
CONTINUOUS
62
7
39
1.000
10
105.000
20
92.500
30
0.000
40
11.000
0
CIRCLE
8
22
6
CONTINUOUS
62
7
39
1.000
10
164.000
20
92.500
30
0.000
40
11.000
0
CIRCLE
8
22
6
CONTINUOUS
62
7
39
1.000
10
0.000
20
0.000
30
0.000
40
0.000
0
POLYLINE
8
22
6
CONTINUOUS
62
7
66
1
10
0.000
20
0.000
30
0.000
70
1
0
VERTEX
8
22
10
70.000
20
43.500
30
0.000
42
1.00000000
0
VERTEX
8
22
10
70.000
20
21.500
30
0.000
42
1.00000000
0
SEQEND
0
LINE
8
22
6
CONTINUOUS
62
7
39
1.000
10
59.000
20
32.500
30
0.000
11
81.000
21
32.500
31
0.000
0
LINE
8
22
6
CONTINUOUS
62
7
39
1.000
10
70.000
20
21.500
30
0.000
11
70.000
21
43.500
31
0.000
0
POLYLINE
8
22
6
CONTINUOUS
62
7
66
1
10
0.000
20
0.000
30
0.000
70
1
0
VERTEX
8
22
10
70.000
20
103.500
30
0.000
42
1.00000000
0
VERTEX
8
22
10
70.000
20
81.500
30
0.000
42
1.00000000
0
SEQEND
0
LINE
8
22
6
CONTINUOUS
62
7
39
1.000
10
59.000
20
92.500
30
0.000
11
81.000
21
92.500
31
0.000
0
LINE
8
22
6
CONTINUOUS
62
7
39
1.000
10
70.000
20
81.500
30
0.000
11
70.000
21
103.500
31
0.000
0
POLYLINE
8
22
6
CONTINUOUS
62
7
66
1
10
0.000
20
0.000
30
0.000
70
1
0
VERTEX
8
22
10
140.000
20
43.500
30
0.000
42
1.00000000
0
VERTEX
8
22
10
140.000
20
21.500
30
0.000
42
1.00000000
0
SEQEND
0
LINE
8
22
6
CONTINUOUS
62
7
39
1.000
10
129.000
20
32.500
30
0.000
11
151.000
21
32.500
31
0.000
0
LINE
8
22
6
CONTINUOUS
62
7
39
1.000
10
140.000
20
21.500
30
0.000
11
140.000
21
43.500
31
0.000
0
POLYLINE
8
22
6
CONTINUOUS
62
7
66
1
10
0.000
20
0.000
30
0.000
70
1
0
VERTEX
8
22
10
140.000
20
103.500
30
0.000
42
1.00000000
0
VERTEX
8
22
10
140.000
20
81.500
30
0.000
42
1.00000000
0
SEQEND
0
LINE
8
22
6
CONTINUOUS
62
7
39
1.000
10
129.000
20
92.500
30
0.000
11
151.000
21
92.500
31
0.000
0
LINE
8
22
6
CONTINUOUS
62
7
39
1.000
10
140.000
20
81.500
30
0.000
11
140.000
21
103.500
31
0.000
0
POLYLINE
8
22
6
CONTINUOUS
62
7
66
1
10
0.000
20
0.000
30
0.000
70
1
0
VERTEX
8
22
10
454.300
20
43.500
30
0.000
42
1.00000000
0
VERTEX
8
22
10
454.300
20
21.500
30
0.000
42
1.00000000
0
SEQEND
0
LINE
8
22
6
CONTINUOUS
62
7
39
1.000
10
443.300
20
32.500
30
0.000
11
465.300
21
32.500
31
0.000
0
LINE
8
22
6
CONTINUOUS
62
7
39
1.000
10
454.300
20
21.500
30
0.000
11
454.300
21
43.500
31
0.000
0
POLYLINE
8
22
6
CONTINUOUS
62
7
66
1
10
0.000
20
0.000
30
0.000
70
1
0
VERTEX
8
22
10
454.300
20
103.500
30
0.000
42
1.00000000
0
VERTEX
8
22
10
454.300
20
81.500
30
0.000
42
1.00000000
0
SEQEND
0
LINE
8
22
6
CONTINUOUS
62
7
39
1.000
10
443.300
20
92.500
30
0.000
11
465.300
21
92.500
31
0.000
0
LINE
8
22
6
CONTINUOUS
62
7
39
1.000
10
454.300
20
81.500
30
0.000
11
454.300
21
103.500
31
0.000
0
ENDSEC
0
EOF
