0
SECTION
2
HEADER
9
$PDMODE
70
33
9
$PDSIZE
40
1.000
9
$EXTMIN
10
-426.734
20
-75.000
30
-1.000
9
$EXTMAX
10
4694.074
20
825.000
30
1.000
9
$LIMMIN
10
-426.734
20
-75.000
9
$LIMMAX
10
4694.074
20
825.000
0
ENDSEC
0
SECTION
2
TABLES
0
TABLE
2
LAYER
70
7
0
LAYER
2
SCRIBE
70
0
62
3
6
CONTINUOUS
0
LAYER
2
TEXT
70
0
62
7
6
CONTINUOUS
0
LAYER
2
CUT
70
0
62
7
6
CONTINUOUS
0
LAYER
2
14
70
0
62
7
6
CONTINUOUS
0
ENDTAB
0
TABLE
2
VPORT
70
4
0
VPORT
2
*ACTIVE
70
0
10
0.000000
20
0.000000
11
1.000000
21
1.000000
12
2133.670000
22
375.000000
13
0.000000
23
0.000000
14
1.000000
24
1.000000
15
1.000000
25
1.000000
16
0.000000
26
0.000000
36
1.000000
17
0.000000
27
0.000000
37
0.000000
40
4267.340000
41
1.500000
42
50.000000
43
0.000000
44
0.000000
50
0.000000
51
0.000000
71
0
72
100
73
1
74
1
75
0
76
0
77
0
78
0
0
ENDTAB
0
ENDSEC
0
SECTION
2
ENTITIES
0
TEXT
8
SCRIBE
62
3
10
30.000
20
30.000
30
0.000
40
10.000
1
W129
0
TEXT
8
TEXT
62
7
10
30.000
20
15.000
30
0.000
40
10.000
1
PLT6+S355JR+1
0
POLYLINE
8
CUT
6
CONTINUOUS
62
7
66
1
10
0.000
20
0.000
30
0.000
70
1
0
VERTEX
8
CUT
10
0.000
20
187.210
30
0.000
42
0.00000000
0
VERTEX
8
CUT
10
0.000
20
750.000
30
0.000
42
0.00000000
0
VERTEX
8
CUT
10
4267.340
20
750.000
30
0.000
42
0.00000000
0
VERTEX
8
CUT
10
4267.340
20
0.000
30
0.000
42
0.00000000
0
SEQEND
0
POLYLINE
8
14
6
CONTINUOUS
62
7
66
1
10
0.000
20
0.000
30
0.000
70
1
0
VERTEX
8
14
10
1374.500
20
582.000
30
0.000
42
1.00000000
0
VERTEX
8
14
10
1374.500
20
568.000
30
0.000
42
1.00000000
0
SEQEND
0
LINE
8
14
6
CONTINUOUS
62
7
39
1.000
10
1367.500
20
575.000
30
0.000
11
1381.500
21
575.000
31
0.000
0
LINE
8
14
6
CONTINUOUS
62
7
39
1.000
10
1374.500
20
568.000
30
0.000
11
1374.500
21
582.000
31
0.000
0
POLYLINE
8
14
6
CONTINUOUS
62
7
66
1
10
0.000
20
0.000
30
0.000
70
1
0
VERTEX
8
14
10
1374.500
20
632.000
30
0.000
42
1.00000000
0
VERTEX
8
14
10
1374.500
20
618.000
30
0.000
42
1.00000000
0
SEQEND
0
LINE
8
14
6
CONTINUOUS
62
7
39
1.000
10
1367.500
20
625.000
30
0.000
11
1381.500
21
625.000
31
0.000
0
LINE
8
14
6
CONTINUOUS
62
7
39
1.000
10
1374.500
20
618.000
30
0.000
11
1374.500
21
632.000
31
0.000
0
POLYLINE
8
14
6
CONTINUOUS
62
7
66
1
10
0.000
20
0.000
30
0.000
70
1
0
VERTEX
8
14
10
1434.500
20
582.000
30
0.000
42
1.00000000
0
VERTEX
8
14
10
1434.500
20
568.000
30
0.000
42
1.00000000
0
SEQEND
0
LINE
8
14
6
CONTINUOUS
62
7
39
1.000
10
1427.500
20
575.000
30
0.000
11
1441.500
21
575.000
31
0.000
0
LINE
8
14
6
CONTINUOUS
62
7
39
1.000
10
1434.500
20
568.000
30
0.000
11
1434.500
21
582.000
31
0.000
0
POLYLINE
8
14
6
CONTINUOUS
62
7
66
1
10
0.000
20
0.000
30
0.000
70
1
0
VERTEX
8
14
10
1434.500
20
632.000
30
0.000
42
1.00000000
0
VERTEX
8
14
10
1434.500
20
618.000
30
0.000
42
1.00000000
0
SEQEND
0
LINE
8
14
6
CONTINUOUS
62
7
39
1.000
10
1427.500
20
625.000
30
0.000
11
1441.500
21
625.000
31
0.000
0
LINE
8
14
6
CONTINUOUS
62
7
39
1.000
10
1434.500
20
618.000
30
0.000
11
1434.500
21
632.000
31
0.000
0
POLYLINE
8
14
6
CONTINUOUS
62
7
66
1
10
0.000
20
0.000
30
0.000
70
1
0
VERTEX
8
14
10
2824.500
20
582.000
30
0.000
42
1.00000000
0
VERTEX
8
14
10
2824.500
20
568.000
30
0.000
42
1.00000000
0
SEQEND
0
LINE
8
14
6
CONTINUOUS
62
7
39
1.000
10
2817.500
20
575.000
30
0.000
11
2831.500
21
575.000
31
0.000
0
LINE
8
14
6
CONTINUOUS
62
7
39
1.000
10
2824.500
20
568.000
30
0.000
11
2824.500
21
582.000
31
0.000
0
POLYLINE
8
14
6
CONTINUOUS
62
7
66
1
10
0.000
20
0.000
30
0.000
70
1
0
VERTEX
8
14
10
2824.500
20
632.000
30
0.000
42
1.00000000
0
VERTEX
8
14
10
2824.500
20
618.000
30
0.000
42
1.00000000
0
SEQEND
0
LINE
8
14
6
CONTINUOUS
62
7
39
1.000
10
2817.500
20
625.000
30
0.000
11
2831.500
21
625.000
31
0.000
0
LINE
8
14
6
CONTINUOUS
62
7
39
1.000
10
2824.500
20
618.000
30
0.000
11
2824.500
21
632.000
31
0.000
0
POLYLINE
8
14
6
CONTINUOUS
62
7
66
1
10
0.000
20
0.000
30
0.000
70
1
0
VERTEX
8
14
10
2884.500
20
582.000
30
0.000
42
1.00000000
0
VERTEX
8
14
10
2884.500
20
568.000
30
0.000
42
1.00000000
0
SEQEND
0
LINE
8
14
6
CONTINUOUS
62
7
39
1.000
10
2877.500
20
575.000
30
0.000
11
2891.500
21
575.000
31
0.000
0
LINE
8
14
6
CONTINUOUS
62
7
39
1.000
10
2884.500
20
568.000
30
0.000
11
2884.500
21
582.000
31
0.000
0
POLYLINE
8
14
6
CONTINUOUS
62
7
66
1
10
0.000
20
0.000
30
0.000
70
1
0
VERTEX
8
14
10
2884.500
20
632.000
30
0.000
42
1.00000000
0
VERTEX
8
14
10
2884.500
20
618.000
30
0.000
42
1.00000000
0
SEQEND
0
LINE
8
14
6
CONTINUOUS
62
7
39
1.000
10
2877.500
20
625.000
30
0.000
11
2891.500
21
625.000
31
0.000
0
LINE
8
14
6
CONTINUOUS
62
7
39
1.000
10
2884.500
20
618.000
30
0.000
11
2884.500
21
632.000
31
0.000
0
POLYLINE
8
14
6
CONTINUOUS
62
7
66
1
10
0.000
20
0.000
30
0.000
70
1
0
VERTEX
8
14
10
4124.500
20
582.000
30
0.000
42
1.00000000
0
VERTEX
8
14
10
4124.500
20
568.000
30
0.000
42
1.00000000
0
SEQEND
0
LINE
8
14
6
CONTINUOUS
62
7
39
1.000
10
4117.500
20
575.000
30
0.000
11
4131.500
21
575.000
31
0.000
0
LINE
8
14
6
CONTINUOUS
62
7
39
1.000
10
4124.500
20
568.000
30
0.000
11
4124.500
21
582.000
31
0.000
0
POLYLINE
8
14
6
CONTINUOUS
62
7
66
1
10
0.000
20
0.000
30
0.000
70
1
0
VERTEX
8
14
10
4124.500
20
632.000
30
0.000
42
1.00000000
0
VERTEX
8
14
10
4124.500
20
618.000
30
0.000
42
1.00000000
0
SEQEND
0
LINE
8
14
6
CONTINUOUS
62
7
39
1.000
10
4117.500
20
625.000
30
0.000
11
4131.500
21
625.000
31
0.000
0
LINE
8
14
6
CONTINUOUS
62
7
39
1.000
10
4124.500
20
618.000
30
0.000
11
4124.500
21
632.000
31
0.000
0
POLYLINE
8
14
6
CONTINUOUS
62
7
66
1
10
0.000
20
0.000
30
0.000
70
1
0
VERTEX
8
14
10
4184.500
20
582.000
30
0.000
42
1.00000000
0
VERTEX
8
14
10
4184.500
20
568.000
30
0.000
42
1.00000000
0
SEQEND
0
LINE
8
14
6
CONTINUOUS
62
7
39
1.000
10
4177.500
20
575.000
30
0.000
11
4191.500
21
575.000
31
0.000
0
LINE
8
14
6
CONTINUOUS
62
7
39
1.000
10
4184.500
20
568.000
30
0.000
11
4184.500
21
582.000
31
0.000
0
POLYLINE
8
14
6
CONTINUOUS
62
7
66
1
10
0.000
20
0.000
30
0.000
70
1
0
VERTEX
8
14
10
4184.500
20
632.000
30
0.000
42
1.00000000
0
VERTEX
8
14
10
4184.500
20
618.000
30
0.000
42
1.00000000
0
SEQEND
0
LINE
8
14
6
CONTINUOUS
62
7
39
1.000
10
4177.500
20
625.000
30
0.000
11
4191.500
21
625.000
31
0.000
0
LINE
8
14
6
CONTINUOUS
62
7
39
1.000
10
4184.500
20
618.000
30
0.000
11
4184.500
21
632.000
31
0.000
0
ENDSEC
0
EOF
