0
SECTION
2
HEADER
9
$PDMODE
70
33
9
$PDSIZE
40
1.000
9
$EXTMIN
10
-83.540
20
-60.000
30
-1.000
9
$EXTMAX
10
918.940
20
660.000
30
1.000
9
$LIMMIN
10
-83.540
20
-60.000
9
$LIMMAX
10
918.940
20
660.000
0
ENDSEC
0
SECTION
2
TABLES
0
TABLE
2
LAYER
70
7
0
LAYER
2
SCRIBE
70
0
62
3
6
CONTINUOUS
0
LAYER
2
TEXT
70
0
62
7
6
CONTINUOUS
0
LAYER
2
CUT
70
0
62
7
6
CONTINUOUS
0
LAYER
2
LAYOUT
70
0
62
4
6
CONTINUOUS
0
LAYER
2
22
70
0
62
7
6
CONTINUOUS
0
ENDTAB
0
TABLE
2
VPORT
70
4
0
VPORT
2
*ACTIVE
70
0
10
0.000000
20
0.000000
11
1.000000
21
1.000000
12
417.700000
22
300.000000
13
0.000000
23
0.000000
14
1.000000
24
1.000000
15
1.000000
25
1.000000
16
0.000000
26
0.000000
36
1.000000
17
0.000000
27
0.000000
37
0.000000
40
835.400000
41
1.500000
42
50.000000
43
0.000000
44
0.000000
50
0.000000
51
0.000000
71
0
72
100
73
1
74
1
75
0
76
0
77
0
78
0
0
ENDTAB
0
ENDSEC
0
SECTION
2
ENTITIES
0
TEXT
8
SCRIBE
62
3
10
30.000
20
30.000
30
0.000
40
10.000
1
W189
0
TEXT
8
TEXT
62
7
10
30.000
20
15.000
30
0.000
40
10.000
1
PLT6+S355JR+1
0
POLYLINE
8
CUT
6
CONTINUOUS
62
7
66
1
10
0.000
20
0.000
30
0.000
70
1
0
VERTEX
8
CUT
10
0.000
20
0.000
30
0.000
42
0.00000000
0
VERTEX
8
CUT
10
0.000
20
600.000
30
0.000
42
0.00000000
0
VERTEX
8
CUT
10
752.180
20
600.000
30
0.000
42
0.00000000
0
VERTEX
8
CUT
10
835.400
20
156.890
30
0.000
42
0.00000000
0
SEQEND
0
POLYLINE
8
LAYOUT
6
CONTINUOUS
62
4
66
1
10
0.000
20
0.000
30
0.000
70
1
0
VERTEX
8
LAYOUT
10
345.620
20
419.020
30
0.000
42
-1.00000000
0
VERTEX
8
LAYOUT
10
345.620
20
441.020
30
0.000
42
0.00000000
0
VERTEX
8
LAYOUT
10
393.620
20
441.020
30
0.000
42
-1.00000000
0
VERTEX
8
LAYOUT
10
393.620
20
419.020
30
0.000
42
0.00000000
0
SEQEND
0
CIRCLE
8
22
6
CONTINUOUS
62
7
39
1.000
10
345.620
20
430.020
30
0.000
40
11.000
0
CIRCLE
8
22
6
CONTINUOUS
62
7
39
1.000
10
369.620
20
430.020
30
0.000
40
11.000
0
CIRCLE
8
22
6
CONTINUOUS
62
7
39
1.000
10
393.620
20
430.020
30
0.000
40
11.000
0
CIRCLE
8
22
6
CONTINUOUS
62
7
39
1.000
10
0.000
20
0.000
30
0.000
40
0.000
0
POLYLINE
8
LAYOUT
6
CONTINUOUS
62
4
66
1
10
0.000
20
0.000
30
0.000
70
1
0
VERTEX
8
LAYOUT
10
345.620
20
489.020
30
0.000
42
-1.00000000
0
VERTEX
8
LAYOUT
10
345.620
20
511.020
30
0.000
42
0.00000000
0
VERTEX
8
LAYOUT
10
393.620
20
511.020
30
0.000
42
-1.00000000
0
VERTEX
8
LAYOUT
10
393.620
20
489.020
30
0.000
42
0.00000000
0
SEQEND
0
CIRCLE
8
22
6
CONTINUOUS
62
7
39
1.000
10
345.620
20
500.020
30
0.000
40
11.000
0
CIRCLE
8
22
6
CONTINUOUS
62
7
39
1.000
10
369.620
20
500.020
30
0.000
40
11.000
0
CIRCLE
8
22
6
CONTINUOUS
62
7
39
1.000
10
393.620
20
500.020
30
0.000
40
11.000
0
CIRCLE
8
22
6
CONTINUOUS
62
7
39
1.000
10
0.000
20
0.000
30
0.000
40
0.000
0
POLYLINE
8
LAYOUT
6
CONTINUOUS
62
4
66
1
10
0.000
20
0.000
30
0.000
70
1
0
VERTEX
8
LAYOUT
10
590.941
20
244.961
30
0.000
42
-1.00000000
0
VERTEX
8
LAYOUT
10
569.319
20
240.899
30
0.000
42
0.00000000
0
VERTEX
8
LAYOUT
10
560.457
20
288.074
30
0.000
42
-1.00000000
0
VERTEX
8
LAYOUT
10
582.078
20
292.136
30
0.000
42
0.00000000
0
SEQEND
0
CIRCLE
8
22
6
CONTINUOUS
62
7
39
1.000
10
580.130
20
242.930
30
0.000
40
11.000
0
CIRCLE
8
22
6
CONTINUOUS
62
7
39
1.000
10
575.699
20
266.517
30
0.000
40
11.000
0
CIRCLE
8
22
6
CONTINUOUS
62
7
39
1.000
10
571.267
20
290.105
30
0.000
40
11.000
0
CIRCLE
8
22
6
CONTINUOUS
62
7
39
1.000
10
0.000
20
0.000
30
0.000
40
0.000
0
POLYLINE
8
LAYOUT
6
CONTINUOUS
62
4
66
1
10
0.000
20
0.000
30
0.000
70
1
0
VERTEX
8
LAYOUT
10
659.741
20
257.881
30
0.000
42
-1.00000000
0
VERTEX
8
LAYOUT
10
638.119
20
253.819
30
0.000
42
0.00000000
0
VERTEX
8
LAYOUT
10
629.257
20
300.994
30
0.000
42
-1.00000000
0
VERTEX
8
LAYOUT
10
650.878
20
305.056
30
0.000
42
0.00000000
0
SEQEND
0
CIRCLE
8
22
6
CONTINUOUS
62
7
39
1.000
10
648.930
20
255.850
30
0.000
40
11.000
0
CIRCLE
8
22
6
CONTINUOUS
62
7
39
1.000
10
644.499
20
279.437
30
0.000
40
11.000
0
CIRCLE
8
22
6
CONTINUOUS
62
7
39
1.000
10
640.067
20
303.025
30
0.000
40
11.000
0
CIRCLE
8
22
6
CONTINUOUS
62
7
39
1.000
10
0.000
20
0.000
30
0.000
40
0.000
0
ENDSEC
0
EOF
