0
SECTION
2
HEADER
9
$PDMODE
70
33
9
$PDSIZE
40
1.000
9
$EXTMIN
10
-599.000
20
-56.304
30
-1.000
9
$EXTMAX
10
6589.000
20
619.344
30
1.000
9
$LIMMIN
10
-599.000
20
-56.304
9
$LIMMAX
10
6589.000
20
619.344
0
ENDSEC
0
SECTION
2
TABLES
0
TABLE
2
LAYER
70
7
0
LAYER
2
SCRIBE
70
0
62
3
6
CONTINUOUS
0
LAYER
2
TEXT
70
0
62
7
6
CONTINUOUS
0
LAYER
2
CUT
70
0
62
7
6
CONTINUOUS
0
LAYER
2
LAYOUT
70
0
62
4
6
CONTINUOUS
0
LAYER
2
22
70
0
62
7
6
CONTINUOUS
0
ENDTAB
0
TABLE
2
VPORT
70
4
0
VPORT
2
*ACTIVE
70
0
10
0.000000
20
0.000000
11
1.000000
21
1.000000
12
2995.000000
22
281.520000
13
0.000000
23
0.000000
14
1.000000
24
1.000000
15
1.000000
25
1.000000
16
0.000000
26
0.000000
36
1.000000
17
0.000000
27
0.000000
37
0.000000
40
5990.000000
41
1.500000
42
50.000000
43
0.000000
44
0.000000
50
0.000000
51
0.000000
71
0
72
100
73
1
74
1
75
0
76
0
77
0
78
0
0
ENDTAB
0
ENDSEC
0
SECTION
2
ENTITIES
0
TEXT
8
SCRIBE
62
3
10
30.000
20
30.000
30
0.000
40
10.000
1
W213
0
TEXT
8
TEXT
62
7
10
30.000
20
15.000
30
0.000
40
10.000
1
PLT6+S355JR+9
0
POLYLINE
8
CUT
6
CONTINUOUS
62
7
66
1
10
0.000
20
0.000
30
0.000
70
1
0
VERTEX
8
CUT
10
0.000
20
263.040
30
0.000
42
0.00000000
0
VERTEX
8
CUT
10
0.000
20
563.040
30
0.000
42
0.00000000
0
VERTEX
8
CUT
10
5990.000
20
563.040
30
0.000
42
0.00000000
0
VERTEX
8
CUT
10
5990.000
20
0.000
30
0.000
42
0.00000000
0
SEQEND
0
POLYLINE
8
LAYOUT
6
CONTINUOUS
62
4
66
1
10
0.000
20
0.000
30
0.000
70
1
0
VERTEX
8
LAYOUT
10
283.990
20
367.040
30
0.000
42
-1.00000000
0
VERTEX
8
LAYOUT
10
283.990
20
389.040
30
0.000
42
0.00000000
0
VERTEX
8
LAYOUT
10
331.990
20
389.040
30
0.000
42
-1.00000000
0
VERTEX
8
LAYOUT
10
331.990
20
367.040
30
0.000
42
0.00000000
0
SEQEND
0
CIRCLE
8
22
6
CONTINUOUS
62
7
39
1.000
10
283.990
20
378.040
30
0.000
40
11.000
0
CIRCLE
8
22
6
CONTINUOUS
62
7
39
1.000
10
307.990
20
378.040
30
0.000
40
11.000
0
CIRCLE
8
22
6
CONTINUOUS
62
7
39
1.000
10
331.990
20
378.040
30
0.000
40
11.000
0
CIRCLE
8
22
6
CONTINUOUS
62
7
39
1.000
10
0.000
20
0.000
30
0.000
40
0.000
0
POLYLINE
8
LAYOUT
6
CONTINUOUS
62
4
66
1
10
0.000
20
0.000
30
0.000
70
1
0
VERTEX
8
LAYOUT
10
283.990
20
437.040
30
0.000
42
-1.00000000
0
VERTEX
8
LAYOUT
10
283.990
20
459.040
30
0.000
42
0.00000000
0
VERTEX
8
LAYOUT
10
331.990
20
459.040
30
0.000
42
-1.00000000
0
VERTEX
8
LAYOUT
10
331.990
20
437.040
30
0.000
42
0.00000000
0
SEQEND
0
CIRCLE
8
22
6
CONTINUOUS
62
7
39
1.000
10
283.990
20
448.040
30
0.000
40
11.000
0
CIRCLE
8
22
6
CONTINUOUS
62
7
39
1.000
10
307.990
20
448.040
30
0.000
40
11.000
0
CIRCLE
8
22
6
CONTINUOUS
62
7
39
1.000
10
331.990
20
448.040
30
0.000
40
11.000
0
CIRCLE
8
22
6
CONTINUOUS
62
7
39
1.000
10
0.000
20
0.000
30
0.000
40
0.000
0
POLYLINE
8
LAYOUT
6
CONTINUOUS
62
4
66
1
10
0.000
20
0.000
30
0.000
70
1
0
VERTEX
8
LAYOUT
10
4055.740
20
367.040
30
0.000
42
-1.00000000
0
VERTEX
8
LAYOUT
10
4055.740
20
389.040
30
0.000
42
0.00000000
0
VERTEX
8
LAYOUT
10
4103.740
20
389.040
30
0.000
42
-1.00000000
0
VERTEX
8
LAYOUT
10
4103.740
20
367.040
30
0.000
42
0.00000000
0
SEQEND
0
CIRCLE
8
22
6
CONTINUOUS
62
7
39
1.000
10
4055.740
20
378.040
30
0.000
40
11.000
0
CIRCLE
8
22
6
CONTINUOUS
62
7
39
1.000
10
4079.740
20
378.040
30
0.000
40
11.000
0
CIRCLE
8
22
6
CONTINUOUS
62
7
39
1.000
10
4103.740
20
378.040
30
0.000
40
11.000
0
CIRCLE
8
22
6
CONTINUOUS
62
7
39
1.000
10
0.000
20
0.000
30
0.000
40
0.000
0
POLYLINE
8
LAYOUT
6
CONTINUOUS
62
4
66
1
10
0.000
20
0.000
30
0.000
70
1
0
VERTEX
8
LAYOUT
10
4055.740
20
437.040
30
0.000
42
-1.00000000
0
VERTEX
8
LAYOUT
10
4055.740
20
459.040
30
0.000
42
0.00000000
0
VERTEX
8
LAYOUT
10
4103.740
20
459.040
30
0.000
42
-1.00000000
0
VERTEX
8
LAYOUT
10
4103.740
20
437.040
30
0.000
42
0.00000000
0
SEQEND
0
CIRCLE
8
22
6
CONTINUOUS
62
7
39
1.000
10
4055.740
20
448.040
30
0.000
40
11.000
0
CIRCLE
8
22
6
CONTINUOUS
62
7
39
1.000
10
4079.740
20
448.040
30
0.000
40
11.000
0
CIRCLE
8
22
6
CONTINUOUS
62
7
39
1.000
10
4103.740
20
448.040
30
0.000
40
11.000
0
CIRCLE
8
22
6
CONTINUOUS
62
7
39
1.000
10
0.000
20
0.000
30
0.000
40
0.000
0
POLYLINE
8
LAYOUT
6
CONTINUOUS
62
4
66
1
10
0.000
20
0.000
30
0.000
70
1
0
VERTEX
8
LAYOUT
10
4655.740
20
367.040
30
0.000
42
-1.00000000
0
VERTEX
8
LAYOUT
10
4655.740
20
389.040
30
0.000
42
0.00000000
0
VERTEX
8
LAYOUT
10
4703.740
20
389.040
30
0.000
42
-1.00000000
0
VERTEX
8
LAYOUT
10
4703.740
20
367.040
30
0.000
42
0.00000000
0
SEQEND
0
CIRCLE
8
22
6
CONTINUOUS
62
7
39
1.000
10
4655.740
20
378.040
30
0.000
40
11.000
0
CIRCLE
8
22
6
CONTINUOUS
62
7
39
1.000
10
4679.740
20
378.040
30
0.000
40
11.000
0
CIRCLE
8
22
6
CONTINUOUS
62
7
39
1.000
10
4703.740
20
378.040
30
0.000
40
11.000
0
CIRCLE
8
22
6
CONTINUOUS
62
7
39
1.000
10
0.000
20
0.000
30
0.000
40
0.000
0
POLYLINE
8
LAYOUT
6
CONTINUOUS
62
4
66
1
10
0.000
20
0.000
30
0.000
70
1
0
VERTEX
8
LAYOUT
10
4655.740
20
437.040
30
0.000
42
-1.00000000
0
VERTEX
8
LAYOUT
10
4655.740
20
459.040
30
0.000
42
0.00000000
0
VERTEX
8
LAYOUT
10
4703.740
20
459.040
30
0.000
42
-1.00000000
0
VERTEX
8
LAYOUT
10
4703.740
20
437.040
30
0.000
42
0.00000000
0
SEQEND
0
CIRCLE
8
22
6
CONTINUOUS
62
7
39
1.000
10
4655.740
20
448.040
30
0.000
40
11.000
0
CIRCLE
8
22
6
CONTINUOUS
62
7
39
1.000
10
4679.740
20
448.040
30
0.000
40
11.000
0
CIRCLE
8
22
6
CONTINUOUS
62
7
39
1.000
10
4703.740
20
448.040
30
0.000
40
11.000
0
CIRCLE
8
22
6
CONTINUOUS
62
7
39
1.000
10
0.000
20
0.000
30
0.000
40
0.000
0
ENDSEC
0
EOF
