0
SECTION
2
HEADER
9
$PDMODE
70
33
9
$PDSIZE
40
1.000
9
$EXTMIN
10
-597.000
20
-75.000
30
-1.000
9
$EXTMAX
10
6567.000
20
825.000
30
1.000
9
$LIMMIN
10
-597.000
20
-75.000
9
$LIMMAX
10
6567.000
20
825.000
0
ENDSEC
0
SECTION
2
TABLES
0
TABLE
2
LAYER
70
7
0
LAYER
2
SCRIBE
70
0
62
3
6
CONTINUOUS
0
LAYER
2
TEXT
70
0
62
7
6
CONTINUOUS
0
LAYER
2
CUT
70
0
62
7
6
CONTINUOUS
0
LAYER
2
LAYOUT
70
0
62
4
6
CONTINUOUS
0
LAYER
2
14
70
0
62
7
6
CONTINUOUS
0
LAYER
2
22
70
0
62
7
6
CONTINUOUS
0
ENDTAB
0
TABLE
2
VPORT
70
4
0
VPORT
2
*ACTIVE
70
0
10
0.000000
20
0.000000
11
1.000000
21
1.000000
12
2985.000000
22
375.000000
13
0.000000
23
0.000000
14
1.000000
24
1.000000
15
1.000000
25
1.000000
16
0.000000
26
0.000000
36
1.000000
17
0.000000
27
0.000000
37
0.000000
40
5970.000000
41
1.500000
42
50.000000
43
0.000000
44
0.000000
50
0.000000
51
0.000000
71
0
72
100
73
1
74
1
75
0
76
0
77
0
78
0
0
ENDTAB
0
ENDSEC
0
SECTION
2
ENTITIES
0
TEXT
8
SCRIBE
62
3
10
30.000
20
30.000
30
0.000
40
10.000
1
W265
0
TEXT
8
TEXT
62
7
10
30.000
20
15.000
30
0.000
40
10.000
1
PLT6+S355JR+1
0
POLYLINE
8
CUT
6
CONTINUOUS
62
7
66
1
10
0.000
20
0.000
30
0.000
70
1
0
VERTEX
8
CUT
10
0.000
20
0.000
30
0.000
42
0.00000000
0
VERTEX
8
CUT
10
0.000
20
750.000
30
0.000
42
0.00000000
0
VERTEX
8
CUT
10
5970.000
20
750.000
30
0.000
42
0.00000000
0
VERTEX
8
CUT
10
5970.000
20
0.000
30
0.000
42
0.00000000
0
SEQEND
0
POLYLINE
8
14
6
CONTINUOUS
62
7
66
1
10
0.000
20
0.000
30
0.000
70
1
0
VERTEX
8
14
10
1031.500
20
532.000
30
0.000
42
1.00000000
0
VERTEX
8
14
10
1031.500
20
518.000
30
0.000
42
1.00000000
0
SEQEND
0
LINE
8
14
6
CONTINUOUS
62
7
39
1.000
10
1024.500
20
525.000
30
0.000
11
1038.500
21
525.000
31
0.000
0
LINE
8
14
6
CONTINUOUS
62
7
39
1.000
10
1031.500
20
518.000
30
0.000
11
1031.500
21
532.000
31
0.000
0
POLYLINE
8
14
6
CONTINUOUS
62
7
66
1
10
0.000
20
0.000
30
0.000
70
1
0
VERTEX
8
14
10
1031.500
20
582.000
30
0.000
42
1.00000000
0
VERTEX
8
14
10
1031.500
20
568.000
30
0.000
42
1.00000000
0
SEQEND
0
LINE
8
14
6
CONTINUOUS
62
7
39
1.000
10
1024.500
20
575.000
30
0.000
11
1038.500
21
575.000
31
0.000
0
LINE
8
14
6
CONTINUOUS
62
7
39
1.000
10
1031.500
20
568.000
30
0.000
11
1031.500
21
582.000
31
0.000
0
POLYLINE
8
14
6
CONTINUOUS
62
7
66
1
10
0.000
20
0.000
30
0.000
70
1
0
VERTEX
8
14
10
1091.500
20
532.000
30
0.000
42
1.00000000
0
VERTEX
8
14
10
1091.500
20
518.000
30
0.000
42
1.00000000
0
SEQEND
0
LINE
8
14
6
CONTINUOUS
62
7
39
1.000
10
1084.500
20
525.000
30
0.000
11
1098.500
21
525.000
31
0.000
0
LINE
8
14
6
CONTINUOUS
62
7
39
1.000
10
1091.500
20
518.000
30
0.000
11
1091.500
21
532.000
31
0.000
0
POLYLINE
8
14
6
CONTINUOUS
62
7
66
1
10
0.000
20
0.000
30
0.000
70
1
0
VERTEX
8
14
10
1091.500
20
582.000
30
0.000
42
1.00000000
0
VERTEX
8
14
10
1091.500
20
568.000
30
0.000
42
1.00000000
0
SEQEND
0
LINE
8
14
6
CONTINUOUS
62
7
39
1.000
10
1084.500
20
575.000
30
0.000
11
1098.500
21
575.000
31
0.000
0
LINE
8
14
6
CONTINUOUS
62
7
39
1.000
10
1091.500
20
568.000
30
0.000
11
1091.500
21
582.000
31
0.000
0
POLYLINE
8
LAYOUT
6
CONTINUOUS
62
4
66
1
10
0.000
20
0.000
30
0.000
70
1
0
VERTEX
8
LAYOUT
10
2014.850
20
504.000
30
0.000
42
-1.00000000
0
VERTEX
8
LAYOUT
10
2014.850
20
526.000
30
0.000
42
0.00000000
0
VERTEX
8
LAYOUT
10
2062.850
20
526.000
30
0.000
42
-1.00000000
0
VERTEX
8
LAYOUT
10
2062.850
20
504.000
30
0.000
42
0.00000000
0
SEQEND
0
CIRCLE
8
22
6
CONTINUOUS
62
7
39
1.000
10
2014.850
20
515.000
30
0.000
40
11.000
0
CIRCLE
8
22
6
CONTINUOUS
62
7
39
1.000
10
2038.850
20
515.000
30
0.000
40
11.000
0
CIRCLE
8
22
6
CONTINUOUS
62
7
39
1.000
10
2062.850
20
515.000
30
0.000
40
11.000
0
CIRCLE
8
22
6
CONTINUOUS
62
7
39
1.000
10
0.000
20
0.000
30
0.000
40
0.000
0
POLYLINE
8
LAYOUT
6
CONTINUOUS
62
4
66
1
10
0.000
20
0.000
30
0.000
70
1
0
VERTEX
8
LAYOUT
10
2014.850
20
574.000
30
0.000
42
-1.00000000
0
VERTEX
8
LAYOUT
10
2014.850
20
596.000
30
0.000
42
0.00000000
0
VERTEX
8
LAYOUT
10
2062.850
20
596.000
30
0.000
42
-1.00000000
0
VERTEX
8
LAYOUT
10
2062.850
20
574.000
30
0.000
42
0.00000000
0
SEQEND
0
CIRCLE
8
22
6
CONTINUOUS
62
7
39
1.000
10
2014.850
20
585.000
30
0.000
40
11.000
0
CIRCLE
8
22
6
CONTINUOUS
62
7
39
1.000
10
2038.850
20
585.000
30
0.000
40
11.000
0
CIRCLE
8
22
6
CONTINUOUS
62
7
39
1.000
10
2062.850
20
585.000
30
0.000
40
11.000
0
CIRCLE
8
22
6
CONTINUOUS
62
7
39
1.000
10
0.000
20
0.000
30
0.000
40
0.000
0
POLYLINE
8
14
6
CONTINUOUS
62
7
66
1
10
0.000
20
0.000
30
0.000
70
1
0
VERTEX
8
14
10
2381.500
20
532.000
30
0.000
42
1.00000000
0
VERTEX
8
14
10
2381.500
20
518.000
30
0.000
42
1.00000000
0
SEQEND
0
LINE
8
14
6
CONTINUOUS
62
7
39
1.000
10
2374.500
20
525.000
30
0.000
11
2388.500
21
525.000
31
0.000
0
LINE
8
14
6
CONTINUOUS
62
7
39
1.000
10
2381.500
20
518.000
30
0.000
11
2381.500
21
532.000
31
0.000
0
POLYLINE
8
14
6
CONTINUOUS
62
7
66
1
10
0.000
20
0.000
30
0.000
70
1
0
VERTEX
8
14
10
2381.500
20
582.000
30
0.000
42
1.00000000
0
VERTEX
8
14
10
2381.500
20
568.000
30
0.000
42
1.00000000
0
SEQEND
0
LINE
8
14
6
CONTINUOUS
62
7
39
1.000
10
2374.500
20
575.000
30
0.000
11
2388.500
21
575.000
31
0.000
0
LINE
8
14
6
CONTINUOUS
62
7
39
1.000
10
2381.500
20
568.000
30
0.000
11
2381.500
21
582.000
31
0.000
0
POLYLINE
8
14
6
CONTINUOUS
62
7
66
1
10
0.000
20
0.000
30
0.000
70
1
0
VERTEX
8
14
10
2441.500
20
532.000
30
0.000
42
1.00000000
0
VERTEX
8
14
10
2441.500
20
518.000
30
0.000
42
1.00000000
0
SEQEND
0
LINE
8
14
6
CONTINUOUS
62
7
39
1.000
10
2434.500
20
525.000
30
0.000
11
2448.500
21
525.000
31
0.000
0
LINE
8
14
6
CONTINUOUS
62
7
39
1.000
10
2441.500
20
518.000
30
0.000
11
2441.500
21
532.000
31
0.000
0
POLYLINE
8
14
6
CONTINUOUS
62
7
66
1
10
0.000
20
0.000
30
0.000
70
1
0
VERTEX
8
14
10
2441.500
20
582.000
30
0.000
42
1.00000000
0
VERTEX
8
14
10
2441.500
20
568.000
30
0.000
42
1.00000000
0
SEQEND
0
LINE
8
14
6
CONTINUOUS
62
7
39
1.000
10
2434.500
20
575.000
30
0.000
11
2448.500
21
575.000
31
0.000
0
LINE
8
14
6
CONTINUOUS
62
7
39
1.000
10
2441.500
20
568.000
30
0.000
11
2441.500
21
582.000
31
0.000
0
POLYLINE
8
LAYOUT
6
CONTINUOUS
62
4
66
1
10
0.000
20
0.000
30
0.000
70
1
0
VERTEX
8
LAYOUT
10
2614.840
20
504.000
30
0.000
42
-1.00000000
0
VERTEX
8
LAYOUT
10
2614.840
20
526.000
30
0.000
42
0.00000000
0
VERTEX
8
LAYOUT
10
2662.840
20
526.000
30
0.000
42
-1.00000000
0
VERTEX
8
LAYOUT
10
2662.840
20
504.000
30
0.000
42
0.00000000
0
SEQEND
0
CIRCLE
8
22
6
CONTINUOUS
62
7
39
1.000
10
2614.840
20
515.000
30
0.000
40
11.000
0
CIRCLE
8
22
6
CONTINUOUS
62
7
39
1.000
10
2638.840
20
515.000
30
0.000
40
11.000
0
CIRCLE
8
22
6
CONTINUOUS
62
7
39
1.000
10
2662.840
20
515.000
30
0.000
40
11.000
0
CIRCLE
8
22
6
CONTINUOUS
62
7
39
1.000
10
0.000
20
0.000
30
0.000
40
0.000
0
POLYLINE
8
LAYOUT
6
CONTINUOUS
62
4
66
1
10
0.000
20
0.000
30
0.000
70
1
0
VERTEX
8
LAYOUT
10
2614.840
20
574.000
30
0.000
42
-1.00000000
0
VERTEX
8
LAYOUT
10
2614.840
20
596.000
30
0.000
42
0.00000000
0
VERTEX
8
LAYOUT
10
2662.840
20
596.000
30
0.000
42
-1.00000000
0
VERTEX
8
LAYOUT
10
2662.840
20
574.000
30
0.000
42
0.00000000
0
SEQEND
0
CIRCLE
8
22
6
CONTINUOUS
62
7
39
1.000
10
2614.840
20
585.000
30
0.000
40
11.000
0
CIRCLE
8
22
6
CONTINUOUS
62
7
39
1.000
10
2638.840
20
585.000
30
0.000
40
11.000
0
CIRCLE
8
22
6
CONTINUOUS
62
7
39
1.000
10
2662.840
20
585.000
30
0.000
40
11.000
0
CIRCLE
8
22
6
CONTINUOUS
62
7
39
1.000
10
0.000
20
0.000
30
0.000
40
0.000
0
POLYLINE
8
14
6
CONTINUOUS
62
7
66
1
10
0.000
20
0.000
30
0.000
70
1
0
VERTEX
8
14
10
3831.500
20
532.000
30
0.000
42
1.00000000
0
VERTEX
8
14
10
3831.500
20
518.000
30
0.000
42
1.00000000
0
SEQEND
0
LINE
8
14
6
CONTINUOUS
62
7
39
1.000
10
3824.500
20
525.000
30
0.000
11
3838.500
21
525.000
31
0.000
0
LINE
8
14
6
CONTINUOUS
62
7
39
1.000
10
3831.500
20
518.000
30
0.000
11
3831.500
21
532.000
31
0.000
0
POLYLINE
8
14
6
CONTINUOUS
62
7
66
1
10
0.000
20
0.000
30
0.000
70
1
0
VERTEX
8
14
10
3831.500
20
582.000
30
0.000
42
1.00000000
0
VERTEX
8
14
10
3831.500
20
568.000
30
0.000
42
1.00000000
0
SEQEND
0
LINE
8
14
6
CONTINUOUS
62
7
39
1.000
10
3824.500
20
575.000
30
0.000
11
3838.500
21
575.000
31
0.000
0
LINE
8
14
6
CONTINUOUS
62
7
39
1.000
10
3831.500
20
568.000
30
0.000
11
3831.500
21
582.000
31
0.000
0
POLYLINE
8
14
6
CONTINUOUS
62
7
66
1
10
0.000
20
0.000
30
0.000
70
1
0
VERTEX
8
14
10
3891.500
20
532.000
30
0.000
42
1.00000000
0
VERTEX
8
14
10
3891.500
20
518.000
30
0.000
42
1.00000000
0
SEQEND
0
LINE
8
14
6
CONTINUOUS
62
7
39
1.000
10
3884.500
20
525.000
30
0.000
11
3898.500
21
525.000
31
0.000
0
LINE
8
14
6
CONTINUOUS
62
7
39
1.000
10
3891.500
20
518.000
30
0.000
11
3891.500
21
532.000
31
0.000
0
POLYLINE
8
14
6
CONTINUOUS
62
7
66
1
10
0.000
20
0.000
30
0.000
70
1
0
VERTEX
8
14
10
3891.500
20
582.000
30
0.000
42
1.00000000
0
VERTEX
8
14
10
3891.500
20
568.000
30
0.000
42
1.00000000
0
SEQEND
0
LINE
8
14
6
CONTINUOUS
62
7
39
1.000
10
3884.500
20
575.000
30
0.000
11
3898.500
21
575.000
31
0.000
0
LINE
8
14
6
CONTINUOUS
62
7
39
1.000
10
3891.500
20
568.000
30
0.000
11
3891.500
21
582.000
31
0.000
0
POLYLINE
8
14
6
CONTINUOUS
62
7
66
1
10
0.000
20
0.000
30
0.000
70
1
0
VERTEX
8
14
10
5281.500
20
532.000
30
0.000
42
1.00000000
0
VERTEX
8
14
10
5281.500
20
518.000
30
0.000
42
1.00000000
0
SEQEND
0
LINE
8
14
6
CONTINUOUS
62
7
39
1.000
10
5274.500
20
525.000
30
0.000
11
5288.500
21
525.000
31
0.000
0
LINE
8
14
6
CONTINUOUS
62
7
39
1.000
10
5281.500
20
518.000
30
0.000
11
5281.500
21
532.000
31
0.000
0
POLYLINE
8
14
6
CONTINUOUS
62
7
66
1
10
0.000
20
0.000
30
0.000
70
1
0
VERTEX
8
14
10
5281.500
20
582.000
30
0.000
42
1.00000000
0
VERTEX
8
14
10
5281.500
20
568.000
30
0.000
42
1.00000000
0
SEQEND
0
LINE
8
14
6
CONTINUOUS
62
7
39
1.000
10
5274.500
20
575.000
30
0.000
11
5288.500
21
575.000
31
0.000
0
LINE
8
14
6
CONTINUOUS
62
7
39
1.000
10
5281.500
20
568.000
30
0.000
11
5281.500
21
582.000
31
0.000
0
POLYLINE
8
14
6
CONTINUOUS
62
7
66
1
10
0.000
20
0.000
30
0.000
70
1
0
VERTEX
8
14
10
5341.500
20
532.000
30
0.000
42
1.00000000
0
VERTEX
8
14
10
5341.500
20
518.000
30
0.000
42
1.00000000
0
SEQEND
0
LINE
8
14
6
CONTINUOUS
62
7
39
1.000
10
5334.500
20
525.000
30
0.000
11
5348.500
21
525.000
31
0.000
0
LINE
8
14
6
CONTINUOUS
62
7
39
1.000
10
5341.500
20
518.000
30
0.000
11
5341.500
21
532.000
31
0.000
0
POLYLINE
8
14
6
CONTINUOUS
62
7
66
1
10
0.000
20
0.000
30
0.000
70
1
0
VERTEX
8
14
10
5341.500
20
582.000
30
0.000
42
1.00000000
0
VERTEX
8
14
10
5341.500
20
568.000
30
0.000
42
1.00000000
0
SEQEND
0
LINE
8
14
6
CONTINUOUS
62
7
39
1.000
10
5334.500
20
575.000
30
0.000
11
5348.500
21
575.000
31
0.000
0
LINE
8
14
6
CONTINUOUS
62
7
39
1.000
10
5341.500
20
568.000
30
0.000
11
5341.500
21
582.000
31
0.000
0
ENDSEC
0
EOF
