0
SECTION
2
HEADER
9
$PDMODE
70
33
9
$PDSIZE
40
1.000
9
$EXTMIN
10
-596.500
20
-90.000
30
-1.000
9
$EXTMAX
10
6561.500
20
990.000
30
1.000
9
$LIMMIN
10
-596.500
20
-90.000
9
$LIMMAX
10
6561.500
20
990.000
0
ENDSEC
0
SECTION
2
TABLES
0
TABLE
2
LAYER
70
7
0
LAYER
2
SCRIBE
70
0
62
3
6
CONTINUOUS
0
LAYER
2
TEXT
70
0
62
7
6
CONTINUOUS
0
LAYER
2
CUT
70
0
62
7
6
CONTINUOUS
0
LAYER
2
14
70
0
62
7
6
CONTINUOUS
0
ENDTAB
0
TABLE
2
VPORT
70
4
0
VPORT
2
*ACTIVE
70
0
10
0.000000
20
0.000000
11
1.000000
21
1.000000
12
2982.500000
22
450.000000
13
0.000000
23
0.000000
14
1.000000
24
1.000000
15
1.000000
25
1.000000
16
0.000000
26
0.000000
36
1.000000
17
0.000000
27
0.000000
37
0.000000
40
5965.000000
41
1.500000
42
50.000000
43
0.000000
44
0.000000
50
0.000000
51
0.000000
71
0
72
100
73
1
74
1
75
0
76
0
77
0
78
0
0
ENDTAB
0
ENDSEC
0
SECTION
2
ENTITIES
0
TEXT
8
SCRIBE
62
3
10
30.000
20
30.000
30
0.000
40
10.000
1
W270
0
TEXT
8
TEXT
62
7
10
30.000
20
15.000
30
0.000
40
10.000
1
PLT6+S355JR+1
0
POLYLINE
8
CUT
6
CONTINUOUS
62
7
66
1
10
0.000
20
0.000
30
0.000
70
1
0
VERTEX
8
CUT
10
0.000
20
0.000
30
0.000
42
0.00000000
0
VERTEX
8
CUT
10
0.000
20
900.000
30
0.000
42
0.00000000
0
VERTEX
8
CUT
10
5965.000
20
900.000
30
0.000
42
0.00000000
0
VERTEX
8
CUT
10
5965.000
20
0.000
30
0.000
42
0.00000000
0
SEQEND
0
POLYLINE
8
14
6
CONTINUOUS
62
7
66
1
10
0.000
20
0.000
30
0.000
70
1
0
VERTEX
8
14
10
497.370
20
432.000
30
0.000
42
1.00000000
0
VERTEX
8
14
10
497.370
20
418.000
30
0.000
42
1.00000000
0
SEQEND
0
LINE
8
14
6
CONTINUOUS
62
7
39
1.000
10
490.370
20
425.000
30
0.000
11
504.370
21
425.000
31
0.000
0
LINE
8
14
6
CONTINUOUS
62
7
39
1.000
10
497.370
20
418.000
30
0.000
11
497.370
21
432.000
31
0.000
0
POLYLINE
8
14
6
CONTINUOUS
62
7
66
1
10
0.000
20
0.000
30
0.000
70
1
0
VERTEX
8
14
10
497.370
20
482.000
30
0.000
42
1.00000000
0
VERTEX
8
14
10
497.370
20
468.000
30
0.000
42
1.00000000
0
SEQEND
0
LINE
8
14
6
CONTINUOUS
62
7
39
1.000
10
490.370
20
475.000
30
0.000
11
504.370
21
475.000
31
0.000
0
LINE
8
14
6
CONTINUOUS
62
7
39
1.000
10
497.370
20
468.000
30
0.000
11
497.370
21
482.000
31
0.000
0
POLYLINE
8
14
6
CONTINUOUS
62
7
66
1
10
0.000
20
0.000
30
0.000
70
1
0
VERTEX
8
14
10
557.370
20
432.000
30
0.000
42
1.00000000
0
VERTEX
8
14
10
557.370
20
418.000
30
0.000
42
1.00000000
0
SEQEND
0
LINE
8
14
6
CONTINUOUS
62
7
39
1.000
10
550.370
20
425.000
30
0.000
11
564.370
21
425.000
31
0.000
0
LINE
8
14
6
CONTINUOUS
62
7
39
1.000
10
557.370
20
418.000
30
0.000
11
557.370
21
432.000
31
0.000
0
POLYLINE
8
14
6
CONTINUOUS
62
7
66
1
10
0.000
20
0.000
30
0.000
70
1
0
VERTEX
8
14
10
557.370
20
482.000
30
0.000
42
1.00000000
0
VERTEX
8
14
10
557.370
20
468.000
30
0.000
42
1.00000000
0
SEQEND
0
LINE
8
14
6
CONTINUOUS
62
7
39
1.000
10
550.370
20
475.000
30
0.000
11
564.370
21
475.000
31
0.000
0
LINE
8
14
6
CONTINUOUS
62
7
39
1.000
10
557.370
20
468.000
30
0.000
11
557.370
21
482.000
31
0.000
0
POLYLINE
8
14
6
CONTINUOUS
62
7
66
1
10
0.000
20
0.000
30
0.000
70
1
0
VERTEX
8
14
10
1948.620
20
432.000
30
0.000
42
1.00000000
0
VERTEX
8
14
10
1948.620
20
418.000
30
0.000
42
1.00000000
0
SEQEND
0
LINE
8
14
6
CONTINUOUS
62
7
39
1.000
10
1941.620
20
425.000
30
0.000
11
1955.620
21
425.000
31
0.000
0
LINE
8
14
6
CONTINUOUS
62
7
39
1.000
10
1948.620
20
418.000
30
0.000
11
1948.620
21
432.000
31
0.000
0
POLYLINE
8
14
6
CONTINUOUS
62
7
66
1
10
0.000
20
0.000
30
0.000
70
1
0
VERTEX
8
14
10
1948.620
20
482.000
30
0.000
42
1.00000000
0
VERTEX
8
14
10
1948.620
20
468.000
30
0.000
42
1.00000000
0
SEQEND
0
LINE
8
14
6
CONTINUOUS
62
7
39
1.000
10
1941.620
20
475.000
30
0.000
11
1955.620
21
475.000
31
0.000
0
LINE
8
14
6
CONTINUOUS
62
7
39
1.000
10
1948.620
20
468.000
30
0.000
11
1948.620
21
482.000
31
0.000
0
POLYLINE
8
14
6
CONTINUOUS
62
7
66
1
10
0.000
20
0.000
30
0.000
70
1
0
VERTEX
8
14
10
2008.620
20
432.000
30
0.000
42
1.00000000
0
VERTEX
8
14
10
2008.620
20
418.000
30
0.000
42
1.00000000
0
SEQEND
0
LINE
8
14
6
CONTINUOUS
62
7
39
1.000
10
2001.620
20
425.000
30
0.000
11
2015.620
21
425.000
31
0.000
0
LINE
8
14
6
CONTINUOUS
62
7
39
1.000
10
2008.620
20
418.000
30
0.000
11
2008.620
21
432.000
31
0.000
0
POLYLINE
8
14
6
CONTINUOUS
62
7
66
1
10
0.000
20
0.000
30
0.000
70
1
0
VERTEX
8
14
10
2008.620
20
482.000
30
0.000
42
1.00000000
0
VERTEX
8
14
10
2008.620
20
468.000
30
0.000
42
1.00000000
0
SEQEND
0
LINE
8
14
6
CONTINUOUS
62
7
39
1.000
10
2001.620
20
475.000
30
0.000
11
2015.620
21
475.000
31
0.000
0
LINE
8
14
6
CONTINUOUS
62
7
39
1.000
10
2008.620
20
468.000
30
0.000
11
2008.620
21
482.000
31
0.000
0
POLYLINE
8
14
6
CONTINUOUS
62
7
66
1
10
0.000
20
0.000
30
0.000
70
1
0
VERTEX
8
14
10
3398.620
20
432.000
30
0.000
42
1.00000000
0
VERTEX
8
14
10
3398.620
20
418.000
30
0.000
42
1.00000000
0
SEQEND
0
LINE
8
14
6
CONTINUOUS
62
7
39
1.000
10
3391.620
20
425.000
30
0.000
11
3405.620
21
425.000
31
0.000
0
LINE
8
14
6
CONTINUOUS
62
7
39
1.000
10
3398.620
20
418.000
30
0.000
11
3398.620
21
432.000
31
0.000
0
POLYLINE
8
14
6
CONTINUOUS
62
7
66
1
10
0.000
20
0.000
30
0.000
70
1
0
VERTEX
8
14
10
3398.620
20
482.000
30
0.000
42
1.00000000
0
VERTEX
8
14
10
3398.620
20
468.000
30
0.000
42
1.00000000
0
SEQEND
0
LINE
8
14
6
CONTINUOUS
62
7
39
1.000
10
3391.620
20
475.000
30
0.000
11
3405.620
21
475.000
31
0.000
0
LINE
8
14
6
CONTINUOUS
62
7
39
1.000
10
3398.620
20
468.000
30
0.000
11
3398.620
21
482.000
31
0.000
0
POLYLINE
8
14
6
CONTINUOUS
62
7
66
1
10
0.000
20
0.000
30
0.000
70
1
0
VERTEX
8
14
10
3458.620
20
432.000
30
0.000
42
1.00000000
0
VERTEX
8
14
10
3458.620
20
418.000
30
0.000
42
1.00000000
0
SEQEND
0
LINE
8
14
6
CONTINUOUS
62
7
39
1.000
10
3451.620
20
425.000
30
0.000
11
3465.620
21
425.000
31
0.000
0
LINE
8
14
6
CONTINUOUS
62
7
39
1.000
10
3458.620
20
418.000
30
0.000
11
3458.620
21
432.000
31
0.000
0
POLYLINE
8
14
6
CONTINUOUS
62
7
66
1
10
0.000
20
0.000
30
0.000
70
1
0
VERTEX
8
14
10
3458.620
20
482.000
30
0.000
42
1.00000000
0
VERTEX
8
14
10
3458.620
20
468.000
30
0.000
42
1.00000000
0
SEQEND
0
LINE
8
14
6
CONTINUOUS
62
7
39
1.000
10
3451.620
20
475.000
30
0.000
11
3465.620
21
475.000
31
0.000
0
LINE
8
14
6
CONTINUOUS
62
7
39
1.000
10
3458.620
20
468.000
30
0.000
11
3458.620
21
482.000
31
0.000
0
POLYLINE
8
14
6
CONTINUOUS
62
7
66
1
10
0.000
20
0.000
30
0.000
70
1
0
VERTEX
8
14
10
4848.620
20
432.000
30
0.000
42
1.00000000
0
VERTEX
8
14
10
4848.620
20
418.000
30
0.000
42
1.00000000
0
SEQEND
0
LINE
8
14
6
CONTINUOUS
62
7
39
1.000
10
4841.620
20
425.000
30
0.000
11
4855.620
21
425.000
31
0.000
0
LINE
8
14
6
CONTINUOUS
62
7
39
1.000
10
4848.620
20
418.000
30
0.000
11
4848.620
21
432.000
31
0.000
0
POLYLINE
8
14
6
CONTINUOUS
62
7
66
1
10
0.000
20
0.000
30
0.000
70
1
0
VERTEX
8
14
10
4848.620
20
482.000
30
0.000
42
1.00000000
0
VERTEX
8
14
10
4848.620
20
468.000
30
0.000
42
1.00000000
0
SEQEND
0
LINE
8
14
6
CONTINUOUS
62
7
39
1.000
10
4841.620
20
475.000
30
0.000
11
4855.620
21
475.000
31
0.000
0
LINE
8
14
6
CONTINUOUS
62
7
39
1.000
10
4848.620
20
468.000
30
0.000
11
4848.620
21
482.000
31
0.000
0
POLYLINE
8
14
6
CONTINUOUS
62
7
66
1
10
0.000
20
0.000
30
0.000
70
1
0
VERTEX
8
14
10
4908.620
20
432.000
30
0.000
42
1.00000000
0
VERTEX
8
14
10
4908.620
20
418.000
30
0.000
42
1.00000000
0
SEQEND
0
LINE
8
14
6
CONTINUOUS
62
7
39
1.000
10
4901.620
20
425.000
30
0.000
11
4915.620
21
425.000
31
0.000
0
LINE
8
14
6
CONTINUOUS
62
7
39
1.000
10
4908.620
20
418.000
30
0.000
11
4908.620
21
432.000
31
0.000
0
POLYLINE
8
14
6
CONTINUOUS
62
7
66
1
10
0.000
20
0.000
30
0.000
70
1
0
VERTEX
8
14
10
4908.620
20
482.000
30
0.000
42
1.00000000
0
VERTEX
8
14
10
4908.620
20
468.000
30
0.000
42
1.00000000
0
SEQEND
0
LINE
8
14
6
CONTINUOUS
62
7
39
1.000
10
4901.620
20
475.000
30
0.000
11
4915.620
21
475.000
31
0.000
0
LINE
8
14
6
CONTINUOUS
62
7
39
1.000
10
4908.620
20
468.000
30
0.000
11
4908.620
21
482.000
31
0.000
0
ENDSEC
0
EOF
