0
SECTION
2
HEADER
9
$PDMODE
70
33
9
$PDSIZE
40
1.000
9
$EXTMIN
10
-221.988
20
-40.000
30
-1.000
9
$EXTMAX
10
2441.868
20
440.000
30
1.000
9
$LIMMIN
10
-221.988
20
-40.000
9
$LIMMAX
10
2441.868
20
440.000
0
ENDSEC
0
SECTION
2
TABLES
0
TABLE
2
LAYER
70
7
0
LAYER
2
SCRIBE
70
0
62
3
6
CONTINUOUS
0
LAYER
2
TEXT
70
0
62
7
6
CONTINUOUS
0
LAYER
2
CUT
70
0
62
7
6
CONTINUOUS
0
LAYER
2
30
70
0
62
7
6
CONTINUOUS
0
ENDTAB
0
TABLE
2
VPORT
70
4
0
VPORT
2
*ACTIVE
70
0
10
0.000000
20
0.000000
11
1.000000
21
1.000000
12
1109.940000
22
200.000000
13
0.000000
23
0.000000
14
1.000000
24
1.000000
15
1.000000
25
1.000000
16
0.000000
26
0.000000
36
1.000000
17
0.000000
27
0.000000
37
0.000000
40
2219.880000
41
1.500000
42
50.000000
43
0.000000
44
0.000000
50
0.000000
51
0.000000
71
0
72
100
73
1
74
1
75
0
76
0
77
0
78
0
0
ENDTAB
0
ENDSEC
0
SECTION
2
ENTITIES
0
TEXT
8
SCRIBE
62
3
10
30.000
20
30.000
30
0.000
40
10.000
1
OF179
0
TEXT
8
TEXT
62
7
10
30.000
20
15.000
30
0.000
40
10.000
1
PL20+S355JR+5
0
POLYLINE
8
CUT
6
CONTINUOUS
62
7
66
1
10
0.000
20
0.000
30
0.000
70
1
0
VERTEX
8
CUT
10
0.000
20
0.000
30
0.000
42
0.00000000
0
VERTEX
8
CUT
10
0.000
20
400.000
30
0.000
42
0.00000000
0
VERTEX
8
CUT
10
2219.880
20
400.000
30
0.000
42
0.00000000
0
VERTEX
8
CUT
10
2219.880
20
0.000
30
0.000
42
0.00000000
0
SEQEND
0
POLYLINE
8
30
6
CONTINUOUS
62
7
66
1
10
0.000
20
0.000
30
0.000
70
1
0
VERTEX
8
30
10
1283.170
20
156.000
30
0.000
42
1.00000000
0
VERTEX
8
30
10
1283.170
20
124.000
30
0.000
42
1.00000000
0
SEQEND
0
LINE
8
30
6
CONTINUOUS
62
7
39
1.000
10
1267.170
20
140.000
30
0.000
11
1299.170
21
140.000
31
0.000
0
LINE
8
30
6
CONTINUOUS
62
7
39
1.000
10
1283.170
20
124.000
30
0.000
11
1283.170
21
156.000
31
0.000
0
POLYLINE
8
30
6
CONTINUOUS
62
7
66
1
10
0.000
20
0.000
30
0.000
70
1
0
VERTEX
8
30
10
1283.170
20
276.000
30
0.000
42
1.00000000
0
VERTEX
8
30
10
1283.170
20
244.000
30
0.000
42
1.00000000
0
SEQEND
0
LINE
8
30
6
CONTINUOUS
62
7
39
1.000
10
1267.170
20
260.000
30
0.000
11
1299.170
21
260.000
31
0.000
0
LINE
8
30
6
CONTINUOUS
62
7
39
1.000
10
1283.170
20
244.000
30
0.000
11
1283.170
21
276.000
31
0.000
0
POLYLINE
8
30
6
CONTINUOUS
62
7
66
1
10
0.000
20
0.000
30
0.000
70
1
0
VERTEX
8
30
10
1423.170
20
156.000
30
0.000
42
1.00000000
0
VERTEX
8
30
10
1423.170
20
124.000
30
0.000
42
1.00000000
0
SEQEND
0
LINE
8
30
6
CONTINUOUS
62
7
39
1.000
10
1407.170
20
140.000
30
0.000
11
1439.170
21
140.000
31
0.000
0
LINE
8
30
6
CONTINUOUS
62
7
39
1.000
10
1423.170
20
124.000
30
0.000
11
1423.170
21
156.000
31
0.000
0
POLYLINE
8
30
6
CONTINUOUS
62
7
66
1
10
0.000
20
0.000
30
0.000
70
1
0
VERTEX
8
30
10
1423.170
20
276.000
30
0.000
42
1.00000000
0
VERTEX
8
30
10
1423.170
20
244.000
30
0.000
42
1.00000000
0
SEQEND
0
LINE
8
30
6
CONTINUOUS
62
7
39
1.000
10
1407.170
20
260.000
30
0.000
11
1439.170
21
260.000
31
0.000
0
LINE
8
30
6
CONTINUOUS
62
7
39
1.000
10
1423.170
20
244.000
30
0.000
11
1423.170
21
276.000
31
0.000
0
POLYLINE
8
30
6
CONTINUOUS
62
7
66
1
10
0.000
20
0.000
30
0.000
70
1
0
VERTEX
8
30
10
1543.170
20
156.000
30
0.000
42
1.00000000
0
VERTEX
8
30
10
1543.170
20
124.000
30
0.000
42
1.00000000
0
SEQEND
0
LINE
8
30
6
CONTINUOUS
62
7
39
1.000
10
1527.170
20
140.000
30
0.000
11
1559.170
21
140.000
31
0.000
0
LINE
8
30
6
CONTINUOUS
62
7
39
1.000
10
1543.170
20
124.000
30
0.000
11
1543.170
21
156.000
31
0.000
0
POLYLINE
8
30
6
CONTINUOUS
62
7
66
1
10
0.000
20
0.000
30
0.000
70
1
0
VERTEX
8
30
10
1543.170
20
276.000
30
0.000
42
1.00000000
0
VERTEX
8
30
10
1543.170
20
244.000
30
0.000
42
1.00000000
0
SEQEND
0
LINE
8
30
6
CONTINUOUS
62
7
39
1.000
10
1527.170
20
260.000
30
0.000
11
1559.170
21
260.000
31
0.000
0
LINE
8
30
6
CONTINUOUS
62
7
39
1.000
10
1543.170
20
244.000
30
0.000
11
1543.170
21
276.000
31
0.000
0
POLYLINE
8
30
6
CONTINUOUS
62
7
66
1
10
0.000
20
0.000
30
0.000
70
1
0
VERTEX
8
30
10
1722.320
20
156.000
30
0.000
42
1.00000000
0
VERTEX
8
30
10
1722.320
20
124.000
30
0.000
42
1.00000000
0
SEQEND
0
LINE
8
30
6
CONTINUOUS
62
7
39
1.000
10
1706.320
20
140.000
30
0.000
11
1738.320
21
140.000
31
0.000
0
LINE
8
30
6
CONTINUOUS
62
7
39
1.000
10
1722.320
20
124.000
30
0.000
11
1722.320
21
156.000
31
0.000
0
POLYLINE
8
30
6
CONTINUOUS
62
7
66
1
10
0.000
20
0.000
30
0.000
70
1
0
VERTEX
8
30
10
1722.320
20
276.000
30
0.000
42
1.00000000
0
VERTEX
8
30
10
1722.320
20
244.000
30
0.000
42
1.00000000
0
SEQEND
0
LINE
8
30
6
CONTINUOUS
62
7
39
1.000
10
1706.320
20
260.000
30
0.000
11
1738.320
21
260.000
31
0.000
0
LINE
8
30
6
CONTINUOUS
62
7
39
1.000
10
1722.320
20
244.000
30
0.000
11
1722.320
21
276.000
31
0.000
0
POLYLINE
8
30
6
CONTINUOUS
62
7
66
1
10
0.000
20
0.000
30
0.000
70
1
0
VERTEX
8
30
10
1901.480
20
156.000
30
0.000
42
1.00000000
0
VERTEX
8
30
10
1901.480
20
124.000
30
0.000
42
1.00000000
0
SEQEND
0
LINE
8
30
6
CONTINUOUS
62
7
39
1.000
10
1885.480
20
140.000
30
0.000
11
1917.480
21
140.000
31
0.000
0
LINE
8
30
6
CONTINUOUS
62
7
39
1.000
10
1901.480
20
124.000
30
0.000
11
1901.480
21
156.000
31
0.000
0
POLYLINE
8
30
6
CONTINUOUS
62
7
66
1
10
0.000
20
0.000
30
0.000
70
1
0
VERTEX
8
30
10
1901.480
20
276.000
30
0.000
42
1.00000000
0
VERTEX
8
30
10
1901.480
20
244.000
30
0.000
42
1.00000000
0
SEQEND
0
LINE
8
30
6
CONTINUOUS
62
7
39
1.000
10
1885.480
20
260.000
30
0.000
11
1917.480
21
260.000
31
0.000
0
LINE
8
30
6
CONTINUOUS
62
7
39
1.000
10
1901.480
20
244.000
30
0.000
11
1901.480
21
276.000
31
0.000
0
POLYLINE
8
30
6
CONTINUOUS
62
7
66
1
10
0.000
20
0.000
30
0.000
70
1
0
VERTEX
8
30
10
2021.480
20
156.000
30
0.000
42
1.00000000
0
VERTEX
8
30
10
2021.480
20
124.000
30
0.000
42
1.00000000
0
SEQEND
0
LINE
8
30
6
CONTINUOUS
62
7
39
1.000
10
2005.480
20
140.000
30
0.000
11
2037.480
21
140.000
31
0.000
0
LINE
8
30
6
CONTINUOUS
62
7
39
1.000
10
2021.480
20
124.000
30
0.000
11
2021.480
21
156.000
31
0.000
0
POLYLINE
8
30
6
CONTINUOUS
62
7
66
1
10
0.000
20
0.000
30
0.000
70
1
0
VERTEX
8
30
10
2021.480
20
276.000
30
0.000
42
1.00000000
0
VERTEX
8
30
10
2021.480
20
244.000
30
0.000
42
1.00000000
0
SEQEND
0
LINE
8
30
6
CONTINUOUS
62
7
39
1.000
10
2005.480
20
260.000
30
0.000
11
2037.480
21
260.000
31
0.000
0
LINE
8
30
6
CONTINUOUS
62
7
39
1.000
10
2021.480
20
244.000
30
0.000
11
2021.480
21
276.000
31
0.000
0
POLYLINE
8
30
6
CONTINUOUS
62
7
66
1
10
0.000
20
0.000
30
0.000
70
1
0
VERTEX
8
30
10
2161.480
20
156.000
30
0.000
42
1.00000000
0
VERTEX
8
30
10
2161.480
20
124.000
30
0.000
42
1.00000000
0
SEQEND
0
LINE
8
30
6
CONTINUOUS
62
7
39
1.000
10
2145.480
20
140.000
30
0.000
11
2177.480
21
140.000
31
0.000
0
LINE
8
30
6
CONTINUOUS
62
7
39
1.000
10
2161.480
20
124.000
30
0.000
11
2161.480
21
156.000
31
0.000
0
POLYLINE
8
30
6
CONTINUOUS
62
7
66
1
10
0.000
20
0.000
30
0.000
70
1
0
VERTEX
8
30
10
2161.480
20
276.000
30
0.000
42
1.00000000
0
VERTEX
8
30
10
2161.480
20
244.000
30
0.000
42
1.00000000
0
SEQEND
0
LINE
8
30
6
CONTINUOUS
62
7
39
1.000
10
2145.480
20
260.000
30
0.000
11
2177.480
21
260.000
31
0.000
0
LINE
8
30
6
CONTINUOUS
62
7
39
1.000
10
2161.480
20
244.000
30
0.000
11
2161.480
21
276.000
31
0.000
0
ENDSEC
0
EOF
