0
SECTION
2
HEADER
9
$PDMODE
70
33
9
$PDSIZE
40
1.000
9
$EXTMIN
10
-434.550
20
-30.000
30
-1.000
9
$EXTMAX
10
4780.050
20
330.000
30
1.000
9
$LIMMIN
10
-434.550
20
-30.000
9
$LIMMAX
10
4780.050
20
330.000
0
ENDSEC
0
SECTION
2
TABLES
0
TABLE
2
LAYER
70
7
0
LAYER
2
SCRIBE
70
0
62
3
6
CONTINUOUS
0
LAYER
2
TEXT
70
0
62
7
6
CONTINUOUS
0
LAYER
2
CUT
70
0
62
7
6
CONTINUOUS
0
LAYER
2
18
70
0
62
7
6
CONTINUOUS
0
ENDTAB
0
TABLE
2
VPORT
70
4
0
VPORT
2
*ACTIVE
70
0
10
0.000000
20
0.000000
11
1.000000
21
1.000000
12
2172.750000
22
150.000000
13
0.000000
23
0.000000
14
1.000000
24
1.000000
15
1.000000
25
1.000000
16
0.000000
26
0.000000
36
1.000000
17
0.000000
27
0.000000
37
0.000000
40
4345.500000
41
1.500000
42
50.000000
43
0.000000
44
0.000000
50
0.000000
51
0.000000
71
0
72
100
73
1
74
1
75
0
76
0
77
0
78
0
0
ENDTAB
0
ENDSEC
0
SECTION
2
ENTITIES
0
TEXT
8
SCRIBE
62
3
10
30.000
20
30.000
30
0.000
40
10.000
1
OF315
0
TEXT
8
TEXT
62
7
10
30.000
20
15.000
30
0.000
40
10.000
1
PL20+S355JR+5
0
POLYLINE
8
CUT
6
CONTINUOUS
62
7
66
1
10
0.000
20
0.000
30
0.000
70
1
0
VERTEX
8
CUT
10
0.000
20
0.000
30
0.000
42
0.00000000
0
VERTEX
8
CUT
10
0.000
20
300.000
30
0.000
42
0.00000000
0
VERTEX
8
CUT
10
4345.500
20
300.000
30
0.000
42
0.00000000
0
VERTEX
8
CUT
10
4345.500
20
0.000
30
0.000
42
0.00000000
0
SEQEND
0
POLYLINE
8
18
6
CONTINUOUS
62
7
66
1
10
0.000
20
0.000
30
0.000
70
1
0
VERTEX
8
18
10
1186.590
20
119.000
30
0.000
42
1.00000000
0
VERTEX
8
18
10
1186.590
20
101.000
30
0.000
42
1.00000000
0
SEQEND
0
LINE
8
18
6
CONTINUOUS
62
7
39
1.000
10
1177.590
20
110.000
30
0.000
11
1195.590
21
110.000
31
0.000
0
LINE
8
18
6
CONTINUOUS
62
7
39
1.000
10
1186.590
20
101.000
30
0.000
11
1186.590
21
119.000
31
0.000
0
POLYLINE
8
18
6
CONTINUOUS
62
7
66
1
10
0.000
20
0.000
30
0.000
70
1
0
VERTEX
8
18
10
1186.590
20
199.000
30
0.000
42
1.00000000
0
VERTEX
8
18
10
1186.590
20
181.000
30
0.000
42
1.00000000
0
SEQEND
0
LINE
8
18
6
CONTINUOUS
62
7
39
1.000
10
1177.590
20
190.000
30
0.000
11
1195.590
21
190.000
31
0.000
0
LINE
8
18
6
CONTINUOUS
62
7
39
1.000
10
1186.590
20
181.000
30
0.000
11
1186.590
21
199.000
31
0.000
0
POLYLINE
8
18
6
CONTINUOUS
62
7
66
1
10
0.000
20
0.000
30
0.000
70
1
0
VERTEX
8
18
10
1266.590
20
119.000
30
0.000
42
1.00000000
0
VERTEX
8
18
10
1266.590
20
101.000
30
0.000
42
1.00000000
0
SEQEND
0
LINE
8
18
6
CONTINUOUS
62
7
39
1.000
10
1257.590
20
110.000
30
0.000
11
1275.590
21
110.000
31
0.000
0
LINE
8
18
6
CONTINUOUS
62
7
39
1.000
10
1266.590
20
101.000
30
0.000
11
1266.590
21
119.000
31
0.000
0
POLYLINE
8
18
6
CONTINUOUS
62
7
66
1
10
0.000
20
0.000
30
0.000
70
1
0
VERTEX
8
18
10
1266.590
20
199.000
30
0.000
42
1.00000000
0
VERTEX
8
18
10
1266.590
20
181.000
30
0.000
42
1.00000000
0
SEQEND
0
LINE
8
18
6
CONTINUOUS
62
7
39
1.000
10
1257.590
20
190.000
30
0.000
11
1275.590
21
190.000
31
0.000
0
LINE
8
18
6
CONTINUOUS
62
7
39
1.000
10
1266.590
20
181.000
30
0.000
11
1266.590
21
199.000
31
0.000
0
POLYLINE
8
18
6
CONTINUOUS
62
7
66
1
10
0.000
20
0.000
30
0.000
70
1
0
VERTEX
8
18
10
2622.590
20
119.000
30
0.000
42
1.00000000
0
VERTEX
8
18
10
2622.590
20
101.000
30
0.000
42
1.00000000
0
SEQEND
0
LINE
8
18
6
CONTINUOUS
62
7
39
1.000
10
2613.590
20
110.000
30
0.000
11
2631.590
21
110.000
31
0.000
0
LINE
8
18
6
CONTINUOUS
62
7
39
1.000
10
2622.590
20
101.000
30
0.000
11
2622.590
21
119.000
31
0.000
0
POLYLINE
8
18
6
CONTINUOUS
62
7
66
1
10
0.000
20
0.000
30
0.000
70
1
0
VERTEX
8
18
10
2622.590
20
199.000
30
0.000
42
1.00000000
0
VERTEX
8
18
10
2622.590
20
181.000
30
0.000
42
1.00000000
0
SEQEND
0
LINE
8
18
6
CONTINUOUS
62
7
39
1.000
10
2613.590
20
190.000
30
0.000
11
2631.590
21
190.000
31
0.000
0
LINE
8
18
6
CONTINUOUS
62
7
39
1.000
10
2622.590
20
181.000
30
0.000
11
2622.590
21
199.000
31
0.000
0
POLYLINE
8
18
6
CONTINUOUS
62
7
66
1
10
0.000
20
0.000
30
0.000
70
1
0
VERTEX
8
18
10
2702.590
20
119.000
30
0.000
42
1.00000000
0
VERTEX
8
18
10
2702.590
20
101.000
30
0.000
42
1.00000000
0
SEQEND
0
LINE
8
18
6
CONTINUOUS
62
7
39
1.000
10
2693.590
20
110.000
30
0.000
11
2711.590
21
110.000
31
0.000
0
LINE
8
18
6
CONTINUOUS
62
7
39
1.000
10
2702.590
20
101.000
30
0.000
11
2702.590
21
119.000
31
0.000
0
POLYLINE
8
18
6
CONTINUOUS
62
7
66
1
10
0.000
20
0.000
30
0.000
70
1
0
VERTEX
8
18
10
2702.590
20
199.000
30
0.000
42
1.00000000
0
VERTEX
8
18
10
2702.590
20
181.000
30
0.000
42
1.00000000
0
SEQEND
0
LINE
8
18
6
CONTINUOUS
62
7
39
1.000
10
2693.590
20
190.000
30
0.000
11
2711.590
21
190.000
31
0.000
0
LINE
8
18
6
CONTINUOUS
62
7
39
1.000
10
2702.590
20
181.000
30
0.000
11
2702.590
21
199.000
31
0.000
0
POLYLINE
8
18
6
CONTINUOUS
62
7
66
1
10
0.000
20
0.000
30
0.000
70
1
0
VERTEX
8
18
10
4058.580
20
119.000
30
0.000
42
1.00000000
0
VERTEX
8
18
10
4058.580
20
101.000
30
0.000
42
1.00000000
0
SEQEND
0
LINE
8
18
6
CONTINUOUS
62
7
39
1.000
10
4049.580
20
110.000
30
0.000
11
4067.580
21
110.000
31
0.000
0
LINE
8
18
6
CONTINUOUS
62
7
39
1.000
10
4058.580
20
101.000
30
0.000
11
4058.580
21
119.000
31
0.000
0
POLYLINE
8
18
6
CONTINUOUS
62
7
66
1
10
0.000
20
0.000
30
0.000
70
1
0
VERTEX
8
18
10
4058.580
20
199.000
30
0.000
42
1.00000000
0
VERTEX
8
18
10
4058.580
20
181.000
30
0.000
42
1.00000000
0
SEQEND
0
LINE
8
18
6
CONTINUOUS
62
7
39
1.000
10
4049.580
20
190.000
30
0.000
11
4067.580
21
190.000
31
0.000
0
LINE
8
18
6
CONTINUOUS
62
7
39
1.000
10
4058.580
20
181.000
30
0.000
11
4058.580
21
199.000
31
0.000
0
POLYLINE
8
18
6
CONTINUOUS
62
7
66
1
10
0.000
20
0.000
30
0.000
70
1
0
VERTEX
8
18
10
4138.580
20
119.000
30
0.000
42
1.00000000
0
VERTEX
8
18
10
4138.580
20
101.000
30
0.000
42
1.00000000
0
SEQEND
0
LINE
8
18
6
CONTINUOUS
62
7
39
1.000
10
4129.580
20
110.000
30
0.000
11
4147.580
21
110.000
31
0.000
0
LINE
8
18
6
CONTINUOUS
62
7
39
1.000
10
4138.580
20
101.000
30
0.000
11
4138.580
21
119.000
31
0.000
0
POLYLINE
8
18
6
CONTINUOUS
62
7
66
1
10
0.000
20
0.000
30
0.000
70
1
0
VERTEX
8
18
10
4138.580
20
199.000
30
0.000
42
1.00000000
0
VERTEX
8
18
10
4138.580
20
181.000
30
0.000
42
1.00000000
0
SEQEND
0
LINE
8
18
6
CONTINUOUS
62
7
39
1.000
10
4129.580
20
190.000
30
0.000
11
4147.580
21
190.000
31
0.000
0
LINE
8
18
6
CONTINUOUS
62
7
39
1.000
10
4138.580
20
181.000
30
0.000
11
4138.580
21
199.000
31
0.000
0
ENDSEC
0
EOF
