0
SECTION
2
HEADER
9
$PDMODE
70
33
9
$PDSIZE
40
1.000
9
$EXTMIN
10
-100.942
20
-40.000
30
-1.000
9
$EXTMAX
10
1110.362
20
440.000
30
1.000
9
$LIMMIN
10
-100.942
20
-40.000
9
$LIMMAX
10
1110.362
20
440.000
0
ENDSEC
0
SECTION
2
TABLES
0
TABLE
2
LAYER
70
7
0
LAYER
2
SCRIBE
70
0
62
3
6
CONTINUOUS
0
LAYER
2
TEXT
70
0
62
7
6
CONTINUOUS
0
LAYER
2
CUT
70
0
62
7
6
CONTINUOUS
0
LAYER
2
30
70
0
62
7
6
CONTINUOUS
0
ENDTAB
0
TABLE
2
VPORT
70
4
0
VPORT
2
*ACTIVE
70
0
10
0.000000
20
0.000000
11
1.000000
21
1.000000
12
504.710000
22
200.000000
13
0.000000
23
0.000000
14
1.000000
24
1.000000
15
1.000000
25
1.000000
16
0.000000
26
0.000000
36
1.000000
17
0.000000
27
0.000000
37
0.000000
40
1009.420000
41
1.500000
42
50.000000
43
0.000000
44
0.000000
50
0.000000
51
0.000000
71
0
72
100
73
1
74
1
75
0
76
0
77
0
78
0
0
ENDTAB
0
ENDSEC
0
SECTION
2
ENTITIES
0
TEXT
8
SCRIBE
62
3
10
30.000
20
30.000
30
0.000
40
10.000
1
PL118
0
TEXT
8
TEXT
62
7
10
30.000
20
15.000
30
0.000
40
10.000
1
PL20+S355JR+44
0
POLYLINE
8
CUT
6
CONTINUOUS
62
7
66
1
10
0.000
20
0.000
30
0.000
70
1
0
VERTEX
8
CUT
10
0.000
20
0.000
30
0.000
42
0.00000000
0
VERTEX
8
CUT
10
0.000
20
400.000
30
0.000
42
0.00000000
0
VERTEX
8
CUT
10
1009.420
20
400.000
30
0.000
42
0.00000000
0
VERTEX
8
CUT
10
1009.420
20
0.000
30
0.000
42
0.00000000
0
SEQEND
0
POLYLINE
8
30
6
CONTINUOUS
62
7
66
1
10
0.000
20
0.000
30
0.000
70
1
0
VERTEX
8
30
10
60.000
20
156.000
30
0.000
42
1.00000000
0
VERTEX
8
30
10
60.000
20
124.000
30
0.000
42
1.00000000
0
SEQEND
0
LINE
8
30
6
CONTINUOUS
62
7
39
1.000
10
44.000
20
140.000
30
0.000
11
76.000
21
140.000
31
0.000
0
LINE
8
30
6
CONTINUOUS
62
7
39
1.000
10
60.000
20
124.000
30
0.000
11
60.000
21
156.000
31
0.000
0
POLYLINE
8
30
6
CONTINUOUS
62
7
66
1
10
0.000
20
0.000
30
0.000
70
1
0
VERTEX
8
30
10
60.000
20
276.000
30
0.000
42
1.00000000
0
VERTEX
8
30
10
60.000
20
244.000
30
0.000
42
1.00000000
0
SEQEND
0
LINE
8
30
6
CONTINUOUS
62
7
39
1.000
10
44.000
20
260.000
30
0.000
11
76.000
21
260.000
31
0.000
0
LINE
8
30
6
CONTINUOUS
62
7
39
1.000
10
60.000
20
244.000
30
0.000
11
60.000
21
276.000
31
0.000
0
POLYLINE
8
30
6
CONTINUOUS
62
7
66
1
10
0.000
20
0.000
30
0.000
70
1
0
VERTEX
8
30
10
200.000
20
156.000
30
0.000
42
1.00000000
0
VERTEX
8
30
10
200.000
20
124.000
30
0.000
42
1.00000000
0
SEQEND
0
LINE
8
30
6
CONTINUOUS
62
7
39
1.000
10
184.000
20
140.000
30
0.000
11
216.000
21
140.000
31
0.000
0
LINE
8
30
6
CONTINUOUS
62
7
39
1.000
10
200.000
20
124.000
30
0.000
11
200.000
21
156.000
31
0.000
0
POLYLINE
8
30
6
CONTINUOUS
62
7
66
1
10
0.000
20
0.000
30
0.000
70
1
0
VERTEX
8
30
10
200.000
20
276.000
30
0.000
42
1.00000000
0
VERTEX
8
30
10
200.000
20
244.000
30
0.000
42
1.00000000
0
SEQEND
0
LINE
8
30
6
CONTINUOUS
62
7
39
1.000
10
184.000
20
260.000
30
0.000
11
216.000
21
260.000
31
0.000
0
LINE
8
30
6
CONTINUOUS
62
7
39
1.000
10
200.000
20
244.000
30
0.000
11
200.000
21
276.000
31
0.000
0
POLYLINE
8
30
6
CONTINUOUS
62
7
66
1
10
0.000
20
0.000
30
0.000
70
1
0
VERTEX
8
30
10
320.000
20
156.000
30
0.000
42
1.00000000
0
VERTEX
8
30
10
320.000
20
124.000
30
0.000
42
1.00000000
0
SEQEND
0
LINE
8
30
6
CONTINUOUS
62
7
39
1.000
10
304.000
20
140.000
30
0.000
11
336.000
21
140.000
31
0.000
0
LINE
8
30
6
CONTINUOUS
62
7
39
1.000
10
320.000
20
124.000
30
0.000
11
320.000
21
156.000
31
0.000
0
POLYLINE
8
30
6
CONTINUOUS
62
7
66
1
10
0.000
20
0.000
30
0.000
70
1
0
VERTEX
8
30
10
320.000
20
276.000
30
0.000
42
1.00000000
0
VERTEX
8
30
10
320.000
20
244.000
30
0.000
42
1.00000000
0
SEQEND
0
LINE
8
30
6
CONTINUOUS
62
7
39
1.000
10
304.000
20
260.000
30
0.000
11
336.000
21
260.000
31
0.000
0
LINE
8
30
6
CONTINUOUS
62
7
39
1.000
10
320.000
20
244.000
30
0.000
11
320.000
21
276.000
31
0.000
0
POLYLINE
8
30
6
CONTINUOUS
62
7
66
1
10
0.000
20
0.000
30
0.000
70
1
0
VERTEX
8
30
10
514.710
20
156.000
30
0.000
42
1.00000000
0
VERTEX
8
30
10
514.710
20
124.000
30
0.000
42
1.00000000
0
SEQEND
0
LINE
8
30
6
CONTINUOUS
62
7
39
1.000
10
498.710
20
140.000
30
0.000
11
530.710
21
140.000
31
0.000
0
LINE
8
30
6
CONTINUOUS
62
7
39
1.000
10
514.710
20
124.000
30
0.000
11
514.710
21
156.000
31
0.000
0
POLYLINE
8
30
6
CONTINUOUS
62
7
66
1
10
0.000
20
0.000
30
0.000
70
1
0
VERTEX
8
30
10
514.710
20
276.000
30
0.000
42
1.00000000
0
VERTEX
8
30
10
514.710
20
244.000
30
0.000
42
1.00000000
0
SEQEND
0
LINE
8
30
6
CONTINUOUS
62
7
39
1.000
10
498.710
20
260.000
30
0.000
11
530.710
21
260.000
31
0.000
0
LINE
8
30
6
CONTINUOUS
62
7
39
1.000
10
514.710
20
244.000
30
0.000
11
514.710
21
276.000
31
0.000
0
POLYLINE
8
30
6
CONTINUOUS
62
7
66
1
10
0.000
20
0.000
30
0.000
70
1
0
VERTEX
8
30
10
709.420
20
156.000
30
0.000
42
1.00000000
0
VERTEX
8
30
10
709.420
20
124.000
30
0.000
42
1.00000000
0
SEQEND
0
LINE
8
30
6
CONTINUOUS
62
7
39
1.000
10
693.420
20
140.000
30
0.000
11
725.420
21
140.000
31
0.000
0
LINE
8
30
6
CONTINUOUS
62
7
39
1.000
10
709.420
20
124.000
30
0.000
11
709.420
21
156.000
31
0.000
0
POLYLINE
8
30
6
CONTINUOUS
62
7
66
1
10
0.000
20
0.000
30
0.000
70
1
0
VERTEX
8
30
10
709.420
20
276.000
30
0.000
42
1.00000000
0
VERTEX
8
30
10
709.420
20
244.000
30
0.000
42
1.00000000
0
SEQEND
0
LINE
8
30
6
CONTINUOUS
62
7
39
1.000
10
693.420
20
260.000
30
0.000
11
725.420
21
260.000
31
0.000
0
LINE
8
30
6
CONTINUOUS
62
7
39
1.000
10
709.420
20
244.000
30
0.000
11
709.420
21
276.000
31
0.000
0
POLYLINE
8
30
6
CONTINUOUS
62
7
66
1
10
0.000
20
0.000
30
0.000
70
1
0
VERTEX
8
30
10
829.420
20
156.000
30
0.000
42
1.00000000
0
VERTEX
8
30
10
829.420
20
124.000
30
0.000
42
1.00000000
0
SEQEND
0
LINE
8
30
6
CONTINUOUS
62
7
39
1.000
10
813.420
20
140.000
30
0.000
11
845.420
21
140.000
31
0.000
0
LINE
8
30
6
CONTINUOUS
62
7
39
1.000
10
829.420
20
124.000
30
0.000
11
829.420
21
156.000
31
0.000
0
POLYLINE
8
30
6
CONTINUOUS
62
7
66
1
10
0.000
20
0.000
30
0.000
70
1
0
VERTEX
8
30
10
829.420
20
276.000
30
0.000
42
1.00000000
0
VERTEX
8
30
10
829.420
20
244.000
30
0.000
42
1.00000000
0
SEQEND
0
LINE
8
30
6
CONTINUOUS
62
7
39
1.000
10
813.420
20
260.000
30
0.000
11
845.420
21
260.000
31
0.000
0
LINE
8
30
6
CONTINUOUS
62
7
39
1.000
10
829.420
20
244.000
30
0.000
11
829.420
21
276.000
31
0.000
0
POLYLINE
8
30
6
CONTINUOUS
62
7
66
1
10
0.000
20
0.000
30
0.000
70
1
0
VERTEX
8
30
10
949.420
20
156.000
30
0.000
42
1.00000000
0
VERTEX
8
30
10
949.420
20
124.000
30
0.000
42
1.00000000
0
SEQEND
0
LINE
8
30
6
CONTINUOUS
62
7
39
1.000
10
933.420
20
140.000
30
0.000
11
965.420
21
140.000
31
0.000
0
LINE
8
30
6
CONTINUOUS
62
7
39
1.000
10
949.420
20
124.000
30
0.000
11
949.420
21
156.000
31
0.000
0
POLYLINE
8
30
6
CONTINUOUS
62
7
66
1
10
0.000
20
0.000
30
0.000
70
1
0
VERTEX
8
30
10
949.420
20
276.000
30
0.000
42
1.00000000
0
VERTEX
8
30
10
949.420
20
244.000
30
0.000
42
1.00000000
0
SEQEND
0
LINE
8
30
6
CONTINUOUS
62
7
39
1.000
10
933.420
20
260.000
30
0.000
11
965.420
21
260.000
31
0.000
0
LINE
8
30
6
CONTINUOUS
62
7
39
1.000
10
949.420
20
244.000
30
0.000
11
949.420
21
276.000
31
0.000
0
ENDSEC
0
EOF
