0
SECTION
2
HEADER
9
$PDMODE
70
33
9
$PDSIZE
40
1.000
9
$EXTMIN
10
-124.000
20
-50.000
30
-1.000
9
$EXTMAX
10
1364.000
20
550.000
30
1.000
9
$LIMMIN
10
-124.000
20
-50.000
9
$LIMMAX
10
1364.000
20
550.000
0
ENDSEC
0
SECTION
2
TABLES
0
TABLE
2
LAYER
70
7
0
LAYER
2
SCRIBE
70
0
62
3
6
CONTINUOUS
0
LAYER
2
TEXT
70
0
62
7
6
CONTINUOUS
0
LAYER
2
CUT
70
0
62
7
6
CONTINUOUS
0
LAYER
2
22
70
0
62
7
6
CONTINUOUS
0
ENDTAB
0
TABLE
2
VPORT
70
4
0
VPORT
2
*ACTIVE
70
0
10
0.000000
20
0.000000
11
1.000000
21
1.000000
12
620.000000
22
250.000000
13
0.000000
23
0.000000
14
1.000000
24
1.000000
15
1.000000
25
1.000000
16
0.000000
26
0.000000
36
1.000000
17
0.000000
27
0.000000
37
0.000000
40
1240.000000
41
1.500000
42
50.000000
43
0.000000
44
0.000000
50
0.000000
51
0.000000
71
0
72
100
73
1
74
1
75
0
76
0
77
0
78
0
0
ENDTAB
0
ENDSEC
0
SECTION
2
ENTITIES
0
TEXT
8
SCRIBE
62
3
10
30.000
20
30.000
30
0.000
40
10.000
1
PL149
0
TEXT
8
TEXT
62
7
10
30.000
20
15.000
30
0.000
40
10.000
1
PL20+S355JR+10
0
POLYLINE
8
CUT
6
CONTINUOUS
62
7
66
1
10
0.000
20
0.000
30
0.000
70
1
0
VERTEX
8
CUT
10
0.000
20
0.000
30
0.000
42
0.00000000
0
VERTEX
8
CUT
10
0.000
20
500.000
30
0.000
42
0.00000000
0
VERTEX
8
CUT
10
1240.000
20
500.000
30
0.000
42
0.00000000
0
VERTEX
8
CUT
10
1240.000
20
0.000
30
0.000
42
0.00000000
0
SEQEND
0
POLYLINE
8
22
6
CONTINUOUS
62
7
66
1
10
0.000
20
0.000
30
0.000
70
1
0
VERTEX
8
22
10
110.000
20
211.000
30
0.000
42
1.00000000
0
VERTEX
8
22
10
110.000
20
189.000
30
0.000
42
1.00000000
0
SEQEND
0
LINE
8
22
6
CONTINUOUS
62
7
39
1.000
10
99.000
20
200.000
30
0.000
11
121.000
21
200.000
31
0.000
0
LINE
8
22
6
CONTINUOUS
62
7
39
1.000
10
110.000
20
189.000
30
0.000
11
110.000
21
211.000
31
0.000
0
POLYLINE
8
22
6
CONTINUOUS
62
7
66
1
10
0.000
20
0.000
30
0.000
70
1
0
VERTEX
8
22
10
110.000
20
311.000
30
0.000
42
1.00000000
0
VERTEX
8
22
10
110.000
20
289.000
30
0.000
42
1.00000000
0
SEQEND
0
LINE
8
22
6
CONTINUOUS
62
7
39
1.000
10
99.000
20
300.000
30
0.000
11
121.000
21
300.000
31
0.000
0
LINE
8
22
6
CONTINUOUS
62
7
39
1.000
10
110.000
20
289.000
30
0.000
11
110.000
21
311.000
31
0.000
0
POLYLINE
8
22
6
CONTINUOUS
62
7
66
1
10
0.000
20
0.000
30
0.000
70
1
0
VERTEX
8
22
10
230.000
20
211.000
30
0.000
42
1.00000000
0
VERTEX
8
22
10
230.000
20
189.000
30
0.000
42
1.00000000
0
SEQEND
0
LINE
8
22
6
CONTINUOUS
62
7
39
1.000
10
219.000
20
200.000
30
0.000
11
241.000
21
200.000
31
0.000
0
LINE
8
22
6
CONTINUOUS
62
7
39
1.000
10
230.000
20
189.000
30
0.000
11
230.000
21
211.000
31
0.000
0
POLYLINE
8
22
6
CONTINUOUS
62
7
66
1
10
0.000
20
0.000
30
0.000
70
1
0
VERTEX
8
22
10
230.000
20
311.000
30
0.000
42
1.00000000
0
VERTEX
8
22
10
230.000
20
289.000
30
0.000
42
1.00000000
0
SEQEND
0
LINE
8
22
6
CONTINUOUS
62
7
39
1.000
10
219.000
20
300.000
30
0.000
11
241.000
21
300.000
31
0.000
0
LINE
8
22
6
CONTINUOUS
62
7
39
1.000
10
230.000
20
289.000
30
0.000
11
230.000
21
311.000
31
0.000
0
POLYLINE
8
22
6
CONTINUOUS
62
7
66
1
10
0.000
20
0.000
30
0.000
70
1
0
VERTEX
8
22
10
330.000
20
211.000
30
0.000
42
1.00000000
0
VERTEX
8
22
10
330.000
20
189.000
30
0.000
42
1.00000000
0
SEQEND
0
LINE
8
22
6
CONTINUOUS
62
7
39
1.000
10
319.000
20
200.000
30
0.000
11
341.000
21
200.000
31
0.000
0
LINE
8
22
6
CONTINUOUS
62
7
39
1.000
10
330.000
20
189.000
30
0.000
11
330.000
21
211.000
31
0.000
0
POLYLINE
8
22
6
CONTINUOUS
62
7
66
1
10
0.000
20
0.000
30
0.000
70
1
0
VERTEX
8
22
10
330.000
20
311.000
30
0.000
42
1.00000000
0
VERTEX
8
22
10
330.000
20
289.000
30
0.000
42
1.00000000
0
SEQEND
0
LINE
8
22
6
CONTINUOUS
62
7
39
1.000
10
319.000
20
300.000
30
0.000
11
341.000
21
300.000
31
0.000
0
LINE
8
22
6
CONTINUOUS
62
7
39
1.000
10
330.000
20
289.000
30
0.000
11
330.000
21
311.000
31
0.000
0
POLYLINE
8
22
6
CONTINUOUS
62
7
66
1
10
0.000
20
0.000
30
0.000
70
1
0
VERTEX
8
22
10
430.000
20
211.000
30
0.000
42
1.00000000
0
VERTEX
8
22
10
430.000
20
189.000
30
0.000
42
1.00000000
0
SEQEND
0
LINE
8
22
6
CONTINUOUS
62
7
39
1.000
10
419.000
20
200.000
30
0.000
11
441.000
21
200.000
31
0.000
0
LINE
8
22
6
CONTINUOUS
62
7
39
1.000
10
430.000
20
189.000
30
0.000
11
430.000
21
211.000
31
0.000
0
POLYLINE
8
22
6
CONTINUOUS
62
7
66
1
10
0.000
20
0.000
30
0.000
70
1
0
VERTEX
8
22
10
430.000
20
311.000
30
0.000
42
1.00000000
0
VERTEX
8
22
10
430.000
20
289.000
30
0.000
42
1.00000000
0
SEQEND
0
LINE
8
22
6
CONTINUOUS
62
7
39
1.000
10
419.000
20
300.000
30
0.000
11
441.000
21
300.000
31
0.000
0
LINE
8
22
6
CONTINUOUS
62
7
39
1.000
10
430.000
20
289.000
30
0.000
11
430.000
21
311.000
31
0.000
0
POLYLINE
8
22
6
CONTINUOUS
62
7
66
1
10
0.000
20
0.000
30
0.000
70
1
0
VERTEX
8
22
10
620.000
20
211.000
30
0.000
42
1.00000000
0
VERTEX
8
22
10
620.000
20
189.000
30
0.000
42
1.00000000
0
SEQEND
0
LINE
8
22
6
CONTINUOUS
62
7
39
1.000
10
609.000
20
200.000
30
0.000
11
631.000
21
200.000
31
0.000
0
LINE
8
22
6
CONTINUOUS
62
7
39
1.000
10
620.000
20
189.000
30
0.000
11
620.000
21
211.000
31
0.000
0
POLYLINE
8
22
6
CONTINUOUS
62
7
66
1
10
0.000
20
0.000
30
0.000
70
1
0
VERTEX
8
22
10
620.000
20
311.000
30
0.000
42
1.00000000
0
VERTEX
8
22
10
620.000
20
289.000
30
0.000
42
1.00000000
0
SEQEND
0
LINE
8
22
6
CONTINUOUS
62
7
39
1.000
10
609.000
20
300.000
30
0.000
11
631.000
21
300.000
31
0.000
0
LINE
8
22
6
CONTINUOUS
62
7
39
1.000
10
620.000
20
289.000
30
0.000
11
620.000
21
311.000
31
0.000
0
POLYLINE
8
22
6
CONTINUOUS
62
7
66
1
10
0.000
20
0.000
30
0.000
70
1
0
VERTEX
8
22
10
810.000
20
211.000
30
0.000
42
1.00000000
0
VERTEX
8
22
10
810.000
20
189.000
30
0.000
42
1.00000000
0
SEQEND
0
LINE
8
22
6
CONTINUOUS
62
7
39
1.000
10
799.000
20
200.000
30
0.000
11
821.000
21
200.000
31
0.000
0
LINE
8
22
6
CONTINUOUS
62
7
39
1.000
10
810.000
20
189.000
30
0.000
11
810.000
21
211.000
31
0.000
0
POLYLINE
8
22
6
CONTINUOUS
62
7
66
1
10
0.000
20
0.000
30
0.000
70
1
0
VERTEX
8
22
10
810.000
20
311.000
30
0.000
42
1.00000000
0
VERTEX
8
22
10
810.000
20
289.000
30
0.000
42
1.00000000
0
SEQEND
0
LINE
8
22
6
CONTINUOUS
62
7
39
1.000
10
799.000
20
300.000
30
0.000
11
821.000
21
300.000
31
0.000
0
LINE
8
22
6
CONTINUOUS
62
7
39
1.000
10
810.000
20
289.000
30
0.000
11
810.000
21
311.000
31
0.000
0
POLYLINE
8
22
6
CONTINUOUS
62
7
66
1
10
0.000
20
0.000
30
0.000
70
1
0
VERTEX
8
22
10
910.000
20
211.000
30
0.000
42
1.00000000
0
VERTEX
8
22
10
910.000
20
189.000
30
0.000
42
1.00000000
0
SEQEND
0
LINE
8
22
6
CONTINUOUS
62
7
39
1.000
10
899.000
20
200.000
30
0.000
11
921.000
21
200.000
31
0.000
0
LINE
8
22
6
CONTINUOUS
62
7
39
1.000
10
910.000
20
189.000
30
0.000
11
910.000
21
211.000
31
0.000
0
POLYLINE
8
22
6
CONTINUOUS
62
7
66
1
10
0.000
20
0.000
30
0.000
70
1
0
VERTEX
8
22
10
910.000
20
311.000
30
0.000
42
1.00000000
0
VERTEX
8
22
10
910.000
20
289.000
30
0.000
42
1.00000000
0
SEQEND
0
LINE
8
22
6
CONTINUOUS
62
7
39
1.000
10
899.000
20
300.000
30
0.000
11
921.000
21
300.000
31
0.000
0
LINE
8
22
6
CONTINUOUS
62
7
39
1.000
10
910.000
20
289.000
30
0.000
11
910.000
21
311.000
31
0.000
0
POLYLINE
8
22
6
CONTINUOUS
62
7
66
1
10
0.000
20
0.000
30
0.000
70
1
0
VERTEX
8
22
10
1010.000
20
211.000
30
0.000
42
1.00000000
0
VERTEX
8
22
10
1010.000
20
189.000
30
0.000
42
1.00000000
0
SEQEND
0
LINE
8
22
6
CONTINUOUS
62
7
39
1.000
10
999.000
20
200.000
30
0.000
11
1021.000
21
200.000
31
0.000
0
LINE
8
22
6
CONTINUOUS
62
7
39
1.000
10
1010.000
20
189.000
30
0.000
11
1010.000
21
211.000
31
0.000
0
POLYLINE
8
22
6
CONTINUOUS
62
7
66
1
10
0.000
20
0.000
30
0.000
70
1
0
VERTEX
8
22
10
1010.000
20
311.000
30
0.000
42
1.00000000
0
VERTEX
8
22
10
1010.000
20
289.000
30
0.000
42
1.00000000
0
SEQEND
0
LINE
8
22
6
CONTINUOUS
62
7
39
1.000
10
999.000
20
300.000
30
0.000
11
1021.000
21
300.000
31
0.000
0
LINE
8
22
6
CONTINUOUS
62
7
39
1.000
10
1010.000
20
289.000
30
0.000
11
1010.000
21
311.000
31
0.000
0
POLYLINE
8
22
6
CONTINUOUS
62
7
66
1
10
0.000
20
0.000
30
0.000
70
1
0
VERTEX
8
22
10
1130.000
20
211.000
30
0.000
42
1.00000000
0
VERTEX
8
22
10
1130.000
20
189.000
30
0.000
42
1.00000000
0
SEQEND
0
LINE
8
22
6
CONTINUOUS
62
7
39
1.000
10
1119.000
20
200.000
30
0.000
11
1141.000
21
200.000
31
0.000
0
LINE
8
22
6
CONTINUOUS
62
7
39
1.000
10
1130.000
20
189.000
30
0.000
11
1130.000
21
211.000
31
0.000
0
POLYLINE
8
22
6
CONTINUOUS
62
7
66
1
10
0.000
20
0.000
30
0.000
70
1
0
VERTEX
8
22
10
1130.000
20
311.000
30
0.000
42
1.00000000
0
VERTEX
8
22
10
1130.000
20
289.000
30
0.000
42
1.00000000
0
SEQEND
0
LINE
8
22
6
CONTINUOUS
62
7
39
1.000
10
1119.000
20
300.000
30
0.000
11
1141.000
21
300.000
31
0.000
0
LINE
8
22
6
CONTINUOUS
62
7
39
1.000
10
1130.000
20
289.000
30
0.000
11
1130.000
21
311.000
31
0.000
0
ENDSEC
0
EOF
