0
SECTION
2
HEADER
9
$PDMODE
70
33
9
$PDSIZE
40
1.000
9
$EXTMIN
10
-80.000
20
-22.500
30
-1.000
9
$EXTMAX
10
880.000
20
247.500
30
1.000
9
$LIMMIN
10
-80.000
20
-22.500
9
$LIMMAX
10
880.000
20
247.500
0
ENDSEC
0
SECTION
2
TABLES
0
TABLE
2
LAYER
70
7
0
LAYER
2
SCRIBE
70
0
62
3
6
CONTINUOUS
0
LAYER
2
TEXT
70
0
62
7
6
CONTINUOUS
0
LAYER
2
CUT
70
0
62
7
6
CONTINUOUS
0
LAYER
2
27
70
0
62
7
6
CONTINUOUS
0
ENDTAB
0
TABLE
2
VPORT
70
4
0
VPORT
2
*ACTIVE
70
0
10
0.000000
20
0.000000
11
1.000000
21
1.000000
12
400.000000
22
112.500000
13
0.000000
23
0.000000
14
1.000000
24
1.000000
15
1.000000
25
1.000000
16
0.000000
26
0.000000
36
1.000000
17
0.000000
27
0.000000
37
0.000000
40
800.000000
41
1.500000
42
50.000000
43
0.000000
44
0.000000
50
0.000000
51
0.000000
71
0
72
100
73
1
74
1
75
0
76
0
77
0
78
0
0
ENDTAB
0
ENDSEC
0
SECTION
2
ENTITIES
0
TEXT
8
SCRIBE
62
3
10
30.000
20
30.000
30
0.000
40
10.000
1
PL210
0
TEXT
8
TEXT
62
7
10
30.000
20
15.000
30
0.000
40
10.000
1
PL20+S355JR+5
0
POLYLINE
8
CUT
6
CONTINUOUS
62
7
66
1
10
0.000
20
0.000
30
0.000
70
1
0
VERTEX
8
CUT
10
0.000
20
0.000
30
0.000
42
0.00000000
0
VERTEX
8
CUT
10
0.000
20
225.000
30
0.000
42
0.00000000
0
VERTEX
8
CUT
10
800.000
20
225.000
30
0.000
42
0.00000000
0
VERTEX
8
CUT
10
800.000
20
0.000
30
0.000
42
0.00000000
0
SEQEND
0
POLYLINE
8
27
6
CONTINUOUS
62
7
66
1
10
0.000
20
0.000
30
0.000
70
1
0
VERTEX
8
27
10
220.000
20
65.500
30
0.000
42
1.00000000
0
VERTEX
8
27
10
220.000
20
39.500
30
0.000
42
1.00000000
0
SEQEND
0
LINE
8
27
6
CONTINUOUS
62
7
39
1.000
10
207.000
20
52.500
30
0.000
11
233.000
21
52.500
31
0.000
0
LINE
8
27
6
CONTINUOUS
62
7
39
1.000
10
220.000
20
39.500
30
0.000
11
220.000
21
65.500
31
0.000
0
POLYLINE
8
27
6
CONTINUOUS
62
7
66
1
10
0.000
20
0.000
30
0.000
70
1
0
VERTEX
8
27
10
220.000
20
185.500
30
0.000
42
1.00000000
0
VERTEX
8
27
10
220.000
20
159.500
30
0.000
42
1.00000000
0
SEQEND
0
LINE
8
27
6
CONTINUOUS
62
7
39
1.000
10
207.000
20
172.500
30
0.000
11
233.000
21
172.500
31
0.000
0
LINE
8
27
6
CONTINUOUS
62
7
39
1.000
10
220.000
20
159.500
30
0.000
11
220.000
21
185.500
31
0.000
0
POLYLINE
8
27
6
CONTINUOUS
62
7
66
1
10
0.000
20
0.000
30
0.000
70
1
0
VERTEX
8
27
10
340.000
20
65.500
30
0.000
42
1.00000000
0
VERTEX
8
27
10
340.000
20
39.500
30
0.000
42
1.00000000
0
SEQEND
0
LINE
8
27
6
CONTINUOUS
62
7
39
1.000
10
327.000
20
52.500
30
0.000
11
353.000
21
52.500
31
0.000
0
LINE
8
27
6
CONTINUOUS
62
7
39
1.000
10
340.000
20
39.500
30
0.000
11
340.000
21
65.500
31
0.000
0
POLYLINE
8
27
6
CONTINUOUS
62
7
66
1
10
0.000
20
0.000
30
0.000
70
1
0
VERTEX
8
27
10
340.000
20
185.500
30
0.000
42
1.00000000
0
VERTEX
8
27
10
340.000
20
159.500
30
0.000
42
1.00000000
0
SEQEND
0
LINE
8
27
6
CONTINUOUS
62
7
39
1.000
10
327.000
20
172.500
30
0.000
11
353.000
21
172.500
31
0.000
0
LINE
8
27
6
CONTINUOUS
62
7
39
1.000
10
340.000
20
159.500
30
0.000
11
340.000
21
185.500
31
0.000
0
POLYLINE
8
27
6
CONTINUOUS
62
7
66
1
10
0.000
20
0.000
30
0.000
70
1
0
VERTEX
8
27
10
460.000
20
65.500
30
0.000
42
1.00000000
0
VERTEX
8
27
10
460.000
20
39.500
30
0.000
42
1.00000000
0
SEQEND
0
LINE
8
27
6
CONTINUOUS
62
7
39
1.000
10
447.000
20
52.500
30
0.000
11
473.000
21
52.500
31
0.000
0
LINE
8
27
6
CONTINUOUS
62
7
39
1.000
10
460.000
20
39.500
30
0.000
11
460.000
21
65.500
31
0.000
0
POLYLINE
8
27
6
CONTINUOUS
62
7
66
1
10
0.000
20
0.000
30
0.000
70
1
0
VERTEX
8
27
10
460.000
20
185.500
30
0.000
42
1.00000000
0
VERTEX
8
27
10
460.000
20
159.500
30
0.000
42
1.00000000
0
SEQEND
0
LINE
8
27
6
CONTINUOUS
62
7
39
1.000
10
447.000
20
172.500
30
0.000
11
473.000
21
172.500
31
0.000
0
LINE
8
27
6
CONTINUOUS
62
7
39
1.000
10
460.000
20
159.500
30
0.000
11
460.000
21
185.500
31
0.000
0
POLYLINE
8
27
6
CONTINUOUS
62
7
66
1
10
0.000
20
0.000
30
0.000
70
1
0
VERTEX
8
27
10
580.000
20
65.500
30
0.000
42
1.00000000
0
VERTEX
8
27
10
580.000
20
39.500
30
0.000
42
1.00000000
0
SEQEND
0
LINE
8
27
6
CONTINUOUS
62
7
39
1.000
10
567.000
20
52.500
30
0.000
11
593.000
21
52.500
31
0.000
0
LINE
8
27
6
CONTINUOUS
62
7
39
1.000
10
580.000
20
39.500
30
0.000
11
580.000
21
65.500
31
0.000
0
POLYLINE
8
27
6
CONTINUOUS
62
7
66
1
10
0.000
20
0.000
30
0.000
70
1
0
VERTEX
8
27
10
580.000
20
185.500
30
0.000
42
1.00000000
0
VERTEX
8
27
10
580.000
20
159.500
30
0.000
42
1.00000000
0
SEQEND
0
LINE
8
27
6
CONTINUOUS
62
7
39
1.000
10
567.000
20
172.500
30
0.000
11
593.000
21
172.500
31
0.000
0
LINE
8
27
6
CONTINUOUS
62
7
39
1.000
10
580.000
20
159.500
30
0.000
11
580.000
21
185.500
31
0.000
0
ENDSEC
0
EOF
