0
SECTION
2
HEADER
9
$PDMODE
70
33
9
$PDSIZE
40
1.000
9
$EXTMIN
10
-53.000
20
-30.000
30
-1.000
9
$EXTMAX
10
583.000
20
330.000
30
1.000
9
$LIMMIN
10
-53.000
20
-30.000
9
$LIMMAX
10
583.000
20
330.000
0
ENDSEC
0
SECTION
2
TABLES
0
TABLE
2
LAYER
70
7
0
LAYER
2
SCRIBE
70
0
62
3
6
CONTINUOUS
0
LAYER
2
TEXT
70
0
62
7
6
CONTINUOUS
0
LAYER
2
CUT
70
0
62
7
6
CONTINUOUS
0
LAYER
2
OVERSIZE
70
0
62
7
6
CONTINUOUS
0
ENDTAB
0
TABLE
2
VPORT
70
4
0
VPORT
2
*ACTIVE
70
0
10
0.000000
20
0.000000
11
1.000000
21
1.000000
12
265.000000
22
150.000000
13
0.000000
23
0.000000
14
1.000000
24
1.000000
15
1.000000
25
1.000000
16
0.000000
26
0.000000
36
1.000000
17
0.000000
27
0.000000
37
0.000000
40
530.000000
41
1.500000
42
50.000000
43
0.000000
44
0.000000
50
0.000000
51
0.000000
71
0
72
100
73
1
74
1
75
0
76
0
77
0
78
0
0
ENDTAB
0
ENDSEC
0
SECTION
2
ENTITIES
0
TEXT
8
SCRIBE
62
3
10
30.000
20
30.000
30
0.000
40
10.000
1
PL232
0
TEXT
8
TEXT
62
7
10
30.000
20
15.000
30
0.000
40
10.000
1
PL20+S355JR+28
0
POLYLINE
8
CUT
6
CONTINUOUS
62
7
66
1
10
0.000
20
0.000
30
0.000
70
1
0
VERTEX
8
CUT
10
0.000
20
0.000
30
0.000
42
0.00000000
0
VERTEX
8
CUT
10
0.000
20
300.000
30
0.000
42
0.00000000
0
VERTEX
8
CUT
10
530.000
20
300.000
30
0.000
42
0.00000000
0
VERTEX
8
CUT
10
530.000
20
0.000
30
0.000
42
0.00000000
0
SEQEND
0
POLYLINE
8
OVERSIZE
6
CONTINUOUS
62
7
66
1
10
0.000
20
0.000
30
0.000
70
1
0
VERTEX
8
OVERSIZE
10
145.000
20
108.000
30
0.000
42
1.00000000
0
VERTEX
8
OVERSIZE
10
145.000
20
72.000
30
0.000
42
1.00000000
0
SEQEND
0
LINE
8
OVERSIZE
6
CONTINUOUS
62
7
39
1.000
10
127.000
20
90.000
30
0.000
11
163.000
21
90.000
31
0.000
0
LINE
8
OVERSIZE
6
CONTINUOUS
62
7
39
1.000
10
145.000
20
72.000
30
0.000
11
145.000
21
108.000
31
0.000
0
POLYLINE
8
OVERSIZE
6
CONTINUOUS
62
7
66
1
10
0.000
20
0.000
30
0.000
70
1
0
VERTEX
8
OVERSIZE
10
145.000
20
228.000
30
0.000
42
1.00000000
0
VERTEX
8
OVERSIZE
10
145.000
20
192.000
30
0.000
42
1.00000000
0
SEQEND
0
LINE
8
OVERSIZE
6
CONTINUOUS
62
7
39
1.000
10
127.000
20
210.000
30
0.000
11
163.000
21
210.000
31
0.000
0
LINE
8
OVERSIZE
6
CONTINUOUS
62
7
39
1.000
10
145.000
20
192.000
30
0.000
11
145.000
21
228.000
31
0.000
0
POLYLINE
8
OVERSIZE
6
CONTINUOUS
62
7
66
1
10
0.000
20
0.000
30
0.000
70
1
0
VERTEX
8
OVERSIZE
10
265.000
20
108.000
30
0.000
42
1.00000000
0
VERTEX
8
OVERSIZE
10
265.000
20
72.000
30
0.000
42
1.00000000
0
SEQEND
0
LINE
8
OVERSIZE
6
CONTINUOUS
62
7
39
1.000
10
247.000
20
90.000
30
0.000
11
283.000
21
90.000
31
0.000
0
LINE
8
OVERSIZE
6
CONTINUOUS
62
7
39
1.000
10
265.000
20
72.000
30
0.000
11
265.000
21
108.000
31
0.000
0
POLYLINE
8
OVERSIZE
6
CONTINUOUS
62
7
66
1
10
0.000
20
0.000
30
0.000
70
1
0
VERTEX
8
OVERSIZE
10
265.000
20
228.000
30
0.000
42
1.00000000
0
VERTEX
8
OVERSIZE
10
265.000
20
192.000
30
0.000
42
1.00000000
0
SEQEND
0
LINE
8
OVERSIZE
6
CONTINUOUS
62
7
39
1.000
10
247.000
20
210.000
30
0.000
11
283.000
21
210.000
31
0.000
0
LINE
8
OVERSIZE
6
CONTINUOUS
62
7
39
1.000
10
265.000
20
192.000
30
0.000
11
265.000
21
228.000
31
0.000
0
POLYLINE
8
OVERSIZE
6
CONTINUOUS
62
7
66
1
10
0.000
20
0.000
30
0.000
70
1
0
VERTEX
8
OVERSIZE
10
385.000
20
108.000
30
0.000
42
1.00000000
0
VERTEX
8
OVERSIZE
10
385.000
20
72.000
30
0.000
42
1.00000000
0
SEQEND
0
LINE
8
OVERSIZE
6
CONTINUOUS
62
7
39
1.000
10
367.000
20
90.000
30
0.000
11
403.000
21
90.000
31
0.000
0
LINE
8
OVERSIZE
6
CONTINUOUS
62
7
39
1.000
10
385.000
20
72.000
30
0.000
11
385.000
21
108.000
31
0.000
0
POLYLINE
8
OVERSIZE
6
CONTINUOUS
62
7
66
1
10
0.000
20
0.000
30
0.000
70
1
0
VERTEX
8
OVERSIZE
10
385.000
20
228.000
30
0.000
42
1.00000000
0
VERTEX
8
OVERSIZE
10
385.000
20
192.000
30
0.000
42
1.00000000
0
SEQEND
0
LINE
8
OVERSIZE
6
CONTINUOUS
62
7
39
1.000
10
367.000
20
210.000
30
0.000
11
403.000
21
210.000
31
0.000
0
LINE
8
OVERSIZE
6
CONTINUOUS
62
7
39
1.000
10
385.000
20
192.000
30
0.000
11
385.000
21
228.000
31
0.000
0
ENDSEC
0
EOF
