0
SECTION
2
HEADER
9
$PDMODE
70
33
9
$PDSIZE
40
1.000
9
$EXTMIN
10
-95.000
20
-45.000
30
-1.000
9
$EXTMAX
10
1045.000
20
495.000
30
1.000
9
$LIMMIN
10
-95.000
20
-45.000
9
$LIMMAX
10
1045.000
20
495.000
0
ENDSEC
0
SECTION
2
TABLES
0
TABLE
2
LAYER
70
7
0
LAYER
2
SCRIBE
70
0
62
3
6
CONTINUOUS
0
LAYER
2
TEXT
70
0
62
7
6
CONTINUOUS
0
LAYER
2
CUT
70
0
62
7
6
CONTINUOUS
0
LAYER
2
27
70
0
62
7
6
CONTINUOUS
0
ENDTAB
0
TABLE
2
VPORT
70
4
0
VPORT
2
*ACTIVE
70
0
10
0.000000
20
0.000000
11
1.000000
21
1.000000
12
475.000000
22
225.000000
13
0.000000
23
0.000000
14
1.000000
24
1.000000
15
1.000000
25
1.000000
16
0.000000
26
0.000000
36
1.000000
17
0.000000
27
0.000000
37
0.000000
40
950.000000
41
1.500000
42
50.000000
43
0.000000
44
0.000000
50
0.000000
51
0.000000
71
0
72
100
73
1
74
1
75
0
76
0
77
0
78
0
0
ENDTAB
0
ENDSEC
0
SECTION
2
ENTITIES
0
TEXT
8
SCRIBE
62
3
10
30.000
20
30.000
30
0.000
40
10.000
1
PL363
0
TEXT
8
TEXT
62
7
10
30.000
20
15.000
30
0.000
40
10.000
1
PL20+S355JR+12
0
POLYLINE
8
CUT
6
CONTINUOUS
62
7
66
1
10
0.000
20
0.000
30
0.000
70
1
0
VERTEX
8
CUT
10
0.000
20
0.000
30
0.000
42
0.00000000
0
VERTEX
8
CUT
10
0.000
20
450.000
30
0.000
42
0.00000000
0
VERTEX
8
CUT
10
950.000
20
450.000
30
0.000
42
0.00000000
0
VERTEX
8
CUT
10
950.000
20
0.000
30
0.000
42
0.00000000
0
SEQEND
0
POLYLINE
8
27
6
CONTINUOUS
62
7
66
1
10
0.000
20
0.000
30
0.000
70
1
0
VERTEX
8
27
10
50.000
20
178.000
30
0.000
42
1.00000000
0
VERTEX
8
27
10
50.000
20
152.000
30
0.000
42
1.00000000
0
SEQEND
0
LINE
8
27
6
CONTINUOUS
62
7
39
1.000
10
37.000
20
165.000
30
0.000
11
63.000
21
165.000
31
0.000
0
LINE
8
27
6
CONTINUOUS
62
7
39
1.000
10
50.000
20
152.000
30
0.000
11
50.000
21
178.000
31
0.000
0
POLYLINE
8
27
6
CONTINUOUS
62
7
66
1
10
0.000
20
0.000
30
0.000
70
1
0
VERTEX
8
27
10
50.000
20
298.000
30
0.000
42
1.00000000
0
VERTEX
8
27
10
50.000
20
272.000
30
0.000
42
1.00000000
0
SEQEND
0
LINE
8
27
6
CONTINUOUS
62
7
39
1.000
10
37.000
20
285.000
30
0.000
11
63.000
21
285.000
31
0.000
0
LINE
8
27
6
CONTINUOUS
62
7
39
1.000
10
50.000
20
272.000
30
0.000
11
50.000
21
298.000
31
0.000
0
POLYLINE
8
27
6
CONTINUOUS
62
7
66
1
10
0.000
20
0.000
30
0.000
70
1
0
VERTEX
8
27
10
170.000
20
178.000
30
0.000
42
1.00000000
0
VERTEX
8
27
10
170.000
20
152.000
30
0.000
42
1.00000000
0
SEQEND
0
LINE
8
27
6
CONTINUOUS
62
7
39
1.000
10
157.000
20
165.000
30
0.000
11
183.000
21
165.000
31
0.000
0
LINE
8
27
6
CONTINUOUS
62
7
39
1.000
10
170.000
20
152.000
30
0.000
11
170.000
21
178.000
31
0.000
0
POLYLINE
8
27
6
CONTINUOUS
62
7
66
1
10
0.000
20
0.000
30
0.000
70
1
0
VERTEX
8
27
10
170.000
20
298.000
30
0.000
42
1.00000000
0
VERTEX
8
27
10
170.000
20
272.000
30
0.000
42
1.00000000
0
SEQEND
0
LINE
8
27
6
CONTINUOUS
62
7
39
1.000
10
157.000
20
285.000
30
0.000
11
183.000
21
285.000
31
0.000
0
LINE
8
27
6
CONTINUOUS
62
7
39
1.000
10
170.000
20
272.000
30
0.000
11
170.000
21
298.000
31
0.000
0
POLYLINE
8
27
6
CONTINUOUS
62
7
66
1
10
0.000
20
0.000
30
0.000
70
1
0
VERTEX
8
27
10
270.000
20
178.000
30
0.000
42
1.00000000
0
VERTEX
8
27
10
270.000
20
152.000
30
0.000
42
1.00000000
0
SEQEND
0
LINE
8
27
6
CONTINUOUS
62
7
39
1.000
10
257.000
20
165.000
30
0.000
11
283.000
21
165.000
31
0.000
0
LINE
8
27
6
CONTINUOUS
62
7
39
1.000
10
270.000
20
152.000
30
0.000
11
270.000
21
178.000
31
0.000
0
POLYLINE
8
27
6
CONTINUOUS
62
7
66
1
10
0.000
20
0.000
30
0.000
70
1
0
VERTEX
8
27
10
270.000
20
298.000
30
0.000
42
1.00000000
0
VERTEX
8
27
10
270.000
20
272.000
30
0.000
42
1.00000000
0
SEQEND
0
LINE
8
27
6
CONTINUOUS
62
7
39
1.000
10
257.000
20
285.000
30
0.000
11
283.000
21
285.000
31
0.000
0
LINE
8
27
6
CONTINUOUS
62
7
39
1.000
10
270.000
20
272.000
30
0.000
11
270.000
21
298.000
31
0.000
0
POLYLINE
8
27
6
CONTINUOUS
62
7
66
1
10
0.000
20
0.000
30
0.000
70
1
0
VERTEX
8
27
10
370.000
20
178.000
30
0.000
42
1.00000000
0
VERTEX
8
27
10
370.000
20
152.000
30
0.000
42
1.00000000
0
SEQEND
0
LINE
8
27
6
CONTINUOUS
62
7
39
1.000
10
357.000
20
165.000
30
0.000
11
383.000
21
165.000
31
0.000
0
LINE
8
27
6
CONTINUOUS
62
7
39
1.000
10
370.000
20
152.000
30
0.000
11
370.000
21
178.000
31
0.000
0
POLYLINE
8
27
6
CONTINUOUS
62
7
66
1
10
0.000
20
0.000
30
0.000
70
1
0
VERTEX
8
27
10
370.000
20
298.000
30
0.000
42
1.00000000
0
VERTEX
8
27
10
370.000
20
272.000
30
0.000
42
1.00000000
0
SEQEND
0
LINE
8
27
6
CONTINUOUS
62
7
39
1.000
10
357.000
20
285.000
30
0.000
11
383.000
21
285.000
31
0.000
0
LINE
8
27
6
CONTINUOUS
62
7
39
1.000
10
370.000
20
272.000
30
0.000
11
370.000
21
298.000
31
0.000
0
POLYLINE
8
27
6
CONTINUOUS
62
7
66
1
10
0.000
20
0.000
30
0.000
70
1
0
VERTEX
8
27
10
475.000
20
178.000
30
0.000
42
1.00000000
0
VERTEX
8
27
10
475.000
20
152.000
30
0.000
42
1.00000000
0
SEQEND
0
LINE
8
27
6
CONTINUOUS
62
7
39
1.000
10
462.000
20
165.000
30
0.000
11
488.000
21
165.000
31
0.000
0
LINE
8
27
6
CONTINUOUS
62
7
39
1.000
10
475.000
20
152.000
30
0.000
11
475.000
21
178.000
31
0.000
0
POLYLINE
8
27
6
CONTINUOUS
62
7
66
1
10
0.000
20
0.000
30
0.000
70
1
0
VERTEX
8
27
10
475.000
20
298.000
30
0.000
42
1.00000000
0
VERTEX
8
27
10
475.000
20
272.000
30
0.000
42
1.00000000
0
SEQEND
0
LINE
8
27
6
CONTINUOUS
62
7
39
1.000
10
462.000
20
285.000
30
0.000
11
488.000
21
285.000
31
0.000
0
LINE
8
27
6
CONTINUOUS
62
7
39
1.000
10
475.000
20
272.000
30
0.000
11
475.000
21
298.000
31
0.000
0
POLYLINE
8
27
6
CONTINUOUS
62
7
66
1
10
0.000
20
0.000
30
0.000
70
1
0
VERTEX
8
27
10
580.000
20
178.000
30
0.000
42
1.00000000
0
VERTEX
8
27
10
580.000
20
152.000
30
0.000
42
1.00000000
0
SEQEND
0
LINE
8
27
6
CONTINUOUS
62
7
39
1.000
10
567.000
20
165.000
30
0.000
11
593.000
21
165.000
31
0.000
0
LINE
8
27
6
CONTINUOUS
62
7
39
1.000
10
580.000
20
152.000
30
0.000
11
580.000
21
178.000
31
0.000
0
POLYLINE
8
27
6
CONTINUOUS
62
7
66
1
10
0.000
20
0.000
30
0.000
70
1
0
VERTEX
8
27
10
580.000
20
298.000
30
0.000
42
1.00000000
0
VERTEX
8
27
10
580.000
20
272.000
30
0.000
42
1.00000000
0
SEQEND
0
LINE
8
27
6
CONTINUOUS
62
7
39
1.000
10
567.000
20
285.000
30
0.000
11
593.000
21
285.000
31
0.000
0
LINE
8
27
6
CONTINUOUS
62
7
39
1.000
10
580.000
20
272.000
30
0.000
11
580.000
21
298.000
31
0.000
0
POLYLINE
8
27
6
CONTINUOUS
62
7
66
1
10
0.000
20
0.000
30
0.000
70
1
0
VERTEX
8
27
10
680.000
20
178.000
30
0.000
42
1.00000000
0
VERTEX
8
27
10
680.000
20
152.000
30
0.000
42
1.00000000
0
SEQEND
0
LINE
8
27
6
CONTINUOUS
62
7
39
1.000
10
667.000
20
165.000
30
0.000
11
693.000
21
165.000
31
0.000
0
LINE
8
27
6
CONTINUOUS
62
7
39
1.000
10
680.000
20
152.000
30
0.000
11
680.000
21
178.000
31
0.000
0
POLYLINE
8
27
6
CONTINUOUS
62
7
66
1
10
0.000
20
0.000
30
0.000
70
1
0
VERTEX
8
27
10
680.000
20
298.000
30
0.000
42
1.00000000
0
VERTEX
8
27
10
680.000
20
272.000
30
0.000
42
1.00000000
0
SEQEND
0
LINE
8
27
6
CONTINUOUS
62
7
39
1.000
10
667.000
20
285.000
30
0.000
11
693.000
21
285.000
31
0.000
0
LINE
8
27
6
CONTINUOUS
62
7
39
1.000
10
680.000
20
272.000
30
0.000
11
680.000
21
298.000
31
0.000
0
POLYLINE
8
27
6
CONTINUOUS
62
7
66
1
10
0.000
20
0.000
30
0.000
70
1
0
VERTEX
8
27
10
780.000
20
178.000
30
0.000
42
1.00000000
0
VERTEX
8
27
10
780.000
20
152.000
30
0.000
42
1.00000000
0
SEQEND
0
LINE
8
27
6
CONTINUOUS
62
7
39
1.000
10
767.000
20
165.000
30
0.000
11
793.000
21
165.000
31
0.000
0
LINE
8
27
6
CONTINUOUS
62
7
39
1.000
10
780.000
20
152.000
30
0.000
11
780.000
21
178.000
31
0.000
0
POLYLINE
8
27
6
CONTINUOUS
62
7
66
1
10
0.000
20
0.000
30
0.000
70
1
0
VERTEX
8
27
10
780.000
20
298.000
30
0.000
42
1.00000000
0
VERTEX
8
27
10
780.000
20
272.000
30
0.000
42
1.00000000
0
SEQEND
0
LINE
8
27
6
CONTINUOUS
62
7
39
1.000
10
767.000
20
285.000
30
0.000
11
793.000
21
285.000
31
0.000
0
LINE
8
27
6
CONTINUOUS
62
7
39
1.000
10
780.000
20
272.000
30
0.000
11
780.000
21
298.000
31
0.000
0
POLYLINE
8
27
6
CONTINUOUS
62
7
66
1
10
0.000
20
0.000
30
0.000
70
1
0
VERTEX
8
27
10
900.000
20
178.000
30
0.000
42
1.00000000
0
VERTEX
8
27
10
900.000
20
152.000
30
0.000
42
1.00000000
0
SEQEND
0
LINE
8
27
6
CONTINUOUS
62
7
39
1.000
10
887.000
20
165.000
30
0.000
11
913.000
21
165.000
31
0.000
0
LINE
8
27
6
CONTINUOUS
62
7
39
1.000
10
900.000
20
152.000
30
0.000
11
900.000
21
178.000
31
0.000
0
POLYLINE
8
27
6
CONTINUOUS
62
7
66
1
10
0.000
20
0.000
30
0.000
70
1
0
VERTEX
8
27
10
900.000
20
298.000
30
0.000
42
1.00000000
0
VERTEX
8
27
10
900.000
20
272.000
30
0.000
42
1.00000000
0
SEQEND
0
LINE
8
27
6
CONTINUOUS
62
7
39
1.000
10
887.000
20
285.000
30
0.000
11
913.000
21
285.000
31
0.000
0
LINE
8
27
6
CONTINUOUS
62
7
39
1.000
10
900.000
20
272.000
30
0.000
11
900.000
21
298.000
31
0.000
0
ENDSEC
0
EOF
