0
SECTION
2
HEADER
9
$PDMODE
70
33
9
$PDSIZE
40
1.000
9
$EXTMIN
10
-189.488
20
-40.000
30
-1.000
9
$EXTMAX
10
2084.368
20
440.000
30
1.000
9
$LIMMIN
10
-189.488
20
-40.000
9
$LIMMAX
10
2084.368
20
440.000
0
ENDSEC
0
SECTION
2
TABLES
0
TABLE
2
LAYER
70
7
0
LAYER
2
SCRIBE
70
0
62
3
6
CONTINUOUS
0
LAYER
2
TEXT
70
0
62
7
6
CONTINUOUS
0
LAYER
2
CUT
70
0
62
7
6
CONTINUOUS
0
LAYER
2
27
70
0
62
7
6
CONTINUOUS
0
ENDTAB
0
TABLE
2
VPORT
70
4
0
VPORT
2
*ACTIVE
70
0
10
0.000000
20
0.000000
11
1.000000
21
1.000000
12
947.440000
22
200.000000
13
0.000000
23
0.000000
14
1.000000
24
1.000000
15
1.000000
25
1.000000
16
0.000000
26
0.000000
36
1.000000
17
0.000000
27
0.000000
37
0.000000
40
1894.880000
41
1.500000
42
50.000000
43
0.000000
44
0.000000
50
0.000000
51
0.000000
71
0
72
100
73
1
74
1
75
0
76
0
77
0
78
0
0
ENDTAB
0
ENDSEC
0
SECTION
2
ENTITIES
0
TEXT
8
SCRIBE
62
3
10
30.000
20
30.000
30
0.000
40
10.000
1
PL428
0
TEXT
8
TEXT
62
7
10
30.000
20
15.000
30
0.000
40
10.000
1
PL20+S355JR+1
0
POLYLINE
8
CUT
6
CONTINUOUS
62
7
66
1
10
0.000
20
0.000
30
0.000
70
1
0
VERTEX
8
CUT
10
0.000
20
0.000
30
0.000
42
0.00000000
0
VERTEX
8
CUT
10
0.000
20
400.000
30
0.000
42
0.00000000
0
VERTEX
8
CUT
10
1894.880
20
400.000
30
0.000
42
0.00000000
0
VERTEX
8
CUT
10
1894.880
20
0.000
30
0.000
42
0.00000000
0
SEQEND
0
POLYLINE
8
27
6
CONTINUOUS
62
7
66
1
10
0.000
20
0.000
30
0.000
70
1
0
VERTEX
8
27
10
91.230
20
128.000
30
0.000
42
1.00000000
0
VERTEX
8
27
10
91.230
20
102.000
30
0.000
42
1.00000000
0
SEQEND
0
LINE
8
27
6
CONTINUOUS
62
7
39
1.000
10
78.230
20
115.000
30
0.000
11
104.230
21
115.000
31
0.000
0
LINE
8
27
6
CONTINUOUS
62
7
39
1.000
10
91.230
20
102.000
30
0.000
11
91.230
21
128.000
31
0.000
0
POLYLINE
8
27
6
CONTINUOUS
62
7
66
1
10
0.000
20
0.000
30
0.000
70
1
0
VERTEX
8
27
10
91.230
20
298.000
30
0.000
42
1.00000000
0
VERTEX
8
27
10
91.230
20
272.000
30
0.000
42
1.00000000
0
SEQEND
0
LINE
8
27
6
CONTINUOUS
62
7
39
1.000
10
78.230
20
285.000
30
0.000
11
104.230
21
285.000
31
0.000
0
LINE
8
27
6
CONTINUOUS
62
7
39
1.000
10
91.230
20
272.000
30
0.000
11
91.230
21
298.000
31
0.000
0
POLYLINE
8
27
6
CONTINUOUS
62
7
66
1
10
0.000
20
0.000
30
0.000
70
1
0
VERTEX
8
27
10
221.230
20
128.000
30
0.000
42
1.00000000
0
VERTEX
8
27
10
221.230
20
102.000
30
0.000
42
1.00000000
0
SEQEND
0
LINE
8
27
6
CONTINUOUS
62
7
39
1.000
10
208.230
20
115.000
30
0.000
11
234.230
21
115.000
31
0.000
0
LINE
8
27
6
CONTINUOUS
62
7
39
1.000
10
221.230
20
102.000
30
0.000
11
221.230
21
128.000
31
0.000
0
POLYLINE
8
27
6
CONTINUOUS
62
7
66
1
10
0.000
20
0.000
30
0.000
70
1
0
VERTEX
8
27
10
221.230
20
298.000
30
0.000
42
1.00000000
0
VERTEX
8
27
10
221.230
20
272.000
30
0.000
42
1.00000000
0
SEQEND
0
LINE
8
27
6
CONTINUOUS
62
7
39
1.000
10
208.230
20
285.000
30
0.000
11
234.230
21
285.000
31
0.000
0
LINE
8
27
6
CONTINUOUS
62
7
39
1.000
10
221.230
20
272.000
30
0.000
11
221.230
21
298.000
31
0.000
0
POLYLINE
8
27
6
CONTINUOUS
62
7
66
1
10
0.000
20
0.000
30
0.000
70
1
0
VERTEX
8
27
10
435.230
20
128.000
30
0.000
42
1.00000000
0
VERTEX
8
27
10
435.230
20
102.000
30
0.000
42
1.00000000
0
SEQEND
0
LINE
8
27
6
CONTINUOUS
62
7
39
1.000
10
422.230
20
115.000
30
0.000
11
448.230
21
115.000
31
0.000
0
LINE
8
27
6
CONTINUOUS
62
7
39
1.000
10
435.230
20
102.000
30
0.000
11
435.230
21
128.000
31
0.000
0
POLYLINE
8
27
6
CONTINUOUS
62
7
66
1
10
0.000
20
0.000
30
0.000
70
1
0
VERTEX
8
27
10
435.230
20
298.000
30
0.000
42
1.00000000
0
VERTEX
8
27
10
435.230
20
272.000
30
0.000
42
1.00000000
0
SEQEND
0
LINE
8
27
6
CONTINUOUS
62
7
39
1.000
10
422.230
20
285.000
30
0.000
11
448.230
21
285.000
31
0.000
0
LINE
8
27
6
CONTINUOUS
62
7
39
1.000
10
435.230
20
272.000
30
0.000
11
435.230
21
298.000
31
0.000
0
POLYLINE
8
27
6
CONTINUOUS
62
7
66
1
10
0.000
20
0.000
30
0.000
70
1
0
VERTEX
8
27
10
649.230
20
128.000
30
0.000
42
1.00000000
0
VERTEX
8
27
10
649.230
20
102.000
30
0.000
42
1.00000000
0
SEQEND
0
LINE
8
27
6
CONTINUOUS
62
7
39
1.000
10
636.230
20
115.000
30
0.000
11
662.230
21
115.000
31
0.000
0
LINE
8
27
6
CONTINUOUS
62
7
39
1.000
10
649.230
20
102.000
30
0.000
11
649.230
21
128.000
31
0.000
0
POLYLINE
8
27
6
CONTINUOUS
62
7
66
1
10
0.000
20
0.000
30
0.000
70
1
0
VERTEX
8
27
10
649.230
20
298.000
30
0.000
42
1.00000000
0
VERTEX
8
27
10
649.230
20
272.000
30
0.000
42
1.00000000
0
SEQEND
0
LINE
8
27
6
CONTINUOUS
62
7
39
1.000
10
636.230
20
285.000
30
0.000
11
662.230
21
285.000
31
0.000
0
LINE
8
27
6
CONTINUOUS
62
7
39
1.000
10
649.230
20
272.000
30
0.000
11
649.230
21
298.000
31
0.000
0
POLYLINE
8
27
6
CONTINUOUS
62
7
66
1
10
0.000
20
0.000
30
0.000
70
1
0
VERTEX
8
27
10
779.230
20
128.000
30
0.000
42
1.00000000
0
VERTEX
8
27
10
779.230
20
102.000
30
0.000
42
1.00000000
0
SEQEND
0
LINE
8
27
6
CONTINUOUS
62
7
39
1.000
10
766.230
20
115.000
30
0.000
11
792.230
21
115.000
31
0.000
0
LINE
8
27
6
CONTINUOUS
62
7
39
1.000
10
779.230
20
102.000
30
0.000
11
779.230
21
128.000
31
0.000
0
POLYLINE
8
27
6
CONTINUOUS
62
7
66
1
10
0.000
20
0.000
30
0.000
70
1
0
VERTEX
8
27
10
779.230
20
298.000
30
0.000
42
1.00000000
0
VERTEX
8
27
10
779.230
20
272.000
30
0.000
42
1.00000000
0
SEQEND
0
LINE
8
27
6
CONTINUOUS
62
7
39
1.000
10
766.230
20
285.000
30
0.000
11
792.230
21
285.000
31
0.000
0
LINE
8
27
6
CONTINUOUS
62
7
39
1.000
10
779.230
20
272.000
30
0.000
11
779.230
21
298.000
31
0.000
0
POLYLINE
8
27
6
CONTINUOUS
62
7
66
1
10
0.000
20
0.000
30
0.000
70
1
0
VERTEX
8
27
10
1149.880
20
128.000
30
0.000
42
1.00000000
0
VERTEX
8
27
10
1149.880
20
102.000
30
0.000
42
1.00000000
0
SEQEND
0
LINE
8
27
6
CONTINUOUS
62
7
39
1.000
10
1136.880
20
115.000
30
0.000
11
1162.880
21
115.000
31
0.000
0
LINE
8
27
6
CONTINUOUS
62
7
39
1.000
10
1149.880
20
102.000
30
0.000
11
1149.880
21
128.000
31
0.000
0
POLYLINE
8
27
6
CONTINUOUS
62
7
66
1
10
0.000
20
0.000
30
0.000
70
1
0
VERTEX
8
27
10
1149.880
20
298.000
30
0.000
42
1.00000000
0
VERTEX
8
27
10
1149.880
20
272.000
30
0.000
42
1.00000000
0
SEQEND
0
LINE
8
27
6
CONTINUOUS
62
7
39
1.000
10
1136.880
20
285.000
30
0.000
11
1162.880
21
285.000
31
0.000
0
LINE
8
27
6
CONTINUOUS
62
7
39
1.000
10
1149.880
20
272.000
30
0.000
11
1149.880
21
298.000
31
0.000
0
POLYLINE
8
27
6
CONTINUOUS
62
7
66
1
10
0.000
20
0.000
30
0.000
70
1
0
VERTEX
8
27
10
1279.880
20
128.000
30
0.000
42
1.00000000
0
VERTEX
8
27
10
1279.880
20
102.000
30
0.000
42
1.00000000
0
SEQEND
0
LINE
8
27
6
CONTINUOUS
62
7
39
1.000
10
1266.880
20
115.000
30
0.000
11
1292.880
21
115.000
31
0.000
0
LINE
8
27
6
CONTINUOUS
62
7
39
1.000
10
1279.880
20
102.000
30
0.000
11
1279.880
21
128.000
31
0.000
0
POLYLINE
8
27
6
CONTINUOUS
62
7
66
1
10
0.000
20
0.000
30
0.000
70
1
0
VERTEX
8
27
10
1279.880
20
298.000
30
0.000
42
1.00000000
0
VERTEX
8
27
10
1279.880
20
272.000
30
0.000
42
1.00000000
0
SEQEND
0
LINE
8
27
6
CONTINUOUS
62
7
39
1.000
10
1266.880
20
285.000
30
0.000
11
1292.880
21
285.000
31
0.000
0
LINE
8
27
6
CONTINUOUS
62
7
39
1.000
10
1279.880
20
272.000
30
0.000
11
1279.880
21
298.000
31
0.000
0
POLYLINE
8
27
6
CONTINUOUS
62
7
66
1
10
0.000
20
0.000
30
0.000
70
1
0
VERTEX
8
27
10
1386.880
20
128.000
30
0.000
42
1.00000000
0
VERTEX
8
27
10
1386.880
20
102.000
30
0.000
42
1.00000000
0
SEQEND
0
LINE
8
27
6
CONTINUOUS
62
7
39
1.000
10
1373.880
20
115.000
30
0.000
11
1399.880
21
115.000
31
0.000
0
LINE
8
27
6
CONTINUOUS
62
7
39
1.000
10
1386.880
20
102.000
30
0.000
11
1386.880
21
128.000
31
0.000
0
POLYLINE
8
27
6
CONTINUOUS
62
7
66
1
10
0.000
20
0.000
30
0.000
70
1
0
VERTEX
8
27
10
1386.880
20
298.000
30
0.000
42
1.00000000
0
VERTEX
8
27
10
1386.880
20
272.000
30
0.000
42
1.00000000
0
SEQEND
0
LINE
8
27
6
CONTINUOUS
62
7
39
1.000
10
1373.880
20
285.000
30
0.000
11
1399.880
21
285.000
31
0.000
0
LINE
8
27
6
CONTINUOUS
62
7
39
1.000
10
1386.880
20
272.000
30
0.000
11
1386.880
21
298.000
31
0.000
0
POLYLINE
8
27
6
CONTINUOUS
62
7
66
1
10
0.000
20
0.000
30
0.000
70
1
0
VERTEX
8
27
10
1493.880
20
128.000
30
0.000
42
1.00000000
0
VERTEX
8
27
10
1493.880
20
102.000
30
0.000
42
1.00000000
0
SEQEND
0
LINE
8
27
6
CONTINUOUS
62
7
39
1.000
10
1480.880
20
115.000
30
0.000
11
1506.880
21
115.000
31
0.000
0
LINE
8
27
6
CONTINUOUS
62
7
39
1.000
10
1493.880
20
102.000
30
0.000
11
1493.880
21
128.000
31
0.000
0
POLYLINE
8
27
6
CONTINUOUS
62
7
66
1
10
0.000
20
0.000
30
0.000
70
1
0
VERTEX
8
27
10
1493.880
20
298.000
30
0.000
42
1.00000000
0
VERTEX
8
27
10
1493.880
20
272.000
30
0.000
42
1.00000000
0
SEQEND
0
LINE
8
27
6
CONTINUOUS
62
7
39
1.000
10
1480.880
20
285.000
30
0.000
11
1506.880
21
285.000
31
0.000
0
LINE
8
27
6
CONTINUOUS
62
7
39
1.000
10
1493.880
20
272.000
30
0.000
11
1493.880
21
298.000
31
0.000
0
POLYLINE
8
27
6
CONTINUOUS
62
7
66
1
10
0.000
20
0.000
30
0.000
70
1
0
VERTEX
8
27
10
1600.880
20
128.000
30
0.000
42
1.00000000
0
VERTEX
8
27
10
1600.880
20
102.000
30
0.000
42
1.00000000
0
SEQEND
0
LINE
8
27
6
CONTINUOUS
62
7
39
1.000
10
1587.880
20
115.000
30
0.000
11
1613.880
21
115.000
31
0.000
0
LINE
8
27
6
CONTINUOUS
62
7
39
1.000
10
1600.880
20
102.000
30
0.000
11
1600.880
21
128.000
31
0.000
0
POLYLINE
8
27
6
CONTINUOUS
62
7
66
1
10
0.000
20
0.000
30
0.000
70
1
0
VERTEX
8
27
10
1600.880
20
298.000
30
0.000
42
1.00000000
0
VERTEX
8
27
10
1600.880
20
272.000
30
0.000
42
1.00000000
0
SEQEND
0
LINE
8
27
6
CONTINUOUS
62
7
39
1.000
10
1587.880
20
285.000
30
0.000
11
1613.880
21
285.000
31
0.000
0
LINE
8
27
6
CONTINUOUS
62
7
39
1.000
10
1600.880
20
272.000
30
0.000
11
1600.880
21
298.000
31
0.000
0
POLYLINE
8
27
6
CONTINUOUS
62
7
66
1
10
0.000
20
0.000
30
0.000
70
1
0
VERTEX
8
27
10
1707.880
20
128.000
30
0.000
42
1.00000000
0
VERTEX
8
27
10
1707.880
20
102.000
30
0.000
42
1.00000000
0
SEQEND
0
LINE
8
27
6
CONTINUOUS
62
7
39
1.000
10
1694.880
20
115.000
30
0.000
11
1720.880
21
115.000
31
0.000
0
LINE
8
27
6
CONTINUOUS
62
7
39
1.000
10
1707.880
20
102.000
30
0.000
11
1707.880
21
128.000
31
0.000
0
POLYLINE
8
27
6
CONTINUOUS
62
7
66
1
10
0.000
20
0.000
30
0.000
70
1
0
VERTEX
8
27
10
1707.880
20
298.000
30
0.000
42
1.00000000
0
VERTEX
8
27
10
1707.880
20
272.000
30
0.000
42
1.00000000
0
SEQEND
0
LINE
8
27
6
CONTINUOUS
62
7
39
1.000
10
1694.880
20
285.000
30
0.000
11
1720.880
21
285.000
31
0.000
0
LINE
8
27
6
CONTINUOUS
62
7
39
1.000
10
1707.880
20
272.000
30
0.000
11
1707.880
21
298.000
31
0.000
0
POLYLINE
8
27
6
CONTINUOUS
62
7
66
1
10
0.000
20
0.000
30
0.000
70
1
0
VERTEX
8
27
10
1837.880
20
128.000
30
0.000
42
1.00000000
0
VERTEX
8
27
10
1837.880
20
102.000
30
0.000
42
1.00000000
0
SEQEND
0
LINE
8
27
6
CONTINUOUS
62
7
39
1.000
10
1824.880
20
115.000
30
0.000
11
1850.880
21
115.000
31
0.000
0
LINE
8
27
6
CONTINUOUS
62
7
39
1.000
10
1837.880
20
102.000
30
0.000
11
1837.880
21
128.000
31
0.000
0
POLYLINE
8
27
6
CONTINUOUS
62
7
66
1
10
0.000
20
0.000
30
0.000
70
1
0
VERTEX
8
27
10
1837.880
20
298.000
30
0.000
42
1.00000000
0
VERTEX
8
27
10
1837.880
20
272.000
30
0.000
42
1.00000000
0
SEQEND
0
LINE
8
27
6
CONTINUOUS
62
7
39
1.000
10
1824.880
20
285.000
30
0.000
11
1850.880
21
285.000
31
0.000
0
LINE
8
27
6
CONTINUOUS
62
7
39
1.000
10
1837.880
20
272.000
30
0.000
11
1837.880
21
298.000
31
0.000
0
ENDSEC
0
EOF
