0
SECTION
2
HEADER
9
$PDMODE
70
33
9
$PDSIZE
40
1.000
9
$EXTMIN
10
-599.006
20
-17.500
30
-1.000
9
$EXTMAX
10
6589.066
20
192.500
30
1.000
9
$LIMMIN
10
-599.006
20
-17.500
9
$LIMMAX
10
6589.066
20
192.500
0
ENDSEC
0
SECTION
2
TABLES
0
TABLE
2
LAYER
70
7
0
LAYER
2
SCRIBE
70
0
62
3
6
CONTINUOUS
0
LAYER
2
TEXT
70
0
62
7
6
CONTINUOUS
0
LAYER
2
CUT
70
0
62
7
6
CONTINUOUS
0
LAYER
2
18
70
0
62
7
6
CONTINUOUS
0
ENDTAB
0
TABLE
2
VPORT
70
4
0
VPORT
2
*ACTIVE
70
0
10
0.000000
20
0.000000
11
1.000000
21
1.000000
12
2995.030000
22
87.500000
13
0.000000
23
0.000000
14
1.000000
24
1.000000
15
1.000000
25
1.000000
16
0.000000
26
0.000000
36
1.000000
17
0.000000
27
0.000000
37
0.000000
40
5990.060000
41
1.500000
42
50.000000
43
0.000000
44
0.000000
50
0.000000
51
0.000000
71
0
72
100
73
1
74
1
75
0
76
0
77
0
78
0
0
ENDTAB
0
ENDSEC
0
SECTION
2
ENTITIES
0
TEXT
8
SCRIBE
62
3
10
30.000
20
30.000
30
0.000
40
10.000
1
OF293
0
TEXT
8
TEXT
62
7
10
30.000
20
15.000
30
0.000
40
10.000
1
PLT8+S355JR+1
0
POLYLINE
8
CUT
6
CONTINUOUS
62
7
66
1
10
0.000
20
0.000
30
0.000
70
1
0
VERTEX
8
CUT
10
0.000
20
0.000
30
0.000
42
0.00000000
0
VERTEX
8
CUT
10
0.000
20
175.000
30
0.000
42
0.00000000
0
VERTEX
8
CUT
10
5990.060
20
175.000
30
0.000
42
0.00000000
0
VERTEX
8
CUT
10
5990.060
20
0.000
30
0.000
42
0.00000000
0
SEQEND
0
POLYLINE
8
18
6
CONTINUOUS
62
7
66
1
10
0.000
20
0.000
30
0.000
70
1
0
VERTEX
8
18
10
1496.070
20
56.340
30
0.000
42
1.00000000
0
VERTEX
8
18
10
1496.070
20
38.340
30
0.000
42
1.00000000
0
SEQEND
0
LINE
8
18
6
CONTINUOUS
62
7
39
1.000
10
1487.070
20
47.340
30
0.000
11
1505.070
21
47.340
31
0.000
0
LINE
8
18
6
CONTINUOUS
62
7
39
1.000
10
1496.070
20
38.340
30
0.000
11
1496.070
21
56.340
31
0.000
0
POLYLINE
8
18
6
CONTINUOUS
62
7
66
1
10
0.000
20
0.000
30
0.000
70
1
0
VERTEX
8
18
10
1496.070
20
136.340
30
0.000
42
1.00000000
0
VERTEX
8
18
10
1496.070
20
118.340
30
0.000
42
1.00000000
0
SEQEND
0
LINE
8
18
6
CONTINUOUS
62
7
39
1.000
10
1487.070
20
127.340
30
0.000
11
1505.070
21
127.340
31
0.000
0
LINE
8
18
6
CONTINUOUS
62
7
39
1.000
10
1496.070
20
118.340
30
0.000
11
1496.070
21
136.340
31
0.000
0
POLYLINE
8
18
6
CONTINUOUS
62
7
66
1
10
0.000
20
0.000
30
0.000
70
1
0
VERTEX
8
18
10
1576.070
20
56.340
30
0.000
42
1.00000000
0
VERTEX
8
18
10
1576.070
20
38.340
30
0.000
42
1.00000000
0
SEQEND
0
LINE
8
18
6
CONTINUOUS
62
7
39
1.000
10
1567.070
20
47.340
30
0.000
11
1585.070
21
47.340
31
0.000
0
LINE
8
18
6
CONTINUOUS
62
7
39
1.000
10
1576.070
20
38.340
30
0.000
11
1576.070
21
56.340
31
0.000
0
POLYLINE
8
18
6
CONTINUOUS
62
7
66
1
10
0.000
20
0.000
30
0.000
70
1
0
VERTEX
8
18
10
1576.070
20
136.340
30
0.000
42
1.00000000
0
VERTEX
8
18
10
1576.070
20
118.340
30
0.000
42
1.00000000
0
SEQEND
0
LINE
8
18
6
CONTINUOUS
62
7
39
1.000
10
1567.070
20
127.340
30
0.000
11
1585.070
21
127.340
31
0.000
0
LINE
8
18
6
CONTINUOUS
62
7
39
1.000
10
1576.070
20
118.340
30
0.000
11
1576.070
21
136.340
31
0.000
0
POLYLINE
8
18
6
CONTINUOUS
62
7
66
1
10
0.000
20
0.000
30
0.000
70
1
0
VERTEX
8
18
10
3296.070
20
56.340
30
0.000
42
1.00000000
0
VERTEX
8
18
10
3296.070
20
38.340
30
0.000
42
1.00000000
0
SEQEND
0
LINE
8
18
6
CONTINUOUS
62
7
39
1.000
10
3287.070
20
47.340
30
0.000
11
3305.070
21
47.340
31
0.000
0
LINE
8
18
6
CONTINUOUS
62
7
39
1.000
10
3296.070
20
38.340
30
0.000
11
3296.070
21
56.340
31
0.000
0
POLYLINE
8
18
6
CONTINUOUS
62
7
66
1
10
0.000
20
0.000
30
0.000
70
1
0
VERTEX
8
18
10
3296.070
20
136.340
30
0.000
42
1.00000000
0
VERTEX
8
18
10
3296.070
20
118.340
30
0.000
42
1.00000000
0
SEQEND
0
LINE
8
18
6
CONTINUOUS
62
7
39
1.000
10
3287.070
20
127.340
30
0.000
11
3305.070
21
127.340
31
0.000
0
LINE
8
18
6
CONTINUOUS
62
7
39
1.000
10
3296.070
20
118.340
30
0.000
11
3296.070
21
136.340
31
0.000
0
POLYLINE
8
18
6
CONTINUOUS
62
7
66
1
10
0.000
20
0.000
30
0.000
70
1
0
VERTEX
8
18
10
3376.070
20
56.340
30
0.000
42
1.00000000
0
VERTEX
8
18
10
3376.070
20
38.340
30
0.000
42
1.00000000
0
SEQEND
0
LINE
8
18
6
CONTINUOUS
62
7
39
1.000
10
3367.070
20
47.340
30
0.000
11
3385.070
21
47.340
31
0.000
0
LINE
8
18
6
CONTINUOUS
62
7
39
1.000
10
3376.070
20
38.340
30
0.000
11
3376.070
21
56.340
31
0.000
0
POLYLINE
8
18
6
CONTINUOUS
62
7
66
1
10
0.000
20
0.000
30
0.000
70
1
0
VERTEX
8
18
10
3376.070
20
136.340
30
0.000
42
1.00000000
0
VERTEX
8
18
10
3376.070
20
118.340
30
0.000
42
1.00000000
0
SEQEND
0
LINE
8
18
6
CONTINUOUS
62
7
39
1.000
10
3367.070
20
127.340
30
0.000
11
3385.070
21
127.340
31
0.000
0
LINE
8
18
6
CONTINUOUS
62
7
39
1.000
10
3376.070
20
118.340
30
0.000
11
3376.070
21
136.340
31
0.000
0
POLYLINE
8
18
6
CONTINUOUS
62
7
66
1
10
0.000
20
0.000
30
0.000
70
1
0
VERTEX
8
18
10
4536.070
20
56.340
30
0.000
42
1.00000000
0
VERTEX
8
18
10
4536.070
20
38.340
30
0.000
42
1.00000000
0
SEQEND
0
LINE
8
18
6
CONTINUOUS
62
7
39
1.000
10
4527.070
20
47.340
30
0.000
11
4545.070
21
47.340
31
0.000
0
LINE
8
18
6
CONTINUOUS
62
7
39
1.000
10
4536.070
20
38.340
30
0.000
11
4536.070
21
56.340
31
0.000
0
POLYLINE
8
18
6
CONTINUOUS
62
7
66
1
10
0.000
20
0.000
30
0.000
70
1
0
VERTEX
8
18
10
4536.070
20
136.340
30
0.000
42
1.00000000
0
VERTEX
8
18
10
4536.070
20
118.340
30
0.000
42
1.00000000
0
SEQEND
0
LINE
8
18
6
CONTINUOUS
62
7
39
1.000
10
4527.070
20
127.340
30
0.000
11
4545.070
21
127.340
31
0.000
0
LINE
8
18
6
CONTINUOUS
62
7
39
1.000
10
4536.070
20
118.340
30
0.000
11
4536.070
21
136.340
31
0.000
0
POLYLINE
8
18
6
CONTINUOUS
62
7
66
1
10
0.000
20
0.000
30
0.000
70
1
0
VERTEX
8
18
10
4616.070
20
56.340
30
0.000
42
1.00000000
0
VERTEX
8
18
10
4616.070
20
38.340
30
0.000
42
1.00000000
0
SEQEND
0
LINE
8
18
6
CONTINUOUS
62
7
39
1.000
10
4607.070
20
47.340
30
0.000
11
4625.070
21
47.340
31
0.000
0
LINE
8
18
6
CONTINUOUS
62
7
39
1.000
10
4616.070
20
38.340
30
0.000
11
4616.070
21
56.340
31
0.000
0
POLYLINE
8
18
6
CONTINUOUS
62
7
66
1
10
0.000
20
0.000
30
0.000
70
1
0
VERTEX
8
18
10
4616.070
20
136.340
30
0.000
42
1.00000000
0
VERTEX
8
18
10
4616.070
20
118.340
30
0.000
42
1.00000000
0
SEQEND
0
LINE
8
18
6
CONTINUOUS
62
7
39
1.000
10
4607.070
20
127.340
30
0.000
11
4625.070
21
127.340
31
0.000
0
LINE
8
18
6
CONTINUOUS
62
7
39
1.000
10
4616.070
20
118.340
30
0.000
11
4616.070
21
136.340
31
0.000
0
POLYLINE
8
18
6
CONTINUOUS
62
7
66
1
10
0.000
20
0.000
30
0.000
70
1
0
VERTEX
8
18
10
5776.070
20
56.340
30
0.000
42
1.00000000
0
VERTEX
8
18
10
5776.070
20
38.340
30
0.000
42
1.00000000
0
SEQEND
0
LINE
8
18
6
CONTINUOUS
62
7
39
1.000
10
5767.070
20
47.340
30
0.000
11
5785.070
21
47.340
31
0.000
0
LINE
8
18
6
CONTINUOUS
62
7
39
1.000
10
5776.070
20
38.340
30
0.000
11
5776.070
21
56.340
31
0.000
0
POLYLINE
8
18
6
CONTINUOUS
62
7
66
1
10
0.000
20
0.000
30
0.000
70
1
0
VERTEX
8
18
10
5776.070
20
136.340
30
0.000
42
1.00000000
0
VERTEX
8
18
10
5776.070
20
118.340
30
0.000
42
1.00000000
0
SEQEND
0
LINE
8
18
6
CONTINUOUS
62
7
39
1.000
10
5767.070
20
127.340
30
0.000
11
5785.070
21
127.340
31
0.000
0
LINE
8
18
6
CONTINUOUS
62
7
39
1.000
10
5776.070
20
118.340
30
0.000
11
5776.070
21
136.340
31
0.000
0
POLYLINE
8
18
6
CONTINUOUS
62
7
66
1
10
0.000
20
0.000
30
0.000
70
1
0
VERTEX
8
18
10
5856.070
20
56.340
30
0.000
42
1.00000000
0
VERTEX
8
18
10
5856.070
20
38.340
30
0.000
42
1.00000000
0
SEQEND
0
LINE
8
18
6
CONTINUOUS
62
7
39
1.000
10
5847.070
20
47.340
30
0.000
11
5865.070
21
47.340
31
0.000
0
LINE
8
18
6
CONTINUOUS
62
7
39
1.000
10
5856.070
20
38.340
30
0.000
11
5856.070
21
56.340
31
0.000
0
POLYLINE
8
18
6
CONTINUOUS
62
7
66
1
10
0.000
20
0.000
30
0.000
70
1
0
VERTEX
8
18
10
5856.070
20
136.340
30
0.000
42
1.00000000
0
VERTEX
8
18
10
5856.070
20
118.340
30
0.000
42
1.00000000
0
SEQEND
0
LINE
8
18
6
CONTINUOUS
62
7
39
1.000
10
5847.070
20
127.340
30
0.000
11
5865.070
21
127.340
31
0.000
0
LINE
8
18
6
CONTINUOUS
62
7
39
1.000
10
5856.070
20
118.340
30
0.000
11
5856.070
21
136.340
31
0.000
0
ENDSEC
0
EOF
