0
SECTION
2
HEADER
9
$PDMODE
70
33
9
$PDSIZE
40
1.000
9
$EXTMIN
10
-564.532
20
-60.000
30
-1.000
9
$EXTMAX
10
6209.852
20
660.000
30
1.000
9
$LIMMIN
10
-564.532
20
-60.000
9
$LIMMAX
10
6209.852
20
660.000
0
ENDSEC
0
SECTION
2
TABLES
0
TABLE
2
LAYER
70
7
0
LAYER
2
SCRIBE
70
0
62
3
6
CONTINUOUS
0
LAYER
2
TEXT
70
0
62
7
6
CONTINUOUS
0
LAYER
2
CUT
70
0
62
7
6
CONTINUOUS
0
LAYER
2
14
70
0
62
7
6
CONTINUOUS
0
ENDTAB
0
TABLE
2
VPORT
70
4
0
VPORT
2
*ACTIVE
70
0
10
0.000000
20
0.000000
11
1.000000
21
1.000000
12
2822.660000
22
300.000000
13
0.000000
23
0.000000
14
1.000000
24
1.000000
15
1.000000
25
1.000000
16
0.000000
26
0.000000
36
1.000000
17
0.000000
27
0.000000
37
0.000000
40
5645.320000
41
1.500000
42
50.000000
43
0.000000
44
0.000000
50
0.000000
51
0.000000
71
0
72
100
73
1
74
1
75
0
76
0
77
0
78
0
0
ENDTAB
0
ENDSEC
0
SECTION
2
ENTITIES
0
TEXT
8
SCRIBE
62
3
10
30.000
20
30.000
30
0.000
40
10.000
1
W237
0
TEXT
8
TEXT
62
7
10
30.000
20
15.000
30
0.000
40
10.000
1
PLT8+S355JR+1
0
POLYLINE
8
CUT
6
CONTINUOUS
62
7
66
1
10
0.000
20
0.000
30
0.000
70
1
0
VERTEX
8
CUT
10
0.000
20
0.000
30
0.000
42
0.00000000
0
VERTEX
8
CUT
10
0.000
20
600.000
30
0.000
42
0.00000000
0
VERTEX
8
CUT
10
5645.320
20
600.000
30
0.000
42
0.00000000
0
VERTEX
8
CUT
10
5645.320
20
0.000
30
0.000
42
0.00000000
0
SEQEND
0
POLYLINE
8
14
6
CONTINUOUS
62
7
66
1
10
0.000
20
0.000
30
0.000
70
1
0
VERTEX
8
14
10
83.620
20
282.000
30
0.000
42
1.00000000
0
VERTEX
8
14
10
83.620
20
268.000
30
0.000
42
1.00000000
0
SEQEND
0
LINE
8
14
6
CONTINUOUS
62
7
39
1.000
10
76.620
20
275.000
30
0.000
11
90.620
21
275.000
31
0.000
0
LINE
8
14
6
CONTINUOUS
62
7
39
1.000
10
83.620
20
268.000
30
0.000
11
83.620
21
282.000
31
0.000
0
POLYLINE
8
14
6
CONTINUOUS
62
7
66
1
10
0.000
20
0.000
30
0.000
70
1
0
VERTEX
8
14
10
83.620
20
332.000
30
0.000
42
1.00000000
0
VERTEX
8
14
10
83.620
20
318.000
30
0.000
42
1.00000000
0
SEQEND
0
LINE
8
14
6
CONTINUOUS
62
7
39
1.000
10
76.620
20
325.000
30
0.000
11
90.620
21
325.000
31
0.000
0
LINE
8
14
6
CONTINUOUS
62
7
39
1.000
10
83.620
20
318.000
30
0.000
11
83.620
21
332.000
31
0.000
0
POLYLINE
8
14
6
CONTINUOUS
62
7
66
1
10
0.000
20
0.000
30
0.000
70
1
0
VERTEX
8
14
10
143.620
20
282.000
30
0.000
42
1.00000000
0
VERTEX
8
14
10
143.620
20
268.000
30
0.000
42
1.00000000
0
SEQEND
0
LINE
8
14
6
CONTINUOUS
62
7
39
1.000
10
136.620
20
275.000
30
0.000
11
150.620
21
275.000
31
0.000
0
LINE
8
14
6
CONTINUOUS
62
7
39
1.000
10
143.620
20
268.000
30
0.000
11
143.620
21
282.000
31
0.000
0
POLYLINE
8
14
6
CONTINUOUS
62
7
66
1
10
0.000
20
0.000
30
0.000
70
1
0
VERTEX
8
14
10
143.620
20
332.000
30
0.000
42
1.00000000
0
VERTEX
8
14
10
143.620
20
318.000
30
0.000
42
1.00000000
0
SEQEND
0
LINE
8
14
6
CONTINUOUS
62
7
39
1.000
10
136.620
20
325.000
30
0.000
11
150.620
21
325.000
31
0.000
0
LINE
8
14
6
CONTINUOUS
62
7
39
1.000
10
143.620
20
318.000
30
0.000
11
143.620
21
332.000
31
0.000
0
POLYLINE
8
14
6
CONTINUOUS
62
7
66
1
10
0.000
20
0.000
30
0.000
70
1
0
VERTEX
8
14
10
1533.620
20
282.000
30
0.000
42
1.00000000
0
VERTEX
8
14
10
1533.620
20
268.000
30
0.000
42
1.00000000
0
SEQEND
0
LINE
8
14
6
CONTINUOUS
62
7
39
1.000
10
1526.620
20
275.000
30
0.000
11
1540.620
21
275.000
31
0.000
0
LINE
8
14
6
CONTINUOUS
62
7
39
1.000
10
1533.620
20
268.000
30
0.000
11
1533.620
21
282.000
31
0.000
0
POLYLINE
8
14
6
CONTINUOUS
62
7
66
1
10
0.000
20
0.000
30
0.000
70
1
0
VERTEX
8
14
10
1533.620
20
332.000
30
0.000
42
1.00000000
0
VERTEX
8
14
10
1533.620
20
318.000
30
0.000
42
1.00000000
0
SEQEND
0
LINE
8
14
6
CONTINUOUS
62
7
39
1.000
10
1526.620
20
325.000
30
0.000
11
1540.620
21
325.000
31
0.000
0
LINE
8
14
6
CONTINUOUS
62
7
39
1.000
10
1533.620
20
318.000
30
0.000
11
1533.620
21
332.000
31
0.000
0
POLYLINE
8
14
6
CONTINUOUS
62
7
66
1
10
0.000
20
0.000
30
0.000
70
1
0
VERTEX
8
14
10
1593.620
20
282.000
30
0.000
42
1.00000000
0
VERTEX
8
14
10
1593.620
20
268.000
30
0.000
42
1.00000000
0
SEQEND
0
LINE
8
14
6
CONTINUOUS
62
7
39
1.000
10
1586.620
20
275.000
30
0.000
11
1600.620
21
275.000
31
0.000
0
LINE
8
14
6
CONTINUOUS
62
7
39
1.000
10
1593.620
20
268.000
30
0.000
11
1593.620
21
282.000
31
0.000
0
POLYLINE
8
14
6
CONTINUOUS
62
7
66
1
10
0.000
20
0.000
30
0.000
70
1
0
VERTEX
8
14
10
1593.620
20
332.000
30
0.000
42
1.00000000
0
VERTEX
8
14
10
1593.620
20
318.000
30
0.000
42
1.00000000
0
SEQEND
0
LINE
8
14
6
CONTINUOUS
62
7
39
1.000
10
1586.620
20
325.000
30
0.000
11
1600.620
21
325.000
31
0.000
0
LINE
8
14
6
CONTINUOUS
62
7
39
1.000
10
1593.620
20
318.000
30
0.000
11
1593.620
21
332.000
31
0.000
0
POLYLINE
8
14
6
CONTINUOUS
62
7
66
1
10
0.000
20
0.000
30
0.000
70
1
0
VERTEX
8
14
10
2983.620
20
282.000
30
0.000
42
1.00000000
0
VERTEX
8
14
10
2983.620
20
268.000
30
0.000
42
1.00000000
0
SEQEND
0
LINE
8
14
6
CONTINUOUS
62
7
39
1.000
10
2976.620
20
275.000
30
0.000
11
2990.620
21
275.000
31
0.000
0
LINE
8
14
6
CONTINUOUS
62
7
39
1.000
10
2983.620
20
268.000
30
0.000
11
2983.620
21
282.000
31
0.000
0
POLYLINE
8
14
6
CONTINUOUS
62
7
66
1
10
0.000
20
0.000
30
0.000
70
1
0
VERTEX
8
14
10
2983.620
20
332.000
30
0.000
42
1.00000000
0
VERTEX
8
14
10
2983.620
20
318.000
30
0.000
42
1.00000000
0
SEQEND
0
LINE
8
14
6
CONTINUOUS
62
7
39
1.000
10
2976.620
20
325.000
30
0.000
11
2990.620
21
325.000
31
0.000
0
LINE
8
14
6
CONTINUOUS
62
7
39
1.000
10
2983.620
20
318.000
30
0.000
11
2983.620
21
332.000
31
0.000
0
POLYLINE
8
14
6
CONTINUOUS
62
7
66
1
10
0.000
20
0.000
30
0.000
70
1
0
VERTEX
8
14
10
3043.620
20
282.000
30
0.000
42
1.00000000
0
VERTEX
8
14
10
3043.620
20
268.000
30
0.000
42
1.00000000
0
SEQEND
0
LINE
8
14
6
CONTINUOUS
62
7
39
1.000
10
3036.620
20
275.000
30
0.000
11
3050.620
21
275.000
31
0.000
0
LINE
8
14
6
CONTINUOUS
62
7
39
1.000
10
3043.620
20
268.000
30
0.000
11
3043.620
21
282.000
31
0.000
0
POLYLINE
8
14
6
CONTINUOUS
62
7
66
1
10
0.000
20
0.000
30
0.000
70
1
0
VERTEX
8
14
10
3043.620
20
332.000
30
0.000
42
1.00000000
0
VERTEX
8
14
10
3043.620
20
318.000
30
0.000
42
1.00000000
0
SEQEND
0
LINE
8
14
6
CONTINUOUS
62
7
39
1.000
10
3036.620
20
325.000
30
0.000
11
3050.620
21
325.000
31
0.000
0
LINE
8
14
6
CONTINUOUS
62
7
39
1.000
10
3043.620
20
318.000
30
0.000
11
3043.620
21
332.000
31
0.000
0
POLYLINE
8
14
6
CONTINUOUS
62
7
66
1
10
0.000
20
0.000
30
0.000
70
1
0
VERTEX
8
14
10
3883.620
20
282.000
30
0.000
42
1.00000000
0
VERTEX
8
14
10
3883.620
20
268.000
30
0.000
42
1.00000000
0
SEQEND
0
LINE
8
14
6
CONTINUOUS
62
7
39
1.000
10
3876.620
20
275.000
30
0.000
11
3890.620
21
275.000
31
0.000
0
LINE
8
14
6
CONTINUOUS
62
7
39
1.000
10
3883.620
20
268.000
30
0.000
11
3883.620
21
282.000
31
0.000
0
POLYLINE
8
14
6
CONTINUOUS
62
7
66
1
10
0.000
20
0.000
30
0.000
70
1
0
VERTEX
8
14
10
3883.620
20
332.000
30
0.000
42
1.00000000
0
VERTEX
8
14
10
3883.620
20
318.000
30
0.000
42
1.00000000
0
SEQEND
0
LINE
8
14
6
CONTINUOUS
62
7
39
1.000
10
3876.620
20
325.000
30
0.000
11
3890.620
21
325.000
31
0.000
0
LINE
8
14
6
CONTINUOUS
62
7
39
1.000
10
3883.620
20
318.000
30
0.000
11
3883.620
21
332.000
31
0.000
0
POLYLINE
8
14
6
CONTINUOUS
62
7
66
1
10
0.000
20
0.000
30
0.000
70
1
0
VERTEX
8
14
10
3943.620
20
282.000
30
0.000
42
1.00000000
0
VERTEX
8
14
10
3943.620
20
268.000
30
0.000
42
1.00000000
0
SEQEND
0
LINE
8
14
6
CONTINUOUS
62
7
39
1.000
10
3936.620
20
275.000
30
0.000
11
3950.620
21
275.000
31
0.000
0
LINE
8
14
6
CONTINUOUS
62
7
39
1.000
10
3943.620
20
268.000
30
0.000
11
3943.620
21
282.000
31
0.000
0
POLYLINE
8
14
6
CONTINUOUS
62
7
66
1
10
0.000
20
0.000
30
0.000
70
1
0
VERTEX
8
14
10
3943.620
20
332.000
30
0.000
42
1.00000000
0
VERTEX
8
14
10
3943.620
20
318.000
30
0.000
42
1.00000000
0
SEQEND
0
LINE
8
14
6
CONTINUOUS
62
7
39
1.000
10
3936.620
20
325.000
30
0.000
11
3950.620
21
325.000
31
0.000
0
LINE
8
14
6
CONTINUOUS
62
7
39
1.000
10
3943.620
20
318.000
30
0.000
11
3943.620
21
332.000
31
0.000
0
POLYLINE
8
14
6
CONTINUOUS
62
7
66
1
10
0.000
20
0.000
30
0.000
70
1
0
VERTEX
8
14
10
5233.620
20
282.000
30
0.000
42
1.00000000
0
VERTEX
8
14
10
5233.620
20
268.000
30
0.000
42
1.00000000
0
SEQEND
0
LINE
8
14
6
CONTINUOUS
62
7
39
1.000
10
5226.620
20
275.000
30
0.000
11
5240.620
21
275.000
31
0.000
0
LINE
8
14
6
CONTINUOUS
62
7
39
1.000
10
5233.620
20
268.000
30
0.000
11
5233.620
21
282.000
31
0.000
0
POLYLINE
8
14
6
CONTINUOUS
62
7
66
1
10
0.000
20
0.000
30
0.000
70
1
0
VERTEX
8
14
10
5233.620
20
332.000
30
0.000
42
1.00000000
0
VERTEX
8
14
10
5233.620
20
318.000
30
0.000
42
1.00000000
0
SEQEND
0
LINE
8
14
6
CONTINUOUS
62
7
39
1.000
10
5226.620
20
325.000
30
0.000
11
5240.620
21
325.000
31
0.000
0
LINE
8
14
6
CONTINUOUS
62
7
39
1.000
10
5233.620
20
318.000
30
0.000
11
5233.620
21
332.000
31
0.000
0
POLYLINE
8
14
6
CONTINUOUS
62
7
66
1
10
0.000
20
0.000
30
0.000
70
1
0
VERTEX
8
14
10
5293.620
20
282.000
30
0.000
42
1.00000000
0
VERTEX
8
14
10
5293.620
20
268.000
30
0.000
42
1.00000000
0
SEQEND
0
LINE
8
14
6
CONTINUOUS
62
7
39
1.000
10
5286.620
20
275.000
30
0.000
11
5300.620
21
275.000
31
0.000
0
LINE
8
14
6
CONTINUOUS
62
7
39
1.000
10
5293.620
20
268.000
30
0.000
11
5293.620
21
282.000
31
0.000
0
POLYLINE
8
14
6
CONTINUOUS
62
7
66
1
10
0.000
20
0.000
30
0.000
70
1
0
VERTEX
8
14
10
5293.620
20
332.000
30
0.000
42
1.00000000
0
VERTEX
8
14
10
5293.620
20
318.000
30
0.000
42
1.00000000
0
SEQEND
0
LINE
8
14
6
CONTINUOUS
62
7
39
1.000
10
5286.620
20
325.000
30
0.000
11
5300.620
21
325.000
31
0.000
0
LINE
8
14
6
CONTINUOUS
62
7
39
1.000
10
5293.620
20
318.000
30
0.000
11
5293.620
21
332.000
31
0.000
0
ENDSEC
0
EOF
