0
SECTION
2
HEADER
9
$PDMODE
70
33
9
$PDSIZE
40
1.000
9
$EXTMIN
10
-599.000
20
-60.000
30
-1.000
9
$EXTMAX
10
6589.000
20
660.000
30
1.000
9
$LIMMIN
10
-599.000
20
-60.000
9
$LIMMAX
10
6589.000
20
660.000
0
ENDSEC
0
SECTION
2
TABLES
0
TABLE
2
LAYER
70
7
0
LAYER
2
SCRIBE
70
0
62
3
6
CONTINUOUS
0
LAYER
2
TEXT
70
0
62
7
6
CONTINUOUS
0
LAYER
2
CUT
70
0
62
7
6
CONTINUOUS
0
LAYER
2
LAYOUT
70
0
62
4
6
CONTINUOUS
0
LAYER
2
14
70
0
62
7
6
CONTINUOUS
0
LAYER
2
22
70
0
62
7
6
CONTINUOUS
0
ENDTAB
0
TABLE
2
VPORT
70
4
0
VPORT
2
*ACTIVE
70
0
10
0.000000
20
0.000000
11
1.000000
21
1.000000
12
2995.000000
22
300.000000
13
0.000000
23
0.000000
14
1.000000
24
1.000000
15
1.000000
25
1.000000
16
0.000000
26
0.000000
36
1.000000
17
0.000000
27
0.000000
37
0.000000
40
5990.000000
41
1.500000
42
50.000000
43
0.000000
44
0.000000
50
0.000000
51
0.000000
71
0
72
100
73
1
74
1
75
0
76
0
77
0
78
0
0
ENDTAB
0
ENDSEC
0
SECTION
2
ENTITIES
0
TEXT
8
SCRIBE
62
3
10
30.000
20
30.000
30
0.000
40
10.000
1
W287
0
TEXT
8
TEXT
62
7
10
30.000
20
15.000
30
0.000
40
10.000
1
PLT8+S355JR+1
0
POLYLINE
8
CUT
6
CONTINUOUS
62
7
66
1
10
0.000
20
0.000
30
0.000
70
1
0
VERTEX
8
CUT
10
0.000
20
0.000
30
0.000
42
0.00000000
0
VERTEX
8
CUT
10
0.000
20
600.000
30
0.000
42
0.00000000
0
VERTEX
8
CUT
10
5990.000
20
600.000
30
0.000
42
0.00000000
0
VERTEX
8
CUT
10
5990.000
20
0.000
30
0.000
42
0.00000000
0
SEQEND
0
POLYLINE
8
LAYOUT
6
CONTINUOUS
62
4
66
1
10
0.000
20
0.000
30
0.000
70
1
0
VERTEX
8
LAYOUT
10
3324.974
20
137.864
30
0.000
42
-0.99999995
0
VERTEX
8
LAYOUT
10
3303.246
20
141.316
30
0.000
42
0.00000000
0
VERTEX
8
LAYOUT
10
3310.780
20
188.722
30
0.000
42
-0.99999995
0
VERTEX
8
LAYOUT
10
3332.507
20
185.269
30
0.000
42
0.00000000
0
SEQEND
0
CIRCLE
8
22
6
CONTINUOUS
62
7
39
1.000
10
3314.110
20
139.590
30
0.000
40
11.000
0
CIRCLE
8
22
6
CONTINUOUS
62
7
39
1.000
10
3317.877
20
163.293
30
0.000
40
11.000
0
CIRCLE
8
22
6
CONTINUOUS
62
7
39
1.000
10
3321.644
20
186.995
30
0.000
40
11.000
0
CIRCLE
8
22
6
CONTINUOUS
62
7
39
1.000
10
0.000
20
0.000
30
0.000
40
0.000
0
POLYLINE
8
LAYOUT
6
CONTINUOUS
62
4
66
1
10
0.000
20
0.000
30
0.000
70
1
0
VERTEX
8
LAYOUT
10
3372.084
20
434.144
30
0.000
42
-0.99999995
0
VERTEX
8
LAYOUT
10
3350.356
20
437.596
30
0.000
42
0.00000000
0
VERTEX
8
LAYOUT
10
3357.890
20
485.002
30
0.000
42
-0.99999995
0
VERTEX
8
LAYOUT
10
3379.617
20
481.549
30
0.000
42
0.00000000
0
SEQEND
0
CIRCLE
8
22
6
CONTINUOUS
62
7
39
1.000
10
3361.220
20
435.870
30
0.000
40
11.000
0
CIRCLE
8
22
6
CONTINUOUS
62
7
39
1.000
10
3364.987
20
459.573
30
0.000
40
11.000
0
CIRCLE
8
22
6
CONTINUOUS
62
7
39
1.000
10
3368.754
20
483.275
30
0.000
40
11.000
0
CIRCLE
8
22
6
CONTINUOUS
62
7
39
1.000
10
0.000
20
0.000
30
0.000
40
0.000
0
POLYLINE
8
14
6
CONTINUOUS
62
7
66
1
10
0.000
20
0.000
30
0.000
70
1
0
VERTEX
8
14
10
4853.620
20
282.000
30
0.000
42
1.00000000
0
VERTEX
8
14
10
4853.620
20
268.000
30
0.000
42
1.00000000
0
SEQEND
0
LINE
8
14
6
CONTINUOUS
62
7
39
1.000
10
4846.620
20
275.000
30
0.000
11
4860.620
21
275.000
31
0.000
0
LINE
8
14
6
CONTINUOUS
62
7
39
1.000
10
4853.620
20
268.000
30
0.000
11
4853.620
21
282.000
31
0.000
0
POLYLINE
8
14
6
CONTINUOUS
62
7
66
1
10
0.000
20
0.000
30
0.000
70
1
0
VERTEX
8
14
10
4853.620
20
332.000
30
0.000
42
1.00000000
0
VERTEX
8
14
10
4853.620
20
318.000
30
0.000
42
1.00000000
0
SEQEND
0
LINE
8
14
6
CONTINUOUS
62
7
39
1.000
10
4846.620
20
325.000
30
0.000
11
4860.620
21
325.000
31
0.000
0
LINE
8
14
6
CONTINUOUS
62
7
39
1.000
10
4853.620
20
318.000
30
0.000
11
4853.620
21
332.000
31
0.000
0
POLYLINE
8
14
6
CONTINUOUS
62
7
66
1
10
0.000
20
0.000
30
0.000
70
1
0
VERTEX
8
14
10
4913.620
20
282.000
30
0.000
42
1.00000000
0
VERTEX
8
14
10
4913.620
20
268.000
30
0.000
42
1.00000000
0
SEQEND
0
LINE
8
14
6
CONTINUOUS
62
7
39
1.000
10
4906.620
20
275.000
30
0.000
11
4920.620
21
275.000
31
0.000
0
LINE
8
14
6
CONTINUOUS
62
7
39
1.000
10
4913.620
20
268.000
30
0.000
11
4913.620
21
282.000
31
0.000
0
POLYLINE
8
14
6
CONTINUOUS
62
7
66
1
10
0.000
20
0.000
30
0.000
70
1
0
VERTEX
8
14
10
4913.620
20
332.000
30
0.000
42
1.00000000
0
VERTEX
8
14
10
4913.620
20
318.000
30
0.000
42
1.00000000
0
SEQEND
0
LINE
8
14
6
CONTINUOUS
62
7
39
1.000
10
4906.620
20
325.000
30
0.000
11
4920.620
21
325.000
31
0.000
0
LINE
8
14
6
CONTINUOUS
62
7
39
1.000
10
4913.620
20
318.000
30
0.000
11
4913.620
21
332.000
31
0.000
0
ENDSEC
0
EOF
