0
SECTION
2
HEADER
9
$PDMODE
70
33
9
$PDSIZE
40
1.000
9
$EXTMIN
10
-404.231
20
-20.000
30
-1.000
9
$EXTMAX
10
4446.541
20
220.000
30
1.000
9
$LIMMIN
10
-404.231
20
-20.000
9
$LIMMAX
10
4446.541
20
220.000
0
ENDSEC
0
SECTION
2
TABLES
0
TABLE
2
LAYER
70
7
0
LAYER
2
SCRIBE
70
0
62
3
6
CONTINUOUS
0
LAYER
2
TEXT
70
0
62
7
6
CONTINUOUS
0
LAYER
2
CUT
70
0
62
7
6
CONTINUOUS
0
LAYER
2
18
70
0
62
7
6
CONTINUOUS
0
ENDTAB
0
TABLE
2
VPORT
70
4
0
VPORT
2
*ACTIVE
70
0
10
0.000000
20
0.000000
11
1.000000
21
1.000000
12
2021.155000
22
100.000000
13
0.000000
23
0.000000
14
1.000000
24
1.000000
15
1.000000
25
1.000000
16
0.000000
26
0.000000
36
1.000000
17
0.000000
27
0.000000
37
0.000000
40
4042.310000
41
1.500000
42
50.000000
43
0.000000
44
0.000000
50
0.000000
51
0.000000
71
0
72
100
73
1
74
1
75
0
76
0
77
0
78
0
0
ENDTAB
0
ENDSEC
0
SECTION
2
ENTITIES
0
TEXT
8
SCRIBE
62
3
10
30.000
20
30.000
30
0.000
40
10.000
1
OF119
0
TEXT
8
TEXT
62
7
10
30.000
20
15.000
30
0.000
40
10.000
1
PL10+S355JR+1
0
POLYLINE
8
CUT
6
CONTINUOUS
62
7
66
1
10
0.000
20
0.000
30
0.000
70
1
0
VERTEX
8
CUT
10
0.000
20
0.000
30
0.000
42
0.00000000
0
VERTEX
8
CUT
10
0.000
20
200.000
30
0.000
42
0.00000000
0
VERTEX
8
CUT
10
4042.310
20
200.000
30
0.000
42
0.00000000
0
VERTEX
8
CUT
10
4042.310
20
0.000
30
0.000
42
0.00000000
0
SEQEND
0
POLYLINE
8
18
6
CONTINUOUS
62
7
66
1
10
0.000
20
0.000
30
0.000
70
1
0
VERTEX
8
18
10
123.070
20
69.000
30
0.000
42
1.00000000
0
VERTEX
8
18
10
123.070
20
51.000
30
0.000
42
1.00000000
0
SEQEND
0
LINE
8
18
6
CONTINUOUS
62
7
39
1.000
10
114.070
20
60.000
30
0.000
11
132.070
21
60.000
31
0.000
0
LINE
8
18
6
CONTINUOUS
62
7
39
1.000
10
123.070
20
51.000
30
0.000
11
123.070
21
69.000
31
0.000
0
POLYLINE
8
18
6
CONTINUOUS
62
7
66
1
10
0.000
20
0.000
30
0.000
70
1
0
VERTEX
8
18
10
123.070
20
149.000
30
0.000
42
1.00000000
0
VERTEX
8
18
10
123.070
20
131.000
30
0.000
42
1.00000000
0
SEQEND
0
LINE
8
18
6
CONTINUOUS
62
7
39
1.000
10
114.070
20
140.000
30
0.000
11
132.070
21
140.000
31
0.000
0
LINE
8
18
6
CONTINUOUS
62
7
39
1.000
10
123.070
20
131.000
30
0.000
11
123.070
21
149.000
31
0.000
0
POLYLINE
8
18
6
CONTINUOUS
62
7
66
1
10
0.000
20
0.000
30
0.000
70
1
0
VERTEX
8
18
10
203.070
20
69.000
30
0.000
42
1.00000000
0
VERTEX
8
18
10
203.070
20
51.000
30
0.000
42
1.00000000
0
SEQEND
0
LINE
8
18
6
CONTINUOUS
62
7
39
1.000
10
194.070
20
60.000
30
0.000
11
212.070
21
60.000
31
0.000
0
LINE
8
18
6
CONTINUOUS
62
7
39
1.000
10
203.070
20
51.000
30
0.000
11
203.070
21
69.000
31
0.000
0
POLYLINE
8
18
6
CONTINUOUS
62
7
66
1
10
0.000
20
0.000
30
0.000
70
1
0
VERTEX
8
18
10
203.070
20
149.000
30
0.000
42
1.00000000
0
VERTEX
8
18
10
203.070
20
131.000
30
0.000
42
1.00000000
0
SEQEND
0
LINE
8
18
6
CONTINUOUS
62
7
39
1.000
10
194.070
20
140.000
30
0.000
11
212.070
21
140.000
31
0.000
0
LINE
8
18
6
CONTINUOUS
62
7
39
1.000
10
203.070
20
131.000
30
0.000
11
203.070
21
149.000
31
0.000
0
POLYLINE
8
18
6
CONTINUOUS
62
7
66
1
10
0.000
20
0.000
30
0.000
70
1
0
VERTEX
8
18
10
1465.070
20
69.000
30
0.000
42
1.00000000
0
VERTEX
8
18
10
1465.070
20
51.000
30
0.000
42
1.00000000
0
SEQEND
0
LINE
8
18
6
CONTINUOUS
62
7
39
1.000
10
1456.070
20
60.000
30
0.000
11
1474.070
21
60.000
31
0.000
0
LINE
8
18
6
CONTINUOUS
62
7
39
1.000
10
1465.070
20
51.000
30
0.000
11
1465.070
21
69.000
31
0.000
0
POLYLINE
8
18
6
CONTINUOUS
62
7
66
1
10
0.000
20
0.000
30
0.000
70
1
0
VERTEX
8
18
10
1465.070
20
149.000
30
0.000
42
1.00000000
0
VERTEX
8
18
10
1465.070
20
131.000
30
0.000
42
1.00000000
0
SEQEND
0
LINE
8
18
6
CONTINUOUS
62
7
39
1.000
10
1456.070
20
140.000
30
0.000
11
1474.070
21
140.000
31
0.000
0
LINE
8
18
6
CONTINUOUS
62
7
39
1.000
10
1465.070
20
131.000
30
0.000
11
1465.070
21
149.000
31
0.000
0
POLYLINE
8
18
6
CONTINUOUS
62
7
66
1
10
0.000
20
0.000
30
0.000
70
1
0
VERTEX
8
18
10
1545.070
20
69.000
30
0.000
42
1.00000000
0
VERTEX
8
18
10
1545.070
20
51.000
30
0.000
42
1.00000000
0
SEQEND
0
LINE
8
18
6
CONTINUOUS
62
7
39
1.000
10
1536.070
20
60.000
30
0.000
11
1554.070
21
60.000
31
0.000
0
LINE
8
18
6
CONTINUOUS
62
7
39
1.000
10
1545.070
20
51.000
30
0.000
11
1545.070
21
69.000
31
0.000
0
POLYLINE
8
18
6
CONTINUOUS
62
7
66
1
10
0.000
20
0.000
30
0.000
70
1
0
VERTEX
8
18
10
1545.070
20
149.000
30
0.000
42
1.00000000
0
VERTEX
8
18
10
1545.070
20
131.000
30
0.000
42
1.00000000
0
SEQEND
0
LINE
8
18
6
CONTINUOUS
62
7
39
1.000
10
1536.070
20
140.000
30
0.000
11
1554.070
21
140.000
31
0.000
0
LINE
8
18
6
CONTINUOUS
62
7
39
1.000
10
1545.070
20
131.000
30
0.000
11
1545.070
21
149.000
31
0.000
0
POLYLINE
8
18
6
CONTINUOUS
62
7
66
1
10
0.000
20
0.000
30
0.000
70
1
0
VERTEX
8
18
10
2807.070
20
69.000
30
0.000
42
1.00000000
0
VERTEX
8
18
10
2807.070
20
51.000
30
0.000
42
1.00000000
0
SEQEND
0
LINE
8
18
6
CONTINUOUS
62
7
39
1.000
10
2798.070
20
60.000
30
0.000
11
2816.070
21
60.000
31
0.000
0
LINE
8
18
6
CONTINUOUS
62
7
39
1.000
10
2807.070
20
51.000
30
0.000
11
2807.070
21
69.000
31
0.000
0
POLYLINE
8
18
6
CONTINUOUS
62
7
66
1
10
0.000
20
0.000
30
0.000
70
1
0
VERTEX
8
18
10
2807.070
20
149.000
30
0.000
42
1.00000000
0
VERTEX
8
18
10
2807.070
20
131.000
30
0.000
42
1.00000000
0
SEQEND
0
LINE
8
18
6
CONTINUOUS
62
7
39
1.000
10
2798.070
20
140.000
30
0.000
11
2816.070
21
140.000
31
0.000
0
LINE
8
18
6
CONTINUOUS
62
7
39
1.000
10
2807.070
20
131.000
30
0.000
11
2807.070
21
149.000
31
0.000
0
POLYLINE
8
18
6
CONTINUOUS
62
7
66
1
10
0.000
20
0.000
30
0.000
70
1
0
VERTEX
8
18
10
2887.070
20
69.000
30
0.000
42
1.00000000
0
VERTEX
8
18
10
2887.070
20
51.000
30
0.000
42
1.00000000
0
SEQEND
0
LINE
8
18
6
CONTINUOUS
62
7
39
1.000
10
2878.070
20
60.000
30
0.000
11
2896.070
21
60.000
31
0.000
0
LINE
8
18
6
CONTINUOUS
62
7
39
1.000
10
2887.070
20
51.000
30
0.000
11
2887.070
21
69.000
31
0.000
0
POLYLINE
8
18
6
CONTINUOUS
62
7
66
1
10
0.000
20
0.000
30
0.000
70
1
0
VERTEX
8
18
10
2887.070
20
149.000
30
0.000
42
1.00000000
0
VERTEX
8
18
10
2887.070
20
131.000
30
0.000
42
1.00000000
0
SEQEND
0
LINE
8
18
6
CONTINUOUS
62
7
39
1.000
10
2878.070
20
140.000
30
0.000
11
2896.070
21
140.000
31
0.000
0
LINE
8
18
6
CONTINUOUS
62
7
39
1.000
10
2887.070
20
131.000
30
0.000
11
2887.070
21
149.000
31
0.000
0
ENDSEC
0
EOF
