0
SECTION
2
HEADER
9
$PDMODE
70
33
9
$PDSIZE
40
1.000
9
$EXTMIN
10
-569.000
20
-30.000
30
-1.000
9
$EXTMAX
10
6259.000
20
330.000
30
1.000
9
$LIMMIN
10
-569.000
20
-30.000
9
$LIMMAX
10
6259.000
20
330.000
0
ENDSEC
0
SECTION
2
TABLES
0
TABLE
2
LAYER
70
7
0
LAYER
2
SCRIBE
70
0
62
3
6
CONTINUOUS
0
LAYER
2
TEXT
70
0
62
7
6
CONTINUOUS
0
LAYER
2
CUT
70
0
62
7
6
CONTINUOUS
0
LAYER
2
18
70
0
62
7
6
CONTINUOUS
0
ENDTAB
0
TABLE
2
VPORT
70
4
0
VPORT
2
*ACTIVE
70
0
10
0.000000
20
0.000000
11
1.000000
21
1.000000
12
2845.000000
22
150.000000
13
0.000000
23
0.000000
14
1.000000
24
1.000000
15
1.000000
25
1.000000
16
0.000000
26
0.000000
36
1.000000
17
0.000000
27
0.000000
37
0.000000
40
5690.000000
41
1.500000
42
50.000000
43
0.000000
44
0.000000
50
0.000000
51
0.000000
71
0
72
100
73
1
74
1
75
0
76
0
77
0
78
0
0
ENDTAB
0
ENDSEC
0
SECTION
2
ENTITIES
0
TEXT
8
SCRIBE
62
3
10
30.000
20
30.000
30
0.000
40
10.000
1
OF276
0
TEXT
8
TEXT
62
7
10
30.000
20
15.000
30
0.000
40
10.000
1
PL10+S355JR+3
0
POLYLINE
8
CUT
6
CONTINUOUS
62
7
66
1
10
0.000
20
0.000
30
0.000
70
1
0
VERTEX
8
CUT
10
0.000
20
0.000
30
0.000
42
0.00000000
0
VERTEX
8
CUT
10
0.000
20
300.000
30
0.000
42
0.00000000
0
VERTEX
8
CUT
10
5690.000
20
300.000
30
0.000
42
0.00000000
0
VERTEX
8
CUT
10
5690.000
20
0.000
30
0.000
42
0.00000000
0
SEQEND
0
POLYLINE
8
18
6
CONTINUOUS
62
7
66
1
10
0.000
20
0.000
30
0.000
70
1
0
VERTEX
8
18
10
131.750
20
119.000
30
0.000
42
1.00000000
0
VERTEX
8
18
10
131.750
20
101.000
30
0.000
42
1.00000000
0
SEQEND
0
LINE
8
18
6
CONTINUOUS
62
7
39
1.000
10
122.750
20
110.000
30
0.000
11
140.750
21
110.000
31
0.000
0
LINE
8
18
6
CONTINUOUS
62
7
39
1.000
10
131.750
20
101.000
30
0.000
11
131.750
21
119.000
31
0.000
0
POLYLINE
8
18
6
CONTINUOUS
62
7
66
1
10
0.000
20
0.000
30
0.000
70
1
0
VERTEX
8
18
10
131.750
20
199.000
30
0.000
42
1.00000000
0
VERTEX
8
18
10
131.750
20
181.000
30
0.000
42
1.00000000
0
SEQEND
0
LINE
8
18
6
CONTINUOUS
62
7
39
1.000
10
122.750
20
190.000
30
0.000
11
140.750
21
190.000
31
0.000
0
LINE
8
18
6
CONTINUOUS
62
7
39
1.000
10
131.750
20
181.000
30
0.000
11
131.750
21
199.000
31
0.000
0
POLYLINE
8
18
6
CONTINUOUS
62
7
66
1
10
0.000
20
0.000
30
0.000
70
1
0
VERTEX
8
18
10
211.750
20
119.000
30
0.000
42
1.00000000
0
VERTEX
8
18
10
211.750
20
101.000
30
0.000
42
1.00000000
0
SEQEND
0
LINE
8
18
6
CONTINUOUS
62
7
39
1.000
10
202.750
20
110.000
30
0.000
11
220.750
21
110.000
31
0.000
0
LINE
8
18
6
CONTINUOUS
62
7
39
1.000
10
211.750
20
101.000
30
0.000
11
211.750
21
119.000
31
0.000
0
POLYLINE
8
18
6
CONTINUOUS
62
7
66
1
10
0.000
20
0.000
30
0.000
70
1
0
VERTEX
8
18
10
211.750
20
199.000
30
0.000
42
1.00000000
0
VERTEX
8
18
10
211.750
20
181.000
30
0.000
42
1.00000000
0
SEQEND
0
LINE
8
18
6
CONTINUOUS
62
7
39
1.000
10
202.750
20
190.000
30
0.000
11
220.750
21
190.000
31
0.000
0
LINE
8
18
6
CONTINUOUS
62
7
39
1.000
10
211.750
20
181.000
30
0.000
11
211.750
21
199.000
31
0.000
0
POLYLINE
8
18
6
CONTINUOUS
62
7
66
1
10
0.000
20
0.000
30
0.000
70
1
0
VERTEX
8
18
10
1132.220
20
119.000
30
0.000
42
1.00000000
0
VERTEX
8
18
10
1132.220
20
101.000
30
0.000
42
1.00000000
0
SEQEND
0
LINE
8
18
6
CONTINUOUS
62
7
39
1.000
10
1123.220
20
110.000
30
0.000
11
1141.220
21
110.000
31
0.000
0
LINE
8
18
6
CONTINUOUS
62
7
39
1.000
10
1132.220
20
101.000
30
0.000
11
1132.220
21
119.000
31
0.000
0
POLYLINE
8
18
6
CONTINUOUS
62
7
66
1
10
0.000
20
0.000
30
0.000
70
1
0
VERTEX
8
18
10
1132.220
20
199.000
30
0.000
42
1.00000000
0
VERTEX
8
18
10
1132.220
20
181.000
30
0.000
42
1.00000000
0
SEQEND
0
LINE
8
18
6
CONTINUOUS
62
7
39
1.000
10
1123.220
20
190.000
30
0.000
11
1141.220
21
190.000
31
0.000
0
LINE
8
18
6
CONTINUOUS
62
7
39
1.000
10
1132.220
20
181.000
30
0.000
11
1132.220
21
199.000
31
0.000
0
POLYLINE
8
18
6
CONTINUOUS
62
7
66
1
10
0.000
20
0.000
30
0.000
70
1
0
VERTEX
8
18
10
1212.220
20
119.000
30
0.000
42
1.00000000
0
VERTEX
8
18
10
1212.220
20
101.000
30
0.000
42
1.00000000
0
SEQEND
0
LINE
8
18
6
CONTINUOUS
62
7
39
1.000
10
1203.220
20
110.000
30
0.000
11
1221.220
21
110.000
31
0.000
0
LINE
8
18
6
CONTINUOUS
62
7
39
1.000
10
1212.220
20
101.000
30
0.000
11
1212.220
21
119.000
31
0.000
0
POLYLINE
8
18
6
CONTINUOUS
62
7
66
1
10
0.000
20
0.000
30
0.000
70
1
0
VERTEX
8
18
10
1212.220
20
199.000
30
0.000
42
1.00000000
0
VERTEX
8
18
10
1212.220
20
181.000
30
0.000
42
1.00000000
0
SEQEND
0
LINE
8
18
6
CONTINUOUS
62
7
39
1.000
10
1203.220
20
190.000
30
0.000
11
1221.220
21
190.000
31
0.000
0
LINE
8
18
6
CONTINUOUS
62
7
39
1.000
10
1212.220
20
181.000
30
0.000
11
1212.220
21
199.000
31
0.000
0
POLYLINE
8
18
6
CONTINUOUS
62
7
66
1
10
0.000
20
0.000
30
0.000
70
1
0
VERTEX
8
18
10
4004.220
20
119.000
30
0.000
42
1.00000000
0
VERTEX
8
18
10
4004.220
20
101.000
30
0.000
42
1.00000000
0
SEQEND
0
LINE
8
18
6
CONTINUOUS
62
7
39
1.000
10
3995.220
20
110.000
30
0.000
11
4013.220
21
110.000
31
0.000
0
LINE
8
18
6
CONTINUOUS
62
7
39
1.000
10
4004.220
20
101.000
30
0.000
11
4004.220
21
119.000
31
0.000
0
POLYLINE
8
18
6
CONTINUOUS
62
7
66
1
10
0.000
20
0.000
30
0.000
70
1
0
VERTEX
8
18
10
4004.220
20
199.000
30
0.000
42
1.00000000
0
VERTEX
8
18
10
4004.220
20
181.000
30
0.000
42
1.00000000
0
SEQEND
0
LINE
8
18
6
CONTINUOUS
62
7
39
1.000
10
3995.220
20
190.000
30
0.000
11
4013.220
21
190.000
31
0.000
0
LINE
8
18
6
CONTINUOUS
62
7
39
1.000
10
4004.220
20
181.000
30
0.000
11
4004.220
21
199.000
31
0.000
0
POLYLINE
8
18
6
CONTINUOUS
62
7
66
1
10
0.000
20
0.000
30
0.000
70
1
0
VERTEX
8
18
10
4084.220
20
119.000
30
0.000
42
1.00000000
0
VERTEX
8
18
10
4084.220
20
101.000
30
0.000
42
1.00000000
0
SEQEND
0
LINE
8
18
6
CONTINUOUS
62
7
39
1.000
10
4075.220
20
110.000
30
0.000
11
4093.220
21
110.000
31
0.000
0
LINE
8
18
6
CONTINUOUS
62
7
39
1.000
10
4084.220
20
101.000
30
0.000
11
4084.220
21
119.000
31
0.000
0
POLYLINE
8
18
6
CONTINUOUS
62
7
66
1
10
0.000
20
0.000
30
0.000
70
1
0
VERTEX
8
18
10
4084.220
20
199.000
30
0.000
42
1.00000000
0
VERTEX
8
18
10
4084.220
20
181.000
30
0.000
42
1.00000000
0
SEQEND
0
LINE
8
18
6
CONTINUOUS
62
7
39
1.000
10
4075.220
20
190.000
30
0.000
11
4093.220
21
190.000
31
0.000
0
LINE
8
18
6
CONTINUOUS
62
7
39
1.000
10
4084.220
20
181.000
30
0.000
11
4084.220
21
199.000
31
0.000
0
POLYLINE
8
18
6
CONTINUOUS
62
7
66
1
10
0.000
20
0.000
30
0.000
70
1
0
VERTEX
8
18
10
5440.590
20
119.000
30
0.000
42
1.00000000
0
VERTEX
8
18
10
5440.590
20
101.000
30
0.000
42
1.00000000
0
SEQEND
0
LINE
8
18
6
CONTINUOUS
62
7
39
1.000
10
5431.590
20
110.000
30
0.000
11
5449.590
21
110.000
31
0.000
0
LINE
8
18
6
CONTINUOUS
62
7
39
1.000
10
5440.590
20
101.000
30
0.000
11
5440.590
21
119.000
31
0.000
0
POLYLINE
8
18
6
CONTINUOUS
62
7
66
1
10
0.000
20
0.000
30
0.000
70
1
0
VERTEX
8
18
10
5440.590
20
199.000
30
0.000
42
1.00000000
0
VERTEX
8
18
10
5440.590
20
181.000
30
0.000
42
1.00000000
0
SEQEND
0
LINE
8
18
6
CONTINUOUS
62
7
39
1.000
10
5431.590
20
190.000
30
0.000
11
5449.590
21
190.000
31
0.000
0
LINE
8
18
6
CONTINUOUS
62
7
39
1.000
10
5440.590
20
181.000
30
0.000
11
5440.590
21
199.000
31
0.000
0
POLYLINE
8
18
6
CONTINUOUS
62
7
66
1
10
0.000
20
0.000
30
0.000
70
1
0
VERTEX
8
18
10
5520.590
20
119.000
30
0.000
42
1.00000000
0
VERTEX
8
18
10
5520.590
20
101.000
30
0.000
42
1.00000000
0
SEQEND
0
LINE
8
18
6
CONTINUOUS
62
7
39
1.000
10
5511.590
20
110.000
30
0.000
11
5529.590
21
110.000
31
0.000
0
LINE
8
18
6
CONTINUOUS
62
7
39
1.000
10
5520.590
20
101.000
30
0.000
11
5520.590
21
119.000
31
0.000
0
POLYLINE
8
18
6
CONTINUOUS
62
7
66
1
10
0.000
20
0.000
30
0.000
70
1
0
VERTEX
8
18
10
5520.590
20
199.000
30
0.000
42
1.00000000
0
VERTEX
8
18
10
5520.590
20
181.000
30
0.000
42
1.00000000
0
SEQEND
0
LINE
8
18
6
CONTINUOUS
62
7
39
1.000
10
5511.590
20
190.000
30
0.000
11
5529.590
21
190.000
31
0.000
0
LINE
8
18
6
CONTINUOUS
62
7
39
1.000
10
5520.590
20
181.000
30
0.000
11
5520.590
21
199.000
31
0.000
0
ENDSEC
0
EOF
